G04 #@! TF.FileFunction,Paste,Top*
%FSLAX46Y46*%
G04 Gerber Fmt 4.6, Leading zero omitted, Abs format (unit mm)*
G04 Created by KiCad (PCBNEW 4.0.2-stable) date 04/10/2017 18:39:22*
%MOMM*%
G01*
G04 APERTURE LIST*
%ADD10C,0.100000*%
%ADD11R,1.500000X1.250000*%
%ADD12R,1.250000X1.500000*%
%ADD13R,1.500000X1.300000*%
%ADD14R,1.300000X1.500000*%
%ADD15R,0.600000X1.550000*%
%ADD16R,3.800000X2.000000*%
%ADD17R,1.500000X2.000000*%
%ADD18R,1.200000X1.200000*%
%ADD19R,2.300000X1.200000*%
%ADD20R,1.600000X0.550000*%
%ADD21R,0.550000X1.600000*%
G04 APERTURE END LIST*
D10*
D11*
X148575000Y-133675000D03*
X146075000Y-133675000D03*
X146075000Y-136525000D03*
X148575000Y-136525000D03*
X165425000Y-137200000D03*
X167925000Y-137200000D03*
D12*
X103975000Y-123025000D03*
X103975000Y-125525000D03*
X101250000Y-71975000D03*
X101250000Y-74475000D03*
X140125000Y-137575000D03*
X140125000Y-135075000D03*
X140125000Y-139650000D03*
X140125000Y-142150000D03*
D11*
X85950000Y-81075000D03*
X88450000Y-81075000D03*
D13*
X98950000Y-125525000D03*
X101650000Y-125525000D03*
D14*
X101250000Y-68400000D03*
X101250000Y-65700000D03*
D13*
X95875000Y-81075000D03*
X98575000Y-81075000D03*
X177025000Y-129675000D03*
X174325000Y-129675000D03*
D15*
X103970000Y-134300000D03*
X105240000Y-134300000D03*
X106510000Y-134300000D03*
X107780000Y-134300000D03*
X107780000Y-128900000D03*
X106510000Y-128900000D03*
X105240000Y-128900000D03*
X103970000Y-128900000D03*
D16*
X92425000Y-68175000D03*
D17*
X92425000Y-74475000D03*
X94725000Y-74475000D03*
X90125000Y-74475000D03*
D18*
X96550000Y-125525000D03*
X96550000Y-123325000D03*
X101275000Y-63625000D03*
X101275000Y-61425000D03*
X98575000Y-83800000D03*
X98575000Y-86000000D03*
D13*
X167900000Y-129525000D03*
X165200000Y-129525000D03*
D14*
X159150000Y-120025000D03*
X159150000Y-122725000D03*
D19*
X142775000Y-137825000D03*
X142775000Y-139425000D03*
D20*
X152425000Y-131875000D03*
X152425000Y-132675000D03*
X152425000Y-133475000D03*
X152425000Y-134275000D03*
X152425000Y-135075000D03*
X152425000Y-135875000D03*
X152425000Y-136675000D03*
X152425000Y-137475000D03*
D21*
X153875000Y-138925000D03*
X154675000Y-138925000D03*
X155475000Y-138925000D03*
X156275000Y-138925000D03*
X157075000Y-138925000D03*
X157875000Y-138925000D03*
X158675000Y-138925000D03*
X159475000Y-138925000D03*
D20*
X160925000Y-137475000D03*
X160925000Y-136675000D03*
X160925000Y-135875000D03*
X160925000Y-135075000D03*
X160925000Y-134275000D03*
X160925000Y-133475000D03*
X160925000Y-132675000D03*
X160925000Y-131875000D03*
D21*
X159475000Y-130425000D03*
X158675000Y-130425000D03*
X157875000Y-130425000D03*
X157075000Y-130425000D03*
X156275000Y-130425000D03*
X155475000Y-130425000D03*
X154675000Y-130425000D03*
X153875000Y-130425000D03*
D14*
X143275000Y-57225000D03*
X143275000Y-59925000D03*
X143150000Y-72675000D03*
X143150000Y-75375000D03*
X143200000Y-88750000D03*
X143200000Y-91450000D03*
X143250000Y-104525000D03*
X143250000Y-107225000D03*
X107025000Y-57200000D03*
X107025000Y-59900000D03*
X107125000Y-72700000D03*
X107125000Y-75400000D03*
X106950000Y-88750000D03*
X106950000Y-91450000D03*
X107325000Y-104525000D03*
X107325000Y-107225000D03*
D11*
X173810000Y-122410000D03*
X171310000Y-122410000D03*
M02*
