G04 #@! TF.FileFunction,Legend,Bot*
%FSLAX46Y46*%
G04 Gerber Fmt 4.6, Leading zero omitted, Abs format (unit mm)*
G04 Created by KiCad (PCBNEW 4.0.2-stable) date 04/10/2017 19:59:22*
%MOMM*%
G01*
G04 APERTURE LIST*
%ADD10C,0.100000*%
%ADD11C,0.300000*%
G04 APERTURE END LIST*
D10*
D11*
X168241906Y-51874762D02*
X169194287Y-51874762D01*
X169289525Y-52827143D01*
X169194287Y-52731905D01*
X169003810Y-52636667D01*
X168527620Y-52636667D01*
X168337144Y-52731905D01*
X168241906Y-52827143D01*
X168146667Y-53017619D01*
X168146667Y-53493810D01*
X168241906Y-53684286D01*
X168337144Y-53779524D01*
X168527620Y-53874762D01*
X169003810Y-53874762D01*
X169194287Y-53779524D01*
X169289525Y-53684286D01*
X165765715Y-53874762D02*
X165765715Y-51874762D01*
X165289524Y-51874762D01*
X165003810Y-51970000D01*
X164813334Y-52160476D01*
X164718095Y-52350952D01*
X164622857Y-52731905D01*
X164622857Y-53017619D01*
X164718095Y-53398571D01*
X164813334Y-53589048D01*
X165003810Y-53779524D01*
X165289524Y-53874762D01*
X165765715Y-53874762D01*
X162622857Y-53684286D02*
X162718095Y-53779524D01*
X163003810Y-53874762D01*
X163194286Y-53874762D01*
X163480000Y-53779524D01*
X163670476Y-53589048D01*
X163765715Y-53398571D01*
X163860953Y-53017619D01*
X163860953Y-52731905D01*
X163765715Y-52350952D01*
X163670476Y-52160476D01*
X163480000Y-51970000D01*
X163194286Y-51874762D01*
X163003810Y-51874762D01*
X162718095Y-51970000D01*
X162622857Y-52065238D01*
X159099047Y-53684286D02*
X159194285Y-53779524D01*
X159480000Y-53874762D01*
X159670476Y-53874762D01*
X159956190Y-53779524D01*
X160146666Y-53589048D01*
X160241905Y-53398571D01*
X160337143Y-53017619D01*
X160337143Y-52731905D01*
X160241905Y-52350952D01*
X160146666Y-52160476D01*
X159956190Y-51970000D01*
X159670476Y-51874762D01*
X159480000Y-51874762D01*
X159194285Y-51970000D01*
X159099047Y-52065238D01*
X157860952Y-51874762D02*
X157480000Y-51874762D01*
X157289524Y-51970000D01*
X157099047Y-52160476D01*
X157003809Y-52541429D01*
X157003809Y-53208095D01*
X157099047Y-53589048D01*
X157289524Y-53779524D01*
X157480000Y-53874762D01*
X157860952Y-53874762D01*
X158051428Y-53779524D01*
X158241905Y-53589048D01*
X158337143Y-53208095D01*
X158337143Y-52541429D01*
X158241905Y-52160476D01*
X158051428Y-51970000D01*
X157860952Y-51874762D01*
X156146667Y-53874762D02*
X156146667Y-51874762D01*
X155003809Y-53874762D01*
X155003809Y-51874762D01*
X154337143Y-51874762D02*
X153194286Y-51874762D01*
X153765714Y-53874762D02*
X153765714Y-51874762D01*
X151384761Y-53874762D02*
X152051428Y-52922381D01*
X152527619Y-53874762D02*
X152527619Y-51874762D01*
X151765714Y-51874762D01*
X151575238Y-51970000D01*
X151479999Y-52065238D01*
X151384761Y-52255714D01*
X151384761Y-52541429D01*
X151479999Y-52731905D01*
X151575238Y-52827143D01*
X151765714Y-52922381D01*
X152527619Y-52922381D01*
X150146666Y-51874762D02*
X149765714Y-51874762D01*
X149575238Y-51970000D01*
X149384761Y-52160476D01*
X149289523Y-52541429D01*
X149289523Y-53208095D01*
X149384761Y-53589048D01*
X149575238Y-53779524D01*
X149765714Y-53874762D01*
X150146666Y-53874762D01*
X150337142Y-53779524D01*
X150527619Y-53589048D01*
X150622857Y-53208095D01*
X150622857Y-52541429D01*
X150527619Y-52160476D01*
X150337142Y-51970000D01*
X150146666Y-51874762D01*
X147480000Y-53874762D02*
X148432381Y-53874762D01*
X148432381Y-51874762D01*
M02*
