G04 #@! TF.FileFunction,Legend,Top*
%FSLAX46Y46*%
G04 Gerber Fmt 4.6, Leading zero omitted, Abs format (unit mm)*
G04 Created by KiCad (PCBNEW 4.0.2-stable) date 03/10/2017 15:04:02*
%MOMM*%
G01*
G04 APERTURE LIST*
%ADD10C,0.100000*%
%ADD11C,0.250000*%
%ADD12C,0.120000*%
%ADD13C,0.150000*%
G04 APERTURE END LIST*
D10*
D11*
X150475001Y-145675000D02*
X150379763Y-145627381D01*
X150236906Y-145627381D01*
X150094048Y-145675000D01*
X149998810Y-145770238D01*
X149951191Y-145865476D01*
X149903572Y-146055952D01*
X149903572Y-146198810D01*
X149951191Y-146389286D01*
X149998810Y-146484524D01*
X150094048Y-146579762D01*
X150236906Y-146627381D01*
X150332144Y-146627381D01*
X150475001Y-146579762D01*
X150522620Y-146532143D01*
X150522620Y-146198810D01*
X150332144Y-146198810D01*
X150951191Y-146627381D02*
X150951191Y-145627381D01*
X151332144Y-145627381D01*
X151427382Y-145675000D01*
X151475001Y-145722619D01*
X151522620Y-145817857D01*
X151522620Y-145960714D01*
X151475001Y-146055952D01*
X151427382Y-146103571D01*
X151332144Y-146151190D01*
X150951191Y-146151190D01*
X151951191Y-146627381D02*
X151951191Y-145627381D01*
X152617857Y-145627381D02*
X152808334Y-145627381D01*
X152903572Y-145675000D01*
X152998810Y-145770238D01*
X153046429Y-145960714D01*
X153046429Y-146294048D01*
X152998810Y-146484524D01*
X152903572Y-146579762D01*
X152808334Y-146627381D01*
X152617857Y-146627381D01*
X152522619Y-146579762D01*
X152427381Y-146484524D01*
X152379762Y-146294048D01*
X152379762Y-145960714D01*
X152427381Y-145770238D01*
X152522619Y-145675000D01*
X152617857Y-145627381D01*
X88263096Y-89550000D02*
X88167858Y-89502381D01*
X88025001Y-89502381D01*
X87882143Y-89550000D01*
X87786905Y-89645238D01*
X87739286Y-89740476D01*
X87691667Y-89930952D01*
X87691667Y-90073810D01*
X87739286Y-90264286D01*
X87786905Y-90359524D01*
X87882143Y-90454762D01*
X88025001Y-90502381D01*
X88120239Y-90502381D01*
X88263096Y-90454762D01*
X88310715Y-90407143D01*
X88310715Y-90073810D01*
X88120239Y-90073810D01*
X88739286Y-90502381D02*
X88739286Y-89502381D01*
X89310715Y-90502381D01*
X89310715Y-89502381D01*
X89786905Y-90502381D02*
X89786905Y-89502381D01*
X90025000Y-89502381D01*
X90167858Y-89550000D01*
X90263096Y-89645238D01*
X90310715Y-89740476D01*
X90358334Y-89930952D01*
X90358334Y-90073810D01*
X90310715Y-90264286D01*
X90263096Y-90359524D01*
X90167858Y-90454762D01*
X90025000Y-90502381D01*
X89786905Y-90502381D01*
X92434524Y-89502381D02*
X91958333Y-89502381D01*
X91910714Y-89978571D01*
X91958333Y-89930952D01*
X92053571Y-89883333D01*
X92291667Y-89883333D01*
X92386905Y-89930952D01*
X92434524Y-89978571D01*
X92482143Y-90073810D01*
X92482143Y-90311905D01*
X92434524Y-90407143D01*
X92386905Y-90454762D01*
X92291667Y-90502381D01*
X92053571Y-90502381D01*
X91958333Y-90454762D01*
X91910714Y-90407143D01*
X92767857Y-89502381D02*
X93101190Y-90502381D01*
X93434524Y-89502381D01*
X100827381Y-59926191D02*
X101827381Y-59592858D01*
X100827381Y-59259524D01*
X101922619Y-59164286D02*
X101922619Y-58402381D01*
X101303571Y-57830952D02*
X101303571Y-58164286D01*
X101827381Y-58164286D02*
X100827381Y-58164286D01*
X100827381Y-57688095D01*
X100827381Y-57307143D02*
X101636905Y-57307143D01*
X101732143Y-57259524D01*
X101779762Y-57211905D01*
X101827381Y-57116667D01*
X101827381Y-56926190D01*
X101779762Y-56830952D01*
X101732143Y-56783333D01*
X101636905Y-56735714D01*
X100827381Y-56735714D01*
X101303571Y-56259524D02*
X101303571Y-55926190D01*
X101827381Y-55783333D02*
X101827381Y-56259524D01*
X100827381Y-56259524D01*
X100827381Y-55783333D01*
X101827381Y-55354762D02*
X100827381Y-55354762D01*
X101827381Y-54783333D01*
X100827381Y-54783333D01*
X100827381Y-54450000D02*
X100827381Y-53878571D01*
X101827381Y-54164286D02*
X100827381Y-54164286D01*
X101303571Y-53545238D02*
X101303571Y-53211904D01*
X101827381Y-53069047D02*
X101827381Y-53545238D01*
X100827381Y-53545238D01*
X100827381Y-53069047D01*
X90025000Y-55361904D02*
X89977381Y-55457142D01*
X89977381Y-55599999D01*
X90025000Y-55742857D01*
X90120238Y-55838095D01*
X90215476Y-55885714D01*
X90405952Y-55933333D01*
X90548810Y-55933333D01*
X90739286Y-55885714D01*
X90834524Y-55838095D01*
X90929762Y-55742857D01*
X90977381Y-55599999D01*
X90977381Y-55504761D01*
X90929762Y-55361904D01*
X90882143Y-55314285D01*
X90548810Y-55314285D01*
X90548810Y-55504761D01*
X90977381Y-54885714D02*
X89977381Y-54885714D01*
X90977381Y-54314285D01*
X89977381Y-54314285D01*
X90977381Y-53838095D02*
X89977381Y-53838095D01*
X89977381Y-53600000D01*
X90025000Y-53457142D01*
X90120238Y-53361904D01*
X90215476Y-53314285D01*
X90405952Y-53266666D01*
X90548810Y-53266666D01*
X90739286Y-53314285D01*
X90834524Y-53361904D01*
X90929762Y-53457142D01*
X90977381Y-53600000D01*
X90977381Y-53838095D01*
X160285714Y-126254762D02*
X160428571Y-126302381D01*
X160666667Y-126302381D01*
X160761905Y-126254762D01*
X160809524Y-126207143D01*
X160857143Y-126111905D01*
X160857143Y-126016667D01*
X160809524Y-125921429D01*
X160761905Y-125873810D01*
X160666667Y-125826190D01*
X160476190Y-125778571D01*
X160380952Y-125730952D01*
X160333333Y-125683333D01*
X160285714Y-125588095D01*
X160285714Y-125492857D01*
X160333333Y-125397619D01*
X160380952Y-125350000D01*
X160476190Y-125302381D01*
X160714286Y-125302381D01*
X160857143Y-125350000D01*
X161285714Y-126302381D02*
X161285714Y-125302381D01*
X161523809Y-125302381D01*
X161666667Y-125350000D01*
X161761905Y-125445238D01*
X161809524Y-125540476D01*
X161857143Y-125730952D01*
X161857143Y-125873810D01*
X161809524Y-126064286D01*
X161761905Y-126159524D01*
X161666667Y-126254762D01*
X161523809Y-126302381D01*
X161285714Y-126302381D01*
X162238095Y-126016667D02*
X162714286Y-126016667D01*
X162142857Y-126302381D02*
X162476190Y-125302381D01*
X162809524Y-126302381D01*
X162559524Y-120454762D02*
X162702381Y-120502381D01*
X162940477Y-120502381D01*
X163035715Y-120454762D01*
X163083334Y-120407143D01*
X163130953Y-120311905D01*
X163130953Y-120216667D01*
X163083334Y-120121429D01*
X163035715Y-120073810D01*
X162940477Y-120026190D01*
X162750000Y-119978571D01*
X162654762Y-119930952D01*
X162607143Y-119883333D01*
X162559524Y-119788095D01*
X162559524Y-119692857D01*
X162607143Y-119597619D01*
X162654762Y-119550000D01*
X162750000Y-119502381D01*
X162988096Y-119502381D01*
X163130953Y-119550000D01*
X164130953Y-120407143D02*
X164083334Y-120454762D01*
X163940477Y-120502381D01*
X163845239Y-120502381D01*
X163702381Y-120454762D01*
X163607143Y-120359524D01*
X163559524Y-120264286D01*
X163511905Y-120073810D01*
X163511905Y-119930952D01*
X163559524Y-119740476D01*
X163607143Y-119645238D01*
X163702381Y-119550000D01*
X163845239Y-119502381D01*
X163940477Y-119502381D01*
X164083334Y-119550000D01*
X164130953Y-119597619D01*
X165035715Y-120502381D02*
X164559524Y-120502381D01*
X164559524Y-119502381D01*
X115752381Y-145128571D02*
X114752381Y-145128571D01*
X115371429Y-144652381D02*
X115371429Y-143890476D01*
X115847619Y-143652381D02*
X115847619Y-142890476D01*
X115704762Y-142700000D02*
X115752381Y-142557143D01*
X115752381Y-142319047D01*
X115704762Y-142223809D01*
X115657143Y-142176190D01*
X115561905Y-142128571D01*
X115466667Y-142128571D01*
X115371429Y-142176190D01*
X115323810Y-142223809D01*
X115276190Y-142319047D01*
X115228571Y-142509524D01*
X115180952Y-142604762D01*
X115133333Y-142652381D01*
X115038095Y-142700000D01*
X114942857Y-142700000D01*
X114847619Y-142652381D01*
X114800000Y-142604762D01*
X114752381Y-142509524D01*
X114752381Y-142271428D01*
X114800000Y-142128571D01*
X115228571Y-141700000D02*
X115228571Y-141366666D01*
X115752381Y-141223809D02*
X115752381Y-141700000D01*
X114752381Y-141700000D01*
X114752381Y-141223809D01*
X115752381Y-140795238D02*
X114752381Y-140795238D01*
X115752381Y-140223809D01*
X114752381Y-140223809D01*
X115704762Y-139795238D02*
X115752381Y-139652381D01*
X115752381Y-139414285D01*
X115704762Y-139319047D01*
X115657143Y-139271428D01*
X115561905Y-139223809D01*
X115466667Y-139223809D01*
X115371429Y-139271428D01*
X115323810Y-139319047D01*
X115276190Y-139414285D01*
X115228571Y-139604762D01*
X115180952Y-139700000D01*
X115133333Y-139747619D01*
X115038095Y-139795238D01*
X114942857Y-139795238D01*
X114847619Y-139747619D01*
X114800000Y-139700000D01*
X114752381Y-139604762D01*
X114752381Y-139366666D01*
X114800000Y-139223809D01*
X96627381Y-145203571D02*
X95627381Y-145203571D01*
X96246429Y-144727381D02*
X96246429Y-143965476D01*
X96627381Y-144346428D02*
X95865476Y-144346428D01*
X96722619Y-143727381D02*
X96722619Y-142965476D01*
X96579762Y-142775000D02*
X96627381Y-142632143D01*
X96627381Y-142394047D01*
X96579762Y-142298809D01*
X96532143Y-142251190D01*
X96436905Y-142203571D01*
X96341667Y-142203571D01*
X96246429Y-142251190D01*
X96198810Y-142298809D01*
X96151190Y-142394047D01*
X96103571Y-142584524D01*
X96055952Y-142679762D01*
X96008333Y-142727381D01*
X95913095Y-142775000D01*
X95817857Y-142775000D01*
X95722619Y-142727381D01*
X95675000Y-142679762D01*
X95627381Y-142584524D01*
X95627381Y-142346428D01*
X95675000Y-142203571D01*
X96103571Y-141775000D02*
X96103571Y-141441666D01*
X96627381Y-141298809D02*
X96627381Y-141775000D01*
X95627381Y-141775000D01*
X95627381Y-141298809D01*
X96627381Y-140870238D02*
X95627381Y-140870238D01*
X96627381Y-140298809D01*
X95627381Y-140298809D01*
X96579762Y-139870238D02*
X96627381Y-139727381D01*
X96627381Y-139489285D01*
X96579762Y-139394047D01*
X96532143Y-139346428D01*
X96436905Y-139298809D01*
X96341667Y-139298809D01*
X96246429Y-139346428D01*
X96198810Y-139394047D01*
X96151190Y-139489285D01*
X96103571Y-139679762D01*
X96055952Y-139775000D01*
X96008333Y-139822619D01*
X95913095Y-139870238D01*
X95817857Y-139870238D01*
X95722619Y-139822619D01*
X95675000Y-139775000D01*
X95627381Y-139679762D01*
X95627381Y-139441666D01*
X95675000Y-139298809D01*
X176013096Y-111775000D02*
X175917858Y-111727381D01*
X175775001Y-111727381D01*
X175632143Y-111775000D01*
X175536905Y-111870238D01*
X175489286Y-111965476D01*
X175441667Y-112155952D01*
X175441667Y-112298810D01*
X175489286Y-112489286D01*
X175536905Y-112584524D01*
X175632143Y-112679762D01*
X175775001Y-112727381D01*
X175870239Y-112727381D01*
X176013096Y-112679762D01*
X176060715Y-112632143D01*
X176060715Y-112298810D01*
X175870239Y-112298810D01*
X176489286Y-112727381D02*
X176489286Y-111727381D01*
X177060715Y-112727381D01*
X177060715Y-111727381D01*
X177536905Y-112727381D02*
X177536905Y-111727381D01*
X177775000Y-111727381D01*
X177917858Y-111775000D01*
X178013096Y-111870238D01*
X178060715Y-111965476D01*
X178108334Y-112155952D01*
X178108334Y-112298810D01*
X178060715Y-112489286D01*
X178013096Y-112584524D01*
X177917858Y-112679762D01*
X177775000Y-112727381D01*
X177536905Y-112727381D01*
X173013095Y-116502381D02*
X173584524Y-116502381D01*
X173298809Y-117502381D02*
X173298809Y-116502381D01*
X173822619Y-116502381D02*
X174489286Y-117502381D01*
X174489286Y-116502381D02*
X173822619Y-117502381D01*
X173633334Y-120077381D02*
X173300000Y-119601190D01*
X173061905Y-120077381D02*
X173061905Y-119077381D01*
X173442858Y-119077381D01*
X173538096Y-119125000D01*
X173585715Y-119172619D01*
X173633334Y-119267857D01*
X173633334Y-119410714D01*
X173585715Y-119505952D01*
X173538096Y-119553571D01*
X173442858Y-119601190D01*
X173061905Y-119601190D01*
X173966667Y-119077381D02*
X174633334Y-120077381D01*
X174633334Y-119077381D02*
X173966667Y-120077381D01*
X170997619Y-126727381D02*
X170664285Y-126251190D01*
X170426190Y-126727381D02*
X170426190Y-125727381D01*
X170807143Y-125727381D01*
X170902381Y-125775000D01*
X170950000Y-125822619D01*
X170997619Y-125917857D01*
X170997619Y-126060714D01*
X170950000Y-126155952D01*
X170902381Y-126203571D01*
X170807143Y-126251190D01*
X170426190Y-126251190D01*
X171426190Y-126203571D02*
X171759524Y-126203571D01*
X171902381Y-126727381D02*
X171426190Y-126727381D01*
X171426190Y-125727381D01*
X171902381Y-125727381D01*
X172283333Y-126679762D02*
X172426190Y-126727381D01*
X172664286Y-126727381D01*
X172759524Y-126679762D01*
X172807143Y-126632143D01*
X172854762Y-126536905D01*
X172854762Y-126441667D01*
X172807143Y-126346429D01*
X172759524Y-126298810D01*
X172664286Y-126251190D01*
X172473809Y-126203571D01*
X172378571Y-126155952D01*
X172330952Y-126108333D01*
X172283333Y-126013095D01*
X172283333Y-125917857D01*
X172330952Y-125822619D01*
X172378571Y-125775000D01*
X172473809Y-125727381D01*
X172711905Y-125727381D01*
X172854762Y-125775000D01*
X173283333Y-126203571D02*
X173616667Y-126203571D01*
X173759524Y-126727381D02*
X173283333Y-126727381D01*
X173283333Y-125727381D01*
X173759524Y-125727381D01*
X174045238Y-125727381D02*
X174616667Y-125727381D01*
X174330952Y-126727381D02*
X174330952Y-125727381D01*
X177179762Y-144010714D02*
X177227381Y-143867857D01*
X177227381Y-143629761D01*
X177179762Y-143534523D01*
X177132143Y-143486904D01*
X177036905Y-143439285D01*
X176941667Y-143439285D01*
X176846429Y-143486904D01*
X176798810Y-143534523D01*
X176751190Y-143629761D01*
X176703571Y-143820238D01*
X176655952Y-143915476D01*
X176608333Y-143963095D01*
X176513095Y-144010714D01*
X176417857Y-144010714D01*
X176322619Y-143963095D01*
X176275000Y-143915476D01*
X176227381Y-143820238D01*
X176227381Y-143582142D01*
X176275000Y-143439285D01*
X177132143Y-142439285D02*
X177179762Y-142486904D01*
X177227381Y-142629761D01*
X177227381Y-142724999D01*
X177179762Y-142867857D01*
X177084524Y-142963095D01*
X176989286Y-143010714D01*
X176798810Y-143058333D01*
X176655952Y-143058333D01*
X176465476Y-143010714D01*
X176370238Y-142963095D01*
X176275000Y-142867857D01*
X176227381Y-142724999D01*
X176227381Y-142629761D01*
X176275000Y-142486904D01*
X176322619Y-142439285D01*
X177227381Y-142010714D02*
X176227381Y-142010714D01*
X177227381Y-141439285D02*
X176655952Y-141867857D01*
X176227381Y-141439285D02*
X176798810Y-142010714D01*
X174254762Y-144014286D02*
X174302381Y-143871429D01*
X174302381Y-143633333D01*
X174254762Y-143538095D01*
X174207143Y-143490476D01*
X174111905Y-143442857D01*
X174016667Y-143442857D01*
X173921429Y-143490476D01*
X173873810Y-143538095D01*
X173826190Y-143633333D01*
X173778571Y-143823810D01*
X173730952Y-143919048D01*
X173683333Y-143966667D01*
X173588095Y-144014286D01*
X173492857Y-144014286D01*
X173397619Y-143966667D01*
X173350000Y-143919048D01*
X173302381Y-143823810D01*
X173302381Y-143585714D01*
X173350000Y-143442857D01*
X174302381Y-143014286D02*
X173302381Y-143014286D01*
X173302381Y-142776191D01*
X173350000Y-142633333D01*
X173445238Y-142538095D01*
X173540476Y-142490476D01*
X173730952Y-142442857D01*
X173873810Y-142442857D01*
X174064286Y-142490476D01*
X174159524Y-142538095D01*
X174254762Y-142633333D01*
X174302381Y-142776191D01*
X174302381Y-143014286D01*
X174016667Y-142061905D02*
X174016667Y-141585714D01*
X174302381Y-142157143D02*
X173302381Y-141823810D01*
X174302381Y-141490476D01*
X167654762Y-143935714D02*
X167702381Y-143792857D01*
X167702381Y-143554761D01*
X167654762Y-143459523D01*
X167607143Y-143411904D01*
X167511905Y-143364285D01*
X167416667Y-143364285D01*
X167321429Y-143411904D01*
X167273810Y-143459523D01*
X167226190Y-143554761D01*
X167178571Y-143745238D01*
X167130952Y-143840476D01*
X167083333Y-143888095D01*
X166988095Y-143935714D01*
X166892857Y-143935714D01*
X166797619Y-143888095D01*
X166750000Y-143840476D01*
X166702381Y-143745238D01*
X166702381Y-143507142D01*
X166750000Y-143364285D01*
X167607143Y-142364285D02*
X167654762Y-142411904D01*
X167702381Y-142554761D01*
X167702381Y-142649999D01*
X167654762Y-142792857D01*
X167559524Y-142888095D01*
X167464286Y-142935714D01*
X167273810Y-142983333D01*
X167130952Y-142983333D01*
X166940476Y-142935714D01*
X166845238Y-142888095D01*
X166750000Y-142792857D01*
X166702381Y-142649999D01*
X166702381Y-142554761D01*
X166750000Y-142411904D01*
X166797619Y-142364285D01*
X167702381Y-141935714D02*
X166702381Y-141935714D01*
X167702381Y-141364285D02*
X167130952Y-141792857D01*
X166702381Y-141364285D02*
X167273810Y-141935714D01*
X165027381Y-144021428D02*
X164027381Y-144021428D01*
X164741667Y-143688094D01*
X164027381Y-143354761D01*
X165027381Y-143354761D01*
X165027381Y-142878571D02*
X164027381Y-142878571D01*
X164979762Y-142450000D02*
X165027381Y-142307143D01*
X165027381Y-142069047D01*
X164979762Y-141973809D01*
X164932143Y-141926190D01*
X164836905Y-141878571D01*
X164741667Y-141878571D01*
X164646429Y-141926190D01*
X164598810Y-141973809D01*
X164551190Y-142069047D01*
X164503571Y-142259524D01*
X164455952Y-142354762D01*
X164408333Y-142402381D01*
X164313095Y-142450000D01*
X164217857Y-142450000D01*
X164122619Y-142402381D01*
X164075000Y-142354762D01*
X164027381Y-142259524D01*
X164027381Y-142021428D01*
X164075000Y-141878571D01*
X164027381Y-141259524D02*
X164027381Y-141069047D01*
X164075000Y-140973809D01*
X164170238Y-140878571D01*
X164360714Y-140830952D01*
X164694048Y-140830952D01*
X164884524Y-140878571D01*
X164979762Y-140973809D01*
X165027381Y-141069047D01*
X165027381Y-141259524D01*
X164979762Y-141354762D01*
X164884524Y-141450000D01*
X164694048Y-141497619D01*
X164360714Y-141497619D01*
X164170238Y-141450000D01*
X164075000Y-141354762D01*
X164027381Y-141259524D01*
X162502381Y-144046428D02*
X161502381Y-144046428D01*
X162216667Y-143713094D01*
X161502381Y-143379761D01*
X162502381Y-143379761D01*
X161502381Y-142713095D02*
X161502381Y-142522618D01*
X161550000Y-142427380D01*
X161645238Y-142332142D01*
X161835714Y-142284523D01*
X162169048Y-142284523D01*
X162359524Y-142332142D01*
X162454762Y-142427380D01*
X162502381Y-142522618D01*
X162502381Y-142713095D01*
X162454762Y-142808333D01*
X162359524Y-142903571D01*
X162169048Y-142951190D01*
X161835714Y-142951190D01*
X161645238Y-142903571D01*
X161550000Y-142808333D01*
X161502381Y-142713095D01*
X162454762Y-141903571D02*
X162502381Y-141760714D01*
X162502381Y-141522618D01*
X162454762Y-141427380D01*
X162407143Y-141379761D01*
X162311905Y-141332142D01*
X162216667Y-141332142D01*
X162121429Y-141379761D01*
X162073810Y-141427380D01*
X162026190Y-141522618D01*
X161978571Y-141713095D01*
X161930952Y-141808333D01*
X161883333Y-141855952D01*
X161788095Y-141903571D01*
X161692857Y-141903571D01*
X161597619Y-141855952D01*
X161550000Y-141808333D01*
X161502381Y-141713095D01*
X161502381Y-141474999D01*
X161550000Y-141332142D01*
X162502381Y-140903571D02*
X161502381Y-140903571D01*
X160004762Y-143886905D02*
X160052381Y-143744048D01*
X160052381Y-143505952D01*
X160004762Y-143410714D01*
X159957143Y-143363095D01*
X159861905Y-143315476D01*
X159766667Y-143315476D01*
X159671429Y-143363095D01*
X159623810Y-143410714D01*
X159576190Y-143505952D01*
X159528571Y-143696429D01*
X159480952Y-143791667D01*
X159433333Y-143839286D01*
X159338095Y-143886905D01*
X159242857Y-143886905D01*
X159147619Y-143839286D01*
X159100000Y-143791667D01*
X159052381Y-143696429D01*
X159052381Y-143458333D01*
X159100000Y-143315476D01*
X160004762Y-142934524D02*
X160052381Y-142791667D01*
X160052381Y-142553571D01*
X160004762Y-142458333D01*
X159957143Y-142410714D01*
X159861905Y-142363095D01*
X159766667Y-142363095D01*
X159671429Y-142410714D01*
X159623810Y-142458333D01*
X159576190Y-142553571D01*
X159528571Y-142744048D01*
X159480952Y-142839286D01*
X159433333Y-142886905D01*
X159338095Y-142934524D01*
X159242857Y-142934524D01*
X159147619Y-142886905D01*
X159100000Y-142839286D01*
X159052381Y-142744048D01*
X159052381Y-142505952D01*
X159100000Y-142363095D01*
X158880000Y-144077381D02*
X158880000Y-142172619D01*
D12*
X146825000Y-134525000D02*
X147825000Y-134525000D01*
X147825000Y-132825000D02*
X146825000Y-132825000D01*
X147825000Y-135675000D02*
X146825000Y-135675000D01*
X146825000Y-137375000D02*
X147825000Y-137375000D01*
X167175000Y-136350000D02*
X166175000Y-136350000D01*
X166175000Y-138050000D02*
X167175000Y-138050000D01*
X104825000Y-124775000D02*
X104825000Y-123775000D01*
X103125000Y-123775000D02*
X103125000Y-124775000D01*
X102100000Y-73725000D02*
X102100000Y-72725000D01*
X100400000Y-72725000D02*
X100400000Y-73725000D01*
X139275000Y-135825000D02*
X139275000Y-136825000D01*
X140975000Y-136825000D02*
X140975000Y-135825000D01*
X140975000Y-141400000D02*
X140975000Y-140400000D01*
X139275000Y-140400000D02*
X139275000Y-141400000D01*
X87700000Y-80225000D02*
X86700000Y-80225000D01*
X86700000Y-81925000D02*
X87700000Y-81925000D01*
X163880000Y-125020000D02*
X163880000Y-127680000D01*
X166480000Y-125020000D02*
X163880000Y-125020000D01*
X166480000Y-127680000D02*
X163880000Y-127680000D01*
X166480000Y-125020000D02*
X166480000Y-127680000D01*
X167750000Y-125020000D02*
X169080000Y-125020000D01*
X169080000Y-125020000D02*
X169080000Y-126350000D01*
X160930000Y-121395000D02*
X160930000Y-124055000D01*
X163530000Y-121395000D02*
X160930000Y-121395000D01*
X163530000Y-124055000D02*
X160930000Y-124055000D01*
X163530000Y-121395000D02*
X163530000Y-124055000D01*
X164800000Y-121395000D02*
X166130000Y-121395000D01*
X166130000Y-121395000D02*
X166130000Y-122725000D01*
D13*
X134671140Y-62150320D02*
X134671140Y-62698960D01*
X134671140Y-62698960D02*
X141828860Y-62698960D01*
X141828860Y-62698960D02*
X141828860Y-62150320D01*
X141828860Y-54929100D02*
X141828860Y-51949680D01*
X141828860Y-51949680D02*
X134671140Y-51949680D01*
X134671140Y-59229320D02*
X134671140Y-62150320D01*
X134671140Y-62150320D02*
X141828860Y-62150320D01*
X141828860Y-62150320D02*
X141828860Y-59170900D01*
X134671140Y-51949680D02*
X134671140Y-54929100D01*
X105228860Y-137824680D02*
X105228860Y-137276040D01*
X105228860Y-137276040D02*
X98071140Y-137276040D01*
X98071140Y-137276040D02*
X98071140Y-137824680D01*
X98071140Y-145045900D02*
X98071140Y-148025320D01*
X98071140Y-148025320D02*
X105228860Y-148025320D01*
X105228860Y-140745680D02*
X105228860Y-137824680D01*
X105228860Y-137824680D02*
X98071140Y-137824680D01*
X98071140Y-137824680D02*
X98071140Y-140804100D01*
X105228860Y-148025320D02*
X105228860Y-145045900D01*
X113978860Y-137824680D02*
X113978860Y-137276040D01*
X113978860Y-137276040D02*
X106821140Y-137276040D01*
X106821140Y-137276040D02*
X106821140Y-137824680D01*
X106821140Y-145045900D02*
X106821140Y-148025320D01*
X106821140Y-148025320D02*
X113978860Y-148025320D01*
X113978860Y-140745680D02*
X113978860Y-137824680D01*
X113978860Y-137824680D02*
X106821140Y-137824680D01*
X106821140Y-137824680D02*
X106821140Y-140804100D01*
X113978860Y-148025320D02*
X113978860Y-145045900D01*
X99503860Y-53599680D02*
X99503860Y-53051040D01*
X99503860Y-53051040D02*
X92346140Y-53051040D01*
X92346140Y-53051040D02*
X92346140Y-53599680D01*
X92346140Y-60820900D02*
X92346140Y-63800320D01*
X92346140Y-63800320D02*
X99503860Y-63800320D01*
X99503860Y-56520680D02*
X99503860Y-53599680D01*
X99503860Y-53599680D02*
X92346140Y-53599680D01*
X92346140Y-53599680D02*
X92346140Y-56579100D01*
X99503860Y-63800320D02*
X99503860Y-60820900D01*
D12*
X178030000Y-118605000D02*
X178030000Y-113465000D01*
X178030000Y-113465000D02*
X175370000Y-113465000D01*
X175370000Y-113465000D02*
X175370000Y-118605000D01*
X175370000Y-118605000D02*
X178030000Y-118605000D01*
X178030000Y-119875000D02*
X178030000Y-121205000D01*
X178030000Y-121205000D02*
X176700000Y-121205000D01*
X160870000Y-147530000D02*
X168550000Y-147530000D01*
X168550000Y-147530000D02*
X168550000Y-144870000D01*
X168550000Y-144870000D02*
X160870000Y-144870000D01*
X160870000Y-144870000D02*
X160870000Y-147530000D01*
X159600000Y-147530000D02*
X158270000Y-147530000D01*
X158270000Y-147530000D02*
X158270000Y-146200000D01*
X87470000Y-88545000D02*
X87470000Y-88605000D01*
X87470000Y-88605000D02*
X90130000Y-88605000D01*
X90130000Y-88605000D02*
X90130000Y-88545000D01*
X90130000Y-88545000D02*
X87470000Y-88545000D01*
X87470000Y-87275000D02*
X87470000Y-85945000D01*
X87470000Y-85945000D02*
X88800000Y-85945000D01*
X175370000Y-127720000D02*
X175370000Y-127780000D01*
X175370000Y-127780000D02*
X178030000Y-127780000D01*
X178030000Y-127780000D02*
X178030000Y-127720000D01*
X178030000Y-127720000D02*
X175370000Y-127720000D01*
X175370000Y-126450000D02*
X175370000Y-125120000D01*
X175370000Y-125120000D02*
X176700000Y-125120000D01*
X147808320Y-61103520D02*
X158048320Y-61103520D01*
X147808320Y-65744520D02*
X158048320Y-65744520D01*
X147808320Y-61103520D02*
X147808320Y-65744520D01*
X158048320Y-61103520D02*
X158048320Y-65744520D01*
X147808320Y-62613520D02*
X158048320Y-62613520D01*
X151078320Y-61103520D02*
X151078320Y-62613520D01*
X154779320Y-61103520D02*
X154779320Y-62613520D01*
X147793080Y-76561960D02*
X158033080Y-76561960D01*
X147793080Y-81202960D02*
X158033080Y-81202960D01*
X147793080Y-76561960D02*
X147793080Y-81202960D01*
X158033080Y-76561960D02*
X158033080Y-81202960D01*
X147793080Y-78071960D02*
X158033080Y-78071960D01*
X151063080Y-76561960D02*
X151063080Y-78071960D01*
X154764080Y-76561960D02*
X154764080Y-78071960D01*
X147845000Y-92655000D02*
X158085000Y-92655000D01*
X147845000Y-97296000D02*
X158085000Y-97296000D01*
X147845000Y-92655000D02*
X147845000Y-97296000D01*
X158085000Y-92655000D02*
X158085000Y-97296000D01*
X147845000Y-94165000D02*
X158085000Y-94165000D01*
X151115000Y-92655000D02*
X151115000Y-94165000D01*
X154816000Y-92655000D02*
X154816000Y-94165000D01*
X147845000Y-108430000D02*
X158085000Y-108430000D01*
X147845000Y-113071000D02*
X158085000Y-113071000D01*
X147845000Y-108430000D02*
X147845000Y-113071000D01*
X158085000Y-108430000D02*
X158085000Y-113071000D01*
X147845000Y-109940000D02*
X158085000Y-109940000D01*
X151115000Y-108430000D02*
X151115000Y-109940000D01*
X154816000Y-108430000D02*
X154816000Y-109940000D01*
X112120000Y-61105000D02*
X122360000Y-61105000D01*
X112120000Y-65746000D02*
X122360000Y-65746000D01*
X112120000Y-61105000D02*
X112120000Y-65746000D01*
X122360000Y-61105000D02*
X122360000Y-65746000D01*
X112120000Y-62615000D02*
X122360000Y-62615000D01*
X115390000Y-61105000D02*
X115390000Y-62615000D01*
X119091000Y-61105000D02*
X119091000Y-62615000D01*
X158857320Y-61103520D02*
X169097320Y-61103520D01*
X158857320Y-65744520D02*
X169097320Y-65744520D01*
X158857320Y-61103520D02*
X158857320Y-65744520D01*
X169097320Y-61103520D02*
X169097320Y-65744520D01*
X158857320Y-62613520D02*
X169097320Y-62613520D01*
X162127320Y-61103520D02*
X162127320Y-62613520D01*
X165828320Y-61103520D02*
X165828320Y-62613520D01*
X158857320Y-76561960D02*
X169097320Y-76561960D01*
X158857320Y-81202960D02*
X169097320Y-81202960D01*
X158857320Y-76561960D02*
X158857320Y-81202960D01*
X169097320Y-76561960D02*
X169097320Y-81202960D01*
X158857320Y-78071960D02*
X169097320Y-78071960D01*
X162127320Y-76561960D02*
X162127320Y-78071960D01*
X165828320Y-76561960D02*
X165828320Y-78071960D01*
X158845000Y-92655000D02*
X169085000Y-92655000D01*
X158845000Y-97296000D02*
X169085000Y-97296000D01*
X158845000Y-92655000D02*
X158845000Y-97296000D01*
X169085000Y-92655000D02*
X169085000Y-97296000D01*
X158845000Y-94165000D02*
X169085000Y-94165000D01*
X162115000Y-92655000D02*
X162115000Y-94165000D01*
X165816000Y-92655000D02*
X165816000Y-94165000D01*
X158845000Y-108430000D02*
X169085000Y-108430000D01*
X158845000Y-113071000D02*
X169085000Y-113071000D01*
X158845000Y-108430000D02*
X158845000Y-113071000D01*
X169085000Y-108430000D02*
X169085000Y-113071000D01*
X158845000Y-109940000D02*
X169085000Y-109940000D01*
X162115000Y-108430000D02*
X162115000Y-109940000D01*
X165816000Y-108430000D02*
X165816000Y-109940000D01*
X123170000Y-61130000D02*
X133410000Y-61130000D01*
X123170000Y-65771000D02*
X133410000Y-65771000D01*
X123170000Y-61130000D02*
X123170000Y-65771000D01*
X133410000Y-61130000D02*
X133410000Y-65771000D01*
X123170000Y-62640000D02*
X133410000Y-62640000D01*
X126440000Y-61130000D02*
X126440000Y-62640000D01*
X130141000Y-61130000D02*
X130141000Y-62640000D01*
X112120000Y-76561960D02*
X122360000Y-76561960D01*
X112120000Y-81202960D02*
X122360000Y-81202960D01*
X112120000Y-76561960D02*
X112120000Y-81202960D01*
X122360000Y-76561960D02*
X122360000Y-81202960D01*
X112120000Y-78071960D02*
X122360000Y-78071960D01*
X115390000Y-76561960D02*
X115390000Y-78071960D01*
X119091000Y-76561960D02*
X119091000Y-78071960D01*
X112120000Y-92655000D02*
X122360000Y-92655000D01*
X112120000Y-97296000D02*
X122360000Y-97296000D01*
X112120000Y-92655000D02*
X112120000Y-97296000D01*
X122360000Y-92655000D02*
X122360000Y-97296000D01*
X112120000Y-94165000D02*
X122360000Y-94165000D01*
X115390000Y-92655000D02*
X115390000Y-94165000D01*
X119091000Y-92655000D02*
X119091000Y-94165000D01*
X112120000Y-108430000D02*
X122360000Y-108430000D01*
X112120000Y-113071000D02*
X122360000Y-113071000D01*
X112120000Y-108430000D02*
X112120000Y-113071000D01*
X122360000Y-108430000D02*
X122360000Y-113071000D01*
X112120000Y-109940000D02*
X122360000Y-109940000D01*
X115390000Y-108430000D02*
X115390000Y-109940000D01*
X119091000Y-108430000D02*
X119091000Y-109940000D01*
X123170000Y-76561960D02*
X133410000Y-76561960D01*
X123170000Y-81202960D02*
X133410000Y-81202960D01*
X123170000Y-76561960D02*
X123170000Y-81202960D01*
X133410000Y-76561960D02*
X133410000Y-81202960D01*
X123170000Y-78071960D02*
X133410000Y-78071960D01*
X126440000Y-76561960D02*
X126440000Y-78071960D01*
X130141000Y-76561960D02*
X130141000Y-78071960D01*
X123170000Y-92655000D02*
X133410000Y-92655000D01*
X123170000Y-97296000D02*
X133410000Y-97296000D01*
X123170000Y-92655000D02*
X123170000Y-97296000D01*
X133410000Y-92655000D02*
X133410000Y-97296000D01*
X123170000Y-94165000D02*
X133410000Y-94165000D01*
X126440000Y-92655000D02*
X126440000Y-94165000D01*
X130141000Y-92655000D02*
X130141000Y-94165000D01*
X123170000Y-108430000D02*
X133410000Y-108430000D01*
X123170000Y-113071000D02*
X133410000Y-113071000D01*
X123170000Y-108430000D02*
X123170000Y-113071000D01*
X133410000Y-108430000D02*
X133410000Y-113071000D01*
X123170000Y-109940000D02*
X133410000Y-109940000D01*
X126440000Y-108430000D02*
X126440000Y-109940000D01*
X130141000Y-108430000D02*
X130141000Y-109940000D01*
X145031900Y-64238580D02*
X144701900Y-64238580D01*
X144701900Y-64238580D02*
X144701900Y-57818580D01*
X144701900Y-57818580D02*
X145031900Y-57818580D01*
X146991900Y-64238580D02*
X147321900Y-64238580D01*
X147321900Y-64238580D02*
X147321900Y-57818580D01*
X147321900Y-57818580D02*
X146991900Y-57818580D01*
X145011580Y-79691940D02*
X144681580Y-79691940D01*
X144681580Y-79691940D02*
X144681580Y-73271940D01*
X144681580Y-73271940D02*
X145011580Y-73271940D01*
X146971580Y-79691940D02*
X147301580Y-79691940D01*
X147301580Y-79691940D02*
X147301580Y-73271940D01*
X147301580Y-73271940D02*
X146971580Y-73271940D01*
X145070000Y-95775000D02*
X144740000Y-95775000D01*
X144740000Y-95775000D02*
X144740000Y-89355000D01*
X144740000Y-89355000D02*
X145070000Y-89355000D01*
X147030000Y-95775000D02*
X147360000Y-95775000D01*
X147360000Y-95775000D02*
X147360000Y-89355000D01*
X147360000Y-89355000D02*
X147030000Y-89355000D01*
X145020000Y-111550000D02*
X144690000Y-111550000D01*
X144690000Y-111550000D02*
X144690000Y-105130000D01*
X144690000Y-105130000D02*
X145020000Y-105130000D01*
X146980000Y-111550000D02*
X147310000Y-111550000D01*
X147310000Y-111550000D02*
X147310000Y-105130000D01*
X147310000Y-105130000D02*
X146980000Y-105130000D01*
X109345000Y-64225000D02*
X109015000Y-64225000D01*
X109015000Y-64225000D02*
X109015000Y-57805000D01*
X109015000Y-57805000D02*
X109345000Y-57805000D01*
X111305000Y-64225000D02*
X111635000Y-64225000D01*
X111635000Y-64225000D02*
X111635000Y-57805000D01*
X111635000Y-57805000D02*
X111305000Y-57805000D01*
X157631840Y-56656800D02*
X157631840Y-56986800D01*
X157631840Y-56986800D02*
X151211840Y-56986800D01*
X151211840Y-56986800D02*
X151211840Y-56656800D01*
X157631840Y-54696800D02*
X157631840Y-54366800D01*
X157631840Y-54366800D02*
X151211840Y-54366800D01*
X151211840Y-54366800D02*
X151211840Y-54696800D01*
X157725000Y-72230000D02*
X157725000Y-72560000D01*
X157725000Y-72560000D02*
X151305000Y-72560000D01*
X151305000Y-72560000D02*
X151305000Y-72230000D01*
X157725000Y-70270000D02*
X157725000Y-69940000D01*
X157725000Y-69940000D02*
X151305000Y-69940000D01*
X151305000Y-69940000D02*
X151305000Y-70270000D01*
X157525000Y-88155000D02*
X157525000Y-88485000D01*
X157525000Y-88485000D02*
X151105000Y-88485000D01*
X151105000Y-88485000D02*
X151105000Y-88155000D01*
X157525000Y-86195000D02*
X157525000Y-85865000D01*
X157525000Y-85865000D02*
X151105000Y-85865000D01*
X151105000Y-85865000D02*
X151105000Y-86195000D01*
X157475000Y-103930000D02*
X157475000Y-104260000D01*
X157475000Y-104260000D02*
X151055000Y-104260000D01*
X151055000Y-104260000D02*
X151055000Y-103930000D01*
X157475000Y-101970000D02*
X157475000Y-101640000D01*
X157475000Y-101640000D02*
X151055000Y-101640000D01*
X151055000Y-101640000D02*
X151055000Y-101970000D01*
X122050000Y-56655000D02*
X122050000Y-56985000D01*
X122050000Y-56985000D02*
X115630000Y-56985000D01*
X115630000Y-56985000D02*
X115630000Y-56655000D01*
X122050000Y-54695000D02*
X122050000Y-54365000D01*
X122050000Y-54365000D02*
X115630000Y-54365000D01*
X115630000Y-54365000D02*
X115630000Y-54695000D01*
X156149600Y-58008960D02*
X156149600Y-57678960D01*
X156149600Y-57678960D02*
X162569600Y-57678960D01*
X162569600Y-57678960D02*
X162569600Y-58008960D01*
X156149600Y-59968960D02*
X156149600Y-60298960D01*
X156149600Y-60298960D02*
X162569600Y-60298960D01*
X162569600Y-60298960D02*
X162569600Y-59968960D01*
X156149600Y-73720000D02*
X156149600Y-73390000D01*
X156149600Y-73390000D02*
X162569600Y-73390000D01*
X162569600Y-73390000D02*
X162569600Y-73720000D01*
X156149600Y-75680000D02*
X156149600Y-76010000D01*
X156149600Y-76010000D02*
X162569600Y-76010000D01*
X162569600Y-76010000D02*
X162569600Y-75680000D01*
X156199600Y-89670000D02*
X156199600Y-89340000D01*
X156199600Y-89340000D02*
X162619600Y-89340000D01*
X162619600Y-89340000D02*
X162619600Y-89670000D01*
X156199600Y-91630000D02*
X156199600Y-91960000D01*
X156199600Y-91960000D02*
X162619600Y-91960000D01*
X162619600Y-91960000D02*
X162619600Y-91630000D01*
X156100000Y-105420000D02*
X156100000Y-105090000D01*
X156100000Y-105090000D02*
X162520000Y-105090000D01*
X162520000Y-105090000D02*
X162520000Y-105420000D01*
X156100000Y-107380000D02*
X156100000Y-107710000D01*
X156100000Y-107710000D02*
X162520000Y-107710000D01*
X162520000Y-107710000D02*
X162520000Y-107380000D01*
X120225000Y-58145000D02*
X120225000Y-57815000D01*
X120225000Y-57815000D02*
X126645000Y-57815000D01*
X126645000Y-57815000D02*
X126645000Y-58145000D01*
X120225000Y-60105000D02*
X120225000Y-60435000D01*
X120225000Y-60435000D02*
X126645000Y-60435000D01*
X126645000Y-60435000D02*
X126645000Y-60105000D01*
X161636000Y-54696800D02*
X161636000Y-54366800D01*
X161636000Y-54366800D02*
X168056000Y-54366800D01*
X168056000Y-54366800D02*
X168056000Y-54696800D01*
X161636000Y-56656800D02*
X161636000Y-56986800D01*
X161636000Y-56986800D02*
X168056000Y-56986800D01*
X168056000Y-56986800D02*
X168056000Y-56656800D01*
X161425000Y-70270000D02*
X161425000Y-69940000D01*
X161425000Y-69940000D02*
X167845000Y-69940000D01*
X167845000Y-69940000D02*
X167845000Y-70270000D01*
X161425000Y-72230000D02*
X161425000Y-72560000D01*
X161425000Y-72560000D02*
X167845000Y-72560000D01*
X167845000Y-72560000D02*
X167845000Y-72230000D01*
X161175000Y-86195000D02*
X161175000Y-85865000D01*
X161175000Y-85865000D02*
X167595000Y-85865000D01*
X167595000Y-85865000D02*
X167595000Y-86195000D01*
X161175000Y-88155000D02*
X161175000Y-88485000D01*
X161175000Y-88485000D02*
X167595000Y-88485000D01*
X167595000Y-88485000D02*
X167595000Y-88155000D01*
X161175000Y-101970000D02*
X161175000Y-101640000D01*
X161175000Y-101640000D02*
X167595000Y-101640000D01*
X167595000Y-101640000D02*
X167595000Y-101970000D01*
X161175000Y-103930000D02*
X161175000Y-104260000D01*
X161175000Y-104260000D02*
X167595000Y-104260000D01*
X167595000Y-104260000D02*
X167595000Y-103930000D01*
X125950000Y-54695000D02*
X125950000Y-54365000D01*
X125950000Y-54365000D02*
X132370000Y-54365000D01*
X132370000Y-54365000D02*
X132370000Y-54695000D01*
X125950000Y-56655000D02*
X125950000Y-56985000D01*
X125950000Y-56985000D02*
X132370000Y-56985000D01*
X132370000Y-56985000D02*
X132370000Y-56655000D01*
X164575000Y-66720000D02*
X164575000Y-66390000D01*
X164575000Y-66390000D02*
X170995000Y-66390000D01*
X170995000Y-66390000D02*
X170995000Y-66720000D01*
X164575000Y-68680000D02*
X164575000Y-69010000D01*
X164575000Y-69010000D02*
X170995000Y-69010000D01*
X170995000Y-69010000D02*
X170995000Y-68680000D01*
X164575000Y-82170000D02*
X164575000Y-81840000D01*
X164575000Y-81840000D02*
X170995000Y-81840000D01*
X170995000Y-81840000D02*
X170995000Y-82170000D01*
X164575000Y-84130000D02*
X164575000Y-84460000D01*
X164575000Y-84460000D02*
X170995000Y-84460000D01*
X170995000Y-84460000D02*
X170995000Y-84130000D01*
X164575000Y-98095000D02*
X164575000Y-97765000D01*
X164575000Y-97765000D02*
X170995000Y-97765000D01*
X170995000Y-97765000D02*
X170995000Y-98095000D01*
X164575000Y-100055000D02*
X164575000Y-100385000D01*
X164575000Y-100385000D02*
X170995000Y-100385000D01*
X170995000Y-100385000D02*
X170995000Y-100055000D01*
X164575000Y-113945000D02*
X164575000Y-113615000D01*
X164575000Y-113615000D02*
X170995000Y-113615000D01*
X170995000Y-113615000D02*
X170995000Y-113945000D01*
X164575000Y-115905000D02*
X164575000Y-116235000D01*
X164575000Y-116235000D02*
X170995000Y-116235000D01*
X170995000Y-116235000D02*
X170995000Y-115905000D01*
X128900000Y-66620000D02*
X128900000Y-66290000D01*
X128900000Y-66290000D02*
X135320000Y-66290000D01*
X135320000Y-66290000D02*
X135320000Y-66620000D01*
X128900000Y-68580000D02*
X128900000Y-68910000D01*
X128900000Y-68910000D02*
X135320000Y-68910000D01*
X135320000Y-68910000D02*
X135320000Y-68580000D01*
X109345000Y-79700000D02*
X109015000Y-79700000D01*
X109015000Y-79700000D02*
X109015000Y-73280000D01*
X109015000Y-73280000D02*
X109345000Y-73280000D01*
X111305000Y-79700000D02*
X111635000Y-79700000D01*
X111635000Y-79700000D02*
X111635000Y-73280000D01*
X111635000Y-73280000D02*
X111305000Y-73280000D01*
X109320000Y-95775000D02*
X108990000Y-95775000D01*
X108990000Y-95775000D02*
X108990000Y-89355000D01*
X108990000Y-89355000D02*
X109320000Y-89355000D01*
X111280000Y-95775000D02*
X111610000Y-95775000D01*
X111610000Y-95775000D02*
X111610000Y-89355000D01*
X111610000Y-89355000D02*
X111280000Y-89355000D01*
X109345000Y-111550000D02*
X109015000Y-111550000D01*
X109015000Y-111550000D02*
X109015000Y-105130000D01*
X109015000Y-105130000D02*
X109345000Y-105130000D01*
X111305000Y-111550000D02*
X111635000Y-111550000D01*
X111635000Y-111550000D02*
X111635000Y-105130000D01*
X111635000Y-105130000D02*
X111305000Y-105130000D01*
X122050000Y-72055000D02*
X122050000Y-72385000D01*
X122050000Y-72385000D02*
X115630000Y-72385000D01*
X115630000Y-72385000D02*
X115630000Y-72055000D01*
X122050000Y-70095000D02*
X122050000Y-69765000D01*
X122050000Y-69765000D02*
X115630000Y-69765000D01*
X115630000Y-69765000D02*
X115630000Y-70095000D01*
X122050000Y-88155000D02*
X122050000Y-88485000D01*
X122050000Y-88485000D02*
X115630000Y-88485000D01*
X115630000Y-88485000D02*
X115630000Y-88155000D01*
X122050000Y-86195000D02*
X122050000Y-85865000D01*
X122050000Y-85865000D02*
X115630000Y-85865000D01*
X115630000Y-85865000D02*
X115630000Y-86195000D01*
X122050000Y-103930000D02*
X122050000Y-104260000D01*
X122050000Y-104260000D02*
X115630000Y-104260000D01*
X115630000Y-104260000D02*
X115630000Y-103930000D01*
X122050000Y-101970000D02*
X122050000Y-101640000D01*
X122050000Y-101640000D02*
X115630000Y-101640000D01*
X115630000Y-101640000D02*
X115630000Y-101970000D01*
X120225000Y-73545000D02*
X120225000Y-73215000D01*
X120225000Y-73215000D02*
X126645000Y-73215000D01*
X126645000Y-73215000D02*
X126645000Y-73545000D01*
X120225000Y-75505000D02*
X120225000Y-75835000D01*
X120225000Y-75835000D02*
X126645000Y-75835000D01*
X126645000Y-75835000D02*
X126645000Y-75505000D01*
X120225000Y-89670000D02*
X120225000Y-89340000D01*
X120225000Y-89340000D02*
X126645000Y-89340000D01*
X126645000Y-89340000D02*
X126645000Y-89670000D01*
X120225000Y-91630000D02*
X120225000Y-91960000D01*
X120225000Y-91960000D02*
X126645000Y-91960000D01*
X126645000Y-91960000D02*
X126645000Y-91630000D01*
X120225000Y-105420000D02*
X120225000Y-105090000D01*
X120225000Y-105090000D02*
X126645000Y-105090000D01*
X126645000Y-105090000D02*
X126645000Y-105420000D01*
X120225000Y-107380000D02*
X120225000Y-107710000D01*
X120225000Y-107710000D02*
X126645000Y-107710000D01*
X126645000Y-107710000D02*
X126645000Y-107380000D01*
X125950000Y-70095000D02*
X125950000Y-69765000D01*
X125950000Y-69765000D02*
X132370000Y-69765000D01*
X132370000Y-69765000D02*
X132370000Y-70095000D01*
X125950000Y-72055000D02*
X125950000Y-72385000D01*
X125950000Y-72385000D02*
X132370000Y-72385000D01*
X132370000Y-72385000D02*
X132370000Y-72055000D01*
X125950000Y-86195000D02*
X125950000Y-85865000D01*
X125950000Y-85865000D02*
X132370000Y-85865000D01*
X132370000Y-85865000D02*
X132370000Y-86195000D01*
X125950000Y-88155000D02*
X125950000Y-88485000D01*
X125950000Y-88485000D02*
X132370000Y-88485000D01*
X132370000Y-88485000D02*
X132370000Y-88155000D01*
X125950000Y-101970000D02*
X125950000Y-101640000D01*
X125950000Y-101640000D02*
X132370000Y-101640000D01*
X132370000Y-101640000D02*
X132370000Y-101970000D01*
X125950000Y-103930000D02*
X125950000Y-104260000D01*
X125950000Y-104260000D02*
X132370000Y-104260000D01*
X132370000Y-104260000D02*
X132370000Y-103930000D01*
X128900000Y-82095000D02*
X128900000Y-81765000D01*
X128900000Y-81765000D02*
X135320000Y-81765000D01*
X135320000Y-81765000D02*
X135320000Y-82095000D01*
X128900000Y-84055000D02*
X128900000Y-84385000D01*
X128900000Y-84385000D02*
X135320000Y-84385000D01*
X135320000Y-84385000D02*
X135320000Y-84055000D01*
X128900000Y-98195000D02*
X128900000Y-97865000D01*
X128900000Y-97865000D02*
X135320000Y-97865000D01*
X135320000Y-97865000D02*
X135320000Y-98195000D01*
X128900000Y-100155000D02*
X128900000Y-100485000D01*
X128900000Y-100485000D02*
X135320000Y-100485000D01*
X135320000Y-100485000D02*
X135320000Y-100155000D01*
X128900000Y-113945000D02*
X128900000Y-113615000D01*
X128900000Y-113615000D02*
X135320000Y-113615000D01*
X135320000Y-113615000D02*
X135320000Y-113945000D01*
X128900000Y-115905000D02*
X128900000Y-116235000D01*
X128900000Y-116235000D02*
X135320000Y-116235000D01*
X135320000Y-116235000D02*
X135320000Y-115905000D01*
X100900000Y-126405000D02*
X99700000Y-126405000D01*
X99700000Y-124645000D02*
X100900000Y-124645000D01*
X102130000Y-66450000D02*
X102130000Y-67650000D01*
X100370000Y-67650000D02*
X100370000Y-66450000D01*
X97825000Y-81955000D02*
X96625000Y-81955000D01*
X96625000Y-80195000D02*
X97825000Y-80195000D01*
X175075000Y-128795000D02*
X176275000Y-128795000D01*
X176275000Y-130555000D02*
X175075000Y-130555000D01*
D13*
X103300000Y-133675000D02*
X103350000Y-133675000D01*
X103300000Y-129525000D02*
X103445000Y-129525000D01*
X108450000Y-129525000D02*
X108305000Y-129525000D01*
X108450000Y-133675000D02*
X108305000Y-133675000D01*
X103300000Y-133675000D02*
X103300000Y-129525000D01*
X108450000Y-133675000D02*
X108450000Y-129525000D01*
X103350000Y-133675000D02*
X103350000Y-135075000D01*
D12*
X95835000Y-69415000D02*
X94575000Y-69415000D01*
X89015000Y-69415000D02*
X90275000Y-69415000D01*
X95835000Y-73175000D02*
X95835000Y-69415000D01*
X89015000Y-75425000D02*
X89015000Y-69415000D01*
X97250000Y-122625000D02*
X95850000Y-122625000D01*
X95850000Y-122625000D02*
X95850000Y-125425000D01*
X97250000Y-122625000D02*
X97250000Y-125425000D01*
X101975000Y-60725000D02*
X100575000Y-60725000D01*
X100575000Y-60725000D02*
X100575000Y-63525000D01*
X101975000Y-60725000D02*
X101975000Y-63525000D01*
X97875000Y-86700000D02*
X99275000Y-86700000D01*
X99275000Y-86700000D02*
X99275000Y-83900000D01*
X97875000Y-86700000D02*
X97875000Y-83900000D01*
X93755000Y-83405000D02*
X91095000Y-83405000D01*
X93755000Y-86005000D02*
X93755000Y-83405000D01*
X91095000Y-86005000D02*
X91095000Y-83405000D01*
X93755000Y-86005000D02*
X91095000Y-86005000D01*
X93755000Y-87275000D02*
X93755000Y-88605000D01*
X93755000Y-88605000D02*
X92425000Y-88605000D01*
X165950000Y-128645000D02*
X167150000Y-128645000D01*
X167150000Y-130405000D02*
X165950000Y-130405000D01*
X158270000Y-121975000D02*
X158270000Y-120775000D01*
X160030000Y-120775000D02*
X160030000Y-121975000D01*
X107365000Y-123240000D02*
X112485000Y-123240000D01*
X107365000Y-125860000D02*
X112485000Y-125860000D01*
X107365000Y-123240000D02*
X107365000Y-125860000D01*
X112485000Y-123240000D02*
X112485000Y-125860000D01*
X142300000Y-65280000D02*
X142300000Y-65610000D01*
X142300000Y-65610000D02*
X135880000Y-65610000D01*
X135880000Y-65610000D02*
X135880000Y-65280000D01*
X142300000Y-63320000D02*
X142300000Y-62990000D01*
X142300000Y-62990000D02*
X135880000Y-62990000D01*
X135880000Y-62990000D02*
X135880000Y-63320000D01*
X143575000Y-138075000D02*
X143575000Y-139175000D01*
X141975000Y-138075000D02*
X141975000Y-139175000D01*
D13*
X153050000Y-131050000D02*
X153050000Y-131275000D01*
X160300000Y-131050000D02*
X160300000Y-131375000D01*
X160300000Y-138300000D02*
X160300000Y-137975000D01*
X153050000Y-138300000D02*
X153050000Y-137975000D01*
X153050000Y-131050000D02*
X153375000Y-131050000D01*
X153050000Y-138300000D02*
X153375000Y-138300000D01*
X160300000Y-138300000D02*
X159975000Y-138300000D01*
X160300000Y-131050000D02*
X159975000Y-131050000D01*
X153050000Y-131275000D02*
X151625000Y-131275000D01*
D12*
X142395000Y-59175000D02*
X142395000Y-57975000D01*
X144155000Y-57975000D02*
X144155000Y-59175000D01*
X142270000Y-74625000D02*
X142270000Y-73425000D01*
X144030000Y-73425000D02*
X144030000Y-74625000D01*
X142320000Y-90700000D02*
X142320000Y-89500000D01*
X144080000Y-89500000D02*
X144080000Y-90700000D01*
X142370000Y-106475000D02*
X142370000Y-105275000D01*
X144130000Y-105275000D02*
X144130000Y-106475000D01*
X106145000Y-59150000D02*
X106145000Y-57950000D01*
X107905000Y-57950000D02*
X107905000Y-59150000D01*
X106245000Y-74650000D02*
X106245000Y-73450000D01*
X108005000Y-73450000D02*
X108005000Y-74650000D01*
X106070000Y-90700000D02*
X106070000Y-89500000D01*
X107830000Y-89500000D02*
X107830000Y-90700000D01*
X106445000Y-106475000D02*
X106445000Y-105275000D01*
X108205000Y-105275000D02*
X108205000Y-106475000D01*
X144045000Y-147530000D02*
X149185000Y-147530000D01*
X149185000Y-147530000D02*
X149185000Y-144870000D01*
X149185000Y-144870000D02*
X144045000Y-144870000D01*
X144045000Y-144870000D02*
X144045000Y-147530000D01*
X142775000Y-147530000D02*
X141445000Y-147530000D01*
X141445000Y-147530000D02*
X141445000Y-146200000D01*
X177930000Y-135620000D02*
X177930000Y-140760000D01*
X177930000Y-140760000D02*
X172730000Y-140760000D01*
X172730000Y-140760000D02*
X172730000Y-133020000D01*
X172730000Y-133020000D02*
X175330000Y-133020000D01*
X175330000Y-133020000D02*
X175330000Y-135620000D01*
X175330000Y-135620000D02*
X177930000Y-135620000D01*
X177930000Y-134350000D02*
X177930000Y-133020000D01*
X177930000Y-133020000D02*
X176660000Y-133020000D01*
D13*
X147158334Y-132532143D02*
X147110715Y-132579762D01*
X146967858Y-132627381D01*
X146872620Y-132627381D01*
X146729762Y-132579762D01*
X146634524Y-132484524D01*
X146586905Y-132389286D01*
X146539286Y-132198810D01*
X146539286Y-132055952D01*
X146586905Y-131865476D01*
X146634524Y-131770238D01*
X146729762Y-131675000D01*
X146872620Y-131627381D01*
X146967858Y-131627381D01*
X147110715Y-131675000D01*
X147158334Y-131722619D01*
X148110715Y-132627381D02*
X147539286Y-132627381D01*
X147825000Y-132627381D02*
X147825000Y-131627381D01*
X147729762Y-131770238D01*
X147634524Y-131865476D01*
X147539286Y-131913095D01*
X147158334Y-138557143D02*
X147110715Y-138604762D01*
X146967858Y-138652381D01*
X146872620Y-138652381D01*
X146729762Y-138604762D01*
X146634524Y-138509524D01*
X146586905Y-138414286D01*
X146539286Y-138223810D01*
X146539286Y-138080952D01*
X146586905Y-137890476D01*
X146634524Y-137795238D01*
X146729762Y-137700000D01*
X146872620Y-137652381D01*
X146967858Y-137652381D01*
X147110715Y-137700000D01*
X147158334Y-137747619D01*
X147539286Y-137747619D02*
X147586905Y-137700000D01*
X147682143Y-137652381D01*
X147920239Y-137652381D01*
X148015477Y-137700000D01*
X148063096Y-137747619D01*
X148110715Y-137842857D01*
X148110715Y-137938095D01*
X148063096Y-138080952D01*
X147491667Y-138652381D01*
X148110715Y-138652381D01*
X166508334Y-135807143D02*
X166460715Y-135854762D01*
X166317858Y-135902381D01*
X166222620Y-135902381D01*
X166079762Y-135854762D01*
X165984524Y-135759524D01*
X165936905Y-135664286D01*
X165889286Y-135473810D01*
X165889286Y-135330952D01*
X165936905Y-135140476D01*
X165984524Y-135045238D01*
X166079762Y-134950000D01*
X166222620Y-134902381D01*
X166317858Y-134902381D01*
X166460715Y-134950000D01*
X166508334Y-134997619D01*
X166841667Y-134902381D02*
X167460715Y-134902381D01*
X167127381Y-135283333D01*
X167270239Y-135283333D01*
X167365477Y-135330952D01*
X167413096Y-135378571D01*
X167460715Y-135473810D01*
X167460715Y-135711905D01*
X167413096Y-135807143D01*
X167365477Y-135854762D01*
X167270239Y-135902381D01*
X166984524Y-135902381D01*
X166889286Y-135854762D01*
X166841667Y-135807143D01*
X105658334Y-126357143D02*
X105610715Y-126404762D01*
X105467858Y-126452381D01*
X105372620Y-126452381D01*
X105229762Y-126404762D01*
X105134524Y-126309524D01*
X105086905Y-126214286D01*
X105039286Y-126023810D01*
X105039286Y-125880952D01*
X105086905Y-125690476D01*
X105134524Y-125595238D01*
X105229762Y-125500000D01*
X105372620Y-125452381D01*
X105467858Y-125452381D01*
X105610715Y-125500000D01*
X105658334Y-125547619D01*
X106563096Y-125452381D02*
X106086905Y-125452381D01*
X106039286Y-125928571D01*
X106086905Y-125880952D01*
X106182143Y-125833333D01*
X106420239Y-125833333D01*
X106515477Y-125880952D01*
X106563096Y-125928571D01*
X106610715Y-126023810D01*
X106610715Y-126261905D01*
X106563096Y-126357143D01*
X106515477Y-126404762D01*
X106420239Y-126452381D01*
X106182143Y-126452381D01*
X106086905Y-126404762D01*
X106039286Y-126357143D01*
X103058334Y-71932143D02*
X103010715Y-71979762D01*
X102867858Y-72027381D01*
X102772620Y-72027381D01*
X102629762Y-71979762D01*
X102534524Y-71884524D01*
X102486905Y-71789286D01*
X102439286Y-71598810D01*
X102439286Y-71455952D01*
X102486905Y-71265476D01*
X102534524Y-71170238D01*
X102629762Y-71075000D01*
X102772620Y-71027381D01*
X102867858Y-71027381D01*
X103010715Y-71075000D01*
X103058334Y-71122619D01*
X103915477Y-71027381D02*
X103725000Y-71027381D01*
X103629762Y-71075000D01*
X103582143Y-71122619D01*
X103486905Y-71265476D01*
X103439286Y-71455952D01*
X103439286Y-71836905D01*
X103486905Y-71932143D01*
X103534524Y-71979762D01*
X103629762Y-72027381D01*
X103820239Y-72027381D01*
X103915477Y-71979762D01*
X103963096Y-71932143D01*
X104010715Y-71836905D01*
X104010715Y-71598810D01*
X103963096Y-71503571D01*
X103915477Y-71455952D01*
X103820239Y-71408333D01*
X103629762Y-71408333D01*
X103534524Y-71455952D01*
X103486905Y-71503571D01*
X103439286Y-71598810D01*
X141833334Y-135082143D02*
X141785715Y-135129762D01*
X141642858Y-135177381D01*
X141547620Y-135177381D01*
X141404762Y-135129762D01*
X141309524Y-135034524D01*
X141261905Y-134939286D01*
X141214286Y-134748810D01*
X141214286Y-134605952D01*
X141261905Y-134415476D01*
X141309524Y-134320238D01*
X141404762Y-134225000D01*
X141547620Y-134177381D01*
X141642858Y-134177381D01*
X141785715Y-134225000D01*
X141833334Y-134272619D01*
X142166667Y-134177381D02*
X142833334Y-134177381D01*
X142404762Y-135177381D01*
X141783334Y-143007143D02*
X141735715Y-143054762D01*
X141592858Y-143102381D01*
X141497620Y-143102381D01*
X141354762Y-143054762D01*
X141259524Y-142959524D01*
X141211905Y-142864286D01*
X141164286Y-142673810D01*
X141164286Y-142530952D01*
X141211905Y-142340476D01*
X141259524Y-142245238D01*
X141354762Y-142150000D01*
X141497620Y-142102381D01*
X141592858Y-142102381D01*
X141735715Y-142150000D01*
X141783334Y-142197619D01*
X142354762Y-142530952D02*
X142259524Y-142483333D01*
X142211905Y-142435714D01*
X142164286Y-142340476D01*
X142164286Y-142292857D01*
X142211905Y-142197619D01*
X142259524Y-142150000D01*
X142354762Y-142102381D01*
X142545239Y-142102381D01*
X142640477Y-142150000D01*
X142688096Y-142197619D01*
X142735715Y-142292857D01*
X142735715Y-142340476D01*
X142688096Y-142435714D01*
X142640477Y-142483333D01*
X142545239Y-142530952D01*
X142354762Y-142530952D01*
X142259524Y-142578571D01*
X142211905Y-142626190D01*
X142164286Y-142721429D01*
X142164286Y-142911905D01*
X142211905Y-143007143D01*
X142259524Y-143054762D01*
X142354762Y-143102381D01*
X142545239Y-143102381D01*
X142640477Y-143054762D01*
X142688096Y-143007143D01*
X142735715Y-142911905D01*
X142735715Y-142721429D01*
X142688096Y-142626190D01*
X142640477Y-142578571D01*
X142545239Y-142530952D01*
X87033334Y-79682143D02*
X86985715Y-79729762D01*
X86842858Y-79777381D01*
X86747620Y-79777381D01*
X86604762Y-79729762D01*
X86509524Y-79634524D01*
X86461905Y-79539286D01*
X86414286Y-79348810D01*
X86414286Y-79205952D01*
X86461905Y-79015476D01*
X86509524Y-78920238D01*
X86604762Y-78825000D01*
X86747620Y-78777381D01*
X86842858Y-78777381D01*
X86985715Y-78825000D01*
X87033334Y-78872619D01*
X87509524Y-79777381D02*
X87700000Y-79777381D01*
X87795239Y-79729762D01*
X87842858Y-79682143D01*
X87938096Y-79539286D01*
X87985715Y-79348810D01*
X87985715Y-78967857D01*
X87938096Y-78872619D01*
X87890477Y-78825000D01*
X87795239Y-78777381D01*
X87604762Y-78777381D01*
X87509524Y-78825000D01*
X87461905Y-78872619D01*
X87414286Y-78967857D01*
X87414286Y-79205952D01*
X87461905Y-79301190D01*
X87509524Y-79348810D01*
X87604762Y-79396429D01*
X87795239Y-79396429D01*
X87890477Y-79348810D01*
X87938096Y-79301190D01*
X87985715Y-79205952D01*
X170141667Y-127002381D02*
X170141667Y-127716667D01*
X170094047Y-127859524D01*
X169998809Y-127954762D01*
X169855952Y-128002381D01*
X169760714Y-128002381D01*
X171141667Y-128002381D02*
X170570238Y-128002381D01*
X170855952Y-128002381D02*
X170855952Y-127002381D01*
X170760714Y-127145238D01*
X170665476Y-127240476D01*
X170570238Y-127288095D01*
X167241667Y-122177381D02*
X167241667Y-122891667D01*
X167194047Y-123034524D01*
X167098809Y-123129762D01*
X166955952Y-123177381D01*
X166860714Y-123177381D01*
X167670238Y-122272619D02*
X167717857Y-122225000D01*
X167813095Y-122177381D01*
X168051191Y-122177381D01*
X168146429Y-122225000D01*
X168194048Y-122272619D01*
X168241667Y-122367857D01*
X168241667Y-122463095D01*
X168194048Y-122605952D01*
X167622619Y-123177381D01*
X168241667Y-123177381D01*
X142361905Y-52927381D02*
X142361905Y-51927381D01*
X142742858Y-51927381D01*
X142838096Y-51975000D01*
X142885715Y-52022619D01*
X142933334Y-52117857D01*
X142933334Y-52260714D01*
X142885715Y-52355952D01*
X142838096Y-52403571D01*
X142742858Y-52451190D01*
X142361905Y-52451190D01*
X143885715Y-52927381D02*
X143314286Y-52927381D01*
X143600000Y-52927381D02*
X143600000Y-51927381D01*
X143504762Y-52070238D01*
X143409524Y-52165476D01*
X143314286Y-52213095D01*
X100911905Y-135757381D02*
X100911905Y-134757381D01*
X101292858Y-134757381D01*
X101388096Y-134805000D01*
X101435715Y-134852619D01*
X101483334Y-134947857D01*
X101483334Y-135090714D01*
X101435715Y-135185952D01*
X101388096Y-135233571D01*
X101292858Y-135281190D01*
X100911905Y-135281190D01*
X101864286Y-134852619D02*
X101911905Y-134805000D01*
X102007143Y-134757381D01*
X102245239Y-134757381D01*
X102340477Y-134805000D01*
X102388096Y-134852619D01*
X102435715Y-134947857D01*
X102435715Y-135043095D01*
X102388096Y-135185952D01*
X101816667Y-135757381D01*
X102435715Y-135757381D01*
X109661905Y-135757381D02*
X109661905Y-134757381D01*
X110042858Y-134757381D01*
X110138096Y-134805000D01*
X110185715Y-134852619D01*
X110233334Y-134947857D01*
X110233334Y-135090714D01*
X110185715Y-135185952D01*
X110138096Y-135233571D01*
X110042858Y-135281190D01*
X109661905Y-135281190D01*
X110566667Y-134757381D02*
X111185715Y-134757381D01*
X110852381Y-135138333D01*
X110995239Y-135138333D01*
X111090477Y-135185952D01*
X111138096Y-135233571D01*
X111185715Y-135328810D01*
X111185715Y-135566905D01*
X111138096Y-135662143D01*
X111090477Y-135709762D01*
X110995239Y-135757381D01*
X110709524Y-135757381D01*
X110614286Y-135709762D01*
X110566667Y-135662143D01*
X95186905Y-52577381D02*
X95186905Y-51577381D01*
X95567858Y-51577381D01*
X95663096Y-51625000D01*
X95710715Y-51672619D01*
X95758334Y-51767857D01*
X95758334Y-51910714D01*
X95710715Y-52005952D01*
X95663096Y-52053571D01*
X95567858Y-52101190D01*
X95186905Y-52101190D01*
X96615477Y-51910714D02*
X96615477Y-52577381D01*
X96377381Y-51529762D02*
X96139286Y-52244048D01*
X96758334Y-52244048D01*
X176011905Y-122727381D02*
X176011905Y-121727381D01*
X176392858Y-121727381D01*
X176488096Y-121775000D01*
X176535715Y-121822619D01*
X176583334Y-121917857D01*
X176583334Y-122060714D01*
X176535715Y-122155952D01*
X176488096Y-122203571D01*
X176392858Y-122251190D01*
X176011905Y-122251190D01*
X177488096Y-121727381D02*
X177011905Y-121727381D01*
X176964286Y-122203571D01*
X177011905Y-122155952D01*
X177107143Y-122108333D01*
X177345239Y-122108333D01*
X177440477Y-122155952D01*
X177488096Y-122203571D01*
X177535715Y-122298810D01*
X177535715Y-122536905D01*
X177488096Y-122632143D01*
X177440477Y-122679762D01*
X177345239Y-122727381D01*
X177107143Y-122727381D01*
X177011905Y-122679762D01*
X176964286Y-122632143D01*
X156161905Y-146602381D02*
X156161905Y-145602381D01*
X156542858Y-145602381D01*
X156638096Y-145650000D01*
X156685715Y-145697619D01*
X156733334Y-145792857D01*
X156733334Y-145935714D01*
X156685715Y-146030952D01*
X156638096Y-146078571D01*
X156542858Y-146126190D01*
X156161905Y-146126190D01*
X157066667Y-145602381D02*
X157733334Y-145602381D01*
X157304762Y-146602381D01*
X87386905Y-85227381D02*
X87386905Y-84227381D01*
X87767858Y-84227381D01*
X87863096Y-84275000D01*
X87910715Y-84322619D01*
X87958334Y-84417857D01*
X87958334Y-84560714D01*
X87910715Y-84655952D01*
X87863096Y-84703571D01*
X87767858Y-84751190D01*
X87386905Y-84751190D01*
X88529762Y-84655952D02*
X88434524Y-84608333D01*
X88386905Y-84560714D01*
X88339286Y-84465476D01*
X88339286Y-84417857D01*
X88386905Y-84322619D01*
X88434524Y-84275000D01*
X88529762Y-84227381D01*
X88720239Y-84227381D01*
X88815477Y-84275000D01*
X88863096Y-84322619D01*
X88910715Y-84417857D01*
X88910715Y-84465476D01*
X88863096Y-84560714D01*
X88815477Y-84608333D01*
X88720239Y-84655952D01*
X88529762Y-84655952D01*
X88434524Y-84703571D01*
X88386905Y-84751190D01*
X88339286Y-84846429D01*
X88339286Y-85036905D01*
X88386905Y-85132143D01*
X88434524Y-85179762D01*
X88529762Y-85227381D01*
X88720239Y-85227381D01*
X88815477Y-85179762D01*
X88863096Y-85132143D01*
X88910715Y-85036905D01*
X88910715Y-84846429D01*
X88863096Y-84751190D01*
X88815477Y-84703571D01*
X88720239Y-84655952D01*
X175961905Y-124572381D02*
X175961905Y-123572381D01*
X176342858Y-123572381D01*
X176438096Y-123620000D01*
X176485715Y-123667619D01*
X176533334Y-123762857D01*
X176533334Y-123905714D01*
X176485715Y-124000952D01*
X176438096Y-124048571D01*
X176342858Y-124096190D01*
X175961905Y-124096190D01*
X177009524Y-124572381D02*
X177200000Y-124572381D01*
X177295239Y-124524762D01*
X177342858Y-124477143D01*
X177438096Y-124334286D01*
X177485715Y-124143810D01*
X177485715Y-123762857D01*
X177438096Y-123667619D01*
X177390477Y-123620000D01*
X177295239Y-123572381D01*
X177104762Y-123572381D01*
X177009524Y-123620000D01*
X176961905Y-123667619D01*
X176914286Y-123762857D01*
X176914286Y-124000952D01*
X176961905Y-124096190D01*
X177009524Y-124143810D01*
X177104762Y-124191429D01*
X177295239Y-124191429D01*
X177390477Y-124143810D01*
X177438096Y-124096190D01*
X177485715Y-124000952D01*
X149154762Y-60822619D02*
X149059524Y-60775000D01*
X148964286Y-60679762D01*
X148821429Y-60536905D01*
X148726190Y-60489286D01*
X148630952Y-60489286D01*
X148678571Y-60727381D02*
X148583333Y-60679762D01*
X148488095Y-60584524D01*
X148440476Y-60394048D01*
X148440476Y-60060714D01*
X148488095Y-59870238D01*
X148583333Y-59775000D01*
X148678571Y-59727381D01*
X148869048Y-59727381D01*
X148964286Y-59775000D01*
X149059524Y-59870238D01*
X149107143Y-60060714D01*
X149107143Y-60394048D01*
X149059524Y-60584524D01*
X148964286Y-60679762D01*
X148869048Y-60727381D01*
X148678571Y-60727381D01*
X150059524Y-60727381D02*
X149488095Y-60727381D01*
X149773809Y-60727381D02*
X149773809Y-59727381D01*
X149678571Y-59870238D01*
X149583333Y-59965476D01*
X149488095Y-60013095D01*
X149854762Y-76272619D02*
X149759524Y-76225000D01*
X149664286Y-76129762D01*
X149521429Y-75986905D01*
X149426190Y-75939286D01*
X149330952Y-75939286D01*
X149378571Y-76177381D02*
X149283333Y-76129762D01*
X149188095Y-76034524D01*
X149140476Y-75844048D01*
X149140476Y-75510714D01*
X149188095Y-75320238D01*
X149283333Y-75225000D01*
X149378571Y-75177381D01*
X149569048Y-75177381D01*
X149664286Y-75225000D01*
X149759524Y-75320238D01*
X149807143Y-75510714D01*
X149807143Y-75844048D01*
X149759524Y-76034524D01*
X149664286Y-76129762D01*
X149569048Y-76177381D01*
X149378571Y-76177381D01*
X150188095Y-75272619D02*
X150235714Y-75225000D01*
X150330952Y-75177381D01*
X150569048Y-75177381D01*
X150664286Y-75225000D01*
X150711905Y-75272619D01*
X150759524Y-75367857D01*
X150759524Y-75463095D01*
X150711905Y-75605952D01*
X150140476Y-76177381D01*
X150759524Y-76177381D01*
X149304762Y-92197619D02*
X149209524Y-92150000D01*
X149114286Y-92054762D01*
X148971429Y-91911905D01*
X148876190Y-91864286D01*
X148780952Y-91864286D01*
X148828571Y-92102381D02*
X148733333Y-92054762D01*
X148638095Y-91959524D01*
X148590476Y-91769048D01*
X148590476Y-91435714D01*
X148638095Y-91245238D01*
X148733333Y-91150000D01*
X148828571Y-91102381D01*
X149019048Y-91102381D01*
X149114286Y-91150000D01*
X149209524Y-91245238D01*
X149257143Y-91435714D01*
X149257143Y-91769048D01*
X149209524Y-91959524D01*
X149114286Y-92054762D01*
X149019048Y-92102381D01*
X148828571Y-92102381D01*
X149590476Y-91102381D02*
X150209524Y-91102381D01*
X149876190Y-91483333D01*
X150019048Y-91483333D01*
X150114286Y-91530952D01*
X150161905Y-91578571D01*
X150209524Y-91673810D01*
X150209524Y-91911905D01*
X150161905Y-92007143D01*
X150114286Y-92054762D01*
X150019048Y-92102381D01*
X149733333Y-92102381D01*
X149638095Y-92054762D01*
X149590476Y-92007143D01*
X150329762Y-107922619D02*
X150234524Y-107875000D01*
X150139286Y-107779762D01*
X149996429Y-107636905D01*
X149901190Y-107589286D01*
X149805952Y-107589286D01*
X149853571Y-107827381D02*
X149758333Y-107779762D01*
X149663095Y-107684524D01*
X149615476Y-107494048D01*
X149615476Y-107160714D01*
X149663095Y-106970238D01*
X149758333Y-106875000D01*
X149853571Y-106827381D01*
X150044048Y-106827381D01*
X150139286Y-106875000D01*
X150234524Y-106970238D01*
X150282143Y-107160714D01*
X150282143Y-107494048D01*
X150234524Y-107684524D01*
X150139286Y-107779762D01*
X150044048Y-107827381D01*
X149853571Y-107827381D01*
X151139286Y-107160714D02*
X151139286Y-107827381D01*
X150901190Y-106779762D02*
X150663095Y-107494048D01*
X151282143Y-107494048D01*
X113304762Y-60797619D02*
X113209524Y-60750000D01*
X113114286Y-60654762D01*
X112971429Y-60511905D01*
X112876190Y-60464286D01*
X112780952Y-60464286D01*
X112828571Y-60702381D02*
X112733333Y-60654762D01*
X112638095Y-60559524D01*
X112590476Y-60369048D01*
X112590476Y-60035714D01*
X112638095Y-59845238D01*
X112733333Y-59750000D01*
X112828571Y-59702381D01*
X113019048Y-59702381D01*
X113114286Y-59750000D01*
X113209524Y-59845238D01*
X113257143Y-60035714D01*
X113257143Y-60369048D01*
X113209524Y-60559524D01*
X113114286Y-60654762D01*
X113019048Y-60702381D01*
X112828571Y-60702381D01*
X114161905Y-59702381D02*
X113685714Y-59702381D01*
X113638095Y-60178571D01*
X113685714Y-60130952D01*
X113780952Y-60083333D01*
X114019048Y-60083333D01*
X114114286Y-60130952D01*
X114161905Y-60178571D01*
X114209524Y-60273810D01*
X114209524Y-60511905D01*
X114161905Y-60607143D01*
X114114286Y-60654762D01*
X114019048Y-60702381D01*
X113780952Y-60702381D01*
X113685714Y-60654762D01*
X113638095Y-60607143D01*
X167904762Y-60847619D02*
X167809524Y-60800000D01*
X167714286Y-60704762D01*
X167571429Y-60561905D01*
X167476190Y-60514286D01*
X167380952Y-60514286D01*
X167428571Y-60752381D02*
X167333333Y-60704762D01*
X167238095Y-60609524D01*
X167190476Y-60419048D01*
X167190476Y-60085714D01*
X167238095Y-59895238D01*
X167333333Y-59800000D01*
X167428571Y-59752381D01*
X167619048Y-59752381D01*
X167714286Y-59800000D01*
X167809524Y-59895238D01*
X167857143Y-60085714D01*
X167857143Y-60419048D01*
X167809524Y-60609524D01*
X167714286Y-60704762D01*
X167619048Y-60752381D01*
X167428571Y-60752381D01*
X168714286Y-59752381D02*
X168523809Y-59752381D01*
X168428571Y-59800000D01*
X168380952Y-59847619D01*
X168285714Y-59990476D01*
X168238095Y-60180952D01*
X168238095Y-60561905D01*
X168285714Y-60657143D01*
X168333333Y-60704762D01*
X168428571Y-60752381D01*
X168619048Y-60752381D01*
X168714286Y-60704762D01*
X168761905Y-60657143D01*
X168809524Y-60561905D01*
X168809524Y-60323810D01*
X168761905Y-60228571D01*
X168714286Y-60180952D01*
X168619048Y-60133333D01*
X168428571Y-60133333D01*
X168333333Y-60180952D01*
X168285714Y-60228571D01*
X168238095Y-60323810D01*
X167304762Y-76197619D02*
X167209524Y-76150000D01*
X167114286Y-76054762D01*
X166971429Y-75911905D01*
X166876190Y-75864286D01*
X166780952Y-75864286D01*
X166828571Y-76102381D02*
X166733333Y-76054762D01*
X166638095Y-75959524D01*
X166590476Y-75769048D01*
X166590476Y-75435714D01*
X166638095Y-75245238D01*
X166733333Y-75150000D01*
X166828571Y-75102381D01*
X167019048Y-75102381D01*
X167114286Y-75150000D01*
X167209524Y-75245238D01*
X167257143Y-75435714D01*
X167257143Y-75769048D01*
X167209524Y-75959524D01*
X167114286Y-76054762D01*
X167019048Y-76102381D01*
X166828571Y-76102381D01*
X167590476Y-75102381D02*
X168257143Y-75102381D01*
X167828571Y-76102381D01*
X167854762Y-92297619D02*
X167759524Y-92250000D01*
X167664286Y-92154762D01*
X167521429Y-92011905D01*
X167426190Y-91964286D01*
X167330952Y-91964286D01*
X167378571Y-92202381D02*
X167283333Y-92154762D01*
X167188095Y-92059524D01*
X167140476Y-91869048D01*
X167140476Y-91535714D01*
X167188095Y-91345238D01*
X167283333Y-91250000D01*
X167378571Y-91202381D01*
X167569048Y-91202381D01*
X167664286Y-91250000D01*
X167759524Y-91345238D01*
X167807143Y-91535714D01*
X167807143Y-91869048D01*
X167759524Y-92059524D01*
X167664286Y-92154762D01*
X167569048Y-92202381D01*
X167378571Y-92202381D01*
X168378571Y-91630952D02*
X168283333Y-91583333D01*
X168235714Y-91535714D01*
X168188095Y-91440476D01*
X168188095Y-91392857D01*
X168235714Y-91297619D01*
X168283333Y-91250000D01*
X168378571Y-91202381D01*
X168569048Y-91202381D01*
X168664286Y-91250000D01*
X168711905Y-91297619D01*
X168759524Y-91392857D01*
X168759524Y-91440476D01*
X168711905Y-91535714D01*
X168664286Y-91583333D01*
X168569048Y-91630952D01*
X168378571Y-91630952D01*
X168283333Y-91678571D01*
X168235714Y-91726190D01*
X168188095Y-91821429D01*
X168188095Y-92011905D01*
X168235714Y-92107143D01*
X168283333Y-92154762D01*
X168378571Y-92202381D01*
X168569048Y-92202381D01*
X168664286Y-92154762D01*
X168711905Y-92107143D01*
X168759524Y-92011905D01*
X168759524Y-91821429D01*
X168711905Y-91726190D01*
X168664286Y-91678571D01*
X168569048Y-91630952D01*
X167829762Y-108147619D02*
X167734524Y-108100000D01*
X167639286Y-108004762D01*
X167496429Y-107861905D01*
X167401190Y-107814286D01*
X167305952Y-107814286D01*
X167353571Y-108052381D02*
X167258333Y-108004762D01*
X167163095Y-107909524D01*
X167115476Y-107719048D01*
X167115476Y-107385714D01*
X167163095Y-107195238D01*
X167258333Y-107100000D01*
X167353571Y-107052381D01*
X167544048Y-107052381D01*
X167639286Y-107100000D01*
X167734524Y-107195238D01*
X167782143Y-107385714D01*
X167782143Y-107719048D01*
X167734524Y-107909524D01*
X167639286Y-108004762D01*
X167544048Y-108052381D01*
X167353571Y-108052381D01*
X168258333Y-108052381D02*
X168448809Y-108052381D01*
X168544048Y-108004762D01*
X168591667Y-107957143D01*
X168686905Y-107814286D01*
X168734524Y-107623810D01*
X168734524Y-107242857D01*
X168686905Y-107147619D01*
X168639286Y-107100000D01*
X168544048Y-107052381D01*
X168353571Y-107052381D01*
X168258333Y-107100000D01*
X168210714Y-107147619D01*
X168163095Y-107242857D01*
X168163095Y-107480952D01*
X168210714Y-107576190D01*
X168258333Y-107623810D01*
X168353571Y-107671429D01*
X168544048Y-107671429D01*
X168639286Y-107623810D01*
X168686905Y-107576190D01*
X168734524Y-107480952D01*
X131378572Y-60847619D02*
X131283334Y-60800000D01*
X131188096Y-60704762D01*
X131045239Y-60561905D01*
X130950000Y-60514286D01*
X130854762Y-60514286D01*
X130902381Y-60752381D02*
X130807143Y-60704762D01*
X130711905Y-60609524D01*
X130664286Y-60419048D01*
X130664286Y-60085714D01*
X130711905Y-59895238D01*
X130807143Y-59800000D01*
X130902381Y-59752381D01*
X131092858Y-59752381D01*
X131188096Y-59800000D01*
X131283334Y-59895238D01*
X131330953Y-60085714D01*
X131330953Y-60419048D01*
X131283334Y-60609524D01*
X131188096Y-60704762D01*
X131092858Y-60752381D01*
X130902381Y-60752381D01*
X132283334Y-60752381D02*
X131711905Y-60752381D01*
X131997619Y-60752381D02*
X131997619Y-59752381D01*
X131902381Y-59895238D01*
X131807143Y-59990476D01*
X131711905Y-60038095D01*
X132902381Y-59752381D02*
X132997620Y-59752381D01*
X133092858Y-59800000D01*
X133140477Y-59847619D01*
X133188096Y-59942857D01*
X133235715Y-60133333D01*
X133235715Y-60371429D01*
X133188096Y-60561905D01*
X133140477Y-60657143D01*
X133092858Y-60704762D01*
X132997620Y-60752381D01*
X132902381Y-60752381D01*
X132807143Y-60704762D01*
X132759524Y-60657143D01*
X132711905Y-60561905D01*
X132664286Y-60371429D01*
X132664286Y-60133333D01*
X132711905Y-59942857D01*
X132759524Y-59847619D01*
X132807143Y-59800000D01*
X132902381Y-59752381D01*
X113353572Y-76247619D02*
X113258334Y-76200000D01*
X113163096Y-76104762D01*
X113020239Y-75961905D01*
X112925000Y-75914286D01*
X112829762Y-75914286D01*
X112877381Y-76152381D02*
X112782143Y-76104762D01*
X112686905Y-76009524D01*
X112639286Y-75819048D01*
X112639286Y-75485714D01*
X112686905Y-75295238D01*
X112782143Y-75200000D01*
X112877381Y-75152381D01*
X113067858Y-75152381D01*
X113163096Y-75200000D01*
X113258334Y-75295238D01*
X113305953Y-75485714D01*
X113305953Y-75819048D01*
X113258334Y-76009524D01*
X113163096Y-76104762D01*
X113067858Y-76152381D01*
X112877381Y-76152381D01*
X114258334Y-76152381D02*
X113686905Y-76152381D01*
X113972619Y-76152381D02*
X113972619Y-75152381D01*
X113877381Y-75295238D01*
X113782143Y-75390476D01*
X113686905Y-75438095D01*
X115210715Y-76152381D02*
X114639286Y-76152381D01*
X114925000Y-76152381D02*
X114925000Y-75152381D01*
X114829762Y-75295238D01*
X114734524Y-75390476D01*
X114639286Y-75438095D01*
X113078572Y-92297619D02*
X112983334Y-92250000D01*
X112888096Y-92154762D01*
X112745239Y-92011905D01*
X112650000Y-91964286D01*
X112554762Y-91964286D01*
X112602381Y-92202381D02*
X112507143Y-92154762D01*
X112411905Y-92059524D01*
X112364286Y-91869048D01*
X112364286Y-91535714D01*
X112411905Y-91345238D01*
X112507143Y-91250000D01*
X112602381Y-91202381D01*
X112792858Y-91202381D01*
X112888096Y-91250000D01*
X112983334Y-91345238D01*
X113030953Y-91535714D01*
X113030953Y-91869048D01*
X112983334Y-92059524D01*
X112888096Y-92154762D01*
X112792858Y-92202381D01*
X112602381Y-92202381D01*
X113983334Y-92202381D02*
X113411905Y-92202381D01*
X113697619Y-92202381D02*
X113697619Y-91202381D01*
X113602381Y-91345238D01*
X113507143Y-91440476D01*
X113411905Y-91488095D01*
X114364286Y-91297619D02*
X114411905Y-91250000D01*
X114507143Y-91202381D01*
X114745239Y-91202381D01*
X114840477Y-91250000D01*
X114888096Y-91297619D01*
X114935715Y-91392857D01*
X114935715Y-91488095D01*
X114888096Y-91630952D01*
X114316667Y-92202381D01*
X114935715Y-92202381D01*
X113053572Y-108097619D02*
X112958334Y-108050000D01*
X112863096Y-107954762D01*
X112720239Y-107811905D01*
X112625000Y-107764286D01*
X112529762Y-107764286D01*
X112577381Y-108002381D02*
X112482143Y-107954762D01*
X112386905Y-107859524D01*
X112339286Y-107669048D01*
X112339286Y-107335714D01*
X112386905Y-107145238D01*
X112482143Y-107050000D01*
X112577381Y-107002381D01*
X112767858Y-107002381D01*
X112863096Y-107050000D01*
X112958334Y-107145238D01*
X113005953Y-107335714D01*
X113005953Y-107669048D01*
X112958334Y-107859524D01*
X112863096Y-107954762D01*
X112767858Y-108002381D01*
X112577381Y-108002381D01*
X113958334Y-108002381D02*
X113386905Y-108002381D01*
X113672619Y-108002381D02*
X113672619Y-107002381D01*
X113577381Y-107145238D01*
X113482143Y-107240476D01*
X113386905Y-107288095D01*
X114291667Y-107002381D02*
X114910715Y-107002381D01*
X114577381Y-107383333D01*
X114720239Y-107383333D01*
X114815477Y-107430952D01*
X114863096Y-107478571D01*
X114910715Y-107573810D01*
X114910715Y-107811905D01*
X114863096Y-107907143D01*
X114815477Y-107954762D01*
X114720239Y-108002381D01*
X114434524Y-108002381D01*
X114339286Y-107954762D01*
X114291667Y-107907143D01*
X131603572Y-76247619D02*
X131508334Y-76200000D01*
X131413096Y-76104762D01*
X131270239Y-75961905D01*
X131175000Y-75914286D01*
X131079762Y-75914286D01*
X131127381Y-76152381D02*
X131032143Y-76104762D01*
X130936905Y-76009524D01*
X130889286Y-75819048D01*
X130889286Y-75485714D01*
X130936905Y-75295238D01*
X131032143Y-75200000D01*
X131127381Y-75152381D01*
X131317858Y-75152381D01*
X131413096Y-75200000D01*
X131508334Y-75295238D01*
X131555953Y-75485714D01*
X131555953Y-75819048D01*
X131508334Y-76009524D01*
X131413096Y-76104762D01*
X131317858Y-76152381D01*
X131127381Y-76152381D01*
X132508334Y-76152381D02*
X131936905Y-76152381D01*
X132222619Y-76152381D02*
X132222619Y-75152381D01*
X132127381Y-75295238D01*
X132032143Y-75390476D01*
X131936905Y-75438095D01*
X133365477Y-75485714D02*
X133365477Y-76152381D01*
X133127381Y-75104762D02*
X132889286Y-75819048D01*
X133508334Y-75819048D01*
X131528572Y-92322619D02*
X131433334Y-92275000D01*
X131338096Y-92179762D01*
X131195239Y-92036905D01*
X131100000Y-91989286D01*
X131004762Y-91989286D01*
X131052381Y-92227381D02*
X130957143Y-92179762D01*
X130861905Y-92084524D01*
X130814286Y-91894048D01*
X130814286Y-91560714D01*
X130861905Y-91370238D01*
X130957143Y-91275000D01*
X131052381Y-91227381D01*
X131242858Y-91227381D01*
X131338096Y-91275000D01*
X131433334Y-91370238D01*
X131480953Y-91560714D01*
X131480953Y-91894048D01*
X131433334Y-92084524D01*
X131338096Y-92179762D01*
X131242858Y-92227381D01*
X131052381Y-92227381D01*
X132433334Y-92227381D02*
X131861905Y-92227381D01*
X132147619Y-92227381D02*
X132147619Y-91227381D01*
X132052381Y-91370238D01*
X131957143Y-91465476D01*
X131861905Y-91513095D01*
X133338096Y-91227381D02*
X132861905Y-91227381D01*
X132814286Y-91703571D01*
X132861905Y-91655952D01*
X132957143Y-91608333D01*
X133195239Y-91608333D01*
X133290477Y-91655952D01*
X133338096Y-91703571D01*
X133385715Y-91798810D01*
X133385715Y-92036905D01*
X133338096Y-92132143D01*
X133290477Y-92179762D01*
X133195239Y-92227381D01*
X132957143Y-92227381D01*
X132861905Y-92179762D01*
X132814286Y-92132143D01*
X131578572Y-108147619D02*
X131483334Y-108100000D01*
X131388096Y-108004762D01*
X131245239Y-107861905D01*
X131150000Y-107814286D01*
X131054762Y-107814286D01*
X131102381Y-108052381D02*
X131007143Y-108004762D01*
X130911905Y-107909524D01*
X130864286Y-107719048D01*
X130864286Y-107385714D01*
X130911905Y-107195238D01*
X131007143Y-107100000D01*
X131102381Y-107052381D01*
X131292858Y-107052381D01*
X131388096Y-107100000D01*
X131483334Y-107195238D01*
X131530953Y-107385714D01*
X131530953Y-107719048D01*
X131483334Y-107909524D01*
X131388096Y-108004762D01*
X131292858Y-108052381D01*
X131102381Y-108052381D01*
X132483334Y-108052381D02*
X131911905Y-108052381D01*
X132197619Y-108052381D02*
X132197619Y-107052381D01*
X132102381Y-107195238D01*
X132007143Y-107290476D01*
X131911905Y-107338095D01*
X133340477Y-107052381D02*
X133150000Y-107052381D01*
X133054762Y-107100000D01*
X133007143Y-107147619D01*
X132911905Y-107290476D01*
X132864286Y-107480952D01*
X132864286Y-107861905D01*
X132911905Y-107957143D01*
X132959524Y-108004762D01*
X133054762Y-108052381D01*
X133245239Y-108052381D01*
X133340477Y-108004762D01*
X133388096Y-107957143D01*
X133435715Y-107861905D01*
X133435715Y-107623810D01*
X133388096Y-107528571D01*
X133340477Y-107480952D01*
X133245239Y-107433333D01*
X133054762Y-107433333D01*
X132959524Y-107480952D01*
X132911905Y-107528571D01*
X132864286Y-107623810D01*
X143208334Y-62602381D02*
X142875000Y-62126190D01*
X142636905Y-62602381D02*
X142636905Y-61602381D01*
X143017858Y-61602381D01*
X143113096Y-61650000D01*
X143160715Y-61697619D01*
X143208334Y-61792857D01*
X143208334Y-61935714D01*
X143160715Y-62030952D01*
X143113096Y-62078571D01*
X143017858Y-62126190D01*
X142636905Y-62126190D01*
X144160715Y-62602381D02*
X143589286Y-62602381D01*
X143875000Y-62602381D02*
X143875000Y-61602381D01*
X143779762Y-61745238D01*
X143684524Y-61840476D01*
X143589286Y-61888095D01*
X142958334Y-79127381D02*
X142625000Y-78651190D01*
X142386905Y-79127381D02*
X142386905Y-78127381D01*
X142767858Y-78127381D01*
X142863096Y-78175000D01*
X142910715Y-78222619D01*
X142958334Y-78317857D01*
X142958334Y-78460714D01*
X142910715Y-78555952D01*
X142863096Y-78603571D01*
X142767858Y-78651190D01*
X142386905Y-78651190D01*
X143339286Y-78222619D02*
X143386905Y-78175000D01*
X143482143Y-78127381D01*
X143720239Y-78127381D01*
X143815477Y-78175000D01*
X143863096Y-78222619D01*
X143910715Y-78317857D01*
X143910715Y-78413095D01*
X143863096Y-78555952D01*
X143291667Y-79127381D01*
X143910715Y-79127381D01*
X143258334Y-95302381D02*
X142925000Y-94826190D01*
X142686905Y-95302381D02*
X142686905Y-94302381D01*
X143067858Y-94302381D01*
X143163096Y-94350000D01*
X143210715Y-94397619D01*
X143258334Y-94492857D01*
X143258334Y-94635714D01*
X143210715Y-94730952D01*
X143163096Y-94778571D01*
X143067858Y-94826190D01*
X142686905Y-94826190D01*
X143591667Y-94302381D02*
X144210715Y-94302381D01*
X143877381Y-94683333D01*
X144020239Y-94683333D01*
X144115477Y-94730952D01*
X144163096Y-94778571D01*
X144210715Y-94873810D01*
X144210715Y-95111905D01*
X144163096Y-95207143D01*
X144115477Y-95254762D01*
X144020239Y-95302381D01*
X143734524Y-95302381D01*
X143639286Y-95254762D01*
X143591667Y-95207143D01*
X143008334Y-112502381D02*
X142675000Y-112026190D01*
X142436905Y-112502381D02*
X142436905Y-111502381D01*
X142817858Y-111502381D01*
X142913096Y-111550000D01*
X142960715Y-111597619D01*
X143008334Y-111692857D01*
X143008334Y-111835714D01*
X142960715Y-111930952D01*
X142913096Y-111978571D01*
X142817858Y-112026190D01*
X142436905Y-112026190D01*
X143865477Y-111835714D02*
X143865477Y-112502381D01*
X143627381Y-111454762D02*
X143389286Y-112169048D01*
X144008334Y-112169048D01*
X107533334Y-65277381D02*
X107200000Y-64801190D01*
X106961905Y-65277381D02*
X106961905Y-64277381D01*
X107342858Y-64277381D01*
X107438096Y-64325000D01*
X107485715Y-64372619D01*
X107533334Y-64467857D01*
X107533334Y-64610714D01*
X107485715Y-64705952D01*
X107438096Y-64753571D01*
X107342858Y-64801190D01*
X106961905Y-64801190D01*
X108438096Y-64277381D02*
X107961905Y-64277381D01*
X107914286Y-64753571D01*
X107961905Y-64705952D01*
X108057143Y-64658333D01*
X108295239Y-64658333D01*
X108390477Y-64705952D01*
X108438096Y-64753571D01*
X108485715Y-64848810D01*
X108485715Y-65086905D01*
X108438096Y-65182143D01*
X108390477Y-65229762D01*
X108295239Y-65277381D01*
X108057143Y-65277381D01*
X107961905Y-65229762D01*
X107914286Y-65182143D01*
X150708334Y-58477381D02*
X150375000Y-58001190D01*
X150136905Y-58477381D02*
X150136905Y-57477381D01*
X150517858Y-57477381D01*
X150613096Y-57525000D01*
X150660715Y-57572619D01*
X150708334Y-57667857D01*
X150708334Y-57810714D01*
X150660715Y-57905952D01*
X150613096Y-57953571D01*
X150517858Y-58001190D01*
X150136905Y-58001190D01*
X151041667Y-57477381D02*
X151708334Y-57477381D01*
X151279762Y-58477381D01*
X150758334Y-74052381D02*
X150425000Y-73576190D01*
X150186905Y-74052381D02*
X150186905Y-73052381D01*
X150567858Y-73052381D01*
X150663096Y-73100000D01*
X150710715Y-73147619D01*
X150758334Y-73242857D01*
X150758334Y-73385714D01*
X150710715Y-73480952D01*
X150663096Y-73528571D01*
X150567858Y-73576190D01*
X150186905Y-73576190D01*
X151329762Y-73480952D02*
X151234524Y-73433333D01*
X151186905Y-73385714D01*
X151139286Y-73290476D01*
X151139286Y-73242857D01*
X151186905Y-73147619D01*
X151234524Y-73100000D01*
X151329762Y-73052381D01*
X151520239Y-73052381D01*
X151615477Y-73100000D01*
X151663096Y-73147619D01*
X151710715Y-73242857D01*
X151710715Y-73290476D01*
X151663096Y-73385714D01*
X151615477Y-73433333D01*
X151520239Y-73480952D01*
X151329762Y-73480952D01*
X151234524Y-73528571D01*
X151186905Y-73576190D01*
X151139286Y-73671429D01*
X151139286Y-73861905D01*
X151186905Y-73957143D01*
X151234524Y-74004762D01*
X151329762Y-74052381D01*
X151520239Y-74052381D01*
X151615477Y-74004762D01*
X151663096Y-73957143D01*
X151710715Y-73861905D01*
X151710715Y-73671429D01*
X151663096Y-73576190D01*
X151615477Y-73528571D01*
X151520239Y-73480952D01*
X151833334Y-89927381D02*
X151500000Y-89451190D01*
X151261905Y-89927381D02*
X151261905Y-88927381D01*
X151642858Y-88927381D01*
X151738096Y-88975000D01*
X151785715Y-89022619D01*
X151833334Y-89117857D01*
X151833334Y-89260714D01*
X151785715Y-89355952D01*
X151738096Y-89403571D01*
X151642858Y-89451190D01*
X151261905Y-89451190D01*
X152309524Y-89927381D02*
X152500000Y-89927381D01*
X152595239Y-89879762D01*
X152642858Y-89832143D01*
X152738096Y-89689286D01*
X152785715Y-89498810D01*
X152785715Y-89117857D01*
X152738096Y-89022619D01*
X152690477Y-88975000D01*
X152595239Y-88927381D01*
X152404762Y-88927381D01*
X152309524Y-88975000D01*
X152261905Y-89022619D01*
X152214286Y-89117857D01*
X152214286Y-89355952D01*
X152261905Y-89451190D01*
X152309524Y-89498810D01*
X152404762Y-89546429D01*
X152595239Y-89546429D01*
X152690477Y-89498810D01*
X152738096Y-89451190D01*
X152785715Y-89355952D01*
X150707143Y-105752381D02*
X150373809Y-105276190D01*
X150135714Y-105752381D02*
X150135714Y-104752381D01*
X150516667Y-104752381D01*
X150611905Y-104800000D01*
X150659524Y-104847619D01*
X150707143Y-104942857D01*
X150707143Y-105085714D01*
X150659524Y-105180952D01*
X150611905Y-105228571D01*
X150516667Y-105276190D01*
X150135714Y-105276190D01*
X151659524Y-105752381D02*
X151088095Y-105752381D01*
X151373809Y-105752381D02*
X151373809Y-104752381D01*
X151278571Y-104895238D01*
X151183333Y-104990476D01*
X151088095Y-105038095D01*
X152278571Y-104752381D02*
X152373810Y-104752381D01*
X152469048Y-104800000D01*
X152516667Y-104847619D01*
X152564286Y-104942857D01*
X152611905Y-105133333D01*
X152611905Y-105371429D01*
X152564286Y-105561905D01*
X152516667Y-105657143D01*
X152469048Y-105704762D01*
X152373810Y-105752381D01*
X152278571Y-105752381D01*
X152183333Y-105704762D01*
X152135714Y-105657143D01*
X152088095Y-105561905D01*
X152040476Y-105371429D01*
X152040476Y-105133333D01*
X152088095Y-104942857D01*
X152135714Y-104847619D01*
X152183333Y-104800000D01*
X152278571Y-104752381D01*
X114782143Y-58552381D02*
X114448809Y-58076190D01*
X114210714Y-58552381D02*
X114210714Y-57552381D01*
X114591667Y-57552381D01*
X114686905Y-57600000D01*
X114734524Y-57647619D01*
X114782143Y-57742857D01*
X114782143Y-57885714D01*
X114734524Y-57980952D01*
X114686905Y-58028571D01*
X114591667Y-58076190D01*
X114210714Y-58076190D01*
X115734524Y-58552381D02*
X115163095Y-58552381D01*
X115448809Y-58552381D02*
X115448809Y-57552381D01*
X115353571Y-57695238D01*
X115258333Y-57790476D01*
X115163095Y-57838095D01*
X116686905Y-58552381D02*
X116115476Y-58552381D01*
X116401190Y-58552381D02*
X116401190Y-57552381D01*
X116305952Y-57695238D01*
X116210714Y-57790476D01*
X116115476Y-57838095D01*
X165282143Y-59227381D02*
X164948809Y-58751190D01*
X164710714Y-59227381D02*
X164710714Y-58227381D01*
X165091667Y-58227381D01*
X165186905Y-58275000D01*
X165234524Y-58322619D01*
X165282143Y-58417857D01*
X165282143Y-58560714D01*
X165234524Y-58655952D01*
X165186905Y-58703571D01*
X165091667Y-58751190D01*
X164710714Y-58751190D01*
X166234524Y-59227381D02*
X165663095Y-59227381D01*
X165948809Y-59227381D02*
X165948809Y-58227381D01*
X165853571Y-58370238D01*
X165758333Y-58465476D01*
X165663095Y-58513095D01*
X166615476Y-58322619D02*
X166663095Y-58275000D01*
X166758333Y-58227381D01*
X166996429Y-58227381D01*
X167091667Y-58275000D01*
X167139286Y-58322619D01*
X167186905Y-58417857D01*
X167186905Y-58513095D01*
X167139286Y-58655952D01*
X166567857Y-59227381D01*
X167186905Y-59227381D01*
X165582143Y-74902381D02*
X165248809Y-74426190D01*
X165010714Y-74902381D02*
X165010714Y-73902381D01*
X165391667Y-73902381D01*
X165486905Y-73950000D01*
X165534524Y-73997619D01*
X165582143Y-74092857D01*
X165582143Y-74235714D01*
X165534524Y-74330952D01*
X165486905Y-74378571D01*
X165391667Y-74426190D01*
X165010714Y-74426190D01*
X166534524Y-74902381D02*
X165963095Y-74902381D01*
X166248809Y-74902381D02*
X166248809Y-73902381D01*
X166153571Y-74045238D01*
X166058333Y-74140476D01*
X165963095Y-74188095D01*
X166867857Y-73902381D02*
X167486905Y-73902381D01*
X167153571Y-74283333D01*
X167296429Y-74283333D01*
X167391667Y-74330952D01*
X167439286Y-74378571D01*
X167486905Y-74473810D01*
X167486905Y-74711905D01*
X167439286Y-74807143D01*
X167391667Y-74854762D01*
X167296429Y-74902381D01*
X167010714Y-74902381D01*
X166915476Y-74854762D01*
X166867857Y-74807143D01*
X165232143Y-90877381D02*
X164898809Y-90401190D01*
X164660714Y-90877381D02*
X164660714Y-89877381D01*
X165041667Y-89877381D01*
X165136905Y-89925000D01*
X165184524Y-89972619D01*
X165232143Y-90067857D01*
X165232143Y-90210714D01*
X165184524Y-90305952D01*
X165136905Y-90353571D01*
X165041667Y-90401190D01*
X164660714Y-90401190D01*
X166184524Y-90877381D02*
X165613095Y-90877381D01*
X165898809Y-90877381D02*
X165898809Y-89877381D01*
X165803571Y-90020238D01*
X165708333Y-90115476D01*
X165613095Y-90163095D01*
X167041667Y-90210714D02*
X167041667Y-90877381D01*
X166803571Y-89829762D02*
X166565476Y-90544048D01*
X167184524Y-90544048D01*
X165257143Y-106852381D02*
X164923809Y-106376190D01*
X164685714Y-106852381D02*
X164685714Y-105852381D01*
X165066667Y-105852381D01*
X165161905Y-105900000D01*
X165209524Y-105947619D01*
X165257143Y-106042857D01*
X165257143Y-106185714D01*
X165209524Y-106280952D01*
X165161905Y-106328571D01*
X165066667Y-106376190D01*
X164685714Y-106376190D01*
X166209524Y-106852381D02*
X165638095Y-106852381D01*
X165923809Y-106852381D02*
X165923809Y-105852381D01*
X165828571Y-105995238D01*
X165733333Y-106090476D01*
X165638095Y-106138095D01*
X167114286Y-105852381D02*
X166638095Y-105852381D01*
X166590476Y-106328571D01*
X166638095Y-106280952D01*
X166733333Y-106233333D01*
X166971429Y-106233333D01*
X167066667Y-106280952D01*
X167114286Y-106328571D01*
X167161905Y-106423810D01*
X167161905Y-106661905D01*
X167114286Y-106757143D01*
X167066667Y-106804762D01*
X166971429Y-106852381D01*
X166733333Y-106852381D01*
X166638095Y-106804762D01*
X166590476Y-106757143D01*
X129307143Y-59352381D02*
X128973809Y-58876190D01*
X128735714Y-59352381D02*
X128735714Y-58352381D01*
X129116667Y-58352381D01*
X129211905Y-58400000D01*
X129259524Y-58447619D01*
X129307143Y-58542857D01*
X129307143Y-58685714D01*
X129259524Y-58780952D01*
X129211905Y-58828571D01*
X129116667Y-58876190D01*
X128735714Y-58876190D01*
X130259524Y-59352381D02*
X129688095Y-59352381D01*
X129973809Y-59352381D02*
X129973809Y-58352381D01*
X129878571Y-58495238D01*
X129783333Y-58590476D01*
X129688095Y-58638095D01*
X131116667Y-58352381D02*
X130926190Y-58352381D01*
X130830952Y-58400000D01*
X130783333Y-58447619D01*
X130688095Y-58590476D01*
X130640476Y-58780952D01*
X130640476Y-59161905D01*
X130688095Y-59257143D01*
X130735714Y-59304762D01*
X130830952Y-59352381D01*
X131021429Y-59352381D01*
X131116667Y-59304762D01*
X131164286Y-59257143D01*
X131211905Y-59161905D01*
X131211905Y-58923810D01*
X131164286Y-58828571D01*
X131116667Y-58780952D01*
X131021429Y-58733333D01*
X130830952Y-58733333D01*
X130735714Y-58780952D01*
X130688095Y-58828571D01*
X130640476Y-58923810D01*
X171182143Y-56102381D02*
X170848809Y-55626190D01*
X170610714Y-56102381D02*
X170610714Y-55102381D01*
X170991667Y-55102381D01*
X171086905Y-55150000D01*
X171134524Y-55197619D01*
X171182143Y-55292857D01*
X171182143Y-55435714D01*
X171134524Y-55530952D01*
X171086905Y-55578571D01*
X170991667Y-55626190D01*
X170610714Y-55626190D01*
X172134524Y-56102381D02*
X171563095Y-56102381D01*
X171848809Y-56102381D02*
X171848809Y-55102381D01*
X171753571Y-55245238D01*
X171658333Y-55340476D01*
X171563095Y-55388095D01*
X172467857Y-55102381D02*
X173134524Y-55102381D01*
X172705952Y-56102381D01*
X170782143Y-71702381D02*
X170448809Y-71226190D01*
X170210714Y-71702381D02*
X170210714Y-70702381D01*
X170591667Y-70702381D01*
X170686905Y-70750000D01*
X170734524Y-70797619D01*
X170782143Y-70892857D01*
X170782143Y-71035714D01*
X170734524Y-71130952D01*
X170686905Y-71178571D01*
X170591667Y-71226190D01*
X170210714Y-71226190D01*
X171734524Y-71702381D02*
X171163095Y-71702381D01*
X171448809Y-71702381D02*
X171448809Y-70702381D01*
X171353571Y-70845238D01*
X171258333Y-70940476D01*
X171163095Y-70988095D01*
X172305952Y-71130952D02*
X172210714Y-71083333D01*
X172163095Y-71035714D01*
X172115476Y-70940476D01*
X172115476Y-70892857D01*
X172163095Y-70797619D01*
X172210714Y-70750000D01*
X172305952Y-70702381D01*
X172496429Y-70702381D01*
X172591667Y-70750000D01*
X172639286Y-70797619D01*
X172686905Y-70892857D01*
X172686905Y-70940476D01*
X172639286Y-71035714D01*
X172591667Y-71083333D01*
X172496429Y-71130952D01*
X172305952Y-71130952D01*
X172210714Y-71178571D01*
X172163095Y-71226190D01*
X172115476Y-71321429D01*
X172115476Y-71511905D01*
X172163095Y-71607143D01*
X172210714Y-71654762D01*
X172305952Y-71702381D01*
X172496429Y-71702381D01*
X172591667Y-71654762D01*
X172639286Y-71607143D01*
X172686905Y-71511905D01*
X172686905Y-71321429D01*
X172639286Y-71226190D01*
X172591667Y-71178571D01*
X172496429Y-71130952D01*
X170407143Y-87627381D02*
X170073809Y-87151190D01*
X169835714Y-87627381D02*
X169835714Y-86627381D01*
X170216667Y-86627381D01*
X170311905Y-86675000D01*
X170359524Y-86722619D01*
X170407143Y-86817857D01*
X170407143Y-86960714D01*
X170359524Y-87055952D01*
X170311905Y-87103571D01*
X170216667Y-87151190D01*
X169835714Y-87151190D01*
X171359524Y-87627381D02*
X170788095Y-87627381D01*
X171073809Y-87627381D02*
X171073809Y-86627381D01*
X170978571Y-86770238D01*
X170883333Y-86865476D01*
X170788095Y-86913095D01*
X171835714Y-87627381D02*
X172026190Y-87627381D01*
X172121429Y-87579762D01*
X172169048Y-87532143D01*
X172264286Y-87389286D01*
X172311905Y-87198810D01*
X172311905Y-86817857D01*
X172264286Y-86722619D01*
X172216667Y-86675000D01*
X172121429Y-86627381D01*
X171930952Y-86627381D01*
X171835714Y-86675000D01*
X171788095Y-86722619D01*
X171740476Y-86817857D01*
X171740476Y-87055952D01*
X171788095Y-87151190D01*
X171835714Y-87198810D01*
X171930952Y-87246429D01*
X172121429Y-87246429D01*
X172216667Y-87198810D01*
X172264286Y-87151190D01*
X172311905Y-87055952D01*
X170307143Y-103377381D02*
X169973809Y-102901190D01*
X169735714Y-103377381D02*
X169735714Y-102377381D01*
X170116667Y-102377381D01*
X170211905Y-102425000D01*
X170259524Y-102472619D01*
X170307143Y-102567857D01*
X170307143Y-102710714D01*
X170259524Y-102805952D01*
X170211905Y-102853571D01*
X170116667Y-102901190D01*
X169735714Y-102901190D01*
X170688095Y-102472619D02*
X170735714Y-102425000D01*
X170830952Y-102377381D01*
X171069048Y-102377381D01*
X171164286Y-102425000D01*
X171211905Y-102472619D01*
X171259524Y-102567857D01*
X171259524Y-102663095D01*
X171211905Y-102805952D01*
X170640476Y-103377381D01*
X171259524Y-103377381D01*
X171878571Y-102377381D02*
X171973810Y-102377381D01*
X172069048Y-102425000D01*
X172116667Y-102472619D01*
X172164286Y-102567857D01*
X172211905Y-102758333D01*
X172211905Y-102996429D01*
X172164286Y-103186905D01*
X172116667Y-103282143D01*
X172069048Y-103329762D01*
X171973810Y-103377381D01*
X171878571Y-103377381D01*
X171783333Y-103329762D01*
X171735714Y-103282143D01*
X171688095Y-103186905D01*
X171640476Y-102996429D01*
X171640476Y-102758333D01*
X171688095Y-102567857D01*
X171735714Y-102472619D01*
X171783333Y-102425000D01*
X171878571Y-102377381D01*
X132207143Y-58402381D02*
X131873809Y-57926190D01*
X131635714Y-58402381D02*
X131635714Y-57402381D01*
X132016667Y-57402381D01*
X132111905Y-57450000D01*
X132159524Y-57497619D01*
X132207143Y-57592857D01*
X132207143Y-57735714D01*
X132159524Y-57830952D01*
X132111905Y-57878571D01*
X132016667Y-57926190D01*
X131635714Y-57926190D01*
X132588095Y-57497619D02*
X132635714Y-57450000D01*
X132730952Y-57402381D01*
X132969048Y-57402381D01*
X133064286Y-57450000D01*
X133111905Y-57497619D01*
X133159524Y-57592857D01*
X133159524Y-57688095D01*
X133111905Y-57830952D01*
X132540476Y-58402381D01*
X133159524Y-58402381D01*
X134111905Y-58402381D02*
X133540476Y-58402381D01*
X133826190Y-58402381D02*
X133826190Y-57402381D01*
X133730952Y-57545238D01*
X133635714Y-57640476D01*
X133540476Y-57688095D01*
X171682143Y-65752381D02*
X171348809Y-65276190D01*
X171110714Y-65752381D02*
X171110714Y-64752381D01*
X171491667Y-64752381D01*
X171586905Y-64800000D01*
X171634524Y-64847619D01*
X171682143Y-64942857D01*
X171682143Y-65085714D01*
X171634524Y-65180952D01*
X171586905Y-65228571D01*
X171491667Y-65276190D01*
X171110714Y-65276190D01*
X172063095Y-64847619D02*
X172110714Y-64800000D01*
X172205952Y-64752381D01*
X172444048Y-64752381D01*
X172539286Y-64800000D01*
X172586905Y-64847619D01*
X172634524Y-64942857D01*
X172634524Y-65038095D01*
X172586905Y-65180952D01*
X172015476Y-65752381D01*
X172634524Y-65752381D01*
X173015476Y-64847619D02*
X173063095Y-64800000D01*
X173158333Y-64752381D01*
X173396429Y-64752381D01*
X173491667Y-64800000D01*
X173539286Y-64847619D01*
X173586905Y-64942857D01*
X173586905Y-65038095D01*
X173539286Y-65180952D01*
X172967857Y-65752381D01*
X173586905Y-65752381D01*
X171807143Y-81227381D02*
X171473809Y-80751190D01*
X171235714Y-81227381D02*
X171235714Y-80227381D01*
X171616667Y-80227381D01*
X171711905Y-80275000D01*
X171759524Y-80322619D01*
X171807143Y-80417857D01*
X171807143Y-80560714D01*
X171759524Y-80655952D01*
X171711905Y-80703571D01*
X171616667Y-80751190D01*
X171235714Y-80751190D01*
X172188095Y-80322619D02*
X172235714Y-80275000D01*
X172330952Y-80227381D01*
X172569048Y-80227381D01*
X172664286Y-80275000D01*
X172711905Y-80322619D01*
X172759524Y-80417857D01*
X172759524Y-80513095D01*
X172711905Y-80655952D01*
X172140476Y-81227381D01*
X172759524Y-81227381D01*
X173092857Y-80227381D02*
X173711905Y-80227381D01*
X173378571Y-80608333D01*
X173521429Y-80608333D01*
X173616667Y-80655952D01*
X173664286Y-80703571D01*
X173711905Y-80798810D01*
X173711905Y-81036905D01*
X173664286Y-81132143D01*
X173616667Y-81179762D01*
X173521429Y-81227381D01*
X173235714Y-81227381D01*
X173140476Y-81179762D01*
X173092857Y-81132143D01*
X171732143Y-97152381D02*
X171398809Y-96676190D01*
X171160714Y-97152381D02*
X171160714Y-96152381D01*
X171541667Y-96152381D01*
X171636905Y-96200000D01*
X171684524Y-96247619D01*
X171732143Y-96342857D01*
X171732143Y-96485714D01*
X171684524Y-96580952D01*
X171636905Y-96628571D01*
X171541667Y-96676190D01*
X171160714Y-96676190D01*
X172113095Y-96247619D02*
X172160714Y-96200000D01*
X172255952Y-96152381D01*
X172494048Y-96152381D01*
X172589286Y-96200000D01*
X172636905Y-96247619D01*
X172684524Y-96342857D01*
X172684524Y-96438095D01*
X172636905Y-96580952D01*
X172065476Y-97152381D01*
X172684524Y-97152381D01*
X173541667Y-96485714D02*
X173541667Y-97152381D01*
X173303571Y-96104762D02*
X173065476Y-96819048D01*
X173684524Y-96819048D01*
X171732143Y-112902381D02*
X171398809Y-112426190D01*
X171160714Y-112902381D02*
X171160714Y-111902381D01*
X171541667Y-111902381D01*
X171636905Y-111950000D01*
X171684524Y-111997619D01*
X171732143Y-112092857D01*
X171732143Y-112235714D01*
X171684524Y-112330952D01*
X171636905Y-112378571D01*
X171541667Y-112426190D01*
X171160714Y-112426190D01*
X172113095Y-111997619D02*
X172160714Y-111950000D01*
X172255952Y-111902381D01*
X172494048Y-111902381D01*
X172589286Y-111950000D01*
X172636905Y-111997619D01*
X172684524Y-112092857D01*
X172684524Y-112188095D01*
X172636905Y-112330952D01*
X172065476Y-112902381D01*
X172684524Y-112902381D01*
X173589286Y-111902381D02*
X173113095Y-111902381D01*
X173065476Y-112378571D01*
X173113095Y-112330952D01*
X173208333Y-112283333D01*
X173446429Y-112283333D01*
X173541667Y-112330952D01*
X173589286Y-112378571D01*
X173636905Y-112473810D01*
X173636905Y-112711905D01*
X173589286Y-112807143D01*
X173541667Y-112854762D01*
X173446429Y-112902381D01*
X173208333Y-112902381D01*
X173113095Y-112854762D01*
X173065476Y-112807143D01*
X124657143Y-68027381D02*
X124323809Y-67551190D01*
X124085714Y-68027381D02*
X124085714Y-67027381D01*
X124466667Y-67027381D01*
X124561905Y-67075000D01*
X124609524Y-67122619D01*
X124657143Y-67217857D01*
X124657143Y-67360714D01*
X124609524Y-67455952D01*
X124561905Y-67503571D01*
X124466667Y-67551190D01*
X124085714Y-67551190D01*
X125038095Y-67122619D02*
X125085714Y-67075000D01*
X125180952Y-67027381D01*
X125419048Y-67027381D01*
X125514286Y-67075000D01*
X125561905Y-67122619D01*
X125609524Y-67217857D01*
X125609524Y-67313095D01*
X125561905Y-67455952D01*
X124990476Y-68027381D01*
X125609524Y-68027381D01*
X126466667Y-67027381D02*
X126276190Y-67027381D01*
X126180952Y-67075000D01*
X126133333Y-67122619D01*
X126038095Y-67265476D01*
X125990476Y-67455952D01*
X125990476Y-67836905D01*
X126038095Y-67932143D01*
X126085714Y-67979762D01*
X126180952Y-68027381D01*
X126371429Y-68027381D01*
X126466667Y-67979762D01*
X126514286Y-67932143D01*
X126561905Y-67836905D01*
X126561905Y-67598810D01*
X126514286Y-67503571D01*
X126466667Y-67455952D01*
X126371429Y-67408333D01*
X126180952Y-67408333D01*
X126085714Y-67455952D01*
X126038095Y-67503571D01*
X125990476Y-67598810D01*
X106332143Y-80777381D02*
X105998809Y-80301190D01*
X105760714Y-80777381D02*
X105760714Y-79777381D01*
X106141667Y-79777381D01*
X106236905Y-79825000D01*
X106284524Y-79872619D01*
X106332143Y-79967857D01*
X106332143Y-80110714D01*
X106284524Y-80205952D01*
X106236905Y-80253571D01*
X106141667Y-80301190D01*
X105760714Y-80301190D01*
X106713095Y-79872619D02*
X106760714Y-79825000D01*
X106855952Y-79777381D01*
X107094048Y-79777381D01*
X107189286Y-79825000D01*
X107236905Y-79872619D01*
X107284524Y-79967857D01*
X107284524Y-80063095D01*
X107236905Y-80205952D01*
X106665476Y-80777381D01*
X107284524Y-80777381D01*
X107617857Y-79777381D02*
X108284524Y-79777381D01*
X107855952Y-80777381D01*
X106532143Y-96827381D02*
X106198809Y-96351190D01*
X105960714Y-96827381D02*
X105960714Y-95827381D01*
X106341667Y-95827381D01*
X106436905Y-95875000D01*
X106484524Y-95922619D01*
X106532143Y-96017857D01*
X106532143Y-96160714D01*
X106484524Y-96255952D01*
X106436905Y-96303571D01*
X106341667Y-96351190D01*
X105960714Y-96351190D01*
X106913095Y-95922619D02*
X106960714Y-95875000D01*
X107055952Y-95827381D01*
X107294048Y-95827381D01*
X107389286Y-95875000D01*
X107436905Y-95922619D01*
X107484524Y-96017857D01*
X107484524Y-96113095D01*
X107436905Y-96255952D01*
X106865476Y-96827381D01*
X107484524Y-96827381D01*
X108055952Y-96255952D02*
X107960714Y-96208333D01*
X107913095Y-96160714D01*
X107865476Y-96065476D01*
X107865476Y-96017857D01*
X107913095Y-95922619D01*
X107960714Y-95875000D01*
X108055952Y-95827381D01*
X108246429Y-95827381D01*
X108341667Y-95875000D01*
X108389286Y-95922619D01*
X108436905Y-96017857D01*
X108436905Y-96065476D01*
X108389286Y-96160714D01*
X108341667Y-96208333D01*
X108246429Y-96255952D01*
X108055952Y-96255952D01*
X107960714Y-96303571D01*
X107913095Y-96351190D01*
X107865476Y-96446429D01*
X107865476Y-96636905D01*
X107913095Y-96732143D01*
X107960714Y-96779762D01*
X108055952Y-96827381D01*
X108246429Y-96827381D01*
X108341667Y-96779762D01*
X108389286Y-96732143D01*
X108436905Y-96636905D01*
X108436905Y-96446429D01*
X108389286Y-96351190D01*
X108341667Y-96303571D01*
X108246429Y-96255952D01*
X106657143Y-112577381D02*
X106323809Y-112101190D01*
X106085714Y-112577381D02*
X106085714Y-111577381D01*
X106466667Y-111577381D01*
X106561905Y-111625000D01*
X106609524Y-111672619D01*
X106657143Y-111767857D01*
X106657143Y-111910714D01*
X106609524Y-112005952D01*
X106561905Y-112053571D01*
X106466667Y-112101190D01*
X106085714Y-112101190D01*
X107038095Y-111672619D02*
X107085714Y-111625000D01*
X107180952Y-111577381D01*
X107419048Y-111577381D01*
X107514286Y-111625000D01*
X107561905Y-111672619D01*
X107609524Y-111767857D01*
X107609524Y-111863095D01*
X107561905Y-112005952D01*
X106990476Y-112577381D01*
X107609524Y-112577381D01*
X108085714Y-112577381D02*
X108276190Y-112577381D01*
X108371429Y-112529762D01*
X108419048Y-112482143D01*
X108514286Y-112339286D01*
X108561905Y-112148810D01*
X108561905Y-111767857D01*
X108514286Y-111672619D01*
X108466667Y-111625000D01*
X108371429Y-111577381D01*
X108180952Y-111577381D01*
X108085714Y-111625000D01*
X108038095Y-111672619D01*
X107990476Y-111767857D01*
X107990476Y-112005952D01*
X108038095Y-112101190D01*
X108085714Y-112148810D01*
X108180952Y-112196429D01*
X108371429Y-112196429D01*
X108466667Y-112148810D01*
X108514286Y-112101190D01*
X108561905Y-112005952D01*
X114582143Y-74002381D02*
X114248809Y-73526190D01*
X114010714Y-74002381D02*
X114010714Y-73002381D01*
X114391667Y-73002381D01*
X114486905Y-73050000D01*
X114534524Y-73097619D01*
X114582143Y-73192857D01*
X114582143Y-73335714D01*
X114534524Y-73430952D01*
X114486905Y-73478571D01*
X114391667Y-73526190D01*
X114010714Y-73526190D01*
X114915476Y-73002381D02*
X115534524Y-73002381D01*
X115201190Y-73383333D01*
X115344048Y-73383333D01*
X115439286Y-73430952D01*
X115486905Y-73478571D01*
X115534524Y-73573810D01*
X115534524Y-73811905D01*
X115486905Y-73907143D01*
X115439286Y-73954762D01*
X115344048Y-74002381D01*
X115058333Y-74002381D01*
X114963095Y-73954762D01*
X114915476Y-73907143D01*
X116153571Y-73002381D02*
X116248810Y-73002381D01*
X116344048Y-73050000D01*
X116391667Y-73097619D01*
X116439286Y-73192857D01*
X116486905Y-73383333D01*
X116486905Y-73621429D01*
X116439286Y-73811905D01*
X116391667Y-73907143D01*
X116344048Y-73954762D01*
X116248810Y-74002381D01*
X116153571Y-74002381D01*
X116058333Y-73954762D01*
X116010714Y-73907143D01*
X115963095Y-73811905D01*
X115915476Y-73621429D01*
X115915476Y-73383333D01*
X115963095Y-73192857D01*
X116010714Y-73097619D01*
X116058333Y-73050000D01*
X116153571Y-73002381D01*
X114857143Y-90002381D02*
X114523809Y-89526190D01*
X114285714Y-90002381D02*
X114285714Y-89002381D01*
X114666667Y-89002381D01*
X114761905Y-89050000D01*
X114809524Y-89097619D01*
X114857143Y-89192857D01*
X114857143Y-89335714D01*
X114809524Y-89430952D01*
X114761905Y-89478571D01*
X114666667Y-89526190D01*
X114285714Y-89526190D01*
X115190476Y-89002381D02*
X115809524Y-89002381D01*
X115476190Y-89383333D01*
X115619048Y-89383333D01*
X115714286Y-89430952D01*
X115761905Y-89478571D01*
X115809524Y-89573810D01*
X115809524Y-89811905D01*
X115761905Y-89907143D01*
X115714286Y-89954762D01*
X115619048Y-90002381D01*
X115333333Y-90002381D01*
X115238095Y-89954762D01*
X115190476Y-89907143D01*
X116761905Y-90002381D02*
X116190476Y-90002381D01*
X116476190Y-90002381D02*
X116476190Y-89002381D01*
X116380952Y-89145238D01*
X116285714Y-89240476D01*
X116190476Y-89288095D01*
X114757143Y-105702381D02*
X114423809Y-105226190D01*
X114185714Y-105702381D02*
X114185714Y-104702381D01*
X114566667Y-104702381D01*
X114661905Y-104750000D01*
X114709524Y-104797619D01*
X114757143Y-104892857D01*
X114757143Y-105035714D01*
X114709524Y-105130952D01*
X114661905Y-105178571D01*
X114566667Y-105226190D01*
X114185714Y-105226190D01*
X115090476Y-104702381D02*
X115709524Y-104702381D01*
X115376190Y-105083333D01*
X115519048Y-105083333D01*
X115614286Y-105130952D01*
X115661905Y-105178571D01*
X115709524Y-105273810D01*
X115709524Y-105511905D01*
X115661905Y-105607143D01*
X115614286Y-105654762D01*
X115519048Y-105702381D01*
X115233333Y-105702381D01*
X115138095Y-105654762D01*
X115090476Y-105607143D01*
X116090476Y-104797619D02*
X116138095Y-104750000D01*
X116233333Y-104702381D01*
X116471429Y-104702381D01*
X116566667Y-104750000D01*
X116614286Y-104797619D01*
X116661905Y-104892857D01*
X116661905Y-104988095D01*
X116614286Y-105130952D01*
X116042857Y-105702381D01*
X116661905Y-105702381D01*
X129332143Y-74752381D02*
X128998809Y-74276190D01*
X128760714Y-74752381D02*
X128760714Y-73752381D01*
X129141667Y-73752381D01*
X129236905Y-73800000D01*
X129284524Y-73847619D01*
X129332143Y-73942857D01*
X129332143Y-74085714D01*
X129284524Y-74180952D01*
X129236905Y-74228571D01*
X129141667Y-74276190D01*
X128760714Y-74276190D01*
X129665476Y-73752381D02*
X130284524Y-73752381D01*
X129951190Y-74133333D01*
X130094048Y-74133333D01*
X130189286Y-74180952D01*
X130236905Y-74228571D01*
X130284524Y-74323810D01*
X130284524Y-74561905D01*
X130236905Y-74657143D01*
X130189286Y-74704762D01*
X130094048Y-74752381D01*
X129808333Y-74752381D01*
X129713095Y-74704762D01*
X129665476Y-74657143D01*
X130617857Y-73752381D02*
X131236905Y-73752381D01*
X130903571Y-74133333D01*
X131046429Y-74133333D01*
X131141667Y-74180952D01*
X131189286Y-74228571D01*
X131236905Y-74323810D01*
X131236905Y-74561905D01*
X131189286Y-74657143D01*
X131141667Y-74704762D01*
X131046429Y-74752381D01*
X130760714Y-74752381D01*
X130665476Y-74704762D01*
X130617857Y-74657143D01*
X129257143Y-90877381D02*
X128923809Y-90401190D01*
X128685714Y-90877381D02*
X128685714Y-89877381D01*
X129066667Y-89877381D01*
X129161905Y-89925000D01*
X129209524Y-89972619D01*
X129257143Y-90067857D01*
X129257143Y-90210714D01*
X129209524Y-90305952D01*
X129161905Y-90353571D01*
X129066667Y-90401190D01*
X128685714Y-90401190D01*
X129590476Y-89877381D02*
X130209524Y-89877381D01*
X129876190Y-90258333D01*
X130019048Y-90258333D01*
X130114286Y-90305952D01*
X130161905Y-90353571D01*
X130209524Y-90448810D01*
X130209524Y-90686905D01*
X130161905Y-90782143D01*
X130114286Y-90829762D01*
X130019048Y-90877381D01*
X129733333Y-90877381D01*
X129638095Y-90829762D01*
X129590476Y-90782143D01*
X131066667Y-90210714D02*
X131066667Y-90877381D01*
X130828571Y-89829762D02*
X130590476Y-90544048D01*
X131209524Y-90544048D01*
X129282143Y-106652381D02*
X128948809Y-106176190D01*
X128710714Y-106652381D02*
X128710714Y-105652381D01*
X129091667Y-105652381D01*
X129186905Y-105700000D01*
X129234524Y-105747619D01*
X129282143Y-105842857D01*
X129282143Y-105985714D01*
X129234524Y-106080952D01*
X129186905Y-106128571D01*
X129091667Y-106176190D01*
X128710714Y-106176190D01*
X129615476Y-105652381D02*
X130234524Y-105652381D01*
X129901190Y-106033333D01*
X130044048Y-106033333D01*
X130139286Y-106080952D01*
X130186905Y-106128571D01*
X130234524Y-106223810D01*
X130234524Y-106461905D01*
X130186905Y-106557143D01*
X130139286Y-106604762D01*
X130044048Y-106652381D01*
X129758333Y-106652381D01*
X129663095Y-106604762D01*
X129615476Y-106557143D01*
X131139286Y-105652381D02*
X130663095Y-105652381D01*
X130615476Y-106128571D01*
X130663095Y-106080952D01*
X130758333Y-106033333D01*
X130996429Y-106033333D01*
X131091667Y-106080952D01*
X131139286Y-106128571D01*
X131186905Y-106223810D01*
X131186905Y-106461905D01*
X131139286Y-106557143D01*
X131091667Y-106604762D01*
X130996429Y-106652381D01*
X130758333Y-106652381D01*
X130663095Y-106604762D01*
X130615476Y-106557143D01*
X135332143Y-71552381D02*
X134998809Y-71076190D01*
X134760714Y-71552381D02*
X134760714Y-70552381D01*
X135141667Y-70552381D01*
X135236905Y-70600000D01*
X135284524Y-70647619D01*
X135332143Y-70742857D01*
X135332143Y-70885714D01*
X135284524Y-70980952D01*
X135236905Y-71028571D01*
X135141667Y-71076190D01*
X134760714Y-71076190D01*
X135665476Y-70552381D02*
X136284524Y-70552381D01*
X135951190Y-70933333D01*
X136094048Y-70933333D01*
X136189286Y-70980952D01*
X136236905Y-71028571D01*
X136284524Y-71123810D01*
X136284524Y-71361905D01*
X136236905Y-71457143D01*
X136189286Y-71504762D01*
X136094048Y-71552381D01*
X135808333Y-71552381D01*
X135713095Y-71504762D01*
X135665476Y-71457143D01*
X137141667Y-70552381D02*
X136951190Y-70552381D01*
X136855952Y-70600000D01*
X136808333Y-70647619D01*
X136713095Y-70790476D01*
X136665476Y-70980952D01*
X136665476Y-71361905D01*
X136713095Y-71457143D01*
X136760714Y-71504762D01*
X136855952Y-71552381D01*
X137046429Y-71552381D01*
X137141667Y-71504762D01*
X137189286Y-71457143D01*
X137236905Y-71361905D01*
X137236905Y-71123810D01*
X137189286Y-71028571D01*
X137141667Y-70980952D01*
X137046429Y-70933333D01*
X136855952Y-70933333D01*
X136760714Y-70980952D01*
X136713095Y-71028571D01*
X136665476Y-71123810D01*
X135107143Y-87627381D02*
X134773809Y-87151190D01*
X134535714Y-87627381D02*
X134535714Y-86627381D01*
X134916667Y-86627381D01*
X135011905Y-86675000D01*
X135059524Y-86722619D01*
X135107143Y-86817857D01*
X135107143Y-86960714D01*
X135059524Y-87055952D01*
X135011905Y-87103571D01*
X134916667Y-87151190D01*
X134535714Y-87151190D01*
X135440476Y-86627381D02*
X136059524Y-86627381D01*
X135726190Y-87008333D01*
X135869048Y-87008333D01*
X135964286Y-87055952D01*
X136011905Y-87103571D01*
X136059524Y-87198810D01*
X136059524Y-87436905D01*
X136011905Y-87532143D01*
X135964286Y-87579762D01*
X135869048Y-87627381D01*
X135583333Y-87627381D01*
X135488095Y-87579762D01*
X135440476Y-87532143D01*
X136392857Y-86627381D02*
X137059524Y-86627381D01*
X136630952Y-87627381D01*
X135107143Y-103452381D02*
X134773809Y-102976190D01*
X134535714Y-103452381D02*
X134535714Y-102452381D01*
X134916667Y-102452381D01*
X135011905Y-102500000D01*
X135059524Y-102547619D01*
X135107143Y-102642857D01*
X135107143Y-102785714D01*
X135059524Y-102880952D01*
X135011905Y-102928571D01*
X134916667Y-102976190D01*
X134535714Y-102976190D01*
X135440476Y-102452381D02*
X136059524Y-102452381D01*
X135726190Y-102833333D01*
X135869048Y-102833333D01*
X135964286Y-102880952D01*
X136011905Y-102928571D01*
X136059524Y-103023810D01*
X136059524Y-103261905D01*
X136011905Y-103357143D01*
X135964286Y-103404762D01*
X135869048Y-103452381D01*
X135583333Y-103452381D01*
X135488095Y-103404762D01*
X135440476Y-103357143D01*
X136630952Y-102880952D02*
X136535714Y-102833333D01*
X136488095Y-102785714D01*
X136440476Y-102690476D01*
X136440476Y-102642857D01*
X136488095Y-102547619D01*
X136535714Y-102500000D01*
X136630952Y-102452381D01*
X136821429Y-102452381D01*
X136916667Y-102500000D01*
X136964286Y-102547619D01*
X137011905Y-102642857D01*
X137011905Y-102690476D01*
X136964286Y-102785714D01*
X136916667Y-102833333D01*
X136821429Y-102880952D01*
X136630952Y-102880952D01*
X136535714Y-102928571D01*
X136488095Y-102976190D01*
X136440476Y-103071429D01*
X136440476Y-103261905D01*
X136488095Y-103357143D01*
X136535714Y-103404762D01*
X136630952Y-103452381D01*
X136821429Y-103452381D01*
X136916667Y-103404762D01*
X136964286Y-103357143D01*
X137011905Y-103261905D01*
X137011905Y-103071429D01*
X136964286Y-102976190D01*
X136916667Y-102928571D01*
X136821429Y-102880952D01*
X124882143Y-83552381D02*
X124548809Y-83076190D01*
X124310714Y-83552381D02*
X124310714Y-82552381D01*
X124691667Y-82552381D01*
X124786905Y-82600000D01*
X124834524Y-82647619D01*
X124882143Y-82742857D01*
X124882143Y-82885714D01*
X124834524Y-82980952D01*
X124786905Y-83028571D01*
X124691667Y-83076190D01*
X124310714Y-83076190D01*
X125215476Y-82552381D02*
X125834524Y-82552381D01*
X125501190Y-82933333D01*
X125644048Y-82933333D01*
X125739286Y-82980952D01*
X125786905Y-83028571D01*
X125834524Y-83123810D01*
X125834524Y-83361905D01*
X125786905Y-83457143D01*
X125739286Y-83504762D01*
X125644048Y-83552381D01*
X125358333Y-83552381D01*
X125263095Y-83504762D01*
X125215476Y-83457143D01*
X126310714Y-83552381D02*
X126501190Y-83552381D01*
X126596429Y-83504762D01*
X126644048Y-83457143D01*
X126739286Y-83314286D01*
X126786905Y-83123810D01*
X126786905Y-82742857D01*
X126739286Y-82647619D01*
X126691667Y-82600000D01*
X126596429Y-82552381D01*
X126405952Y-82552381D01*
X126310714Y-82600000D01*
X126263095Y-82647619D01*
X126215476Y-82742857D01*
X126215476Y-82980952D01*
X126263095Y-83076190D01*
X126310714Y-83123810D01*
X126405952Y-83171429D01*
X126596429Y-83171429D01*
X126691667Y-83123810D01*
X126739286Y-83076190D01*
X126786905Y-82980952D01*
X124832143Y-99627381D02*
X124498809Y-99151190D01*
X124260714Y-99627381D02*
X124260714Y-98627381D01*
X124641667Y-98627381D01*
X124736905Y-98675000D01*
X124784524Y-98722619D01*
X124832143Y-98817857D01*
X124832143Y-98960714D01*
X124784524Y-99055952D01*
X124736905Y-99103571D01*
X124641667Y-99151190D01*
X124260714Y-99151190D01*
X125689286Y-98960714D02*
X125689286Y-99627381D01*
X125451190Y-98579762D02*
X125213095Y-99294048D01*
X125832143Y-99294048D01*
X126403571Y-98627381D02*
X126498810Y-98627381D01*
X126594048Y-98675000D01*
X126641667Y-98722619D01*
X126689286Y-98817857D01*
X126736905Y-99008333D01*
X126736905Y-99246429D01*
X126689286Y-99436905D01*
X126641667Y-99532143D01*
X126594048Y-99579762D01*
X126498810Y-99627381D01*
X126403571Y-99627381D01*
X126308333Y-99579762D01*
X126260714Y-99532143D01*
X126213095Y-99436905D01*
X126165476Y-99246429D01*
X126165476Y-99008333D01*
X126213095Y-98817857D01*
X126260714Y-98722619D01*
X126308333Y-98675000D01*
X126403571Y-98627381D01*
X125007143Y-115377381D02*
X124673809Y-114901190D01*
X124435714Y-115377381D02*
X124435714Y-114377381D01*
X124816667Y-114377381D01*
X124911905Y-114425000D01*
X124959524Y-114472619D01*
X125007143Y-114567857D01*
X125007143Y-114710714D01*
X124959524Y-114805952D01*
X124911905Y-114853571D01*
X124816667Y-114901190D01*
X124435714Y-114901190D01*
X125864286Y-114710714D02*
X125864286Y-115377381D01*
X125626190Y-114329762D02*
X125388095Y-115044048D01*
X126007143Y-115044048D01*
X126911905Y-115377381D02*
X126340476Y-115377381D01*
X126626190Y-115377381D02*
X126626190Y-114377381D01*
X126530952Y-114520238D01*
X126435714Y-114615476D01*
X126340476Y-114663095D01*
X99657143Y-124277381D02*
X99323809Y-123801190D01*
X99085714Y-124277381D02*
X99085714Y-123277381D01*
X99466667Y-123277381D01*
X99561905Y-123325000D01*
X99609524Y-123372619D01*
X99657143Y-123467857D01*
X99657143Y-123610714D01*
X99609524Y-123705952D01*
X99561905Y-123753571D01*
X99466667Y-123801190D01*
X99085714Y-123801190D01*
X100514286Y-123610714D02*
X100514286Y-124277381D01*
X100276190Y-123229762D02*
X100038095Y-123944048D01*
X100657143Y-123944048D01*
X100942857Y-123277381D02*
X101561905Y-123277381D01*
X101228571Y-123658333D01*
X101371429Y-123658333D01*
X101466667Y-123705952D01*
X101514286Y-123753571D01*
X101561905Y-123848810D01*
X101561905Y-124086905D01*
X101514286Y-124182143D01*
X101466667Y-124229762D01*
X101371429Y-124277381D01*
X101085714Y-124277381D01*
X100990476Y-124229762D01*
X100942857Y-124182143D01*
X103107143Y-65702381D02*
X102773809Y-65226190D01*
X102535714Y-65702381D02*
X102535714Y-64702381D01*
X102916667Y-64702381D01*
X103011905Y-64750000D01*
X103059524Y-64797619D01*
X103107143Y-64892857D01*
X103107143Y-65035714D01*
X103059524Y-65130952D01*
X103011905Y-65178571D01*
X102916667Y-65226190D01*
X102535714Y-65226190D01*
X103964286Y-65035714D02*
X103964286Y-65702381D01*
X103726190Y-64654762D02*
X103488095Y-65369048D01*
X104107143Y-65369048D01*
X104964286Y-64702381D02*
X104488095Y-64702381D01*
X104440476Y-65178571D01*
X104488095Y-65130952D01*
X104583333Y-65083333D01*
X104821429Y-65083333D01*
X104916667Y-65130952D01*
X104964286Y-65178571D01*
X105011905Y-65273810D01*
X105011905Y-65511905D01*
X104964286Y-65607143D01*
X104916667Y-65654762D01*
X104821429Y-65702381D01*
X104583333Y-65702381D01*
X104488095Y-65654762D01*
X104440476Y-65607143D01*
X96582143Y-79827381D02*
X96248809Y-79351190D01*
X96010714Y-79827381D02*
X96010714Y-78827381D01*
X96391667Y-78827381D01*
X96486905Y-78875000D01*
X96534524Y-78922619D01*
X96582143Y-79017857D01*
X96582143Y-79160714D01*
X96534524Y-79255952D01*
X96486905Y-79303571D01*
X96391667Y-79351190D01*
X96010714Y-79351190D01*
X97439286Y-79160714D02*
X97439286Y-79827381D01*
X97201190Y-78779762D02*
X96963095Y-79494048D01*
X97582143Y-79494048D01*
X98391667Y-78827381D02*
X98201190Y-78827381D01*
X98105952Y-78875000D01*
X98058333Y-78922619D01*
X97963095Y-79065476D01*
X97915476Y-79255952D01*
X97915476Y-79636905D01*
X97963095Y-79732143D01*
X98010714Y-79779762D01*
X98105952Y-79827381D01*
X98296429Y-79827381D01*
X98391667Y-79779762D01*
X98439286Y-79732143D01*
X98486905Y-79636905D01*
X98486905Y-79398810D01*
X98439286Y-79303571D01*
X98391667Y-79255952D01*
X98296429Y-79208333D01*
X98105952Y-79208333D01*
X98010714Y-79255952D01*
X97963095Y-79303571D01*
X97915476Y-79398810D01*
X171207143Y-130102381D02*
X170873809Y-129626190D01*
X170635714Y-130102381D02*
X170635714Y-129102381D01*
X171016667Y-129102381D01*
X171111905Y-129150000D01*
X171159524Y-129197619D01*
X171207143Y-129292857D01*
X171207143Y-129435714D01*
X171159524Y-129530952D01*
X171111905Y-129578571D01*
X171016667Y-129626190D01*
X170635714Y-129626190D01*
X172064286Y-129435714D02*
X172064286Y-130102381D01*
X171826190Y-129054762D02*
X171588095Y-129769048D01*
X172207143Y-129769048D01*
X172492857Y-129102381D02*
X173159524Y-129102381D01*
X172730952Y-130102381D01*
X101413095Y-131052381D02*
X101413095Y-131861905D01*
X101460714Y-131957143D01*
X101508333Y-132004762D01*
X101603571Y-132052381D01*
X101794048Y-132052381D01*
X101889286Y-132004762D01*
X101936905Y-131957143D01*
X101984524Y-131861905D01*
X101984524Y-131052381D01*
X102413095Y-131147619D02*
X102460714Y-131100000D01*
X102555952Y-131052381D01*
X102794048Y-131052381D01*
X102889286Y-131100000D01*
X102936905Y-131147619D01*
X102984524Y-131242857D01*
X102984524Y-131338095D01*
X102936905Y-131480952D01*
X102365476Y-132052381D01*
X102984524Y-132052381D01*
X87063095Y-70777381D02*
X87063095Y-71586905D01*
X87110714Y-71682143D01*
X87158333Y-71729762D01*
X87253571Y-71777381D01*
X87444048Y-71777381D01*
X87539286Y-71729762D01*
X87586905Y-71682143D01*
X87634524Y-71586905D01*
X87634524Y-70777381D01*
X88015476Y-70777381D02*
X88634524Y-70777381D01*
X88301190Y-71158333D01*
X88444048Y-71158333D01*
X88539286Y-71205952D01*
X88586905Y-71253571D01*
X88634524Y-71348810D01*
X88634524Y-71586905D01*
X88586905Y-71682143D01*
X88539286Y-71729762D01*
X88444048Y-71777381D01*
X88158333Y-71777381D01*
X88063095Y-71729762D01*
X88015476Y-71682143D01*
X95811905Y-127627381D02*
X95811905Y-126627381D01*
X96050000Y-126627381D01*
X96192858Y-126675000D01*
X96288096Y-126770238D01*
X96335715Y-126865476D01*
X96383334Y-127055952D01*
X96383334Y-127198810D01*
X96335715Y-127389286D01*
X96288096Y-127484524D01*
X96192858Y-127579762D01*
X96050000Y-127627381D01*
X95811905Y-127627381D01*
X97335715Y-127627381D02*
X96764286Y-127627381D01*
X97050000Y-127627381D02*
X97050000Y-126627381D01*
X96954762Y-126770238D01*
X96859524Y-126865476D01*
X96764286Y-126913095D01*
X102436905Y-61577381D02*
X102436905Y-60577381D01*
X102675000Y-60577381D01*
X102817858Y-60625000D01*
X102913096Y-60720238D01*
X102960715Y-60815476D01*
X103008334Y-61005952D01*
X103008334Y-61148810D01*
X102960715Y-61339286D01*
X102913096Y-61434524D01*
X102817858Y-61529762D01*
X102675000Y-61577381D01*
X102436905Y-61577381D01*
X103389286Y-60672619D02*
X103436905Y-60625000D01*
X103532143Y-60577381D01*
X103770239Y-60577381D01*
X103865477Y-60625000D01*
X103913096Y-60672619D01*
X103960715Y-60767857D01*
X103960715Y-60863095D01*
X103913096Y-61005952D01*
X103341667Y-61577381D01*
X103960715Y-61577381D01*
X99736905Y-85352381D02*
X99736905Y-84352381D01*
X99975000Y-84352381D01*
X100117858Y-84400000D01*
X100213096Y-84495238D01*
X100260715Y-84590476D01*
X100308334Y-84780952D01*
X100308334Y-84923810D01*
X100260715Y-85114286D01*
X100213096Y-85209524D01*
X100117858Y-85304762D01*
X99975000Y-85352381D01*
X99736905Y-85352381D01*
X100641667Y-84352381D02*
X101260715Y-84352381D01*
X100927381Y-84733333D01*
X101070239Y-84733333D01*
X101165477Y-84780952D01*
X101213096Y-84828571D01*
X101260715Y-84923810D01*
X101260715Y-85161905D01*
X101213096Y-85257143D01*
X101165477Y-85304762D01*
X101070239Y-85352381D01*
X100784524Y-85352381D01*
X100689286Y-85304762D01*
X100641667Y-85257143D01*
X94891667Y-87077381D02*
X94891667Y-87791667D01*
X94844047Y-87934524D01*
X94748809Y-88029762D01*
X94605952Y-88077381D01*
X94510714Y-88077381D01*
X95272619Y-87077381D02*
X95891667Y-87077381D01*
X95558333Y-87458333D01*
X95701191Y-87458333D01*
X95796429Y-87505952D01*
X95844048Y-87553571D01*
X95891667Y-87648810D01*
X95891667Y-87886905D01*
X95844048Y-87982143D01*
X95796429Y-88029762D01*
X95701191Y-88077381D01*
X95415476Y-88077381D01*
X95320238Y-88029762D01*
X95272619Y-87982143D01*
X165907143Y-131677381D02*
X165573809Y-131201190D01*
X165335714Y-131677381D02*
X165335714Y-130677381D01*
X165716667Y-130677381D01*
X165811905Y-130725000D01*
X165859524Y-130772619D01*
X165907143Y-130867857D01*
X165907143Y-131010714D01*
X165859524Y-131105952D01*
X165811905Y-131153571D01*
X165716667Y-131201190D01*
X165335714Y-131201190D01*
X166764286Y-131010714D02*
X166764286Y-131677381D01*
X166526190Y-130629762D02*
X166288095Y-131344048D01*
X166907143Y-131344048D01*
X167240476Y-130772619D02*
X167288095Y-130725000D01*
X167383333Y-130677381D01*
X167621429Y-130677381D01*
X167716667Y-130725000D01*
X167764286Y-130772619D01*
X167811905Y-130867857D01*
X167811905Y-130963095D01*
X167764286Y-131105952D01*
X167192857Y-131677381D01*
X167811905Y-131677381D01*
X160057143Y-118852381D02*
X159723809Y-118376190D01*
X159485714Y-118852381D02*
X159485714Y-117852381D01*
X159866667Y-117852381D01*
X159961905Y-117900000D01*
X160009524Y-117947619D01*
X160057143Y-118042857D01*
X160057143Y-118185714D01*
X160009524Y-118280952D01*
X159961905Y-118328571D01*
X159866667Y-118376190D01*
X159485714Y-118376190D01*
X160914286Y-118185714D02*
X160914286Y-118852381D01*
X160676190Y-117804762D02*
X160438095Y-118519048D01*
X161057143Y-118519048D01*
X161866667Y-118185714D02*
X161866667Y-118852381D01*
X161628571Y-117804762D02*
X161390476Y-118519048D01*
X162009524Y-118519048D01*
X108508334Y-122507143D02*
X108460715Y-122554762D01*
X108317858Y-122602381D01*
X108222620Y-122602381D01*
X108079762Y-122554762D01*
X107984524Y-122459524D01*
X107936905Y-122364286D01*
X107889286Y-122173810D01*
X107889286Y-122030952D01*
X107936905Y-121840476D01*
X107984524Y-121745238D01*
X108079762Y-121650000D01*
X108222620Y-121602381D01*
X108317858Y-121602381D01*
X108460715Y-121650000D01*
X108508334Y-121697619D01*
X109365477Y-121935714D02*
X109365477Y-122602381D01*
X109127381Y-121554762D02*
X108889286Y-122269048D01*
X109508334Y-122269048D01*
X138923334Y-67062381D02*
X138590000Y-66586190D01*
X138351905Y-67062381D02*
X138351905Y-66062381D01*
X138732858Y-66062381D01*
X138828096Y-66110000D01*
X138875715Y-66157619D01*
X138923334Y-66252857D01*
X138923334Y-66395714D01*
X138875715Y-66490952D01*
X138828096Y-66538571D01*
X138732858Y-66586190D01*
X138351905Y-66586190D01*
X139780477Y-66062381D02*
X139590000Y-66062381D01*
X139494762Y-66110000D01*
X139447143Y-66157619D01*
X139351905Y-66300476D01*
X139304286Y-66490952D01*
X139304286Y-66871905D01*
X139351905Y-66967143D01*
X139399524Y-67014762D01*
X139494762Y-67062381D01*
X139685239Y-67062381D01*
X139780477Y-67014762D01*
X139828096Y-66967143D01*
X139875715Y-66871905D01*
X139875715Y-66633810D01*
X139828096Y-66538571D01*
X139780477Y-66490952D01*
X139685239Y-66443333D01*
X139494762Y-66443333D01*
X139399524Y-66490952D01*
X139351905Y-66538571D01*
X139304286Y-66633810D01*
D10*
X144286906Y-138588095D02*
X144286906Y-138826190D01*
X144120239Y-138326190D02*
X144286906Y-138588095D01*
X144453572Y-138326190D01*
X144882143Y-138826190D02*
X144596429Y-138826190D01*
X144739286Y-138826190D02*
X144739286Y-138326190D01*
X144691667Y-138397619D01*
X144644048Y-138445238D01*
X144596429Y-138469048D01*
D13*
X155913095Y-128077381D02*
X155913095Y-128886905D01*
X155960714Y-128982143D01*
X156008333Y-129029762D01*
X156103571Y-129077381D01*
X156294048Y-129077381D01*
X156389286Y-129029762D01*
X156436905Y-128982143D01*
X156484524Y-128886905D01*
X156484524Y-128077381D01*
X157484524Y-129077381D02*
X156913095Y-129077381D01*
X157198809Y-129077381D02*
X157198809Y-128077381D01*
X157103571Y-128220238D01*
X157008333Y-128315476D01*
X156913095Y-128363095D01*
X142957143Y-55852381D02*
X142623809Y-55376190D01*
X142385714Y-55852381D02*
X142385714Y-54852381D01*
X142766667Y-54852381D01*
X142861905Y-54900000D01*
X142909524Y-54947619D01*
X142957143Y-55042857D01*
X142957143Y-55185714D01*
X142909524Y-55280952D01*
X142861905Y-55328571D01*
X142766667Y-55376190D01*
X142385714Y-55376190D01*
X143814286Y-55185714D02*
X143814286Y-55852381D01*
X143576190Y-54804762D02*
X143338095Y-55519048D01*
X143957143Y-55519048D01*
X144480952Y-55280952D02*
X144385714Y-55233333D01*
X144338095Y-55185714D01*
X144290476Y-55090476D01*
X144290476Y-55042857D01*
X144338095Y-54947619D01*
X144385714Y-54900000D01*
X144480952Y-54852381D01*
X144671429Y-54852381D01*
X144766667Y-54900000D01*
X144814286Y-54947619D01*
X144861905Y-55042857D01*
X144861905Y-55090476D01*
X144814286Y-55185714D01*
X144766667Y-55233333D01*
X144671429Y-55280952D01*
X144480952Y-55280952D01*
X144385714Y-55328571D01*
X144338095Y-55376190D01*
X144290476Y-55471429D01*
X144290476Y-55661905D01*
X144338095Y-55757143D01*
X144385714Y-55804762D01*
X144480952Y-55852381D01*
X144671429Y-55852381D01*
X144766667Y-55804762D01*
X144814286Y-55757143D01*
X144861905Y-55661905D01*
X144861905Y-55471429D01*
X144814286Y-55376190D01*
X144766667Y-55328571D01*
X144671429Y-55280952D01*
X142507143Y-71402381D02*
X142173809Y-70926190D01*
X141935714Y-71402381D02*
X141935714Y-70402381D01*
X142316667Y-70402381D01*
X142411905Y-70450000D01*
X142459524Y-70497619D01*
X142507143Y-70592857D01*
X142507143Y-70735714D01*
X142459524Y-70830952D01*
X142411905Y-70878571D01*
X142316667Y-70926190D01*
X141935714Y-70926190D01*
X143364286Y-70735714D02*
X143364286Y-71402381D01*
X143126190Y-70354762D02*
X142888095Y-71069048D01*
X143507143Y-71069048D01*
X143935714Y-71402381D02*
X144126190Y-71402381D01*
X144221429Y-71354762D01*
X144269048Y-71307143D01*
X144364286Y-71164286D01*
X144411905Y-70973810D01*
X144411905Y-70592857D01*
X144364286Y-70497619D01*
X144316667Y-70450000D01*
X144221429Y-70402381D01*
X144030952Y-70402381D01*
X143935714Y-70450000D01*
X143888095Y-70497619D01*
X143840476Y-70592857D01*
X143840476Y-70830952D01*
X143888095Y-70926190D01*
X143935714Y-70973810D01*
X144030952Y-71021429D01*
X144221429Y-71021429D01*
X144316667Y-70973810D01*
X144364286Y-70926190D01*
X144411905Y-70830952D01*
X142557143Y-87227381D02*
X142223809Y-86751190D01*
X141985714Y-87227381D02*
X141985714Y-86227381D01*
X142366667Y-86227381D01*
X142461905Y-86275000D01*
X142509524Y-86322619D01*
X142557143Y-86417857D01*
X142557143Y-86560714D01*
X142509524Y-86655952D01*
X142461905Y-86703571D01*
X142366667Y-86751190D01*
X141985714Y-86751190D01*
X143461905Y-86227381D02*
X142985714Y-86227381D01*
X142938095Y-86703571D01*
X142985714Y-86655952D01*
X143080952Y-86608333D01*
X143319048Y-86608333D01*
X143414286Y-86655952D01*
X143461905Y-86703571D01*
X143509524Y-86798810D01*
X143509524Y-87036905D01*
X143461905Y-87132143D01*
X143414286Y-87179762D01*
X143319048Y-87227381D01*
X143080952Y-87227381D01*
X142985714Y-87179762D01*
X142938095Y-87132143D01*
X144128571Y-86227381D02*
X144223810Y-86227381D01*
X144319048Y-86275000D01*
X144366667Y-86322619D01*
X144414286Y-86417857D01*
X144461905Y-86608333D01*
X144461905Y-86846429D01*
X144414286Y-87036905D01*
X144366667Y-87132143D01*
X144319048Y-87179762D01*
X144223810Y-87227381D01*
X144128571Y-87227381D01*
X144033333Y-87179762D01*
X143985714Y-87132143D01*
X143938095Y-87036905D01*
X143890476Y-86846429D01*
X143890476Y-86608333D01*
X143938095Y-86417857D01*
X143985714Y-86322619D01*
X144033333Y-86275000D01*
X144128571Y-86227381D01*
X142607143Y-103077381D02*
X142273809Y-102601190D01*
X142035714Y-103077381D02*
X142035714Y-102077381D01*
X142416667Y-102077381D01*
X142511905Y-102125000D01*
X142559524Y-102172619D01*
X142607143Y-102267857D01*
X142607143Y-102410714D01*
X142559524Y-102505952D01*
X142511905Y-102553571D01*
X142416667Y-102601190D01*
X142035714Y-102601190D01*
X143511905Y-102077381D02*
X143035714Y-102077381D01*
X142988095Y-102553571D01*
X143035714Y-102505952D01*
X143130952Y-102458333D01*
X143369048Y-102458333D01*
X143464286Y-102505952D01*
X143511905Y-102553571D01*
X143559524Y-102648810D01*
X143559524Y-102886905D01*
X143511905Y-102982143D01*
X143464286Y-103029762D01*
X143369048Y-103077381D01*
X143130952Y-103077381D01*
X143035714Y-103029762D01*
X142988095Y-102982143D01*
X144511905Y-103077381D02*
X143940476Y-103077381D01*
X144226190Y-103077381D02*
X144226190Y-102077381D01*
X144130952Y-102220238D01*
X144035714Y-102315476D01*
X143940476Y-102363095D01*
X106407143Y-55752381D02*
X106073809Y-55276190D01*
X105835714Y-55752381D02*
X105835714Y-54752381D01*
X106216667Y-54752381D01*
X106311905Y-54800000D01*
X106359524Y-54847619D01*
X106407143Y-54942857D01*
X106407143Y-55085714D01*
X106359524Y-55180952D01*
X106311905Y-55228571D01*
X106216667Y-55276190D01*
X105835714Y-55276190D01*
X107311905Y-54752381D02*
X106835714Y-54752381D01*
X106788095Y-55228571D01*
X106835714Y-55180952D01*
X106930952Y-55133333D01*
X107169048Y-55133333D01*
X107264286Y-55180952D01*
X107311905Y-55228571D01*
X107359524Y-55323810D01*
X107359524Y-55561905D01*
X107311905Y-55657143D01*
X107264286Y-55704762D01*
X107169048Y-55752381D01*
X106930952Y-55752381D01*
X106835714Y-55704762D01*
X106788095Y-55657143D01*
X107740476Y-54847619D02*
X107788095Y-54800000D01*
X107883333Y-54752381D01*
X108121429Y-54752381D01*
X108216667Y-54800000D01*
X108264286Y-54847619D01*
X108311905Y-54942857D01*
X108311905Y-55038095D01*
X108264286Y-55180952D01*
X107692857Y-55752381D01*
X108311905Y-55752381D01*
X106482143Y-71402381D02*
X106148809Y-70926190D01*
X105910714Y-71402381D02*
X105910714Y-70402381D01*
X106291667Y-70402381D01*
X106386905Y-70450000D01*
X106434524Y-70497619D01*
X106482143Y-70592857D01*
X106482143Y-70735714D01*
X106434524Y-70830952D01*
X106386905Y-70878571D01*
X106291667Y-70926190D01*
X105910714Y-70926190D01*
X107386905Y-70402381D02*
X106910714Y-70402381D01*
X106863095Y-70878571D01*
X106910714Y-70830952D01*
X107005952Y-70783333D01*
X107244048Y-70783333D01*
X107339286Y-70830952D01*
X107386905Y-70878571D01*
X107434524Y-70973810D01*
X107434524Y-71211905D01*
X107386905Y-71307143D01*
X107339286Y-71354762D01*
X107244048Y-71402381D01*
X107005952Y-71402381D01*
X106910714Y-71354762D01*
X106863095Y-71307143D01*
X107767857Y-70402381D02*
X108386905Y-70402381D01*
X108053571Y-70783333D01*
X108196429Y-70783333D01*
X108291667Y-70830952D01*
X108339286Y-70878571D01*
X108386905Y-70973810D01*
X108386905Y-71211905D01*
X108339286Y-71307143D01*
X108291667Y-71354762D01*
X108196429Y-71402381D01*
X107910714Y-71402381D01*
X107815476Y-71354762D01*
X107767857Y-71307143D01*
X106307143Y-87527381D02*
X105973809Y-87051190D01*
X105735714Y-87527381D02*
X105735714Y-86527381D01*
X106116667Y-86527381D01*
X106211905Y-86575000D01*
X106259524Y-86622619D01*
X106307143Y-86717857D01*
X106307143Y-86860714D01*
X106259524Y-86955952D01*
X106211905Y-87003571D01*
X106116667Y-87051190D01*
X105735714Y-87051190D01*
X107211905Y-86527381D02*
X106735714Y-86527381D01*
X106688095Y-87003571D01*
X106735714Y-86955952D01*
X106830952Y-86908333D01*
X107069048Y-86908333D01*
X107164286Y-86955952D01*
X107211905Y-87003571D01*
X107259524Y-87098810D01*
X107259524Y-87336905D01*
X107211905Y-87432143D01*
X107164286Y-87479762D01*
X107069048Y-87527381D01*
X106830952Y-87527381D01*
X106735714Y-87479762D01*
X106688095Y-87432143D01*
X108116667Y-86860714D02*
X108116667Y-87527381D01*
X107878571Y-86479762D02*
X107640476Y-87194048D01*
X108259524Y-87194048D01*
X106682143Y-103177381D02*
X106348809Y-102701190D01*
X106110714Y-103177381D02*
X106110714Y-102177381D01*
X106491667Y-102177381D01*
X106586905Y-102225000D01*
X106634524Y-102272619D01*
X106682143Y-102367857D01*
X106682143Y-102510714D01*
X106634524Y-102605952D01*
X106586905Y-102653571D01*
X106491667Y-102701190D01*
X106110714Y-102701190D01*
X107586905Y-102177381D02*
X107110714Y-102177381D01*
X107063095Y-102653571D01*
X107110714Y-102605952D01*
X107205952Y-102558333D01*
X107444048Y-102558333D01*
X107539286Y-102605952D01*
X107586905Y-102653571D01*
X107634524Y-102748810D01*
X107634524Y-102986905D01*
X107586905Y-103082143D01*
X107539286Y-103129762D01*
X107444048Y-103177381D01*
X107205952Y-103177381D01*
X107110714Y-103129762D01*
X107063095Y-103082143D01*
X108539286Y-102177381D02*
X108063095Y-102177381D01*
X108015476Y-102653571D01*
X108063095Y-102605952D01*
X108158333Y-102558333D01*
X108396429Y-102558333D01*
X108491667Y-102605952D01*
X108539286Y-102653571D01*
X108586905Y-102748810D01*
X108586905Y-102986905D01*
X108539286Y-103082143D01*
X108491667Y-103129762D01*
X108396429Y-103177381D01*
X108158333Y-103177381D01*
X108063095Y-103129762D01*
X108015476Y-103082143D01*
X138260714Y-146602381D02*
X138260714Y-145602381D01*
X138641667Y-145602381D01*
X138736905Y-145650000D01*
X138784524Y-145697619D01*
X138832143Y-145792857D01*
X138832143Y-145935714D01*
X138784524Y-146030952D01*
X138736905Y-146078571D01*
X138641667Y-146126190D01*
X138260714Y-146126190D01*
X139784524Y-146602381D02*
X139213095Y-146602381D01*
X139498809Y-146602381D02*
X139498809Y-145602381D01*
X139403571Y-145745238D01*
X139308333Y-145840476D01*
X139213095Y-145888095D01*
X140403571Y-145602381D02*
X140498810Y-145602381D01*
X140594048Y-145650000D01*
X140641667Y-145697619D01*
X140689286Y-145792857D01*
X140736905Y-145983333D01*
X140736905Y-146221429D01*
X140689286Y-146411905D01*
X140641667Y-146507143D01*
X140594048Y-146554762D01*
X140498810Y-146602381D01*
X140403571Y-146602381D01*
X140308333Y-146554762D01*
X140260714Y-146507143D01*
X140213095Y-146411905D01*
X140165476Y-146221429D01*
X140165476Y-145983333D01*
X140213095Y-145792857D01*
X140260714Y-145697619D01*
X140308333Y-145650000D01*
X140403571Y-145602381D01*
X174591905Y-132472381D02*
X174591905Y-131472381D01*
X174972858Y-131472381D01*
X175068096Y-131520000D01*
X175115715Y-131567619D01*
X175163334Y-131662857D01*
X175163334Y-131805714D01*
X175115715Y-131900952D01*
X175068096Y-131948571D01*
X174972858Y-131996190D01*
X174591905Y-131996190D01*
X176020477Y-131472381D02*
X175830000Y-131472381D01*
X175734762Y-131520000D01*
X175687143Y-131567619D01*
X175591905Y-131710476D01*
X175544286Y-131900952D01*
X175544286Y-132281905D01*
X175591905Y-132377143D01*
X175639524Y-132424762D01*
X175734762Y-132472381D01*
X175925239Y-132472381D01*
X176020477Y-132424762D01*
X176068096Y-132377143D01*
X176115715Y-132281905D01*
X176115715Y-132043810D01*
X176068096Y-131948571D01*
X176020477Y-131900952D01*
X175925239Y-131853333D01*
X175734762Y-131853333D01*
X175639524Y-131900952D01*
X175591905Y-131948571D01*
X175544286Y-132043810D01*
M02*
