G04 #@! TF.FileFunction,Soldermask,Top*
%FSLAX46Y46*%
G04 Gerber Fmt 4.6, Leading zero omitted, Abs format (unit mm)*
G04 Created by KiCad (PCBNEW 4.0.2-stable) date 03/10/2017 20:39:05*
%MOMM*%
G01*
G04 APERTURE LIST*
%ADD10C,0.100000*%
%ADD11R,1.900000X1.650000*%
%ADD12R,1.650000X1.900000*%
%ADD13R,2.100000X2.100000*%
%ADD14O,2.100000X2.100000*%
%ADD15O,3.399740X5.401260*%
%ADD16R,2.200000X2.200000*%
%ADD17O,2.200000X2.200000*%
%ADD18C,2.000000*%
%ADD19O,2.000000X2.000000*%
%ADD20R,1.900000X1.700000*%
%ADD21R,1.700000X1.900000*%
%ADD22R,1.000000X1.950000*%
%ADD23R,4.200000X2.400000*%
%ADD24R,1.900000X2.400000*%
%ADD25R,1.600000X1.600000*%
%ADD26R,2.700000X1.600000*%
%ADD27R,2.000000X0.950000*%
%ADD28R,0.950000X2.000000*%
%ADD29C,6.800000*%
%ADD30C,1.200000*%
%ADD31C,1.900000*%
G04 APERTURE END LIST*
D10*
D11*
X148575000Y-133675000D03*
X146075000Y-133675000D03*
X146075000Y-136525000D03*
X148575000Y-136525000D03*
X165425000Y-137200000D03*
X167925000Y-137200000D03*
D12*
X103975000Y-123025000D03*
X103975000Y-125525000D03*
X101250000Y-71975000D03*
X101250000Y-74475000D03*
X140125000Y-137575000D03*
X140125000Y-135075000D03*
X140125000Y-139650000D03*
X140125000Y-142150000D03*
D11*
X85950000Y-81075000D03*
X88450000Y-81075000D03*
D13*
X167750000Y-126350000D03*
D14*
X165210000Y-126350000D03*
D13*
X164800000Y-122725000D03*
D14*
X162260000Y-122725000D03*
D15*
X140231200Y-57050000D03*
X136268800Y-57050000D03*
X99668800Y-142925000D03*
X103631200Y-142925000D03*
X108418800Y-142925000D03*
X112381200Y-142925000D03*
X93943800Y-58700000D03*
X97906200Y-58700000D03*
D13*
X176700000Y-119875000D03*
D14*
X176700000Y-117335000D03*
X176700000Y-114795000D03*
D13*
X159600000Y-146200000D03*
D14*
X162140000Y-146200000D03*
X164680000Y-146200000D03*
X167220000Y-146200000D03*
D13*
X88800000Y-87275000D03*
X176700000Y-126450000D03*
D16*
X150388320Y-63723520D03*
D17*
X152928320Y-63723520D03*
X155468320Y-63723520D03*
D16*
X150373080Y-79181960D03*
D17*
X152913080Y-79181960D03*
X155453080Y-79181960D03*
D16*
X150425000Y-95275000D03*
D17*
X152965000Y-95275000D03*
X155505000Y-95275000D03*
D16*
X150425000Y-111050000D03*
D17*
X152965000Y-111050000D03*
X155505000Y-111050000D03*
D16*
X114700000Y-63725000D03*
D17*
X117240000Y-63725000D03*
X119780000Y-63725000D03*
D16*
X161437320Y-63723520D03*
D17*
X163977320Y-63723520D03*
X166517320Y-63723520D03*
D16*
X161437320Y-79181960D03*
D17*
X163977320Y-79181960D03*
X166517320Y-79181960D03*
D16*
X161425000Y-95275000D03*
D17*
X163965000Y-95275000D03*
X166505000Y-95275000D03*
D16*
X161425000Y-111050000D03*
D17*
X163965000Y-111050000D03*
X166505000Y-111050000D03*
D16*
X125750000Y-63750000D03*
D17*
X128290000Y-63750000D03*
X130830000Y-63750000D03*
D16*
X114700000Y-79181960D03*
D17*
X117240000Y-79181960D03*
X119780000Y-79181960D03*
D16*
X114700000Y-95275000D03*
D17*
X117240000Y-95275000D03*
X119780000Y-95275000D03*
D16*
X114700000Y-111050000D03*
D17*
X117240000Y-111050000D03*
X119780000Y-111050000D03*
D16*
X125750000Y-79181960D03*
D17*
X128290000Y-79181960D03*
X130830000Y-79181960D03*
D16*
X125750000Y-95275000D03*
D17*
X128290000Y-95275000D03*
X130830000Y-95275000D03*
D16*
X125750000Y-111050000D03*
D17*
X128290000Y-111050000D03*
X130830000Y-111050000D03*
D18*
X146011900Y-64838580D03*
D19*
X146011900Y-57218580D03*
D18*
X145991580Y-80291940D03*
D19*
X145991580Y-72671940D03*
D18*
X146050000Y-96375000D03*
D19*
X146050000Y-88755000D03*
D18*
X146000000Y-112150000D03*
D19*
X146000000Y-104530000D03*
D18*
X110325000Y-64825000D03*
D19*
X110325000Y-57205000D03*
D18*
X158231840Y-55676800D03*
D19*
X150611840Y-55676800D03*
D18*
X158325000Y-71250000D03*
D19*
X150705000Y-71250000D03*
D18*
X158125000Y-87175000D03*
D19*
X150505000Y-87175000D03*
D18*
X158075000Y-102950000D03*
D19*
X150455000Y-102950000D03*
D18*
X122650000Y-55675000D03*
D19*
X115030000Y-55675000D03*
D18*
X155549600Y-58988960D03*
D19*
X163169600Y-58988960D03*
D18*
X155549600Y-74700000D03*
D19*
X163169600Y-74700000D03*
D18*
X155599600Y-90650000D03*
D19*
X163219600Y-90650000D03*
D18*
X155500000Y-106400000D03*
D19*
X163120000Y-106400000D03*
D18*
X119625000Y-59125000D03*
D19*
X127245000Y-59125000D03*
D18*
X161036000Y-55676800D03*
D19*
X168656000Y-55676800D03*
D18*
X160825000Y-71250000D03*
D19*
X168445000Y-71250000D03*
D18*
X160575000Y-87175000D03*
D19*
X168195000Y-87175000D03*
D18*
X160575000Y-102950000D03*
D19*
X168195000Y-102950000D03*
D18*
X125350000Y-55675000D03*
D19*
X132970000Y-55675000D03*
D18*
X163975000Y-67700000D03*
D19*
X171595000Y-67700000D03*
D18*
X163975000Y-83150000D03*
D19*
X171595000Y-83150000D03*
D18*
X163975000Y-99075000D03*
D19*
X171595000Y-99075000D03*
D18*
X163975000Y-114925000D03*
D19*
X171595000Y-114925000D03*
D18*
X128300000Y-67600000D03*
D19*
X135920000Y-67600000D03*
D18*
X110325000Y-80300000D03*
D19*
X110325000Y-72680000D03*
D18*
X110300000Y-96375000D03*
D19*
X110300000Y-88755000D03*
D18*
X110325000Y-112150000D03*
D19*
X110325000Y-104530000D03*
D18*
X122650000Y-71075000D03*
D19*
X115030000Y-71075000D03*
D18*
X122650000Y-87175000D03*
D19*
X115030000Y-87175000D03*
D18*
X122650000Y-102950000D03*
D19*
X115030000Y-102950000D03*
D18*
X119625000Y-74525000D03*
D19*
X127245000Y-74525000D03*
D18*
X119625000Y-90650000D03*
D19*
X127245000Y-90650000D03*
D18*
X119625000Y-106400000D03*
D19*
X127245000Y-106400000D03*
D18*
X125350000Y-71075000D03*
D19*
X132970000Y-71075000D03*
D18*
X125350000Y-87175000D03*
D19*
X132970000Y-87175000D03*
D18*
X125350000Y-102950000D03*
D19*
X132970000Y-102950000D03*
D18*
X128300000Y-83075000D03*
D19*
X135920000Y-83075000D03*
D18*
X128300000Y-99175000D03*
D19*
X135920000Y-99175000D03*
D18*
X128300000Y-114925000D03*
D19*
X135920000Y-114925000D03*
D20*
X98950000Y-125525000D03*
X101650000Y-125525000D03*
D21*
X101250000Y-68400000D03*
X101250000Y-65700000D03*
D20*
X95875000Y-81075000D03*
X98575000Y-81075000D03*
X177025000Y-129675000D03*
X174325000Y-129675000D03*
D22*
X103970000Y-134300000D03*
X105240000Y-134300000D03*
X106510000Y-134300000D03*
X107780000Y-134300000D03*
X107780000Y-128900000D03*
X106510000Y-128900000D03*
X105240000Y-128900000D03*
X103970000Y-128900000D03*
D23*
X92425000Y-68175000D03*
D24*
X92425000Y-74475000D03*
X94725000Y-74475000D03*
X90125000Y-74475000D03*
D25*
X96550000Y-125525000D03*
X96550000Y-123325000D03*
X101275000Y-63625000D03*
X101275000Y-61425000D03*
X98575000Y-83800000D03*
X98575000Y-86000000D03*
D13*
X92425000Y-87275000D03*
D14*
X92425000Y-84735000D03*
D20*
X167900000Y-129525000D03*
X165200000Y-129525000D03*
D21*
X159150000Y-120025000D03*
X159150000Y-122725000D03*
D18*
X108675000Y-124550000D03*
X111175000Y-124550000D03*
X142900000Y-64300000D03*
D19*
X135280000Y-64300000D03*
D26*
X142775000Y-137825000D03*
X142775000Y-139425000D03*
D27*
X152425000Y-131875000D03*
X152425000Y-132675000D03*
X152425000Y-133475000D03*
X152425000Y-134275000D03*
X152425000Y-135075000D03*
X152425000Y-135875000D03*
X152425000Y-136675000D03*
X152425000Y-137475000D03*
D28*
X153875000Y-138925000D03*
X154675000Y-138925000D03*
X155475000Y-138925000D03*
X156275000Y-138925000D03*
X157075000Y-138925000D03*
X157875000Y-138925000D03*
X158675000Y-138925000D03*
X159475000Y-138925000D03*
D27*
X160925000Y-137475000D03*
X160925000Y-136675000D03*
X160925000Y-135875000D03*
X160925000Y-135075000D03*
X160925000Y-134275000D03*
X160925000Y-133475000D03*
X160925000Y-132675000D03*
X160925000Y-131875000D03*
D28*
X159475000Y-130425000D03*
X158675000Y-130425000D03*
X157875000Y-130425000D03*
X157075000Y-130425000D03*
X156275000Y-130425000D03*
X155475000Y-130425000D03*
X154675000Y-130425000D03*
X153875000Y-130425000D03*
D21*
X143275000Y-57225000D03*
X143275000Y-59925000D03*
X143150000Y-72675000D03*
X143150000Y-75375000D03*
X143200000Y-88750000D03*
X143200000Y-91450000D03*
X143250000Y-104525000D03*
X143250000Y-107225000D03*
X107025000Y-57200000D03*
X107025000Y-59900000D03*
X107125000Y-72700000D03*
X107125000Y-75400000D03*
X106950000Y-88750000D03*
X106950000Y-91450000D03*
X107325000Y-104525000D03*
X107325000Y-107225000D03*
D13*
X142775000Y-146200000D03*
D14*
X145315000Y-146200000D03*
X147855000Y-146200000D03*
D13*
X176600000Y-134350000D03*
D14*
X174060000Y-134350000D03*
X176600000Y-136890000D03*
X174060000Y-136890000D03*
X176600000Y-139430000D03*
X174060000Y-139430000D03*
D29*
X175000000Y-145000000D03*
D30*
X177400000Y-145000000D03*
X176697056Y-146697056D03*
X175000000Y-147400000D03*
X173302944Y-146697056D03*
X172600000Y-145000000D03*
X173302944Y-143302944D03*
X175000000Y-142600000D03*
X176697056Y-143302944D03*
D29*
X175000000Y-55000000D03*
D30*
X177400000Y-55000000D03*
X176697056Y-56697056D03*
X175000000Y-57400000D03*
X173302944Y-56697056D03*
X172600000Y-55000000D03*
X173302944Y-53302944D03*
X175000000Y-52600000D03*
X176697056Y-53302944D03*
D29*
X85000000Y-55000000D03*
D30*
X87400000Y-55000000D03*
X86697056Y-56697056D03*
X85000000Y-57400000D03*
X83302944Y-56697056D03*
X82600000Y-55000000D03*
X83302944Y-53302944D03*
X85000000Y-52600000D03*
X86697056Y-53302944D03*
D29*
X85000000Y-145000000D03*
D30*
X87400000Y-145000000D03*
X86697056Y-146697056D03*
X85000000Y-147400000D03*
X83302944Y-146697056D03*
X82600000Y-145000000D03*
X83302944Y-143302944D03*
X85000000Y-142600000D03*
X86697056Y-143302944D03*
D31*
X97900000Y-68400000D03*
X95500000Y-90360000D03*
X138410000Y-70580000D03*
X138530000Y-83070000D03*
M02*
