M48
;DRILL file {KiCad 4.0.2-stable} date 04/10/2017 21:07:12
;FORMAT={-:-/ absolute / inch / decimal}
FMAT,2
INCH,TZ
T1C0.016
T2C0.020
T3C0.031
T4C0.039
T5C0.071
T6C0.126
%
G90
G05
M72
T1
X3.2114Y-2.5591
X3.2307Y-2.8161
X3.2339Y-2.6894
X3.2386Y-2.9303
X3.2394Y-3.0602
X3.2394Y-3.1846
X3.2406Y-3.3264
X3.2429Y-5.1646
X3.2429Y-5.3571
X3.2441Y-4.0394
X3.2445Y-4.452
X3.2445Y-4.9846
X3.2449Y-3.6453
X3.2449Y-3.7972
X3.2449Y-4.2492
X3.2461Y-4.6079
X3.2472Y-3.4496
X3.3197Y-2.4512
X3.3303Y-4.8862
X3.335Y-3.885
X3.3374Y-3.4846
X3.3402Y-3.65
X3.3402Y-4.1098
X3.3402Y-4.2949
X3.3402Y-4.789
X3.3406Y-4.485
X3.3433Y-4.6409
X3.3508Y-5.4626
X3.3528Y-2.8161
X3.3528Y-2.9303
X3.3551Y-5.0598
X3.3551Y-5.2579
X3.3598Y-3.048
X3.3606Y-2.6874
X3.3752Y-2.5559
X3.3839Y-3.126
X3.4551Y-5.3425
X3.4563Y-5.1634
X3.4563Y-5.478
X3.4697Y-2.9394
X3.474Y-2.8051
X3.4756Y-2.4795
X3.4772Y-2.6776
X3.498Y-4.9917
X3.5354Y-2.1421
X3.5429Y-3.0902
X3.5575Y-5.4142
X3.5618Y-5.2622
X3.5618Y-5.6012
X3.5642Y-5.102
X3.5866Y-2.0402
X3.5925Y-4.8839
X3.6736Y-2.1358
X3.685Y-4.9961
X3.7291Y-2.037
X3.7335Y-5.2169
X3.7441Y-5.3969
X3.7441Y-5.472
X3.7457Y-5.8303
X3.7484Y-5.5874
X3.7531Y-5.7315
X3.7831Y-5.072
X3.8173Y-5.715
X3.8205Y-5.3071
X3.822Y-5.589
X3.8252Y-5.3969
X3.8252Y-5.4913
X3.8386Y-5.2169
X3.8461Y-2.1374
X3.8612Y-4.8553
X3.8642Y-4.7205
X3.8809Y-3.4537
X3.8941Y-2.0386
X3.9016Y-5.3098
X3.9272Y-5.2201
X3.9457Y-5.0752
X3.9596Y-4.7205
X3.9705Y-5.265
X3.9791Y-3.1248
X3.9793Y-3.2264
X3.9862Y-2.7707
X3.9872Y-2.3573
X3.9902Y-2.1272
X3.9902Y-2.2469
X4.0339Y-3.2496
X4.0384Y-3.3179
X4.0429Y-4.5378
X4.0492Y-4.7205
X4.0846Y-2.0354
X4.0935Y-4.7844
X4.0937Y-4.4
X4.0945Y-4.2858
X4.1417Y-3.9813
X4.1457Y-3.2116
X4.1594Y-4.7205
X4.2098Y-3.7819
X4.2106Y-3.6634
X4.2136Y-2.4232
X4.2146Y-2.5063
X4.2175Y-3.0512
X4.224Y-4.387
X4.2244Y-2.6407
X4.2254Y-4.2854
X4.2333Y-3.8898
X4.2608Y-4.7205
X4.2689Y-4.4882
X4.2953Y-4.999
X4.3031Y-3.6906
X4.3043Y-3.5839
X4.3118Y-2.324
X4.3138Y-2.4087
X4.3201Y-3.0165
X4.3272Y-4.1976
X4.3295Y-4.2839
X4.3366Y-3.2626
X4.365Y-5.2677
X4.3705Y-4.0185
X4.374Y-2.1646
X4.377Y-5.003
X4.4039Y-2.413
X4.4161Y-2.1224
X4.4264Y-3.0598
X4.428Y-2.5783
X4.4461Y-5.3504
X4.4496Y-5.2677
X4.4594Y-3.2252
X4.4713Y-2.6217
X4.4815Y-4.7193
X4.5307Y-5.2689
X4.5398Y-5.3528
X4.5431Y-4.6577
X4.5441Y-5.4228
X4.5441Y-5.5957
X4.5465Y-5.7024
X4.5472Y-5.5087
X4.548Y-5.7705
X4.5559Y-3.8622
X4.565Y-2.6232
X4.5719Y-4.747
X4.5728Y-4.8553
X4.5846Y-4.2287
X4.587Y-3.2252
X4.6201Y-5.4512
X4.6213Y-5.3504
X4.622Y-4.75
X4.6228Y-5.5949
X4.6244Y-3.4465
X4.626Y-2.7929
X4.626Y-5.6925
X4.6287Y-4.0579
X4.6309Y-4.8573
X4.6447Y-5.0236
X4.6484Y-2.1315
X4.6983Y-5.0773
X4.7114Y-2.1961
X4.7156Y-2.6171
X4.7156Y-3.2254
X4.7156Y-3.8593
X4.7205Y-2.7929
X4.7224Y-3.4465
X4.7232Y-4.0591
X4.7461Y-5.5035
X4.7591Y-5.6677
X4.7606Y-3.6587
X4.7608Y-5.1398
X4.7654Y-4.5398
X4.7669Y-3.0031
X4.776Y-5.3642
X4.7992Y-3.5685
X4.8035Y-2.3528
X4.8091Y-4.2244
X4.8091Y-4.3276
X4.8114Y-2.6201
X4.8209Y-3.1606
X4.8224Y-3.0598
X4.8244Y-3.8598
X4.8256Y-4.4772
X4.8512Y-2.9205
X4.852Y-2.574
X4.8567Y-2.4906
X4.8587Y-3.7531
X4.8673Y-4.5551
X4.872Y-3.0043
X4.8799Y-5.789
X4.885Y-3.6543
X4.8907Y-5.1373
X4.8929Y-5.361
X4.9004Y-2.3067
X4.902Y-5.5189
X4.9079Y-4.1909
X4.9126Y-3.5157
X4.9236Y-4.6146
X4.939Y-3.8587
X4.9402Y-5.6673
X5.0049Y-5.1373
X5.0138Y-2.2264
X5.0224Y-5.7894
X5.0236Y-5.3594
X5.0264Y-3.4472
X5.0346Y-4.6165
X5.0402Y-5.5169
X5.0457Y-5.6681
X5.0642Y-4.0366
X5.0862Y-2.8094
X5.1051Y-2.224
X5.1071Y-3.4433
X5.1323Y-2.3756
X5.1368Y-5.1378
X5.1528Y-5.7898
X5.1555Y-5.3602
X5.1709Y-5.5169
X5.1752Y-2.7232
X5.1791Y-2.6335
X5.1815Y-5.6665
X5.1882Y-4.6177
X5.2409Y-2.3441
X5.2677Y-2.4409
X5.2689Y-2.7201
X5.2728Y-4.9815
X5.276Y-2.6343
X5.2864Y-2.062
X5.2894Y-3.1171
X5.2933Y-4.372
X5.2943Y-3.751
X5.3043Y-5.3614
X5.3063Y-5.7913
X5.3087Y-4.6165
X5.3323Y-5.5165
X5.3988Y-5.7004
X5.4197Y-3.4169
X5.424Y-4.113
X5.4252Y-3.7575
X5.4252Y-3.861
X5.4276Y-3.9819
X5.4406Y-2.1268
X5.4425Y-3.0736
X5.4433Y-3.148
X5.4528Y-4.6177
X5.4528Y-5.5965
X5.4577Y-5.3179
X5.4606Y-2.6346
X5.4626Y-4.4461
X5.465Y-4.3406
X5.4654Y-3.374
X5.4673Y-3.4634
X5.4697Y-3.7118
X5.4795Y-4.8539
X5.5205Y-2.6335
X5.5344Y-2.872
X5.5344Y-3.8228
X5.5354Y-3.5098
X5.5362Y-4.9823
X5.5528Y-4.511
X5.5561Y-2.44
X5.6063Y-4.6161
X5.6358Y-3.0305
X5.6378Y-3.6654
X5.6386Y-3.774
X5.6398Y-4.2844
X5.6407Y-2.4199
X5.6457Y-4.7559
X5.6579Y-4.0185
X5.6705Y-4.6161
X5.6772Y-4.511
X5.6811Y-5.375
X5.686Y-5.2628
X5.7096Y-4.7657
X5.7177Y-2.3705
X5.7331Y-3.6717
X5.7343Y-3.5795
X5.7402Y-2.1211
X5.7504Y-4.6992
X5.7551Y-2.4551
X5.7646Y-4.0169
X5.7874Y-3.8898
X5.7961Y-4.6295
X5.8169Y-5.1732
X5.8256Y-5.6575
X5.828Y-2.4559
X5.8307Y-2.6693
X5.8307Y-3.2756
X5.8445Y-2.3736
X5.8665Y-4.7
X5.8957Y-5.3179
X5.8961Y-2.6169
X5.9124Y-5.2392
X5.952Y-5.7232
X5.9528Y-4.9217
X5.9579Y-4.4803
X5.963Y-4.226
X5.988Y-5.7585
X6.0039Y-4.226
X6.0083Y-2.6157
X6.0102Y-3.8614
X6.0157Y-2.8161
X6.0248Y-2.2248
X6.0343Y-4.5547
X6.0581Y-4.7608
X6.0764Y-2.8071
X6.0791Y-2.2248
X6.0858Y-5.2224
X6.087Y-5.3179
X6.1004Y-5.3646
X6.1067Y-4.5551
X6.1079Y-5.2016
X6.1138Y-2.8543
X6.1201Y-3.2254
X6.1211Y-2.6171
X6.122Y-3.8593
X6.122Y-4.4803
X6.1362Y-5.3992
X6.1413Y-5.2531
X6.1443Y-5.8037
X6.1465Y-5.3179
X6.1508Y-5.1992
X6.1526Y-5.5423
X6.1591Y-3.6496
X6.1657Y-3.8315
X6.1705Y-4.4874
X6.1825Y-5.3533
X6.1841Y-5.5669
X6.1844Y-5.2892
X6.1902Y-4.435
X6.1941Y-2.9996
X6.1941Y-3.0854
X6.1953Y-3.1591
X6.1984Y-3.7969
X6.1992Y-5.2016
X6.2028Y-2.3484
X6.2197Y-4.9988
X6.2248Y-5.2864
X6.2272Y-2.8874
X6.2394Y-2.4091
X6.2575Y-5.3535
X6.2579Y-5.2386
X6.2602Y-3.2252
X6.2638Y-5.061
X6.2657Y-2.2823
X6.2701Y-2.9291
X6.2713Y-3.1583
X6.2744Y-3.0823
X6.2756Y-2.6224
X6.2996Y-2.3465
X6.3071Y-4.4909
X6.3071Y-5.0659
X6.311Y-3.8335
X6.3154Y-4.187
X6.3224Y-3.5445
X6.3319Y-5.1335
X6.3386Y-4.7254
X6.3484Y-4.4441
X6.3591Y-2.6433
X6.3728Y-3.8335
X6.387Y-3.4846
X6.3921Y-4.0248
X6.4217Y-3.3571
X6.428Y-5.2864
X6.4307Y-4.9169
X6.4335Y-4.0689
X6.436Y-5.1742
X6.4378Y-2.2118
X6.4457Y-5.5697
X6.4614Y-2.8106
X6.4724Y-2.7531
X6.4803Y-5.2008
X6.498Y-5.6024
X6.5118Y-5.4675
X6.5138Y-5.3209
X6.5228Y-3.6508
X6.5343Y-2.2118
X6.5362Y-2.8106
X6.5449Y-3.3551
X6.5516Y-3.2516
X6.5614Y-2.4091
X6.5697Y-5.1697
X6.5699Y-5.4675
X6.576Y-2.6512
X6.5902Y-2.5894
X6.6055Y-3.6508
X6.6106Y-2.4094
X6.6112Y-5.3346
X6.6171Y-5.4675
X6.6484Y-3.2539
X6.6539Y-3.6016
X6.6583Y-2.652
X6.6722Y-5.0994
X6.6929Y-4.373
X6.6959Y-3.1171
X6.6998Y-2.5089
X6.6998Y-3.751
X6.7185Y-5.535
X6.7736Y-5.4823
X6.7937Y-5.148
X6.8297Y-4.2372
X6.8337Y-2.375
X6.8337Y-2.9793
X6.8356Y-3.6152
X6.8465Y-4.376
X6.8476Y-4.5193
X6.8984Y-3.5504
X6.8984Y-4.0776
X6.902Y-3.9551
X6.9043Y-3.3118
X6.9059Y-3.1846
X6.9059Y-3.4335
X6.9091Y-2.4736
X6.9091Y-3.6736
X6.9106Y-2.6024
X6.9106Y-3.0614
X6.9106Y-4.1909
X6.9134Y-2.8291
X6.9138Y-3.7862
X6.9224Y-2.9402
X6.924Y-2.7126
X6.9661Y-4.2614
X6.9695Y-5.1693
X7.0173Y-3.9445
X7.024Y-2.3587
X7.0244Y-2.7157
X7.0244Y-2.8358
X7.0244Y-3.4228
X7.026Y-3.0646
X7.026Y-4.0756
X7.0264Y-3.6752
X7.0303Y-3.5567
X7.0311Y-2.9402
X7.0319Y-3.3016
X7.0335Y-2.4811
X7.035Y-3.8465
X7.0362Y-2.6024
X7.0366Y-3.174
X7.0366Y-4.185
T2
X3.252Y-2.1654
X3.252Y-5.7087
X3.2796Y-2.0985
X3.2796Y-2.2322
X3.2796Y-5.6418
X3.2796Y-5.7755
X3.3465Y-2.0709
X3.3465Y-2.2598
X3.3465Y-5.6142
X3.3465Y-5.8031
X3.4133Y-2.0985
X3.4133Y-2.2322
X3.4133Y-5.6418
X3.4133Y-5.7755
X3.4409Y-2.1654
X3.4409Y-5.7087
X6.7953Y-2.1654
X6.7953Y-5.7087
X6.823Y-2.0985
X6.823Y-2.2322
X6.823Y-5.6418
X6.823Y-5.7755
X6.8898Y-2.0709
X6.8898Y-2.2598
X6.8898Y-5.6142
X6.8898Y-5.8031
X6.9566Y-2.0985
X6.9566Y-2.2322
X6.9566Y-5.6418
X6.9566Y-5.7755
X6.9843Y-2.1654
X6.9843Y-5.7087
T3
X3.7598Y-3.5575
X3.8543Y-2.6929
X4.2785Y-4.9035
X4.3425Y-3.4943
X4.3425Y-3.7943
X4.3435Y-2.2522
X4.3435Y-2.5522
X4.3435Y-2.8614
X4.3435Y-3.1614
X4.3435Y-4.1154
X4.3435Y-4.4154
X4.377Y-4.9035
X4.5287Y-2.1919
X4.5287Y-2.7982
X4.5287Y-3.4321
X4.5287Y-4.0531
X4.7096Y-2.3278
X4.7096Y-2.9341
X4.7096Y-3.5689
X4.7096Y-4.189
X4.8287Y-2.1919
X4.8287Y-2.7982
X4.8287Y-3.4321
X4.8287Y-4.0531
X4.935Y-2.1919
X4.935Y-2.7982
X4.935Y-3.4321
X4.935Y-4.0531
X5.0096Y-2.3278
X5.0096Y-2.9341
X5.0096Y-3.5689
X5.0096Y-4.189
X5.0512Y-2.6614
X5.0512Y-3.2707
X5.0512Y-3.9045
X5.0512Y-4.5246
X5.235Y-2.1919
X5.235Y-2.7982
X5.235Y-3.4321
X5.235Y-4.0531
X5.326Y-2.5315
X5.3512Y-2.6614
X5.3512Y-3.2707
X5.3512Y-3.9045
X5.3512Y-4.5246
X5.4492Y-2.7787
X5.4539Y-3.2705
X5.626Y-2.5315
X5.7477Y-2.8611
X5.7477Y-3.1611
X5.748Y-4.1154
X5.748Y-4.4154
X5.7485Y-2.2527
X5.7485Y-2.5527
X5.75Y-3.4943
X5.75Y-3.7943
X5.9234Y-4.0531
X5.9254Y-3.4321
X5.9296Y-2.192
X5.9333Y-2.8051
X6.122Y-4.189
X6.124Y-2.3224
X6.124Y-2.9409
X6.126Y-3.5689
X6.2234Y-4.0531
X6.2254Y-3.4321
X6.2296Y-2.192
X6.2333Y-2.8051
X6.3219Y-3.4321
X6.3219Y-4.0531
X6.3317Y-2.8051
X6.34Y-2.192
X6.422Y-4.189
X6.424Y-2.3224
X6.424Y-2.9409
X6.426Y-3.5689
X6.4557Y-2.6654
X6.4557Y-3.2736
X6.4557Y-3.9006
X6.4557Y-4.5246
X6.6219Y-3.4321
X6.6219Y-4.0531
X6.6317Y-2.8051
X6.64Y-2.192
X6.7557Y-2.6654
X6.7557Y-3.2736
X6.7557Y-3.9006
X6.7557Y-4.5246
T4
X3.4961Y-3.436
X3.6388Y-3.336
X3.6388Y-3.436
X4.5157Y-2.5089
X4.5157Y-3.1174
X4.5157Y-3.751
X4.5157Y-4.372
X4.6157Y-2.5089
X4.6157Y-3.1174
X4.6157Y-3.751
X4.6157Y-4.372
X4.7157Y-2.5089
X4.7157Y-3.1174
X4.7157Y-3.751
X4.7157Y-4.372
X4.9508Y-2.5098
X4.9508Y-3.1174
X4.9508Y-3.751
X4.9508Y-4.372
X5.0508Y-2.5098
X5.0508Y-3.1174
X5.0508Y-3.751
X5.0508Y-4.372
X5.1508Y-2.5098
X5.1508Y-3.1174
X5.1508Y-3.751
X5.1508Y-4.372
X5.6211Y-5.7559
X5.7211Y-5.7559
X5.8211Y-5.7559
X5.9202Y-3.1174
X5.9208Y-2.5088
X5.9222Y-3.751
X5.9222Y-4.372
X6.0202Y-3.1174
X6.0208Y-2.5088
X6.0222Y-3.751
X6.0222Y-4.372
X6.1202Y-3.1174
X6.1208Y-2.5088
X6.1222Y-3.751
X6.1222Y-4.372
X6.2835Y-5.7559
X6.3553Y-3.751
X6.3553Y-4.372
X6.3558Y-2.5088
X6.3558Y-3.1174
X6.3835Y-5.7559
X6.3882Y-4.8317
X6.4553Y-3.751
X6.4553Y-4.372
X6.4558Y-2.5088
X6.4558Y-3.1174
X6.4835Y-5.7559
X6.4882Y-4.8317
X6.5043Y-4.9744
X6.5553Y-3.751
X6.5553Y-4.372
X6.5558Y-2.5088
X6.5558Y-3.1174
X6.5835Y-5.7559
X6.6043Y-4.9744
X6.8091Y-4.9693
X6.8528Y-5.2894
X6.8528Y-5.3894
X6.8528Y-5.4894
X6.9528Y-4.5193
X6.9528Y-4.6193
X6.9528Y-4.7193
X6.9528Y-4.8193
X6.9528Y-4.9693
X6.9528Y-5.2894
X6.9528Y-5.3894
X6.9528Y-5.4894
T5
X3.6986Y-2.311
X3.8546Y-2.311
X3.924Y-5.627
X4.08Y-5.627
X4.2685Y-5.627
X4.4245Y-5.627
X5.3649Y-2.2461
X5.5209Y-2.2461
T6
X3.3465Y-2.1654
X3.3465Y-5.7087
X6.8898Y-2.1654
X6.8898Y-5.7087
T0
M30
