G04 #@! TF.FileFunction,Legend,Bot*
%FSLAX46Y46*%
G04 Gerber Fmt 4.6, Leading zero omitted, Abs format (unit mm)*
G04 Created by KiCad (PCBNEW 4.0.2-stable) date 04/10/2017 23:23:44*
%MOMM*%
G01*
G04 APERTURE LIST*
%ADD10C,0.100000*%
%ADD11C,0.300000*%
G04 APERTURE END LIST*
D10*
D11*
X170548096Y-52444762D02*
X170357620Y-52444762D01*
X170167144Y-52540000D01*
X170071906Y-52635238D01*
X169976668Y-52825714D01*
X169881429Y-53206667D01*
X169881429Y-53682857D01*
X169976668Y-54063810D01*
X170071906Y-54254286D01*
X170167144Y-54349524D01*
X170357620Y-54444762D01*
X170548096Y-54444762D01*
X170738572Y-54349524D01*
X170833810Y-54254286D01*
X170929049Y-54063810D01*
X171024287Y-53682857D01*
X171024287Y-53206667D01*
X170929049Y-52825714D01*
X170833810Y-52635238D01*
X170738572Y-52540000D01*
X170548096Y-52444762D01*
X168643334Y-52444762D02*
X168452858Y-52444762D01*
X168262382Y-52540000D01*
X168167144Y-52635238D01*
X168071906Y-52825714D01*
X167976667Y-53206667D01*
X167976667Y-53682857D01*
X168071906Y-54063810D01*
X168167144Y-54254286D01*
X168262382Y-54349524D01*
X168452858Y-54444762D01*
X168643334Y-54444762D01*
X168833810Y-54349524D01*
X168929048Y-54254286D01*
X169024287Y-54063810D01*
X169119525Y-53682857D01*
X169119525Y-53206667D01*
X169024287Y-52825714D01*
X168929048Y-52635238D01*
X168833810Y-52540000D01*
X168643334Y-52444762D01*
X166167144Y-52444762D02*
X167119525Y-52444762D01*
X167214763Y-53397143D01*
X167119525Y-53301905D01*
X166929048Y-53206667D01*
X166452858Y-53206667D01*
X166262382Y-53301905D01*
X166167144Y-53397143D01*
X166071905Y-53587619D01*
X166071905Y-54063810D01*
X166167144Y-54254286D01*
X166262382Y-54349524D01*
X166452858Y-54444762D01*
X166929048Y-54444762D01*
X167119525Y-54349524D01*
X167214763Y-54254286D01*
X163690953Y-54444762D02*
X163690953Y-52444762D01*
X163214762Y-52444762D01*
X162929048Y-52540000D01*
X162738572Y-52730476D01*
X162643333Y-52920952D01*
X162548095Y-53301905D01*
X162548095Y-53587619D01*
X162643333Y-53968571D01*
X162738572Y-54159048D01*
X162929048Y-54349524D01*
X163214762Y-54444762D01*
X163690953Y-54444762D01*
X160548095Y-54254286D02*
X160643333Y-54349524D01*
X160929048Y-54444762D01*
X161119524Y-54444762D01*
X161405238Y-54349524D01*
X161595714Y-54159048D01*
X161690953Y-53968571D01*
X161786191Y-53587619D01*
X161786191Y-53301905D01*
X161690953Y-52920952D01*
X161595714Y-52730476D01*
X161405238Y-52540000D01*
X161119524Y-52444762D01*
X160929048Y-52444762D01*
X160643333Y-52540000D01*
X160548095Y-52635238D01*
X157024285Y-54254286D02*
X157119523Y-54349524D01*
X157405238Y-54444762D01*
X157595714Y-54444762D01*
X157881428Y-54349524D01*
X158071904Y-54159048D01*
X158167143Y-53968571D01*
X158262381Y-53587619D01*
X158262381Y-53301905D01*
X158167143Y-52920952D01*
X158071904Y-52730476D01*
X157881428Y-52540000D01*
X157595714Y-52444762D01*
X157405238Y-52444762D01*
X157119523Y-52540000D01*
X157024285Y-52635238D01*
X155786190Y-52444762D02*
X155405238Y-52444762D01*
X155214762Y-52540000D01*
X155024285Y-52730476D01*
X154929047Y-53111429D01*
X154929047Y-53778095D01*
X155024285Y-54159048D01*
X155214762Y-54349524D01*
X155405238Y-54444762D01*
X155786190Y-54444762D01*
X155976666Y-54349524D01*
X156167143Y-54159048D01*
X156262381Y-53778095D01*
X156262381Y-53111429D01*
X156167143Y-52730476D01*
X155976666Y-52540000D01*
X155786190Y-52444762D01*
X154071905Y-54444762D02*
X154071905Y-52444762D01*
X152929047Y-54444762D01*
X152929047Y-52444762D01*
X152262381Y-52444762D02*
X151119524Y-52444762D01*
X151690952Y-54444762D02*
X151690952Y-52444762D01*
X149309999Y-54444762D02*
X149976666Y-53492381D01*
X150452857Y-54444762D02*
X150452857Y-52444762D01*
X149690952Y-52444762D01*
X149500476Y-52540000D01*
X149405237Y-52635238D01*
X149309999Y-52825714D01*
X149309999Y-53111429D01*
X149405237Y-53301905D01*
X149500476Y-53397143D01*
X149690952Y-53492381D01*
X150452857Y-53492381D01*
X148071904Y-52444762D02*
X147690952Y-52444762D01*
X147500476Y-52540000D01*
X147309999Y-52730476D01*
X147214761Y-53111429D01*
X147214761Y-53778095D01*
X147309999Y-54159048D01*
X147500476Y-54349524D01*
X147690952Y-54444762D01*
X148071904Y-54444762D01*
X148262380Y-54349524D01*
X148452857Y-54159048D01*
X148548095Y-53778095D01*
X148548095Y-53111429D01*
X148452857Y-52730476D01*
X148262380Y-52540000D01*
X148071904Y-52444762D01*
X145405238Y-54444762D02*
X146357619Y-54444762D01*
X146357619Y-52444762D01*
M02*
