G04 #@! TF.FileFunction,Other,Fab,Top*
%FSLAX46Y46*%
G04 Gerber Fmt 4.6, Leading zero omitted, Abs format (unit mm)*
G04 Created by KiCad (PCBNEW 4.0.2-stable) date 04/10/2017 19:59:22*
%MOMM*%
G01*
G04 APERTURE LIST*
%ADD10C,0.100000*%
%ADD11C,0.150000*%
%ADD12C,0.075000*%
%ADD13C,0.120000*%
G04 APERTURE END LIST*
D10*
X148325000Y-133055000D02*
X148325000Y-134295000D01*
X146325000Y-133055000D02*
X148325000Y-133055000D01*
X146325000Y-134295000D02*
X146325000Y-133055000D01*
X148325000Y-134295000D02*
X146325000Y-134295000D01*
X146325000Y-137145000D02*
X146325000Y-135905000D01*
X148325000Y-137145000D02*
X146325000Y-137145000D01*
X148325000Y-135905000D02*
X148325000Y-137145000D01*
X146325000Y-135905000D02*
X148325000Y-135905000D01*
X165675000Y-137820000D02*
X165675000Y-136580000D01*
X167675000Y-137820000D02*
X165675000Y-137820000D01*
X167675000Y-136580000D02*
X167675000Y-137820000D01*
X165675000Y-136580000D02*
X167675000Y-136580000D01*
X103355000Y-123275000D02*
X104595000Y-123275000D01*
X103355000Y-125275000D02*
X103355000Y-123275000D01*
X104595000Y-125275000D02*
X103355000Y-125275000D01*
X104595000Y-123275000D02*
X104595000Y-125275000D01*
X100630000Y-72225000D02*
X101870000Y-72225000D01*
X100630000Y-74225000D02*
X100630000Y-72225000D01*
X101870000Y-74225000D02*
X100630000Y-74225000D01*
X101870000Y-72225000D02*
X101870000Y-74225000D01*
X140745000Y-137325000D02*
X139505000Y-137325000D01*
X140745000Y-135325000D02*
X140745000Y-137325000D01*
X139505000Y-135325000D02*
X140745000Y-135325000D01*
X139505000Y-137325000D02*
X139505000Y-135325000D01*
X139505000Y-139900000D02*
X140745000Y-139900000D01*
X139505000Y-141900000D02*
X139505000Y-139900000D01*
X140745000Y-141900000D02*
X139505000Y-141900000D01*
X140745000Y-139900000D02*
X140745000Y-141900000D01*
X86200000Y-81695000D02*
X86200000Y-80455000D01*
X88200000Y-81695000D02*
X86200000Y-81695000D01*
X88200000Y-80455000D02*
X88200000Y-81695000D01*
X86200000Y-80455000D02*
X88200000Y-80455000D01*
X169020000Y-125715000D02*
X169020000Y-127620000D01*
X169020000Y-127620000D02*
X163940000Y-127620000D01*
X163940000Y-127620000D02*
X163940000Y-125080000D01*
X163940000Y-125080000D02*
X168385000Y-125080000D01*
X168385000Y-125080000D02*
X169020000Y-125715000D01*
X166070000Y-122090000D02*
X166070000Y-123995000D01*
X166070000Y-123995000D02*
X160990000Y-123995000D01*
X160990000Y-123995000D02*
X160990000Y-121455000D01*
X160990000Y-121455000D02*
X165435000Y-121455000D01*
X165435000Y-121455000D02*
X166070000Y-122090000D01*
X158330000Y-147470000D02*
X168490000Y-147470000D01*
X168490000Y-147470000D02*
X168490000Y-144930000D01*
X168490000Y-144930000D02*
X158330000Y-144930000D01*
X158330000Y-144930000D02*
X158330000Y-147470000D01*
X87530000Y-86005000D02*
X87530000Y-88545000D01*
X87530000Y-88545000D02*
X90070000Y-88545000D01*
X90070000Y-88545000D02*
X90070000Y-86005000D01*
X90070000Y-86005000D02*
X87530000Y-86005000D01*
X171680000Y-124950000D02*
X171680000Y-127490000D01*
X171680000Y-127490000D02*
X174220000Y-127490000D01*
X174220000Y-127490000D02*
X174220000Y-124950000D01*
X174220000Y-124950000D02*
X171680000Y-124950000D01*
X147928320Y-61223520D02*
X147928320Y-65623520D01*
X147928320Y-65623520D02*
X157928320Y-65623520D01*
X157928320Y-65623520D02*
X157928320Y-61223520D01*
X157928320Y-61223520D02*
X147928320Y-61223520D01*
X147928320Y-62493520D02*
X157928320Y-62493520D01*
X151078320Y-61223520D02*
X151078320Y-62493520D01*
X154778320Y-61223520D02*
X154778320Y-62493520D01*
X147913080Y-76681960D02*
X147913080Y-81081960D01*
X147913080Y-81081960D02*
X157913080Y-81081960D01*
X157913080Y-81081960D02*
X157913080Y-76681960D01*
X157913080Y-76681960D02*
X147913080Y-76681960D01*
X147913080Y-77951960D02*
X157913080Y-77951960D01*
X151063080Y-76681960D02*
X151063080Y-77951960D01*
X154763080Y-76681960D02*
X154763080Y-77951960D01*
X147965000Y-92775000D02*
X147965000Y-97175000D01*
X147965000Y-97175000D02*
X157965000Y-97175000D01*
X157965000Y-97175000D02*
X157965000Y-92775000D01*
X157965000Y-92775000D02*
X147965000Y-92775000D01*
X147965000Y-94045000D02*
X157965000Y-94045000D01*
X151115000Y-92775000D02*
X151115000Y-94045000D01*
X154815000Y-92775000D02*
X154815000Y-94045000D01*
X147965000Y-108550000D02*
X147965000Y-112950000D01*
X147965000Y-112950000D02*
X157965000Y-112950000D01*
X157965000Y-112950000D02*
X157965000Y-108550000D01*
X157965000Y-108550000D02*
X147965000Y-108550000D01*
X147965000Y-109820000D02*
X157965000Y-109820000D01*
X151115000Y-108550000D02*
X151115000Y-109820000D01*
X154815000Y-108550000D02*
X154815000Y-109820000D01*
X112240000Y-61225000D02*
X112240000Y-65625000D01*
X112240000Y-65625000D02*
X122240000Y-65625000D01*
X122240000Y-65625000D02*
X122240000Y-61225000D01*
X122240000Y-61225000D02*
X112240000Y-61225000D01*
X112240000Y-62495000D02*
X122240000Y-62495000D01*
X115390000Y-61225000D02*
X115390000Y-62495000D01*
X119090000Y-61225000D02*
X119090000Y-62495000D01*
X158977320Y-61223520D02*
X158977320Y-65623520D01*
X158977320Y-65623520D02*
X168977320Y-65623520D01*
X168977320Y-65623520D02*
X168977320Y-61223520D01*
X168977320Y-61223520D02*
X158977320Y-61223520D01*
X158977320Y-62493520D02*
X168977320Y-62493520D01*
X162127320Y-61223520D02*
X162127320Y-62493520D01*
X165827320Y-61223520D02*
X165827320Y-62493520D01*
X158977320Y-76681960D02*
X158977320Y-81081960D01*
X158977320Y-81081960D02*
X168977320Y-81081960D01*
X168977320Y-81081960D02*
X168977320Y-76681960D01*
X168977320Y-76681960D02*
X158977320Y-76681960D01*
X158977320Y-77951960D02*
X168977320Y-77951960D01*
X162127320Y-76681960D02*
X162127320Y-77951960D01*
X165827320Y-76681960D02*
X165827320Y-77951960D01*
X158965000Y-92775000D02*
X158965000Y-97175000D01*
X158965000Y-97175000D02*
X168965000Y-97175000D01*
X168965000Y-97175000D02*
X168965000Y-92775000D01*
X168965000Y-92775000D02*
X158965000Y-92775000D01*
X158965000Y-94045000D02*
X168965000Y-94045000D01*
X162115000Y-92775000D02*
X162115000Y-94045000D01*
X165815000Y-92775000D02*
X165815000Y-94045000D01*
X158965000Y-108550000D02*
X158965000Y-112950000D01*
X158965000Y-112950000D02*
X168965000Y-112950000D01*
X168965000Y-112950000D02*
X168965000Y-108550000D01*
X168965000Y-108550000D02*
X158965000Y-108550000D01*
X158965000Y-109820000D02*
X168965000Y-109820000D01*
X162115000Y-108550000D02*
X162115000Y-109820000D01*
X165815000Y-108550000D02*
X165815000Y-109820000D01*
X123290000Y-61250000D02*
X123290000Y-65650000D01*
X123290000Y-65650000D02*
X133290000Y-65650000D01*
X133290000Y-65650000D02*
X133290000Y-61250000D01*
X133290000Y-61250000D02*
X123290000Y-61250000D01*
X123290000Y-62520000D02*
X133290000Y-62520000D01*
X126440000Y-61250000D02*
X126440000Y-62520000D01*
X130140000Y-61250000D02*
X130140000Y-62520000D01*
X112240000Y-76681960D02*
X112240000Y-81081960D01*
X112240000Y-81081960D02*
X122240000Y-81081960D01*
X122240000Y-81081960D02*
X122240000Y-76681960D01*
X122240000Y-76681960D02*
X112240000Y-76681960D01*
X112240000Y-77951960D02*
X122240000Y-77951960D01*
X115390000Y-76681960D02*
X115390000Y-77951960D01*
X119090000Y-76681960D02*
X119090000Y-77951960D01*
X112240000Y-92775000D02*
X112240000Y-97175000D01*
X112240000Y-97175000D02*
X122240000Y-97175000D01*
X122240000Y-97175000D02*
X122240000Y-92775000D01*
X122240000Y-92775000D02*
X112240000Y-92775000D01*
X112240000Y-94045000D02*
X122240000Y-94045000D01*
X115390000Y-92775000D02*
X115390000Y-94045000D01*
X119090000Y-92775000D02*
X119090000Y-94045000D01*
X112240000Y-108550000D02*
X112240000Y-112950000D01*
X112240000Y-112950000D02*
X122240000Y-112950000D01*
X122240000Y-112950000D02*
X122240000Y-108550000D01*
X122240000Y-108550000D02*
X112240000Y-108550000D01*
X112240000Y-109820000D02*
X122240000Y-109820000D01*
X115390000Y-108550000D02*
X115390000Y-109820000D01*
X119090000Y-108550000D02*
X119090000Y-109820000D01*
X123290000Y-76681960D02*
X123290000Y-81081960D01*
X123290000Y-81081960D02*
X133290000Y-81081960D01*
X133290000Y-81081960D02*
X133290000Y-76681960D01*
X133290000Y-76681960D02*
X123290000Y-76681960D01*
X123290000Y-77951960D02*
X133290000Y-77951960D01*
X126440000Y-76681960D02*
X126440000Y-77951960D01*
X130140000Y-76681960D02*
X130140000Y-77951960D01*
X123290000Y-92775000D02*
X123290000Y-97175000D01*
X123290000Y-97175000D02*
X133290000Y-97175000D01*
X133290000Y-97175000D02*
X133290000Y-92775000D01*
X133290000Y-92775000D02*
X123290000Y-92775000D01*
X123290000Y-94045000D02*
X133290000Y-94045000D01*
X126440000Y-92775000D02*
X126440000Y-94045000D01*
X130140000Y-92775000D02*
X130140000Y-94045000D01*
X123290000Y-108550000D02*
X123290000Y-112950000D01*
X123290000Y-112950000D02*
X133290000Y-112950000D01*
X133290000Y-112950000D02*
X133290000Y-108550000D01*
X133290000Y-108550000D02*
X123290000Y-108550000D01*
X123290000Y-109820000D02*
X133290000Y-109820000D01*
X126440000Y-108550000D02*
X126440000Y-109820000D01*
X130140000Y-108550000D02*
X130140000Y-109820000D01*
X144761900Y-64178580D02*
X147261900Y-64178580D01*
X147261900Y-64178580D02*
X147261900Y-57878580D01*
X147261900Y-57878580D02*
X144761900Y-57878580D01*
X144761900Y-57878580D02*
X144761900Y-64178580D01*
X146011900Y-64838580D02*
X146011900Y-64178580D01*
X146011900Y-57218580D02*
X146011900Y-57878580D01*
X144741580Y-79631940D02*
X147241580Y-79631940D01*
X147241580Y-79631940D02*
X147241580Y-73331940D01*
X147241580Y-73331940D02*
X144741580Y-73331940D01*
X144741580Y-73331940D02*
X144741580Y-79631940D01*
X145991580Y-80291940D02*
X145991580Y-79631940D01*
X145991580Y-72671940D02*
X145991580Y-73331940D01*
X144800000Y-95715000D02*
X147300000Y-95715000D01*
X147300000Y-95715000D02*
X147300000Y-89415000D01*
X147300000Y-89415000D02*
X144800000Y-89415000D01*
X144800000Y-89415000D02*
X144800000Y-95715000D01*
X146050000Y-96375000D02*
X146050000Y-95715000D01*
X146050000Y-88755000D02*
X146050000Y-89415000D01*
X144750000Y-111490000D02*
X147250000Y-111490000D01*
X147250000Y-111490000D02*
X147250000Y-105190000D01*
X147250000Y-105190000D02*
X144750000Y-105190000D01*
X144750000Y-105190000D02*
X144750000Y-111490000D01*
X146000000Y-112150000D02*
X146000000Y-111490000D01*
X146000000Y-104530000D02*
X146000000Y-105190000D01*
X109075000Y-64165000D02*
X111575000Y-64165000D01*
X111575000Y-64165000D02*
X111575000Y-57865000D01*
X111575000Y-57865000D02*
X109075000Y-57865000D01*
X109075000Y-57865000D02*
X109075000Y-64165000D01*
X110325000Y-64825000D02*
X110325000Y-64165000D01*
X110325000Y-57205000D02*
X110325000Y-57865000D01*
X157571840Y-56926800D02*
X157571840Y-54426800D01*
X157571840Y-54426800D02*
X151271840Y-54426800D01*
X151271840Y-54426800D02*
X151271840Y-56926800D01*
X151271840Y-56926800D02*
X157571840Y-56926800D01*
X158231840Y-55676800D02*
X157571840Y-55676800D01*
X150611840Y-55676800D02*
X151271840Y-55676800D01*
X157665000Y-72500000D02*
X157665000Y-70000000D01*
X157665000Y-70000000D02*
X151365000Y-70000000D01*
X151365000Y-70000000D02*
X151365000Y-72500000D01*
X151365000Y-72500000D02*
X157665000Y-72500000D01*
X158325000Y-71250000D02*
X157665000Y-71250000D01*
X150705000Y-71250000D02*
X151365000Y-71250000D01*
X157465000Y-88425000D02*
X157465000Y-85925000D01*
X157465000Y-85925000D02*
X151165000Y-85925000D01*
X151165000Y-85925000D02*
X151165000Y-88425000D01*
X151165000Y-88425000D02*
X157465000Y-88425000D01*
X158125000Y-87175000D02*
X157465000Y-87175000D01*
X150505000Y-87175000D02*
X151165000Y-87175000D01*
X157415000Y-104200000D02*
X157415000Y-101700000D01*
X157415000Y-101700000D02*
X151115000Y-101700000D01*
X151115000Y-101700000D02*
X151115000Y-104200000D01*
X151115000Y-104200000D02*
X157415000Y-104200000D01*
X158075000Y-102950000D02*
X157415000Y-102950000D01*
X150455000Y-102950000D02*
X151115000Y-102950000D01*
X121990000Y-56925000D02*
X121990000Y-54425000D01*
X121990000Y-54425000D02*
X115690000Y-54425000D01*
X115690000Y-54425000D02*
X115690000Y-56925000D01*
X115690000Y-56925000D02*
X121990000Y-56925000D01*
X122650000Y-55675000D02*
X121990000Y-55675000D01*
X115030000Y-55675000D02*
X115690000Y-55675000D01*
X156209600Y-57738960D02*
X156209600Y-60238960D01*
X156209600Y-60238960D02*
X162509600Y-60238960D01*
X162509600Y-60238960D02*
X162509600Y-57738960D01*
X162509600Y-57738960D02*
X156209600Y-57738960D01*
X155549600Y-58988960D02*
X156209600Y-58988960D01*
X163169600Y-58988960D02*
X162509600Y-58988960D01*
X156209600Y-73450000D02*
X156209600Y-75950000D01*
X156209600Y-75950000D02*
X162509600Y-75950000D01*
X162509600Y-75950000D02*
X162509600Y-73450000D01*
X162509600Y-73450000D02*
X156209600Y-73450000D01*
X155549600Y-74700000D02*
X156209600Y-74700000D01*
X163169600Y-74700000D02*
X162509600Y-74700000D01*
X156259600Y-89400000D02*
X156259600Y-91900000D01*
X156259600Y-91900000D02*
X162559600Y-91900000D01*
X162559600Y-91900000D02*
X162559600Y-89400000D01*
X162559600Y-89400000D02*
X156259600Y-89400000D01*
X155599600Y-90650000D02*
X156259600Y-90650000D01*
X163219600Y-90650000D02*
X162559600Y-90650000D01*
X156160000Y-105150000D02*
X156160000Y-107650000D01*
X156160000Y-107650000D02*
X162460000Y-107650000D01*
X162460000Y-107650000D02*
X162460000Y-105150000D01*
X162460000Y-105150000D02*
X156160000Y-105150000D01*
X155500000Y-106400000D02*
X156160000Y-106400000D01*
X163120000Y-106400000D02*
X162460000Y-106400000D01*
X120285000Y-57875000D02*
X120285000Y-60375000D01*
X120285000Y-60375000D02*
X126585000Y-60375000D01*
X126585000Y-60375000D02*
X126585000Y-57875000D01*
X126585000Y-57875000D02*
X120285000Y-57875000D01*
X119625000Y-59125000D02*
X120285000Y-59125000D01*
X127245000Y-59125000D02*
X126585000Y-59125000D01*
X161696000Y-54426800D02*
X161696000Y-56926800D01*
X161696000Y-56926800D02*
X167996000Y-56926800D01*
X167996000Y-56926800D02*
X167996000Y-54426800D01*
X167996000Y-54426800D02*
X161696000Y-54426800D01*
X161036000Y-55676800D02*
X161696000Y-55676800D01*
X168656000Y-55676800D02*
X167996000Y-55676800D01*
X161485000Y-70000000D02*
X161485000Y-72500000D01*
X161485000Y-72500000D02*
X167785000Y-72500000D01*
X167785000Y-72500000D02*
X167785000Y-70000000D01*
X167785000Y-70000000D02*
X161485000Y-70000000D01*
X160825000Y-71250000D02*
X161485000Y-71250000D01*
X168445000Y-71250000D02*
X167785000Y-71250000D01*
X161235000Y-85925000D02*
X161235000Y-88425000D01*
X161235000Y-88425000D02*
X167535000Y-88425000D01*
X167535000Y-88425000D02*
X167535000Y-85925000D01*
X167535000Y-85925000D02*
X161235000Y-85925000D01*
X160575000Y-87175000D02*
X161235000Y-87175000D01*
X168195000Y-87175000D02*
X167535000Y-87175000D01*
X161235000Y-101700000D02*
X161235000Y-104200000D01*
X161235000Y-104200000D02*
X167535000Y-104200000D01*
X167535000Y-104200000D02*
X167535000Y-101700000D01*
X167535000Y-101700000D02*
X161235000Y-101700000D01*
X160575000Y-102950000D02*
X161235000Y-102950000D01*
X168195000Y-102950000D02*
X167535000Y-102950000D01*
X126010000Y-54425000D02*
X126010000Y-56925000D01*
X126010000Y-56925000D02*
X132310000Y-56925000D01*
X132310000Y-56925000D02*
X132310000Y-54425000D01*
X132310000Y-54425000D02*
X126010000Y-54425000D01*
X125350000Y-55675000D02*
X126010000Y-55675000D01*
X132970000Y-55675000D02*
X132310000Y-55675000D01*
X164635000Y-66450000D02*
X164635000Y-68950000D01*
X164635000Y-68950000D02*
X170935000Y-68950000D01*
X170935000Y-68950000D02*
X170935000Y-66450000D01*
X170935000Y-66450000D02*
X164635000Y-66450000D01*
X163975000Y-67700000D02*
X164635000Y-67700000D01*
X171595000Y-67700000D02*
X170935000Y-67700000D01*
X164635000Y-81900000D02*
X164635000Y-84400000D01*
X164635000Y-84400000D02*
X170935000Y-84400000D01*
X170935000Y-84400000D02*
X170935000Y-81900000D01*
X170935000Y-81900000D02*
X164635000Y-81900000D01*
X163975000Y-83150000D02*
X164635000Y-83150000D01*
X171595000Y-83150000D02*
X170935000Y-83150000D01*
X164635000Y-97825000D02*
X164635000Y-100325000D01*
X164635000Y-100325000D02*
X170935000Y-100325000D01*
X170935000Y-100325000D02*
X170935000Y-97825000D01*
X170935000Y-97825000D02*
X164635000Y-97825000D01*
X163975000Y-99075000D02*
X164635000Y-99075000D01*
X171595000Y-99075000D02*
X170935000Y-99075000D01*
X164635000Y-113675000D02*
X164635000Y-116175000D01*
X164635000Y-116175000D02*
X170935000Y-116175000D01*
X170935000Y-116175000D02*
X170935000Y-113675000D01*
X170935000Y-113675000D02*
X164635000Y-113675000D01*
X163975000Y-114925000D02*
X164635000Y-114925000D01*
X171595000Y-114925000D02*
X170935000Y-114925000D01*
X128960000Y-66350000D02*
X128960000Y-68850000D01*
X128960000Y-68850000D02*
X135260000Y-68850000D01*
X135260000Y-68850000D02*
X135260000Y-66350000D01*
X135260000Y-66350000D02*
X128960000Y-66350000D01*
X128300000Y-67600000D02*
X128960000Y-67600000D01*
X135920000Y-67600000D02*
X135260000Y-67600000D01*
X109075000Y-79640000D02*
X111575000Y-79640000D01*
X111575000Y-79640000D02*
X111575000Y-73340000D01*
X111575000Y-73340000D02*
X109075000Y-73340000D01*
X109075000Y-73340000D02*
X109075000Y-79640000D01*
X110325000Y-80300000D02*
X110325000Y-79640000D01*
X110325000Y-72680000D02*
X110325000Y-73340000D01*
X109050000Y-95715000D02*
X111550000Y-95715000D01*
X111550000Y-95715000D02*
X111550000Y-89415000D01*
X111550000Y-89415000D02*
X109050000Y-89415000D01*
X109050000Y-89415000D02*
X109050000Y-95715000D01*
X110300000Y-96375000D02*
X110300000Y-95715000D01*
X110300000Y-88755000D02*
X110300000Y-89415000D01*
X109075000Y-111490000D02*
X111575000Y-111490000D01*
X111575000Y-111490000D02*
X111575000Y-105190000D01*
X111575000Y-105190000D02*
X109075000Y-105190000D01*
X109075000Y-105190000D02*
X109075000Y-111490000D01*
X110325000Y-112150000D02*
X110325000Y-111490000D01*
X110325000Y-104530000D02*
X110325000Y-105190000D01*
X121990000Y-72325000D02*
X121990000Y-69825000D01*
X121990000Y-69825000D02*
X115690000Y-69825000D01*
X115690000Y-69825000D02*
X115690000Y-72325000D01*
X115690000Y-72325000D02*
X121990000Y-72325000D01*
X122650000Y-71075000D02*
X121990000Y-71075000D01*
X115030000Y-71075000D02*
X115690000Y-71075000D01*
X121990000Y-88425000D02*
X121990000Y-85925000D01*
X121990000Y-85925000D02*
X115690000Y-85925000D01*
X115690000Y-85925000D02*
X115690000Y-88425000D01*
X115690000Y-88425000D02*
X121990000Y-88425000D01*
X122650000Y-87175000D02*
X121990000Y-87175000D01*
X115030000Y-87175000D02*
X115690000Y-87175000D01*
X121990000Y-104200000D02*
X121990000Y-101700000D01*
X121990000Y-101700000D02*
X115690000Y-101700000D01*
X115690000Y-101700000D02*
X115690000Y-104200000D01*
X115690000Y-104200000D02*
X121990000Y-104200000D01*
X122650000Y-102950000D02*
X121990000Y-102950000D01*
X115030000Y-102950000D02*
X115690000Y-102950000D01*
X120285000Y-73275000D02*
X120285000Y-75775000D01*
X120285000Y-75775000D02*
X126585000Y-75775000D01*
X126585000Y-75775000D02*
X126585000Y-73275000D01*
X126585000Y-73275000D02*
X120285000Y-73275000D01*
X119625000Y-74525000D02*
X120285000Y-74525000D01*
X127245000Y-74525000D02*
X126585000Y-74525000D01*
X120285000Y-89400000D02*
X120285000Y-91900000D01*
X120285000Y-91900000D02*
X126585000Y-91900000D01*
X126585000Y-91900000D02*
X126585000Y-89400000D01*
X126585000Y-89400000D02*
X120285000Y-89400000D01*
X119625000Y-90650000D02*
X120285000Y-90650000D01*
X127245000Y-90650000D02*
X126585000Y-90650000D01*
X120285000Y-105150000D02*
X120285000Y-107650000D01*
X120285000Y-107650000D02*
X126585000Y-107650000D01*
X126585000Y-107650000D02*
X126585000Y-105150000D01*
X126585000Y-105150000D02*
X120285000Y-105150000D01*
X119625000Y-106400000D02*
X120285000Y-106400000D01*
X127245000Y-106400000D02*
X126585000Y-106400000D01*
X126010000Y-69825000D02*
X126010000Y-72325000D01*
X126010000Y-72325000D02*
X132310000Y-72325000D01*
X132310000Y-72325000D02*
X132310000Y-69825000D01*
X132310000Y-69825000D02*
X126010000Y-69825000D01*
X125350000Y-71075000D02*
X126010000Y-71075000D01*
X132970000Y-71075000D02*
X132310000Y-71075000D01*
X126010000Y-85925000D02*
X126010000Y-88425000D01*
X126010000Y-88425000D02*
X132310000Y-88425000D01*
X132310000Y-88425000D02*
X132310000Y-85925000D01*
X132310000Y-85925000D02*
X126010000Y-85925000D01*
X125350000Y-87175000D02*
X126010000Y-87175000D01*
X132970000Y-87175000D02*
X132310000Y-87175000D01*
X126010000Y-101700000D02*
X126010000Y-104200000D01*
X126010000Y-104200000D02*
X132310000Y-104200000D01*
X132310000Y-104200000D02*
X132310000Y-101700000D01*
X132310000Y-101700000D02*
X126010000Y-101700000D01*
X125350000Y-102950000D02*
X126010000Y-102950000D01*
X132970000Y-102950000D02*
X132310000Y-102950000D01*
X128960000Y-81825000D02*
X128960000Y-84325000D01*
X128960000Y-84325000D02*
X135260000Y-84325000D01*
X135260000Y-84325000D02*
X135260000Y-81825000D01*
X135260000Y-81825000D02*
X128960000Y-81825000D01*
X128300000Y-83075000D02*
X128960000Y-83075000D01*
X135920000Y-83075000D02*
X135260000Y-83075000D01*
X128960000Y-97925000D02*
X128960000Y-100425000D01*
X128960000Y-100425000D02*
X135260000Y-100425000D01*
X135260000Y-100425000D02*
X135260000Y-97925000D01*
X135260000Y-97925000D02*
X128960000Y-97925000D01*
X128300000Y-99175000D02*
X128960000Y-99175000D01*
X135920000Y-99175000D02*
X135260000Y-99175000D01*
X128960000Y-113675000D02*
X128960000Y-116175000D01*
X128960000Y-116175000D02*
X135260000Y-116175000D01*
X135260000Y-116175000D02*
X135260000Y-113675000D01*
X135260000Y-113675000D02*
X128960000Y-113675000D01*
X128300000Y-114925000D02*
X128960000Y-114925000D01*
X135920000Y-114925000D02*
X135260000Y-114925000D01*
X99300000Y-126145000D02*
X99300000Y-124905000D01*
X101300000Y-126145000D02*
X99300000Y-126145000D01*
X101300000Y-124905000D02*
X101300000Y-126145000D01*
X99300000Y-124905000D02*
X101300000Y-124905000D01*
X101870000Y-68050000D02*
X100630000Y-68050000D01*
X101870000Y-66050000D02*
X101870000Y-68050000D01*
X100630000Y-66050000D02*
X101870000Y-66050000D01*
X100630000Y-68050000D02*
X100630000Y-66050000D01*
X96225000Y-81695000D02*
X96225000Y-80455000D01*
X98225000Y-81695000D02*
X96225000Y-81695000D01*
X98225000Y-80455000D02*
X98225000Y-81695000D01*
X96225000Y-80455000D02*
X98225000Y-80455000D01*
X176675000Y-129055000D02*
X176675000Y-130295000D01*
X174675000Y-129055000D02*
X176675000Y-129055000D01*
X174675000Y-130295000D02*
X174675000Y-129055000D01*
X176675000Y-130295000D02*
X174675000Y-130295000D01*
X103425000Y-132550000D02*
X103425000Y-129650000D01*
X103425000Y-129650000D02*
X108325000Y-129650000D01*
X108325000Y-129650000D02*
X108325000Y-133550000D01*
X108325000Y-133550000D02*
X104425000Y-133550000D01*
X104425000Y-133550000D02*
X103425000Y-132550000D01*
X90125000Y-73175000D02*
X89075000Y-72125000D01*
X90125000Y-73175000D02*
X95775000Y-73175000D01*
X89075000Y-72125000D02*
X89075000Y-69475000D01*
X95775000Y-73175000D02*
X95775000Y-69475000D01*
X89075000Y-69475000D02*
X95775000Y-69475000D01*
X96950000Y-124025000D02*
X96150000Y-124025000D01*
X96550000Y-124025000D02*
X96950000Y-124625000D01*
X96150000Y-124625000D02*
X96550000Y-124025000D01*
X96950000Y-124625000D02*
X96150000Y-124625000D01*
X95950000Y-125425000D02*
X95950000Y-123425000D01*
X97150000Y-125425000D02*
X95950000Y-125425000D01*
X97150000Y-123425000D02*
X97150000Y-125425000D01*
X95950000Y-123425000D02*
X97150000Y-123425000D01*
X101675000Y-62125000D02*
X100875000Y-62125000D01*
X101275000Y-62125000D02*
X101675000Y-62725000D01*
X100875000Y-62725000D02*
X101275000Y-62125000D01*
X101675000Y-62725000D02*
X100875000Y-62725000D01*
X100675000Y-63525000D02*
X100675000Y-61525000D01*
X101875000Y-63525000D02*
X100675000Y-63525000D01*
X101875000Y-61525000D02*
X101875000Y-63525000D01*
X100675000Y-61525000D02*
X101875000Y-61525000D01*
X98175000Y-85300000D02*
X98975000Y-85300000D01*
X98575000Y-85300000D02*
X98175000Y-84700000D01*
X98975000Y-84700000D02*
X98575000Y-85300000D01*
X98175000Y-84700000D02*
X98975000Y-84700000D01*
X99175000Y-83900000D02*
X99175000Y-85900000D01*
X97975000Y-83900000D02*
X99175000Y-83900000D01*
X97975000Y-85900000D02*
X97975000Y-83900000D01*
X99175000Y-85900000D02*
X97975000Y-85900000D01*
X93060000Y-88545000D02*
X91155000Y-88545000D01*
X91155000Y-88545000D02*
X91155000Y-83465000D01*
X91155000Y-83465000D02*
X93695000Y-83465000D01*
X93695000Y-83465000D02*
X93695000Y-87910000D01*
X93695000Y-87910000D02*
X93060000Y-88545000D01*
X167550000Y-128905000D02*
X167550000Y-130145000D01*
X165550000Y-128905000D02*
X167550000Y-128905000D01*
X165550000Y-130145000D02*
X165550000Y-128905000D01*
X167550000Y-130145000D02*
X165550000Y-130145000D01*
X158530000Y-120375000D02*
X159770000Y-120375000D01*
X158530000Y-122375000D02*
X158530000Y-120375000D01*
X159770000Y-122375000D02*
X158530000Y-122375000D01*
X159770000Y-120375000D02*
X159770000Y-122375000D01*
X107425000Y-123300000D02*
X107425000Y-125800000D01*
X107425000Y-125800000D02*
X112425000Y-125800000D01*
X112425000Y-125800000D02*
X112425000Y-123300000D01*
X112425000Y-123300000D02*
X107425000Y-123300000D01*
X142240000Y-65550000D02*
X142240000Y-63050000D01*
X142240000Y-63050000D02*
X135940000Y-63050000D01*
X135940000Y-63050000D02*
X135940000Y-65550000D01*
X135940000Y-65550000D02*
X142240000Y-65550000D01*
X142900000Y-64300000D02*
X142240000Y-64300000D01*
X135280000Y-64300000D02*
X135940000Y-64300000D01*
X143525000Y-137625000D02*
X142025000Y-137625000D01*
X142025000Y-137625000D02*
X142025000Y-139625000D01*
X142025000Y-139625000D02*
X143525000Y-139625000D01*
X143525000Y-139625000D02*
X143525000Y-137625000D01*
X142525000Y-137625000D02*
X142025000Y-138125000D01*
D11*
X154175000Y-131175000D02*
X160175000Y-131175000D01*
X160175000Y-131175000D02*
X160175000Y-138175000D01*
X160175000Y-138175000D02*
X153175000Y-138175000D01*
X153175000Y-138175000D02*
X153175000Y-132175000D01*
X153175000Y-132175000D02*
X154175000Y-131175000D01*
D10*
X142655000Y-57575000D02*
X143895000Y-57575000D01*
X142655000Y-59575000D02*
X142655000Y-57575000D01*
X143895000Y-59575000D02*
X142655000Y-59575000D01*
X143895000Y-57575000D02*
X143895000Y-59575000D01*
X142530000Y-73025000D02*
X143770000Y-73025000D01*
X142530000Y-75025000D02*
X142530000Y-73025000D01*
X143770000Y-75025000D02*
X142530000Y-75025000D01*
X143770000Y-73025000D02*
X143770000Y-75025000D01*
X142580000Y-89100000D02*
X143820000Y-89100000D01*
X142580000Y-91100000D02*
X142580000Y-89100000D01*
X143820000Y-91100000D02*
X142580000Y-91100000D01*
X143820000Y-89100000D02*
X143820000Y-91100000D01*
X142630000Y-104875000D02*
X143870000Y-104875000D01*
X142630000Y-106875000D02*
X142630000Y-104875000D01*
X143870000Y-106875000D02*
X142630000Y-106875000D01*
X143870000Y-104875000D02*
X143870000Y-106875000D01*
X106405000Y-57550000D02*
X107645000Y-57550000D01*
X106405000Y-59550000D02*
X106405000Y-57550000D01*
X107645000Y-59550000D02*
X106405000Y-59550000D01*
X107645000Y-57550000D02*
X107645000Y-59550000D01*
X106505000Y-73050000D02*
X107745000Y-73050000D01*
X106505000Y-75050000D02*
X106505000Y-73050000D01*
X107745000Y-75050000D02*
X106505000Y-75050000D01*
X107745000Y-73050000D02*
X107745000Y-75050000D01*
X106330000Y-89100000D02*
X107570000Y-89100000D01*
X106330000Y-91100000D02*
X106330000Y-89100000D01*
X107570000Y-91100000D02*
X106330000Y-91100000D01*
X107570000Y-89100000D02*
X107570000Y-91100000D01*
X106705000Y-104875000D02*
X107945000Y-104875000D01*
X106705000Y-106875000D02*
X106705000Y-104875000D01*
X107945000Y-106875000D02*
X106705000Y-106875000D01*
X107945000Y-104875000D02*
X107945000Y-106875000D01*
X141505000Y-147470000D02*
X149125000Y-147470000D01*
X149125000Y-147470000D02*
X149125000Y-144930000D01*
X149125000Y-144930000D02*
X141505000Y-144930000D01*
X141505000Y-144930000D02*
X141505000Y-147470000D01*
X172790000Y-133080000D02*
X172790000Y-140700000D01*
X172790000Y-140700000D02*
X177870000Y-140700000D01*
X177870000Y-140700000D02*
X177870000Y-133080000D01*
X177870000Y-133080000D02*
X172790000Y-133080000D01*
X173560000Y-121790000D02*
X173560000Y-123030000D01*
X171560000Y-121790000D02*
X173560000Y-121790000D01*
X171560000Y-123030000D02*
X171560000Y-121790000D01*
X173560000Y-123030000D02*
X171560000Y-123030000D01*
X175330000Y-124950000D02*
X175330000Y-127490000D01*
X175330000Y-127490000D02*
X177870000Y-127490000D01*
X177870000Y-127490000D02*
X177870000Y-124950000D01*
X177870000Y-124950000D02*
X175330000Y-124950000D01*
X177870000Y-123680000D02*
X177870000Y-113520000D01*
X177870000Y-113520000D02*
X175330000Y-113520000D01*
X175330000Y-113520000D02*
X175330000Y-123680000D01*
X175330000Y-123680000D02*
X177870000Y-123680000D01*
D11*
X145682143Y-131377381D02*
X145777382Y-131377381D01*
X145872620Y-131425000D01*
X145920239Y-131472619D01*
X145967858Y-131567857D01*
X146015477Y-131758333D01*
X146015477Y-131996429D01*
X145967858Y-132186905D01*
X145920239Y-132282143D01*
X145872620Y-132329762D01*
X145777382Y-132377381D01*
X145682143Y-132377381D01*
X145586905Y-132329762D01*
X145539286Y-132282143D01*
X145491667Y-132186905D01*
X145444048Y-131996429D01*
X145444048Y-131758333D01*
X145491667Y-131567857D01*
X145539286Y-131472619D01*
X145586905Y-131425000D01*
X145682143Y-131377381D01*
X146491667Y-132329762D02*
X146491667Y-132377381D01*
X146444048Y-132472619D01*
X146396429Y-132520238D01*
X147444048Y-132377381D02*
X146872619Y-132377381D01*
X147158333Y-132377381D02*
X147158333Y-131377381D01*
X147063095Y-131520238D01*
X146967857Y-131615476D01*
X146872619Y-131663095D01*
X148301191Y-131710714D02*
X148301191Y-132377381D01*
X147872619Y-131710714D02*
X147872619Y-132234524D01*
X147920238Y-132329762D01*
X148015476Y-132377381D01*
X148158334Y-132377381D01*
X148253572Y-132329762D01*
X148301191Y-132282143D01*
X149110715Y-131853571D02*
X148777381Y-131853571D01*
X148777381Y-132377381D02*
X148777381Y-131377381D01*
X149253572Y-131377381D01*
X147158334Y-135782143D02*
X147110715Y-135829762D01*
X146967858Y-135877381D01*
X146872620Y-135877381D01*
X146729762Y-135829762D01*
X146634524Y-135734524D01*
X146586905Y-135639286D01*
X146539286Y-135448810D01*
X146539286Y-135305952D01*
X146586905Y-135115476D01*
X146634524Y-135020238D01*
X146729762Y-134925000D01*
X146872620Y-134877381D01*
X146967858Y-134877381D01*
X147110715Y-134925000D01*
X147158334Y-134972619D01*
X148110715Y-135877381D02*
X147539286Y-135877381D01*
X147825000Y-135877381D02*
X147825000Y-134877381D01*
X147729762Y-135020238D01*
X147634524Y-135115476D01*
X147539286Y-135163095D01*
X145682143Y-137727381D02*
X145777382Y-137727381D01*
X145872620Y-137775000D01*
X145920239Y-137822619D01*
X145967858Y-137917857D01*
X146015477Y-138108333D01*
X146015477Y-138346429D01*
X145967858Y-138536905D01*
X145920239Y-138632143D01*
X145872620Y-138679762D01*
X145777382Y-138727381D01*
X145682143Y-138727381D01*
X145586905Y-138679762D01*
X145539286Y-138632143D01*
X145491667Y-138536905D01*
X145444048Y-138346429D01*
X145444048Y-138108333D01*
X145491667Y-137917857D01*
X145539286Y-137822619D01*
X145586905Y-137775000D01*
X145682143Y-137727381D01*
X146491667Y-138679762D02*
X146491667Y-138727381D01*
X146444048Y-138822619D01*
X146396429Y-138870238D01*
X147444048Y-138727381D02*
X146872619Y-138727381D01*
X147158333Y-138727381D02*
X147158333Y-137727381D01*
X147063095Y-137870238D01*
X146967857Y-137965476D01*
X146872619Y-138013095D01*
X148301191Y-138060714D02*
X148301191Y-138727381D01*
X147872619Y-138060714D02*
X147872619Y-138584524D01*
X147920238Y-138679762D01*
X148015476Y-138727381D01*
X148158334Y-138727381D01*
X148253572Y-138679762D01*
X148301191Y-138632143D01*
X149110715Y-138203571D02*
X148777381Y-138203571D01*
X148777381Y-138727381D02*
X148777381Y-137727381D01*
X149253572Y-137727381D01*
X147158334Y-135132143D02*
X147110715Y-135179762D01*
X146967858Y-135227381D01*
X146872620Y-135227381D01*
X146729762Y-135179762D01*
X146634524Y-135084524D01*
X146586905Y-134989286D01*
X146539286Y-134798810D01*
X146539286Y-134655952D01*
X146586905Y-134465476D01*
X146634524Y-134370238D01*
X146729762Y-134275000D01*
X146872620Y-134227381D01*
X146967858Y-134227381D01*
X147110715Y-134275000D01*
X147158334Y-134322619D01*
X147539286Y-134322619D02*
X147586905Y-134275000D01*
X147682143Y-134227381D01*
X147920239Y-134227381D01*
X148015477Y-134275000D01*
X148063096Y-134322619D01*
X148110715Y-134417857D01*
X148110715Y-134513095D01*
X148063096Y-134655952D01*
X147491667Y-135227381D01*
X148110715Y-135227381D01*
X165032143Y-138402381D02*
X165127382Y-138402381D01*
X165222620Y-138450000D01*
X165270239Y-138497619D01*
X165317858Y-138592857D01*
X165365477Y-138783333D01*
X165365477Y-139021429D01*
X165317858Y-139211905D01*
X165270239Y-139307143D01*
X165222620Y-139354762D01*
X165127382Y-139402381D01*
X165032143Y-139402381D01*
X164936905Y-139354762D01*
X164889286Y-139307143D01*
X164841667Y-139211905D01*
X164794048Y-139021429D01*
X164794048Y-138783333D01*
X164841667Y-138592857D01*
X164889286Y-138497619D01*
X164936905Y-138450000D01*
X165032143Y-138402381D01*
X165841667Y-139354762D02*
X165841667Y-139402381D01*
X165794048Y-139497619D01*
X165746429Y-139545238D01*
X166794048Y-139402381D02*
X166222619Y-139402381D01*
X166508333Y-139402381D02*
X166508333Y-138402381D01*
X166413095Y-138545238D01*
X166317857Y-138640476D01*
X166222619Y-138688095D01*
X167651191Y-138735714D02*
X167651191Y-139402381D01*
X167222619Y-138735714D02*
X167222619Y-139259524D01*
X167270238Y-139354762D01*
X167365476Y-139402381D01*
X167508334Y-139402381D01*
X167603572Y-139354762D01*
X167651191Y-139307143D01*
X168460715Y-138878571D02*
X168127381Y-138878571D01*
X168127381Y-139402381D02*
X168127381Y-138402381D01*
X168603572Y-138402381D01*
X166508334Y-135807143D02*
X166460715Y-135854762D01*
X166317858Y-135902381D01*
X166222620Y-135902381D01*
X166079762Y-135854762D01*
X165984524Y-135759524D01*
X165936905Y-135664286D01*
X165889286Y-135473810D01*
X165889286Y-135330952D01*
X165936905Y-135140476D01*
X165984524Y-135045238D01*
X166079762Y-134950000D01*
X166222620Y-134902381D01*
X166317858Y-134902381D01*
X166460715Y-134950000D01*
X166508334Y-134997619D01*
X166841667Y-134902381D02*
X167460715Y-134902381D01*
X167127381Y-135283333D01*
X167270239Y-135283333D01*
X167365477Y-135330952D01*
X167413096Y-135378571D01*
X167460715Y-135473810D01*
X167460715Y-135711905D01*
X167413096Y-135807143D01*
X167365477Y-135854762D01*
X167270239Y-135902381D01*
X166984524Y-135902381D01*
X166889286Y-135854762D01*
X166841667Y-135807143D01*
X101677381Y-125917857D02*
X101677381Y-125822618D01*
X101725000Y-125727380D01*
X101772619Y-125679761D01*
X101867857Y-125632142D01*
X102058333Y-125584523D01*
X102296429Y-125584523D01*
X102486905Y-125632142D01*
X102582143Y-125679761D01*
X102629762Y-125727380D01*
X102677381Y-125822618D01*
X102677381Y-125917857D01*
X102629762Y-126013095D01*
X102582143Y-126060714D01*
X102486905Y-126108333D01*
X102296429Y-126155952D01*
X102058333Y-126155952D01*
X101867857Y-126108333D01*
X101772619Y-126060714D01*
X101725000Y-126013095D01*
X101677381Y-125917857D01*
X102629762Y-125108333D02*
X102677381Y-125108333D01*
X102772619Y-125155952D01*
X102820238Y-125203571D01*
X102677381Y-124155952D02*
X102677381Y-124727381D01*
X102677381Y-124441667D02*
X101677381Y-124441667D01*
X101820238Y-124536905D01*
X101915476Y-124632143D01*
X101963095Y-124727381D01*
X102010714Y-123298809D02*
X102677381Y-123298809D01*
X102010714Y-123727381D02*
X102534524Y-123727381D01*
X102629762Y-123679762D01*
X102677381Y-123584524D01*
X102677381Y-123441666D01*
X102629762Y-123346428D01*
X102582143Y-123298809D01*
X102153571Y-122489285D02*
X102153571Y-122822619D01*
X102677381Y-122822619D02*
X101677381Y-122822619D01*
X101677381Y-122346428D01*
X106082143Y-124441666D02*
X106129762Y-124489285D01*
X106177381Y-124632142D01*
X106177381Y-124727380D01*
X106129762Y-124870238D01*
X106034524Y-124965476D01*
X105939286Y-125013095D01*
X105748810Y-125060714D01*
X105605952Y-125060714D01*
X105415476Y-125013095D01*
X105320238Y-124965476D01*
X105225000Y-124870238D01*
X105177381Y-124727380D01*
X105177381Y-124632142D01*
X105225000Y-124489285D01*
X105272619Y-124441666D01*
X105177381Y-123536904D02*
X105177381Y-124013095D01*
X105653571Y-124060714D01*
X105605952Y-124013095D01*
X105558333Y-123917857D01*
X105558333Y-123679761D01*
X105605952Y-123584523D01*
X105653571Y-123536904D01*
X105748810Y-123489285D01*
X105986905Y-123489285D01*
X106082143Y-123536904D01*
X106129762Y-123584523D01*
X106177381Y-123679761D01*
X106177381Y-123917857D01*
X106129762Y-124013095D01*
X106082143Y-124060714D01*
X98952381Y-74867857D02*
X98952381Y-74772618D01*
X99000000Y-74677380D01*
X99047619Y-74629761D01*
X99142857Y-74582142D01*
X99333333Y-74534523D01*
X99571429Y-74534523D01*
X99761905Y-74582142D01*
X99857143Y-74629761D01*
X99904762Y-74677380D01*
X99952381Y-74772618D01*
X99952381Y-74867857D01*
X99904762Y-74963095D01*
X99857143Y-75010714D01*
X99761905Y-75058333D01*
X99571429Y-75105952D01*
X99333333Y-75105952D01*
X99142857Y-75058333D01*
X99047619Y-75010714D01*
X99000000Y-74963095D01*
X98952381Y-74867857D01*
X99904762Y-74058333D02*
X99952381Y-74058333D01*
X100047619Y-74105952D01*
X100095238Y-74153571D01*
X99952381Y-73105952D02*
X99952381Y-73677381D01*
X99952381Y-73391667D02*
X98952381Y-73391667D01*
X99095238Y-73486905D01*
X99190476Y-73582143D01*
X99238095Y-73677381D01*
X99285714Y-72248809D02*
X99952381Y-72248809D01*
X99285714Y-72677381D02*
X99809524Y-72677381D01*
X99904762Y-72629762D01*
X99952381Y-72534524D01*
X99952381Y-72391666D01*
X99904762Y-72296428D01*
X99857143Y-72248809D01*
X99428571Y-71439285D02*
X99428571Y-71772619D01*
X99952381Y-71772619D02*
X98952381Y-71772619D01*
X98952381Y-71296428D01*
X103357143Y-73391666D02*
X103404762Y-73439285D01*
X103452381Y-73582142D01*
X103452381Y-73677380D01*
X103404762Y-73820238D01*
X103309524Y-73915476D01*
X103214286Y-73963095D01*
X103023810Y-74010714D01*
X102880952Y-74010714D01*
X102690476Y-73963095D01*
X102595238Y-73915476D01*
X102500000Y-73820238D01*
X102452381Y-73677380D01*
X102452381Y-73582142D01*
X102500000Y-73439285D01*
X102547619Y-73391666D01*
X102452381Y-72534523D02*
X102452381Y-72725000D01*
X102500000Y-72820238D01*
X102547619Y-72867857D01*
X102690476Y-72963095D01*
X102880952Y-73010714D01*
X103261905Y-73010714D01*
X103357143Y-72963095D01*
X103404762Y-72915476D01*
X103452381Y-72820238D01*
X103452381Y-72629761D01*
X103404762Y-72534523D01*
X103357143Y-72486904D01*
X103261905Y-72439285D01*
X103023810Y-72439285D01*
X102928571Y-72486904D01*
X102880952Y-72534523D01*
X102833333Y-72629761D01*
X102833333Y-72820238D01*
X102880952Y-72915476D01*
X102928571Y-72963095D01*
X103023810Y-73010714D01*
X141755952Y-137301191D02*
X141708333Y-137396429D01*
X141660714Y-137444048D01*
X141565476Y-137491667D01*
X141517857Y-137491667D01*
X141422619Y-137444048D01*
X141375000Y-137396429D01*
X141327381Y-137301191D01*
X141327381Y-137110714D01*
X141375000Y-137015476D01*
X141422619Y-136967857D01*
X141517857Y-136920238D01*
X141565476Y-136920238D01*
X141660714Y-136967857D01*
X141708333Y-137015476D01*
X141755952Y-137110714D01*
X141755952Y-137301191D01*
X141803571Y-137396429D01*
X141851190Y-137444048D01*
X141946429Y-137491667D01*
X142136905Y-137491667D01*
X142232143Y-137444048D01*
X142279762Y-137396429D01*
X142327381Y-137301191D01*
X142327381Y-137110714D01*
X142279762Y-137015476D01*
X142232143Y-136967857D01*
X142136905Y-136920238D01*
X141946429Y-136920238D01*
X141851190Y-136967857D01*
X141803571Y-137015476D01*
X141755952Y-137110714D01*
X141660714Y-136491667D02*
X142660714Y-136491667D01*
X141708333Y-136491667D02*
X141660714Y-136396429D01*
X141660714Y-136205952D01*
X141708333Y-136110714D01*
X141755952Y-136063095D01*
X141851190Y-136015476D01*
X142136905Y-136015476D01*
X142232143Y-136063095D01*
X142279762Y-136110714D01*
X142327381Y-136205952D01*
X142327381Y-136396429D01*
X142279762Y-136491667D01*
X141803571Y-135253571D02*
X141803571Y-135586905D01*
X142327381Y-135586905D02*
X141327381Y-135586905D01*
X141327381Y-135110714D01*
X138732143Y-136491666D02*
X138779762Y-136539285D01*
X138827381Y-136682142D01*
X138827381Y-136777380D01*
X138779762Y-136920238D01*
X138684524Y-137015476D01*
X138589286Y-137063095D01*
X138398810Y-137110714D01*
X138255952Y-137110714D01*
X138065476Y-137063095D01*
X137970238Y-137015476D01*
X137875000Y-136920238D01*
X137827381Y-136777380D01*
X137827381Y-136682142D01*
X137875000Y-136539285D01*
X137922619Y-136491666D01*
X137827381Y-136158333D02*
X137827381Y-135491666D01*
X138827381Y-135920238D01*
X138255952Y-141876191D02*
X138208333Y-141971429D01*
X138160714Y-142019048D01*
X138065476Y-142066667D01*
X138017857Y-142066667D01*
X137922619Y-142019048D01*
X137875000Y-141971429D01*
X137827381Y-141876191D01*
X137827381Y-141685714D01*
X137875000Y-141590476D01*
X137922619Y-141542857D01*
X138017857Y-141495238D01*
X138065476Y-141495238D01*
X138160714Y-141542857D01*
X138208333Y-141590476D01*
X138255952Y-141685714D01*
X138255952Y-141876191D01*
X138303571Y-141971429D01*
X138351190Y-142019048D01*
X138446429Y-142066667D01*
X138636905Y-142066667D01*
X138732143Y-142019048D01*
X138779762Y-141971429D01*
X138827381Y-141876191D01*
X138827381Y-141685714D01*
X138779762Y-141590476D01*
X138732143Y-141542857D01*
X138636905Y-141495238D01*
X138446429Y-141495238D01*
X138351190Y-141542857D01*
X138303571Y-141590476D01*
X138255952Y-141685714D01*
X138160714Y-141066667D02*
X139160714Y-141066667D01*
X138208333Y-141066667D02*
X138160714Y-140971429D01*
X138160714Y-140780952D01*
X138208333Y-140685714D01*
X138255952Y-140638095D01*
X138351190Y-140590476D01*
X138636905Y-140590476D01*
X138732143Y-140638095D01*
X138779762Y-140685714D01*
X138827381Y-140780952D01*
X138827381Y-140971429D01*
X138779762Y-141066667D01*
X138303571Y-139828571D02*
X138303571Y-140161905D01*
X138827381Y-140161905D02*
X137827381Y-140161905D01*
X137827381Y-139685714D01*
X142232143Y-141066666D02*
X142279762Y-141114285D01*
X142327381Y-141257142D01*
X142327381Y-141352380D01*
X142279762Y-141495238D01*
X142184524Y-141590476D01*
X142089286Y-141638095D01*
X141898810Y-141685714D01*
X141755952Y-141685714D01*
X141565476Y-141638095D01*
X141470238Y-141590476D01*
X141375000Y-141495238D01*
X141327381Y-141352380D01*
X141327381Y-141257142D01*
X141375000Y-141114285D01*
X141422619Y-141066666D01*
X141755952Y-140495238D02*
X141708333Y-140590476D01*
X141660714Y-140638095D01*
X141565476Y-140685714D01*
X141517857Y-140685714D01*
X141422619Y-140638095D01*
X141375000Y-140590476D01*
X141327381Y-140495238D01*
X141327381Y-140304761D01*
X141375000Y-140209523D01*
X141422619Y-140161904D01*
X141517857Y-140114285D01*
X141565476Y-140114285D01*
X141660714Y-140161904D01*
X141708333Y-140209523D01*
X141755952Y-140304761D01*
X141755952Y-140495238D01*
X141803571Y-140590476D01*
X141851190Y-140638095D01*
X141946429Y-140685714D01*
X142136905Y-140685714D01*
X142232143Y-140638095D01*
X142279762Y-140590476D01*
X142327381Y-140495238D01*
X142327381Y-140304761D01*
X142279762Y-140209523D01*
X142232143Y-140161904D01*
X142136905Y-140114285D01*
X141946429Y-140114285D01*
X141851190Y-140161904D01*
X141803571Y-140209523D01*
X141755952Y-140304761D01*
X86128572Y-83277381D02*
X85557143Y-83277381D01*
X85842857Y-83277381D02*
X85842857Y-82277381D01*
X85747619Y-82420238D01*
X85652381Y-82515476D01*
X85557143Y-82563095D01*
X86747619Y-82277381D02*
X86842858Y-82277381D01*
X86938096Y-82325000D01*
X86985715Y-82372619D01*
X87033334Y-82467857D01*
X87080953Y-82658333D01*
X87080953Y-82896429D01*
X87033334Y-83086905D01*
X86985715Y-83182143D01*
X86938096Y-83229762D01*
X86842858Y-83277381D01*
X86747619Y-83277381D01*
X86652381Y-83229762D01*
X86604762Y-83182143D01*
X86557143Y-83086905D01*
X86509524Y-82896429D01*
X86509524Y-82658333D01*
X86557143Y-82467857D01*
X86604762Y-82372619D01*
X86652381Y-82325000D01*
X86747619Y-82277381D01*
X87938096Y-82610714D02*
X87938096Y-83277381D01*
X87509524Y-82610714D02*
X87509524Y-83134524D01*
X87557143Y-83229762D01*
X87652381Y-83277381D01*
X87795239Y-83277381D01*
X87890477Y-83229762D01*
X87938096Y-83182143D01*
X88747620Y-82753571D02*
X88414286Y-82753571D01*
X88414286Y-83277381D02*
X88414286Y-82277381D01*
X88890477Y-82277381D01*
X87033334Y-79682143D02*
X86985715Y-79729762D01*
X86842858Y-79777381D01*
X86747620Y-79777381D01*
X86604762Y-79729762D01*
X86509524Y-79634524D01*
X86461905Y-79539286D01*
X86414286Y-79348810D01*
X86414286Y-79205952D01*
X86461905Y-79015476D01*
X86509524Y-78920238D01*
X86604762Y-78825000D01*
X86747620Y-78777381D01*
X86842858Y-78777381D01*
X86985715Y-78825000D01*
X87033334Y-78872619D01*
X87509524Y-79777381D02*
X87700000Y-79777381D01*
X87795239Y-79729762D01*
X87842858Y-79682143D01*
X87938096Y-79539286D01*
X87985715Y-79348810D01*
X87985715Y-78967857D01*
X87938096Y-78872619D01*
X87890477Y-78825000D01*
X87795239Y-78777381D01*
X87604762Y-78777381D01*
X87509524Y-78825000D01*
X87461905Y-78872619D01*
X87414286Y-78967857D01*
X87414286Y-79205952D01*
X87461905Y-79301190D01*
X87509524Y-79348810D01*
X87604762Y-79396429D01*
X87795239Y-79396429D01*
X87890477Y-79348810D01*
X87938096Y-79301190D01*
X87985715Y-79205952D01*
X162332381Y-128516666D02*
X163046667Y-128516666D01*
X163189524Y-128564286D01*
X163284762Y-128659524D01*
X163332381Y-128802381D01*
X163332381Y-128897619D01*
X162665714Y-127611904D02*
X163332381Y-127611904D01*
X162665714Y-128040476D02*
X163189524Y-128040476D01*
X163284762Y-127992857D01*
X163332381Y-127897619D01*
X163332381Y-127754761D01*
X163284762Y-127659523D01*
X163237143Y-127611904D01*
X163332381Y-127135714D02*
X162665714Y-127135714D01*
X162760952Y-127135714D02*
X162713333Y-127088095D01*
X162665714Y-126992857D01*
X162665714Y-126849999D01*
X162713333Y-126754761D01*
X162808571Y-126707142D01*
X163332381Y-126707142D01*
X162808571Y-126707142D02*
X162713333Y-126659523D01*
X162665714Y-126564285D01*
X162665714Y-126421428D01*
X162713333Y-126326190D01*
X162808571Y-126278571D01*
X163332381Y-126278571D01*
X162665714Y-125802381D02*
X163665714Y-125802381D01*
X162713333Y-125802381D02*
X162665714Y-125707143D01*
X162665714Y-125516666D01*
X162713333Y-125421428D01*
X162760952Y-125373809D01*
X162856190Y-125326190D01*
X163141905Y-125326190D01*
X163237143Y-125373809D01*
X163284762Y-125421428D01*
X163332381Y-125516666D01*
X163332381Y-125707143D01*
X163284762Y-125802381D01*
X163284762Y-124516666D02*
X163332381Y-124611904D01*
X163332381Y-124802381D01*
X163284762Y-124897619D01*
X163189524Y-124945238D01*
X162808571Y-124945238D01*
X162713333Y-124897619D01*
X162665714Y-124802381D01*
X162665714Y-124611904D01*
X162713333Y-124516666D01*
X162808571Y-124469047D01*
X162903810Y-124469047D01*
X162999048Y-124945238D01*
X163332381Y-124040476D02*
X162665714Y-124040476D01*
X162856190Y-124040476D02*
X162760952Y-123992857D01*
X162713333Y-123945238D01*
X162665714Y-123850000D01*
X162665714Y-123754761D01*
X166146667Y-125802381D02*
X166146667Y-126516667D01*
X166099047Y-126659524D01*
X166003809Y-126754762D01*
X165860952Y-126802381D01*
X165765714Y-126802381D01*
X167146667Y-126802381D02*
X166575238Y-126802381D01*
X166860952Y-126802381D02*
X166860952Y-125802381D01*
X166765714Y-125945238D01*
X166670476Y-126040476D01*
X166575238Y-126088095D01*
X159382381Y-124891666D02*
X160096667Y-124891666D01*
X160239524Y-124939286D01*
X160334762Y-125034524D01*
X160382381Y-125177381D01*
X160382381Y-125272619D01*
X159715714Y-123986904D02*
X160382381Y-123986904D01*
X159715714Y-124415476D02*
X160239524Y-124415476D01*
X160334762Y-124367857D01*
X160382381Y-124272619D01*
X160382381Y-124129761D01*
X160334762Y-124034523D01*
X160287143Y-123986904D01*
X160382381Y-123510714D02*
X159715714Y-123510714D01*
X159810952Y-123510714D02*
X159763333Y-123463095D01*
X159715714Y-123367857D01*
X159715714Y-123224999D01*
X159763333Y-123129761D01*
X159858571Y-123082142D01*
X160382381Y-123082142D01*
X159858571Y-123082142D02*
X159763333Y-123034523D01*
X159715714Y-122939285D01*
X159715714Y-122796428D01*
X159763333Y-122701190D01*
X159858571Y-122653571D01*
X160382381Y-122653571D01*
X159715714Y-122177381D02*
X160715714Y-122177381D01*
X159763333Y-122177381D02*
X159715714Y-122082143D01*
X159715714Y-121891666D01*
X159763333Y-121796428D01*
X159810952Y-121748809D01*
X159906190Y-121701190D01*
X160191905Y-121701190D01*
X160287143Y-121748809D01*
X160334762Y-121796428D01*
X160382381Y-121891666D01*
X160382381Y-122082143D01*
X160334762Y-122177381D01*
X160334762Y-120891666D02*
X160382381Y-120986904D01*
X160382381Y-121177381D01*
X160334762Y-121272619D01*
X160239524Y-121320238D01*
X159858571Y-121320238D01*
X159763333Y-121272619D01*
X159715714Y-121177381D01*
X159715714Y-120986904D01*
X159763333Y-120891666D01*
X159858571Y-120844047D01*
X159953810Y-120844047D01*
X160049048Y-121320238D01*
X160382381Y-120415476D02*
X159715714Y-120415476D01*
X159906190Y-120415476D02*
X159810952Y-120367857D01*
X159763333Y-120320238D01*
X159715714Y-120225000D01*
X159715714Y-120129761D01*
X163196667Y-122177381D02*
X163196667Y-122891667D01*
X163149047Y-123034524D01*
X163053809Y-123129762D01*
X162910952Y-123177381D01*
X162815714Y-123177381D01*
X163625238Y-122272619D02*
X163672857Y-122225000D01*
X163768095Y-122177381D01*
X164006191Y-122177381D01*
X164101429Y-122225000D01*
X164149048Y-122272619D01*
X164196667Y-122367857D01*
X164196667Y-122463095D01*
X164149048Y-122605952D01*
X163577619Y-123177381D01*
X164196667Y-123177381D01*
X143388095Y-52927381D02*
X143054761Y-52451190D01*
X142816666Y-52927381D02*
X142816666Y-51927381D01*
X143197619Y-51927381D01*
X143292857Y-51975000D01*
X143340476Y-52022619D01*
X143388095Y-52117857D01*
X143388095Y-52260714D01*
X143340476Y-52355952D01*
X143292857Y-52403571D01*
X143197619Y-52451190D01*
X142816666Y-52451190D01*
X143578571Y-53022619D02*
X144340476Y-53022619D01*
X144911905Y-52403571D02*
X144578571Y-52403571D01*
X144578571Y-52927381D02*
X144578571Y-51927381D01*
X145054762Y-51927381D01*
X145435714Y-51927381D02*
X145435714Y-52736905D01*
X145483333Y-52832143D01*
X145530952Y-52879762D01*
X145626190Y-52927381D01*
X145816667Y-52927381D01*
X145911905Y-52879762D01*
X145959524Y-52832143D01*
X146007143Y-52736905D01*
X146007143Y-51927381D01*
X146483333Y-52403571D02*
X146816667Y-52403571D01*
X146959524Y-52927381D02*
X146483333Y-52927381D01*
X146483333Y-51927381D01*
X146959524Y-51927381D01*
X147388095Y-52927381D02*
X147388095Y-51927381D01*
X147959524Y-52927381D01*
X147959524Y-51927381D01*
X148292857Y-51927381D02*
X148864286Y-51927381D01*
X148578571Y-52927381D02*
X148578571Y-51927381D01*
X149197619Y-52403571D02*
X149530953Y-52403571D01*
X149673810Y-52927381D02*
X149197619Y-52927381D01*
X149197619Y-51927381D01*
X149673810Y-51927381D01*
X149864286Y-53022619D02*
X150626191Y-53022619D01*
X151435715Y-52832143D02*
X151388096Y-52879762D01*
X151245239Y-52927381D01*
X151150001Y-52927381D01*
X151007143Y-52879762D01*
X150911905Y-52784524D01*
X150864286Y-52689286D01*
X150816667Y-52498810D01*
X150816667Y-52355952D01*
X150864286Y-52165476D01*
X150911905Y-52070238D01*
X151007143Y-51975000D01*
X151150001Y-51927381D01*
X151245239Y-51927381D01*
X151388096Y-51975000D01*
X151435715Y-52022619D01*
X152054762Y-51927381D02*
X152245239Y-51927381D01*
X152340477Y-51975000D01*
X152435715Y-52070238D01*
X152483334Y-52260714D01*
X152483334Y-52594048D01*
X152435715Y-52784524D01*
X152340477Y-52879762D01*
X152245239Y-52927381D01*
X152054762Y-52927381D01*
X151959524Y-52879762D01*
X151864286Y-52784524D01*
X151816667Y-52594048D01*
X151816667Y-52260714D01*
X151864286Y-52070238D01*
X151959524Y-51975000D01*
X152054762Y-51927381D01*
X152911905Y-52927381D02*
X152911905Y-51927381D01*
X153483334Y-52927381D01*
X153483334Y-51927381D01*
X100650000Y-147177381D02*
X100650000Y-146177381D01*
X100888095Y-147272619D02*
X101650000Y-147272619D01*
X101888095Y-146796429D02*
X102650000Y-146796429D01*
X102269048Y-147177381D02*
X102269048Y-146415476D01*
X109400000Y-147127381D02*
X109400000Y-146127381D01*
X109638095Y-147222619D02*
X110400000Y-147222619D01*
X110638095Y-146746429D02*
X111400000Y-146746429D01*
X85090476Y-55477381D02*
X85090476Y-54477381D01*
X85471429Y-54477381D01*
X85566667Y-54525000D01*
X85614286Y-54572619D01*
X85661905Y-54667857D01*
X85661905Y-54810714D01*
X85614286Y-54905952D01*
X85566667Y-54953571D01*
X85471429Y-55001190D01*
X85090476Y-55001190D01*
X86280952Y-54477381D02*
X86471429Y-54477381D01*
X86566667Y-54525000D01*
X86661905Y-54620238D01*
X86709524Y-54810714D01*
X86709524Y-55144048D01*
X86661905Y-55334524D01*
X86566667Y-55429762D01*
X86471429Y-55477381D01*
X86280952Y-55477381D01*
X86185714Y-55429762D01*
X86090476Y-55334524D01*
X86042857Y-55144048D01*
X86042857Y-54810714D01*
X86090476Y-54620238D01*
X86185714Y-54525000D01*
X86280952Y-54477381D01*
X87042857Y-54477381D02*
X87280952Y-55477381D01*
X87471429Y-54763095D01*
X87661905Y-55477381D01*
X87900000Y-54477381D01*
X88280952Y-54953571D02*
X88614286Y-54953571D01*
X88757143Y-55477381D02*
X88280952Y-55477381D01*
X88280952Y-54477381D01*
X88757143Y-54477381D01*
X89757143Y-55477381D02*
X89423809Y-55001190D01*
X89185714Y-55477381D02*
X89185714Y-54477381D01*
X89566667Y-54477381D01*
X89661905Y-54525000D01*
X89709524Y-54572619D01*
X89757143Y-54667857D01*
X89757143Y-54810714D01*
X89709524Y-54905952D01*
X89661905Y-54953571D01*
X89566667Y-55001190D01*
X89185714Y-55001190D01*
X169954762Y-147223809D02*
X170002381Y-147080952D01*
X170002381Y-146842856D01*
X169954762Y-146747618D01*
X169907143Y-146699999D01*
X169811905Y-146652380D01*
X169716667Y-146652380D01*
X169621429Y-146699999D01*
X169573810Y-146747618D01*
X169526190Y-146842856D01*
X169478571Y-147033333D01*
X169430952Y-147128571D01*
X169383333Y-147176190D01*
X169288095Y-147223809D01*
X169192857Y-147223809D01*
X169097619Y-147176190D01*
X169050000Y-147128571D01*
X169002381Y-147033333D01*
X169002381Y-146795237D01*
X169050000Y-146652380D01*
X170002381Y-146223809D02*
X169002381Y-146223809D01*
X169002381Y-145842856D01*
X169050000Y-145747618D01*
X169097619Y-145699999D01*
X169192857Y-145652380D01*
X169335714Y-145652380D01*
X169430952Y-145699999D01*
X169478571Y-145747618D01*
X169526190Y-145842856D01*
X169526190Y-146223809D01*
X170002381Y-145223809D02*
X169002381Y-145223809D01*
X156161905Y-146577381D02*
X156161905Y-145577381D01*
X156542858Y-145577381D01*
X156638096Y-145625000D01*
X156685715Y-145672619D01*
X156733334Y-145767857D01*
X156733334Y-145910714D01*
X156685715Y-146005952D01*
X156638096Y-146053571D01*
X156542858Y-146101190D01*
X156161905Y-146101190D01*
X157066667Y-145577381D02*
X157733334Y-145577381D01*
X157304762Y-146577381D01*
X86204762Y-89105000D02*
X86109524Y-89057381D01*
X85966667Y-89057381D01*
X85823809Y-89105000D01*
X85728571Y-89200238D01*
X85680952Y-89295476D01*
X85633333Y-89485952D01*
X85633333Y-89628810D01*
X85680952Y-89819286D01*
X85728571Y-89914524D01*
X85823809Y-90009762D01*
X85966667Y-90057381D01*
X86061905Y-90057381D01*
X86204762Y-90009762D01*
X86252381Y-89962143D01*
X86252381Y-89628810D01*
X86061905Y-89628810D01*
X86680952Y-90057381D02*
X86680952Y-89057381D01*
X87252381Y-90057381D01*
X87252381Y-89057381D01*
X87728571Y-90057381D02*
X87728571Y-89057381D01*
X87966666Y-89057381D01*
X88109524Y-89105000D01*
X88204762Y-89200238D01*
X88252381Y-89295476D01*
X88300000Y-89485952D01*
X88300000Y-89628810D01*
X88252381Y-89819286D01*
X88204762Y-89914524D01*
X88109524Y-90009762D01*
X87966666Y-90057381D01*
X87728571Y-90057381D01*
X88490476Y-90152619D02*
X89252381Y-90152619D01*
X90061905Y-90057381D02*
X89728571Y-89581190D01*
X89490476Y-90057381D02*
X89490476Y-89057381D01*
X89871429Y-89057381D01*
X89966667Y-89105000D01*
X90014286Y-89152619D01*
X90061905Y-89247857D01*
X90061905Y-89390714D01*
X90014286Y-89485952D01*
X89966667Y-89533571D01*
X89871429Y-89581190D01*
X89490476Y-89581190D01*
X90490476Y-89533571D02*
X90823810Y-89533571D01*
X90966667Y-90057381D02*
X90490476Y-90057381D01*
X90490476Y-89057381D01*
X90966667Y-89057381D01*
X91919048Y-89105000D02*
X91823810Y-89057381D01*
X91680953Y-89057381D01*
X91538095Y-89105000D01*
X91442857Y-89200238D01*
X91395238Y-89295476D01*
X91347619Y-89485952D01*
X91347619Y-89628810D01*
X91395238Y-89819286D01*
X91442857Y-89914524D01*
X91538095Y-90009762D01*
X91680953Y-90057381D01*
X91776191Y-90057381D01*
X91919048Y-90009762D01*
X91966667Y-89962143D01*
X91966667Y-89628810D01*
X91776191Y-89628810D01*
X87386905Y-85227381D02*
X87386905Y-84227381D01*
X87767858Y-84227381D01*
X87863096Y-84275000D01*
X87910715Y-84322619D01*
X87958334Y-84417857D01*
X87958334Y-84560714D01*
X87910715Y-84655952D01*
X87863096Y-84703571D01*
X87767858Y-84751190D01*
X87386905Y-84751190D01*
X88529762Y-84655952D02*
X88434524Y-84608333D01*
X88386905Y-84560714D01*
X88339286Y-84465476D01*
X88339286Y-84417857D01*
X88386905Y-84322619D01*
X88434524Y-84275000D01*
X88529762Y-84227381D01*
X88720239Y-84227381D01*
X88815477Y-84275000D01*
X88863096Y-84322619D01*
X88910715Y-84417857D01*
X88910715Y-84465476D01*
X88863096Y-84560714D01*
X88815477Y-84608333D01*
X88720239Y-84655952D01*
X88529762Y-84655952D01*
X88434524Y-84703571D01*
X88386905Y-84751190D01*
X88339286Y-84846429D01*
X88339286Y-85036905D01*
X88386905Y-85132143D01*
X88434524Y-85179762D01*
X88529762Y-85227381D01*
X88720239Y-85227381D01*
X88815477Y-85179762D01*
X88863096Y-85132143D01*
X88910715Y-85036905D01*
X88910715Y-84846429D01*
X88863096Y-84751190D01*
X88815477Y-84703571D01*
X88720239Y-84655952D01*
D10*
X171130953Y-128666190D02*
X171130953Y-128166190D01*
X171321429Y-128166190D01*
X171369048Y-128190000D01*
X171392857Y-128213810D01*
X171416667Y-128261429D01*
X171416667Y-128332857D01*
X171392857Y-128380476D01*
X171369048Y-128404286D01*
X171321429Y-128428095D01*
X171130953Y-128428095D01*
X171654762Y-128666190D02*
X171750000Y-128666190D01*
X171797619Y-128642381D01*
X171821429Y-128618571D01*
X171869048Y-128547143D01*
X171892857Y-128451905D01*
X171892857Y-128261429D01*
X171869048Y-128213810D01*
X171845238Y-128190000D01*
X171797619Y-128166190D01*
X171702381Y-128166190D01*
X171654762Y-128190000D01*
X171630953Y-128213810D01*
X171607143Y-128261429D01*
X171607143Y-128380476D01*
X171630953Y-128428095D01*
X171654762Y-128451905D01*
X171702381Y-128475714D01*
X171797619Y-128475714D01*
X171845238Y-128451905D01*
X171869048Y-128428095D01*
X171892857Y-128380476D01*
D11*
X167347619Y-126597381D02*
X167014285Y-126121190D01*
X166776190Y-126597381D02*
X166776190Y-125597381D01*
X167157143Y-125597381D01*
X167252381Y-125645000D01*
X167300000Y-125692619D01*
X167347619Y-125787857D01*
X167347619Y-125930714D01*
X167300000Y-126025952D01*
X167252381Y-126073571D01*
X167157143Y-126121190D01*
X166776190Y-126121190D01*
X167776190Y-126073571D02*
X168109524Y-126073571D01*
X168252381Y-126597381D02*
X167776190Y-126597381D01*
X167776190Y-125597381D01*
X168252381Y-125597381D01*
X168633333Y-126549762D02*
X168776190Y-126597381D01*
X169014286Y-126597381D01*
X169109524Y-126549762D01*
X169157143Y-126502143D01*
X169204762Y-126406905D01*
X169204762Y-126311667D01*
X169157143Y-126216429D01*
X169109524Y-126168810D01*
X169014286Y-126121190D01*
X168823809Y-126073571D01*
X168728571Y-126025952D01*
X168680952Y-125978333D01*
X168633333Y-125883095D01*
X168633333Y-125787857D01*
X168680952Y-125692619D01*
X168728571Y-125645000D01*
X168823809Y-125597381D01*
X169061905Y-125597381D01*
X169204762Y-125645000D01*
X169633333Y-126073571D02*
X169966667Y-126073571D01*
X170109524Y-126597381D02*
X169633333Y-126597381D01*
X169633333Y-125597381D01*
X170109524Y-125597381D01*
X170395238Y-125597381D02*
X170966667Y-125597381D01*
X170680952Y-126597381D02*
X170680952Y-125597381D01*
X172211905Y-124342381D02*
X172211905Y-123342381D01*
X172592858Y-123342381D01*
X172688096Y-123390000D01*
X172735715Y-123437619D01*
X172783334Y-123532857D01*
X172783334Y-123675714D01*
X172735715Y-123770952D01*
X172688096Y-123818571D01*
X172592858Y-123866190D01*
X172211905Y-123866190D01*
X173259524Y-124342381D02*
X173450000Y-124342381D01*
X173545239Y-124294762D01*
X173592858Y-124247143D01*
X173688096Y-124104286D01*
X173735715Y-123913810D01*
X173735715Y-123532857D01*
X173688096Y-123437619D01*
X173640477Y-123390000D01*
X173545239Y-123342381D01*
X173354762Y-123342381D01*
X173259524Y-123390000D01*
X173211905Y-123437619D01*
X173164286Y-123532857D01*
X173164286Y-123770952D01*
X173211905Y-123866190D01*
X173259524Y-123913810D01*
X173354762Y-123961429D01*
X173545239Y-123961429D01*
X173640477Y-123913810D01*
X173688096Y-123866190D01*
X173735715Y-123770952D01*
X151071177Y-68095901D02*
X151071177Y-67095901D01*
X151642606Y-68095901D01*
X151642606Y-67095901D01*
X152118796Y-68095901D02*
X152118796Y-67095901D01*
X152452130Y-67810187D01*
X152785463Y-67095901D01*
X152785463Y-68095901D01*
X153452129Y-67095901D02*
X153642606Y-67095901D01*
X153737844Y-67143520D01*
X153833082Y-67238758D01*
X153880701Y-67429234D01*
X153880701Y-67762568D01*
X153833082Y-67953044D01*
X153737844Y-68048282D01*
X153642606Y-68095901D01*
X153452129Y-68095901D01*
X153356891Y-68048282D01*
X153261653Y-67953044D01*
X153214034Y-67762568D01*
X153214034Y-67429234D01*
X153261653Y-67238758D01*
X153356891Y-67143520D01*
X153452129Y-67095901D01*
X154261653Y-68048282D02*
X154404510Y-68095901D01*
X154642606Y-68095901D01*
X154737844Y-68048282D01*
X154785463Y-68000663D01*
X154833082Y-67905425D01*
X154833082Y-67810187D01*
X154785463Y-67714949D01*
X154737844Y-67667330D01*
X154642606Y-67619710D01*
X154452129Y-67572091D01*
X154356891Y-67524472D01*
X154309272Y-67476853D01*
X154261653Y-67381615D01*
X154261653Y-67286377D01*
X154309272Y-67191139D01*
X154356891Y-67143520D01*
X154452129Y-67095901D01*
X154690225Y-67095901D01*
X154833082Y-67143520D01*
X152833082Y-60651139D02*
X152737844Y-60603520D01*
X152642606Y-60508282D01*
X152499749Y-60365425D01*
X152404510Y-60317806D01*
X152309272Y-60317806D01*
X152356891Y-60555901D02*
X152261653Y-60508282D01*
X152166415Y-60413044D01*
X152118796Y-60222568D01*
X152118796Y-59889234D01*
X152166415Y-59698758D01*
X152261653Y-59603520D01*
X152356891Y-59555901D01*
X152547368Y-59555901D01*
X152642606Y-59603520D01*
X152737844Y-59698758D01*
X152785463Y-59889234D01*
X152785463Y-60222568D01*
X152737844Y-60413044D01*
X152642606Y-60508282D01*
X152547368Y-60555901D01*
X152356891Y-60555901D01*
X153737844Y-60555901D02*
X153166415Y-60555901D01*
X153452129Y-60555901D02*
X153452129Y-59555901D01*
X153356891Y-59698758D01*
X153261653Y-59793996D01*
X153166415Y-59841615D01*
X151055937Y-83554341D02*
X151055937Y-82554341D01*
X151627366Y-83554341D01*
X151627366Y-82554341D01*
X152103556Y-83554341D02*
X152103556Y-82554341D01*
X152436890Y-83268627D01*
X152770223Y-82554341D01*
X152770223Y-83554341D01*
X153436889Y-82554341D02*
X153627366Y-82554341D01*
X153722604Y-82601960D01*
X153817842Y-82697198D01*
X153865461Y-82887674D01*
X153865461Y-83221008D01*
X153817842Y-83411484D01*
X153722604Y-83506722D01*
X153627366Y-83554341D01*
X153436889Y-83554341D01*
X153341651Y-83506722D01*
X153246413Y-83411484D01*
X153198794Y-83221008D01*
X153198794Y-82887674D01*
X153246413Y-82697198D01*
X153341651Y-82601960D01*
X153436889Y-82554341D01*
X154246413Y-83506722D02*
X154389270Y-83554341D01*
X154627366Y-83554341D01*
X154722604Y-83506722D01*
X154770223Y-83459103D01*
X154817842Y-83363865D01*
X154817842Y-83268627D01*
X154770223Y-83173389D01*
X154722604Y-83125770D01*
X154627366Y-83078150D01*
X154436889Y-83030531D01*
X154341651Y-82982912D01*
X154294032Y-82935293D01*
X154246413Y-82840055D01*
X154246413Y-82744817D01*
X154294032Y-82649579D01*
X154341651Y-82601960D01*
X154436889Y-82554341D01*
X154674985Y-82554341D01*
X154817842Y-82601960D01*
X152817842Y-76109579D02*
X152722604Y-76061960D01*
X152627366Y-75966722D01*
X152484509Y-75823865D01*
X152389270Y-75776246D01*
X152294032Y-75776246D01*
X152341651Y-76014341D02*
X152246413Y-75966722D01*
X152151175Y-75871484D01*
X152103556Y-75681008D01*
X152103556Y-75347674D01*
X152151175Y-75157198D01*
X152246413Y-75061960D01*
X152341651Y-75014341D01*
X152532128Y-75014341D01*
X152627366Y-75061960D01*
X152722604Y-75157198D01*
X152770223Y-75347674D01*
X152770223Y-75681008D01*
X152722604Y-75871484D01*
X152627366Y-75966722D01*
X152532128Y-76014341D01*
X152341651Y-76014341D01*
X153151175Y-75109579D02*
X153198794Y-75061960D01*
X153294032Y-75014341D01*
X153532128Y-75014341D01*
X153627366Y-75061960D01*
X153674985Y-75109579D01*
X153722604Y-75204817D01*
X153722604Y-75300055D01*
X153674985Y-75442912D01*
X153103556Y-76014341D01*
X153722604Y-76014341D01*
X151107857Y-99647381D02*
X151107857Y-98647381D01*
X151679286Y-99647381D01*
X151679286Y-98647381D01*
X152155476Y-99647381D02*
X152155476Y-98647381D01*
X152488810Y-99361667D01*
X152822143Y-98647381D01*
X152822143Y-99647381D01*
X153488809Y-98647381D02*
X153679286Y-98647381D01*
X153774524Y-98695000D01*
X153869762Y-98790238D01*
X153917381Y-98980714D01*
X153917381Y-99314048D01*
X153869762Y-99504524D01*
X153774524Y-99599762D01*
X153679286Y-99647381D01*
X153488809Y-99647381D01*
X153393571Y-99599762D01*
X153298333Y-99504524D01*
X153250714Y-99314048D01*
X153250714Y-98980714D01*
X153298333Y-98790238D01*
X153393571Y-98695000D01*
X153488809Y-98647381D01*
X154298333Y-99599762D02*
X154441190Y-99647381D01*
X154679286Y-99647381D01*
X154774524Y-99599762D01*
X154822143Y-99552143D01*
X154869762Y-99456905D01*
X154869762Y-99361667D01*
X154822143Y-99266429D01*
X154774524Y-99218810D01*
X154679286Y-99171190D01*
X154488809Y-99123571D01*
X154393571Y-99075952D01*
X154345952Y-99028333D01*
X154298333Y-98933095D01*
X154298333Y-98837857D01*
X154345952Y-98742619D01*
X154393571Y-98695000D01*
X154488809Y-98647381D01*
X154726905Y-98647381D01*
X154869762Y-98695000D01*
X152869762Y-92202619D02*
X152774524Y-92155000D01*
X152679286Y-92059762D01*
X152536429Y-91916905D01*
X152441190Y-91869286D01*
X152345952Y-91869286D01*
X152393571Y-92107381D02*
X152298333Y-92059762D01*
X152203095Y-91964524D01*
X152155476Y-91774048D01*
X152155476Y-91440714D01*
X152203095Y-91250238D01*
X152298333Y-91155000D01*
X152393571Y-91107381D01*
X152584048Y-91107381D01*
X152679286Y-91155000D01*
X152774524Y-91250238D01*
X152822143Y-91440714D01*
X152822143Y-91774048D01*
X152774524Y-91964524D01*
X152679286Y-92059762D01*
X152584048Y-92107381D01*
X152393571Y-92107381D01*
X153155476Y-91107381D02*
X153774524Y-91107381D01*
X153441190Y-91488333D01*
X153584048Y-91488333D01*
X153679286Y-91535952D01*
X153726905Y-91583571D01*
X153774524Y-91678810D01*
X153774524Y-91916905D01*
X153726905Y-92012143D01*
X153679286Y-92059762D01*
X153584048Y-92107381D01*
X153298333Y-92107381D01*
X153203095Y-92059762D01*
X153155476Y-92012143D01*
X151107857Y-115422381D02*
X151107857Y-114422381D01*
X151679286Y-115422381D01*
X151679286Y-114422381D01*
X152155476Y-115422381D02*
X152155476Y-114422381D01*
X152488810Y-115136667D01*
X152822143Y-114422381D01*
X152822143Y-115422381D01*
X153488809Y-114422381D02*
X153679286Y-114422381D01*
X153774524Y-114470000D01*
X153869762Y-114565238D01*
X153917381Y-114755714D01*
X153917381Y-115089048D01*
X153869762Y-115279524D01*
X153774524Y-115374762D01*
X153679286Y-115422381D01*
X153488809Y-115422381D01*
X153393571Y-115374762D01*
X153298333Y-115279524D01*
X153250714Y-115089048D01*
X153250714Y-114755714D01*
X153298333Y-114565238D01*
X153393571Y-114470000D01*
X153488809Y-114422381D01*
X154298333Y-115374762D02*
X154441190Y-115422381D01*
X154679286Y-115422381D01*
X154774524Y-115374762D01*
X154822143Y-115327143D01*
X154869762Y-115231905D01*
X154869762Y-115136667D01*
X154822143Y-115041429D01*
X154774524Y-114993810D01*
X154679286Y-114946190D01*
X154488809Y-114898571D01*
X154393571Y-114850952D01*
X154345952Y-114803333D01*
X154298333Y-114708095D01*
X154298333Y-114612857D01*
X154345952Y-114517619D01*
X154393571Y-114470000D01*
X154488809Y-114422381D01*
X154726905Y-114422381D01*
X154869762Y-114470000D01*
X152869762Y-107977619D02*
X152774524Y-107930000D01*
X152679286Y-107834762D01*
X152536429Y-107691905D01*
X152441190Y-107644286D01*
X152345952Y-107644286D01*
X152393571Y-107882381D02*
X152298333Y-107834762D01*
X152203095Y-107739524D01*
X152155476Y-107549048D01*
X152155476Y-107215714D01*
X152203095Y-107025238D01*
X152298333Y-106930000D01*
X152393571Y-106882381D01*
X152584048Y-106882381D01*
X152679286Y-106930000D01*
X152774524Y-107025238D01*
X152822143Y-107215714D01*
X152822143Y-107549048D01*
X152774524Y-107739524D01*
X152679286Y-107834762D01*
X152584048Y-107882381D01*
X152393571Y-107882381D01*
X153679286Y-107215714D02*
X153679286Y-107882381D01*
X153441190Y-106834762D02*
X153203095Y-107549048D01*
X153822143Y-107549048D01*
X115382857Y-68097381D02*
X115382857Y-67097381D01*
X115954286Y-68097381D01*
X115954286Y-67097381D01*
X116430476Y-68097381D02*
X116430476Y-67097381D01*
X116763810Y-67811667D01*
X117097143Y-67097381D01*
X117097143Y-68097381D01*
X117763809Y-67097381D02*
X117954286Y-67097381D01*
X118049524Y-67145000D01*
X118144762Y-67240238D01*
X118192381Y-67430714D01*
X118192381Y-67764048D01*
X118144762Y-67954524D01*
X118049524Y-68049762D01*
X117954286Y-68097381D01*
X117763809Y-68097381D01*
X117668571Y-68049762D01*
X117573333Y-67954524D01*
X117525714Y-67764048D01*
X117525714Y-67430714D01*
X117573333Y-67240238D01*
X117668571Y-67145000D01*
X117763809Y-67097381D01*
X118573333Y-68049762D02*
X118716190Y-68097381D01*
X118954286Y-68097381D01*
X119049524Y-68049762D01*
X119097143Y-68002143D01*
X119144762Y-67906905D01*
X119144762Y-67811667D01*
X119097143Y-67716429D01*
X119049524Y-67668810D01*
X118954286Y-67621190D01*
X118763809Y-67573571D01*
X118668571Y-67525952D01*
X118620952Y-67478333D01*
X118573333Y-67383095D01*
X118573333Y-67287857D01*
X118620952Y-67192619D01*
X118668571Y-67145000D01*
X118763809Y-67097381D01*
X119001905Y-67097381D01*
X119144762Y-67145000D01*
X117144762Y-60652619D02*
X117049524Y-60605000D01*
X116954286Y-60509762D01*
X116811429Y-60366905D01*
X116716190Y-60319286D01*
X116620952Y-60319286D01*
X116668571Y-60557381D02*
X116573333Y-60509762D01*
X116478095Y-60414524D01*
X116430476Y-60224048D01*
X116430476Y-59890714D01*
X116478095Y-59700238D01*
X116573333Y-59605000D01*
X116668571Y-59557381D01*
X116859048Y-59557381D01*
X116954286Y-59605000D01*
X117049524Y-59700238D01*
X117097143Y-59890714D01*
X117097143Y-60224048D01*
X117049524Y-60414524D01*
X116954286Y-60509762D01*
X116859048Y-60557381D01*
X116668571Y-60557381D01*
X118001905Y-59557381D02*
X117525714Y-59557381D01*
X117478095Y-60033571D01*
X117525714Y-59985952D01*
X117620952Y-59938333D01*
X117859048Y-59938333D01*
X117954286Y-59985952D01*
X118001905Y-60033571D01*
X118049524Y-60128810D01*
X118049524Y-60366905D01*
X118001905Y-60462143D01*
X117954286Y-60509762D01*
X117859048Y-60557381D01*
X117620952Y-60557381D01*
X117525714Y-60509762D01*
X117478095Y-60462143D01*
X162143987Y-68095901D02*
X162143987Y-67095901D01*
X162524940Y-67095901D01*
X162620178Y-67143520D01*
X162667797Y-67191139D01*
X162715416Y-67286377D01*
X162715416Y-67429234D01*
X162667797Y-67524472D01*
X162620178Y-67572091D01*
X162524940Y-67619710D01*
X162143987Y-67619710D01*
X163143987Y-68095901D02*
X163143987Y-67095901D01*
X163477321Y-67810187D01*
X163810654Y-67095901D01*
X163810654Y-68095901D01*
X164477320Y-67095901D02*
X164667797Y-67095901D01*
X164763035Y-67143520D01*
X164858273Y-67238758D01*
X164905892Y-67429234D01*
X164905892Y-67762568D01*
X164858273Y-67953044D01*
X164763035Y-68048282D01*
X164667797Y-68095901D01*
X164477320Y-68095901D01*
X164382082Y-68048282D01*
X164286844Y-67953044D01*
X164239225Y-67762568D01*
X164239225Y-67429234D01*
X164286844Y-67238758D01*
X164382082Y-67143520D01*
X164477320Y-67095901D01*
X165286844Y-68048282D02*
X165429701Y-68095901D01*
X165667797Y-68095901D01*
X165763035Y-68048282D01*
X165810654Y-68000663D01*
X165858273Y-67905425D01*
X165858273Y-67810187D01*
X165810654Y-67714949D01*
X165763035Y-67667330D01*
X165667797Y-67619710D01*
X165477320Y-67572091D01*
X165382082Y-67524472D01*
X165334463Y-67476853D01*
X165286844Y-67381615D01*
X165286844Y-67286377D01*
X165334463Y-67191139D01*
X165382082Y-67143520D01*
X165477320Y-67095901D01*
X165715416Y-67095901D01*
X165858273Y-67143520D01*
X163882082Y-60651139D02*
X163786844Y-60603520D01*
X163691606Y-60508282D01*
X163548749Y-60365425D01*
X163453510Y-60317806D01*
X163358272Y-60317806D01*
X163405891Y-60555901D02*
X163310653Y-60508282D01*
X163215415Y-60413044D01*
X163167796Y-60222568D01*
X163167796Y-59889234D01*
X163215415Y-59698758D01*
X163310653Y-59603520D01*
X163405891Y-59555901D01*
X163596368Y-59555901D01*
X163691606Y-59603520D01*
X163786844Y-59698758D01*
X163834463Y-59889234D01*
X163834463Y-60222568D01*
X163786844Y-60413044D01*
X163691606Y-60508282D01*
X163596368Y-60555901D01*
X163405891Y-60555901D01*
X164691606Y-59555901D02*
X164501129Y-59555901D01*
X164405891Y-59603520D01*
X164358272Y-59651139D01*
X164263034Y-59793996D01*
X164215415Y-59984472D01*
X164215415Y-60365425D01*
X164263034Y-60460663D01*
X164310653Y-60508282D01*
X164405891Y-60555901D01*
X164596368Y-60555901D01*
X164691606Y-60508282D01*
X164739225Y-60460663D01*
X164786844Y-60365425D01*
X164786844Y-60127330D01*
X164739225Y-60032091D01*
X164691606Y-59984472D01*
X164596368Y-59936853D01*
X164405891Y-59936853D01*
X164310653Y-59984472D01*
X164263034Y-60032091D01*
X164215415Y-60127330D01*
X162143987Y-83554341D02*
X162143987Y-82554341D01*
X162524940Y-82554341D01*
X162620178Y-82601960D01*
X162667797Y-82649579D01*
X162715416Y-82744817D01*
X162715416Y-82887674D01*
X162667797Y-82982912D01*
X162620178Y-83030531D01*
X162524940Y-83078150D01*
X162143987Y-83078150D01*
X163143987Y-83554341D02*
X163143987Y-82554341D01*
X163477321Y-83268627D01*
X163810654Y-82554341D01*
X163810654Y-83554341D01*
X164477320Y-82554341D02*
X164667797Y-82554341D01*
X164763035Y-82601960D01*
X164858273Y-82697198D01*
X164905892Y-82887674D01*
X164905892Y-83221008D01*
X164858273Y-83411484D01*
X164763035Y-83506722D01*
X164667797Y-83554341D01*
X164477320Y-83554341D01*
X164382082Y-83506722D01*
X164286844Y-83411484D01*
X164239225Y-83221008D01*
X164239225Y-82887674D01*
X164286844Y-82697198D01*
X164382082Y-82601960D01*
X164477320Y-82554341D01*
X165286844Y-83506722D02*
X165429701Y-83554341D01*
X165667797Y-83554341D01*
X165763035Y-83506722D01*
X165810654Y-83459103D01*
X165858273Y-83363865D01*
X165858273Y-83268627D01*
X165810654Y-83173389D01*
X165763035Y-83125770D01*
X165667797Y-83078150D01*
X165477320Y-83030531D01*
X165382082Y-82982912D01*
X165334463Y-82935293D01*
X165286844Y-82840055D01*
X165286844Y-82744817D01*
X165334463Y-82649579D01*
X165382082Y-82601960D01*
X165477320Y-82554341D01*
X165715416Y-82554341D01*
X165858273Y-82601960D01*
X163882082Y-76109579D02*
X163786844Y-76061960D01*
X163691606Y-75966722D01*
X163548749Y-75823865D01*
X163453510Y-75776246D01*
X163358272Y-75776246D01*
X163405891Y-76014341D02*
X163310653Y-75966722D01*
X163215415Y-75871484D01*
X163167796Y-75681008D01*
X163167796Y-75347674D01*
X163215415Y-75157198D01*
X163310653Y-75061960D01*
X163405891Y-75014341D01*
X163596368Y-75014341D01*
X163691606Y-75061960D01*
X163786844Y-75157198D01*
X163834463Y-75347674D01*
X163834463Y-75681008D01*
X163786844Y-75871484D01*
X163691606Y-75966722D01*
X163596368Y-76014341D01*
X163405891Y-76014341D01*
X164167796Y-75014341D02*
X164834463Y-75014341D01*
X164405891Y-76014341D01*
X162131667Y-99647381D02*
X162131667Y-98647381D01*
X162512620Y-98647381D01*
X162607858Y-98695000D01*
X162655477Y-98742619D01*
X162703096Y-98837857D01*
X162703096Y-98980714D01*
X162655477Y-99075952D01*
X162607858Y-99123571D01*
X162512620Y-99171190D01*
X162131667Y-99171190D01*
X163131667Y-99647381D02*
X163131667Y-98647381D01*
X163465001Y-99361667D01*
X163798334Y-98647381D01*
X163798334Y-99647381D01*
X164465000Y-98647381D02*
X164655477Y-98647381D01*
X164750715Y-98695000D01*
X164845953Y-98790238D01*
X164893572Y-98980714D01*
X164893572Y-99314048D01*
X164845953Y-99504524D01*
X164750715Y-99599762D01*
X164655477Y-99647381D01*
X164465000Y-99647381D01*
X164369762Y-99599762D01*
X164274524Y-99504524D01*
X164226905Y-99314048D01*
X164226905Y-98980714D01*
X164274524Y-98790238D01*
X164369762Y-98695000D01*
X164465000Y-98647381D01*
X165274524Y-99599762D02*
X165417381Y-99647381D01*
X165655477Y-99647381D01*
X165750715Y-99599762D01*
X165798334Y-99552143D01*
X165845953Y-99456905D01*
X165845953Y-99361667D01*
X165798334Y-99266429D01*
X165750715Y-99218810D01*
X165655477Y-99171190D01*
X165465000Y-99123571D01*
X165369762Y-99075952D01*
X165322143Y-99028333D01*
X165274524Y-98933095D01*
X165274524Y-98837857D01*
X165322143Y-98742619D01*
X165369762Y-98695000D01*
X165465000Y-98647381D01*
X165703096Y-98647381D01*
X165845953Y-98695000D01*
X163869762Y-92202619D02*
X163774524Y-92155000D01*
X163679286Y-92059762D01*
X163536429Y-91916905D01*
X163441190Y-91869286D01*
X163345952Y-91869286D01*
X163393571Y-92107381D02*
X163298333Y-92059762D01*
X163203095Y-91964524D01*
X163155476Y-91774048D01*
X163155476Y-91440714D01*
X163203095Y-91250238D01*
X163298333Y-91155000D01*
X163393571Y-91107381D01*
X163584048Y-91107381D01*
X163679286Y-91155000D01*
X163774524Y-91250238D01*
X163822143Y-91440714D01*
X163822143Y-91774048D01*
X163774524Y-91964524D01*
X163679286Y-92059762D01*
X163584048Y-92107381D01*
X163393571Y-92107381D01*
X164393571Y-91535952D02*
X164298333Y-91488333D01*
X164250714Y-91440714D01*
X164203095Y-91345476D01*
X164203095Y-91297857D01*
X164250714Y-91202619D01*
X164298333Y-91155000D01*
X164393571Y-91107381D01*
X164584048Y-91107381D01*
X164679286Y-91155000D01*
X164726905Y-91202619D01*
X164774524Y-91297857D01*
X164774524Y-91345476D01*
X164726905Y-91440714D01*
X164679286Y-91488333D01*
X164584048Y-91535952D01*
X164393571Y-91535952D01*
X164298333Y-91583571D01*
X164250714Y-91631190D01*
X164203095Y-91726429D01*
X164203095Y-91916905D01*
X164250714Y-92012143D01*
X164298333Y-92059762D01*
X164393571Y-92107381D01*
X164584048Y-92107381D01*
X164679286Y-92059762D01*
X164726905Y-92012143D01*
X164774524Y-91916905D01*
X164774524Y-91726429D01*
X164726905Y-91631190D01*
X164679286Y-91583571D01*
X164584048Y-91535952D01*
X162131667Y-115422381D02*
X162131667Y-114422381D01*
X162512620Y-114422381D01*
X162607858Y-114470000D01*
X162655477Y-114517619D01*
X162703096Y-114612857D01*
X162703096Y-114755714D01*
X162655477Y-114850952D01*
X162607858Y-114898571D01*
X162512620Y-114946190D01*
X162131667Y-114946190D01*
X163131667Y-115422381D02*
X163131667Y-114422381D01*
X163465001Y-115136667D01*
X163798334Y-114422381D01*
X163798334Y-115422381D01*
X164465000Y-114422381D02*
X164655477Y-114422381D01*
X164750715Y-114470000D01*
X164845953Y-114565238D01*
X164893572Y-114755714D01*
X164893572Y-115089048D01*
X164845953Y-115279524D01*
X164750715Y-115374762D01*
X164655477Y-115422381D01*
X164465000Y-115422381D01*
X164369762Y-115374762D01*
X164274524Y-115279524D01*
X164226905Y-115089048D01*
X164226905Y-114755714D01*
X164274524Y-114565238D01*
X164369762Y-114470000D01*
X164465000Y-114422381D01*
X165274524Y-115374762D02*
X165417381Y-115422381D01*
X165655477Y-115422381D01*
X165750715Y-115374762D01*
X165798334Y-115327143D01*
X165845953Y-115231905D01*
X165845953Y-115136667D01*
X165798334Y-115041429D01*
X165750715Y-114993810D01*
X165655477Y-114946190D01*
X165465000Y-114898571D01*
X165369762Y-114850952D01*
X165322143Y-114803333D01*
X165274524Y-114708095D01*
X165274524Y-114612857D01*
X165322143Y-114517619D01*
X165369762Y-114470000D01*
X165465000Y-114422381D01*
X165703096Y-114422381D01*
X165845953Y-114470000D01*
X163869762Y-107977619D02*
X163774524Y-107930000D01*
X163679286Y-107834762D01*
X163536429Y-107691905D01*
X163441190Y-107644286D01*
X163345952Y-107644286D01*
X163393571Y-107882381D02*
X163298333Y-107834762D01*
X163203095Y-107739524D01*
X163155476Y-107549048D01*
X163155476Y-107215714D01*
X163203095Y-107025238D01*
X163298333Y-106930000D01*
X163393571Y-106882381D01*
X163584048Y-106882381D01*
X163679286Y-106930000D01*
X163774524Y-107025238D01*
X163822143Y-107215714D01*
X163822143Y-107549048D01*
X163774524Y-107739524D01*
X163679286Y-107834762D01*
X163584048Y-107882381D01*
X163393571Y-107882381D01*
X164298333Y-107882381D02*
X164488809Y-107882381D01*
X164584048Y-107834762D01*
X164631667Y-107787143D01*
X164726905Y-107644286D01*
X164774524Y-107453810D01*
X164774524Y-107072857D01*
X164726905Y-106977619D01*
X164679286Y-106930000D01*
X164584048Y-106882381D01*
X164393571Y-106882381D01*
X164298333Y-106930000D01*
X164250714Y-106977619D01*
X164203095Y-107072857D01*
X164203095Y-107310952D01*
X164250714Y-107406190D01*
X164298333Y-107453810D01*
X164393571Y-107501429D01*
X164584048Y-107501429D01*
X164679286Y-107453810D01*
X164726905Y-107406190D01*
X164774524Y-107310952D01*
X126456667Y-68122381D02*
X126456667Y-67122381D01*
X126837620Y-67122381D01*
X126932858Y-67170000D01*
X126980477Y-67217619D01*
X127028096Y-67312857D01*
X127028096Y-67455714D01*
X126980477Y-67550952D01*
X126932858Y-67598571D01*
X126837620Y-67646190D01*
X126456667Y-67646190D01*
X127456667Y-68122381D02*
X127456667Y-67122381D01*
X127790001Y-67836667D01*
X128123334Y-67122381D01*
X128123334Y-68122381D01*
X128790000Y-67122381D02*
X128980477Y-67122381D01*
X129075715Y-67170000D01*
X129170953Y-67265238D01*
X129218572Y-67455714D01*
X129218572Y-67789048D01*
X129170953Y-67979524D01*
X129075715Y-68074762D01*
X128980477Y-68122381D01*
X128790000Y-68122381D01*
X128694762Y-68074762D01*
X128599524Y-67979524D01*
X128551905Y-67789048D01*
X128551905Y-67455714D01*
X128599524Y-67265238D01*
X128694762Y-67170000D01*
X128790000Y-67122381D01*
X129599524Y-68074762D02*
X129742381Y-68122381D01*
X129980477Y-68122381D01*
X130075715Y-68074762D01*
X130123334Y-68027143D01*
X130170953Y-67931905D01*
X130170953Y-67836667D01*
X130123334Y-67741429D01*
X130075715Y-67693810D01*
X129980477Y-67646190D01*
X129790000Y-67598571D01*
X129694762Y-67550952D01*
X129647143Y-67503333D01*
X129599524Y-67408095D01*
X129599524Y-67312857D01*
X129647143Y-67217619D01*
X129694762Y-67170000D01*
X129790000Y-67122381D01*
X130028096Y-67122381D01*
X130170953Y-67170000D01*
X127718572Y-60677619D02*
X127623334Y-60630000D01*
X127528096Y-60534762D01*
X127385239Y-60391905D01*
X127290000Y-60344286D01*
X127194762Y-60344286D01*
X127242381Y-60582381D02*
X127147143Y-60534762D01*
X127051905Y-60439524D01*
X127004286Y-60249048D01*
X127004286Y-59915714D01*
X127051905Y-59725238D01*
X127147143Y-59630000D01*
X127242381Y-59582381D01*
X127432858Y-59582381D01*
X127528096Y-59630000D01*
X127623334Y-59725238D01*
X127670953Y-59915714D01*
X127670953Y-60249048D01*
X127623334Y-60439524D01*
X127528096Y-60534762D01*
X127432858Y-60582381D01*
X127242381Y-60582381D01*
X128623334Y-60582381D02*
X128051905Y-60582381D01*
X128337619Y-60582381D02*
X128337619Y-59582381D01*
X128242381Y-59725238D01*
X128147143Y-59820476D01*
X128051905Y-59868095D01*
X129242381Y-59582381D02*
X129337620Y-59582381D01*
X129432858Y-59630000D01*
X129480477Y-59677619D01*
X129528096Y-59772857D01*
X129575715Y-59963333D01*
X129575715Y-60201429D01*
X129528096Y-60391905D01*
X129480477Y-60487143D01*
X129432858Y-60534762D01*
X129337620Y-60582381D01*
X129242381Y-60582381D01*
X129147143Y-60534762D01*
X129099524Y-60487143D01*
X129051905Y-60391905D01*
X129004286Y-60201429D01*
X129004286Y-59963333D01*
X129051905Y-59772857D01*
X129099524Y-59677619D01*
X129147143Y-59630000D01*
X129242381Y-59582381D01*
X115382857Y-83554341D02*
X115382857Y-82554341D01*
X115954286Y-83554341D01*
X115954286Y-82554341D01*
X116430476Y-83554341D02*
X116430476Y-82554341D01*
X116763810Y-83268627D01*
X117097143Y-82554341D01*
X117097143Y-83554341D01*
X117763809Y-82554341D02*
X117954286Y-82554341D01*
X118049524Y-82601960D01*
X118144762Y-82697198D01*
X118192381Y-82887674D01*
X118192381Y-83221008D01*
X118144762Y-83411484D01*
X118049524Y-83506722D01*
X117954286Y-83554341D01*
X117763809Y-83554341D01*
X117668571Y-83506722D01*
X117573333Y-83411484D01*
X117525714Y-83221008D01*
X117525714Y-82887674D01*
X117573333Y-82697198D01*
X117668571Y-82601960D01*
X117763809Y-82554341D01*
X118573333Y-83506722D02*
X118716190Y-83554341D01*
X118954286Y-83554341D01*
X119049524Y-83506722D01*
X119097143Y-83459103D01*
X119144762Y-83363865D01*
X119144762Y-83268627D01*
X119097143Y-83173389D01*
X119049524Y-83125770D01*
X118954286Y-83078150D01*
X118763809Y-83030531D01*
X118668571Y-82982912D01*
X118620952Y-82935293D01*
X118573333Y-82840055D01*
X118573333Y-82744817D01*
X118620952Y-82649579D01*
X118668571Y-82601960D01*
X118763809Y-82554341D01*
X119001905Y-82554341D01*
X119144762Y-82601960D01*
X116668572Y-76109579D02*
X116573334Y-76061960D01*
X116478096Y-75966722D01*
X116335239Y-75823865D01*
X116240000Y-75776246D01*
X116144762Y-75776246D01*
X116192381Y-76014341D02*
X116097143Y-75966722D01*
X116001905Y-75871484D01*
X115954286Y-75681008D01*
X115954286Y-75347674D01*
X116001905Y-75157198D01*
X116097143Y-75061960D01*
X116192381Y-75014341D01*
X116382858Y-75014341D01*
X116478096Y-75061960D01*
X116573334Y-75157198D01*
X116620953Y-75347674D01*
X116620953Y-75681008D01*
X116573334Y-75871484D01*
X116478096Y-75966722D01*
X116382858Y-76014341D01*
X116192381Y-76014341D01*
X117573334Y-76014341D02*
X117001905Y-76014341D01*
X117287619Y-76014341D02*
X117287619Y-75014341D01*
X117192381Y-75157198D01*
X117097143Y-75252436D01*
X117001905Y-75300055D01*
X118525715Y-76014341D02*
X117954286Y-76014341D01*
X118240000Y-76014341D02*
X118240000Y-75014341D01*
X118144762Y-75157198D01*
X118049524Y-75252436D01*
X117954286Y-75300055D01*
X115382857Y-99647381D02*
X115382857Y-98647381D01*
X115954286Y-99647381D01*
X115954286Y-98647381D01*
X116430476Y-99647381D02*
X116430476Y-98647381D01*
X116763810Y-99361667D01*
X117097143Y-98647381D01*
X117097143Y-99647381D01*
X117763809Y-98647381D02*
X117954286Y-98647381D01*
X118049524Y-98695000D01*
X118144762Y-98790238D01*
X118192381Y-98980714D01*
X118192381Y-99314048D01*
X118144762Y-99504524D01*
X118049524Y-99599762D01*
X117954286Y-99647381D01*
X117763809Y-99647381D01*
X117668571Y-99599762D01*
X117573333Y-99504524D01*
X117525714Y-99314048D01*
X117525714Y-98980714D01*
X117573333Y-98790238D01*
X117668571Y-98695000D01*
X117763809Y-98647381D01*
X118573333Y-99599762D02*
X118716190Y-99647381D01*
X118954286Y-99647381D01*
X119049524Y-99599762D01*
X119097143Y-99552143D01*
X119144762Y-99456905D01*
X119144762Y-99361667D01*
X119097143Y-99266429D01*
X119049524Y-99218810D01*
X118954286Y-99171190D01*
X118763809Y-99123571D01*
X118668571Y-99075952D01*
X118620952Y-99028333D01*
X118573333Y-98933095D01*
X118573333Y-98837857D01*
X118620952Y-98742619D01*
X118668571Y-98695000D01*
X118763809Y-98647381D01*
X119001905Y-98647381D01*
X119144762Y-98695000D01*
X116668572Y-92202619D02*
X116573334Y-92155000D01*
X116478096Y-92059762D01*
X116335239Y-91916905D01*
X116240000Y-91869286D01*
X116144762Y-91869286D01*
X116192381Y-92107381D02*
X116097143Y-92059762D01*
X116001905Y-91964524D01*
X115954286Y-91774048D01*
X115954286Y-91440714D01*
X116001905Y-91250238D01*
X116097143Y-91155000D01*
X116192381Y-91107381D01*
X116382858Y-91107381D01*
X116478096Y-91155000D01*
X116573334Y-91250238D01*
X116620953Y-91440714D01*
X116620953Y-91774048D01*
X116573334Y-91964524D01*
X116478096Y-92059762D01*
X116382858Y-92107381D01*
X116192381Y-92107381D01*
X117573334Y-92107381D02*
X117001905Y-92107381D01*
X117287619Y-92107381D02*
X117287619Y-91107381D01*
X117192381Y-91250238D01*
X117097143Y-91345476D01*
X117001905Y-91393095D01*
X117954286Y-91202619D02*
X118001905Y-91155000D01*
X118097143Y-91107381D01*
X118335239Y-91107381D01*
X118430477Y-91155000D01*
X118478096Y-91202619D01*
X118525715Y-91297857D01*
X118525715Y-91393095D01*
X118478096Y-91535952D01*
X117906667Y-92107381D01*
X118525715Y-92107381D01*
X115382857Y-115422381D02*
X115382857Y-114422381D01*
X115954286Y-115422381D01*
X115954286Y-114422381D01*
X116430476Y-115422381D02*
X116430476Y-114422381D01*
X116763810Y-115136667D01*
X117097143Y-114422381D01*
X117097143Y-115422381D01*
X117763809Y-114422381D02*
X117954286Y-114422381D01*
X118049524Y-114470000D01*
X118144762Y-114565238D01*
X118192381Y-114755714D01*
X118192381Y-115089048D01*
X118144762Y-115279524D01*
X118049524Y-115374762D01*
X117954286Y-115422381D01*
X117763809Y-115422381D01*
X117668571Y-115374762D01*
X117573333Y-115279524D01*
X117525714Y-115089048D01*
X117525714Y-114755714D01*
X117573333Y-114565238D01*
X117668571Y-114470000D01*
X117763809Y-114422381D01*
X118573333Y-115374762D02*
X118716190Y-115422381D01*
X118954286Y-115422381D01*
X119049524Y-115374762D01*
X119097143Y-115327143D01*
X119144762Y-115231905D01*
X119144762Y-115136667D01*
X119097143Y-115041429D01*
X119049524Y-114993810D01*
X118954286Y-114946190D01*
X118763809Y-114898571D01*
X118668571Y-114850952D01*
X118620952Y-114803333D01*
X118573333Y-114708095D01*
X118573333Y-114612857D01*
X118620952Y-114517619D01*
X118668571Y-114470000D01*
X118763809Y-114422381D01*
X119001905Y-114422381D01*
X119144762Y-114470000D01*
X116668572Y-107977619D02*
X116573334Y-107930000D01*
X116478096Y-107834762D01*
X116335239Y-107691905D01*
X116240000Y-107644286D01*
X116144762Y-107644286D01*
X116192381Y-107882381D02*
X116097143Y-107834762D01*
X116001905Y-107739524D01*
X115954286Y-107549048D01*
X115954286Y-107215714D01*
X116001905Y-107025238D01*
X116097143Y-106930000D01*
X116192381Y-106882381D01*
X116382858Y-106882381D01*
X116478096Y-106930000D01*
X116573334Y-107025238D01*
X116620953Y-107215714D01*
X116620953Y-107549048D01*
X116573334Y-107739524D01*
X116478096Y-107834762D01*
X116382858Y-107882381D01*
X116192381Y-107882381D01*
X117573334Y-107882381D02*
X117001905Y-107882381D01*
X117287619Y-107882381D02*
X117287619Y-106882381D01*
X117192381Y-107025238D01*
X117097143Y-107120476D01*
X117001905Y-107168095D01*
X117906667Y-106882381D02*
X118525715Y-106882381D01*
X118192381Y-107263333D01*
X118335239Y-107263333D01*
X118430477Y-107310952D01*
X118478096Y-107358571D01*
X118525715Y-107453810D01*
X118525715Y-107691905D01*
X118478096Y-107787143D01*
X118430477Y-107834762D01*
X118335239Y-107882381D01*
X118049524Y-107882381D01*
X117954286Y-107834762D01*
X117906667Y-107787143D01*
X126456667Y-83554341D02*
X126456667Y-82554341D01*
X126837620Y-82554341D01*
X126932858Y-82601960D01*
X126980477Y-82649579D01*
X127028096Y-82744817D01*
X127028096Y-82887674D01*
X126980477Y-82982912D01*
X126932858Y-83030531D01*
X126837620Y-83078150D01*
X126456667Y-83078150D01*
X127456667Y-83554341D02*
X127456667Y-82554341D01*
X127790001Y-83268627D01*
X128123334Y-82554341D01*
X128123334Y-83554341D01*
X128790000Y-82554341D02*
X128980477Y-82554341D01*
X129075715Y-82601960D01*
X129170953Y-82697198D01*
X129218572Y-82887674D01*
X129218572Y-83221008D01*
X129170953Y-83411484D01*
X129075715Y-83506722D01*
X128980477Y-83554341D01*
X128790000Y-83554341D01*
X128694762Y-83506722D01*
X128599524Y-83411484D01*
X128551905Y-83221008D01*
X128551905Y-82887674D01*
X128599524Y-82697198D01*
X128694762Y-82601960D01*
X128790000Y-82554341D01*
X129599524Y-83506722D02*
X129742381Y-83554341D01*
X129980477Y-83554341D01*
X130075715Y-83506722D01*
X130123334Y-83459103D01*
X130170953Y-83363865D01*
X130170953Y-83268627D01*
X130123334Y-83173389D01*
X130075715Y-83125770D01*
X129980477Y-83078150D01*
X129790000Y-83030531D01*
X129694762Y-82982912D01*
X129647143Y-82935293D01*
X129599524Y-82840055D01*
X129599524Y-82744817D01*
X129647143Y-82649579D01*
X129694762Y-82601960D01*
X129790000Y-82554341D01*
X130028096Y-82554341D01*
X130170953Y-82601960D01*
X127718572Y-76109579D02*
X127623334Y-76061960D01*
X127528096Y-75966722D01*
X127385239Y-75823865D01*
X127290000Y-75776246D01*
X127194762Y-75776246D01*
X127242381Y-76014341D02*
X127147143Y-75966722D01*
X127051905Y-75871484D01*
X127004286Y-75681008D01*
X127004286Y-75347674D01*
X127051905Y-75157198D01*
X127147143Y-75061960D01*
X127242381Y-75014341D01*
X127432858Y-75014341D01*
X127528096Y-75061960D01*
X127623334Y-75157198D01*
X127670953Y-75347674D01*
X127670953Y-75681008D01*
X127623334Y-75871484D01*
X127528096Y-75966722D01*
X127432858Y-76014341D01*
X127242381Y-76014341D01*
X128623334Y-76014341D02*
X128051905Y-76014341D01*
X128337619Y-76014341D02*
X128337619Y-75014341D01*
X128242381Y-75157198D01*
X128147143Y-75252436D01*
X128051905Y-75300055D01*
X129480477Y-75347674D02*
X129480477Y-76014341D01*
X129242381Y-74966722D02*
X129004286Y-75681008D01*
X129623334Y-75681008D01*
X126456667Y-99647381D02*
X126456667Y-98647381D01*
X126837620Y-98647381D01*
X126932858Y-98695000D01*
X126980477Y-98742619D01*
X127028096Y-98837857D01*
X127028096Y-98980714D01*
X126980477Y-99075952D01*
X126932858Y-99123571D01*
X126837620Y-99171190D01*
X126456667Y-99171190D01*
X127456667Y-99647381D02*
X127456667Y-98647381D01*
X127790001Y-99361667D01*
X128123334Y-98647381D01*
X128123334Y-99647381D01*
X128790000Y-98647381D02*
X128980477Y-98647381D01*
X129075715Y-98695000D01*
X129170953Y-98790238D01*
X129218572Y-98980714D01*
X129218572Y-99314048D01*
X129170953Y-99504524D01*
X129075715Y-99599762D01*
X128980477Y-99647381D01*
X128790000Y-99647381D01*
X128694762Y-99599762D01*
X128599524Y-99504524D01*
X128551905Y-99314048D01*
X128551905Y-98980714D01*
X128599524Y-98790238D01*
X128694762Y-98695000D01*
X128790000Y-98647381D01*
X129599524Y-99599762D02*
X129742381Y-99647381D01*
X129980477Y-99647381D01*
X130075715Y-99599762D01*
X130123334Y-99552143D01*
X130170953Y-99456905D01*
X130170953Y-99361667D01*
X130123334Y-99266429D01*
X130075715Y-99218810D01*
X129980477Y-99171190D01*
X129790000Y-99123571D01*
X129694762Y-99075952D01*
X129647143Y-99028333D01*
X129599524Y-98933095D01*
X129599524Y-98837857D01*
X129647143Y-98742619D01*
X129694762Y-98695000D01*
X129790000Y-98647381D01*
X130028096Y-98647381D01*
X130170953Y-98695000D01*
X127718572Y-92202619D02*
X127623334Y-92155000D01*
X127528096Y-92059762D01*
X127385239Y-91916905D01*
X127290000Y-91869286D01*
X127194762Y-91869286D01*
X127242381Y-92107381D02*
X127147143Y-92059762D01*
X127051905Y-91964524D01*
X127004286Y-91774048D01*
X127004286Y-91440714D01*
X127051905Y-91250238D01*
X127147143Y-91155000D01*
X127242381Y-91107381D01*
X127432858Y-91107381D01*
X127528096Y-91155000D01*
X127623334Y-91250238D01*
X127670953Y-91440714D01*
X127670953Y-91774048D01*
X127623334Y-91964524D01*
X127528096Y-92059762D01*
X127432858Y-92107381D01*
X127242381Y-92107381D01*
X128623334Y-92107381D02*
X128051905Y-92107381D01*
X128337619Y-92107381D02*
X128337619Y-91107381D01*
X128242381Y-91250238D01*
X128147143Y-91345476D01*
X128051905Y-91393095D01*
X129528096Y-91107381D02*
X129051905Y-91107381D01*
X129004286Y-91583571D01*
X129051905Y-91535952D01*
X129147143Y-91488333D01*
X129385239Y-91488333D01*
X129480477Y-91535952D01*
X129528096Y-91583571D01*
X129575715Y-91678810D01*
X129575715Y-91916905D01*
X129528096Y-92012143D01*
X129480477Y-92059762D01*
X129385239Y-92107381D01*
X129147143Y-92107381D01*
X129051905Y-92059762D01*
X129004286Y-92012143D01*
X126456667Y-115422381D02*
X126456667Y-114422381D01*
X126837620Y-114422381D01*
X126932858Y-114470000D01*
X126980477Y-114517619D01*
X127028096Y-114612857D01*
X127028096Y-114755714D01*
X126980477Y-114850952D01*
X126932858Y-114898571D01*
X126837620Y-114946190D01*
X126456667Y-114946190D01*
X127456667Y-115422381D02*
X127456667Y-114422381D01*
X127790001Y-115136667D01*
X128123334Y-114422381D01*
X128123334Y-115422381D01*
X128790000Y-114422381D02*
X128980477Y-114422381D01*
X129075715Y-114470000D01*
X129170953Y-114565238D01*
X129218572Y-114755714D01*
X129218572Y-115089048D01*
X129170953Y-115279524D01*
X129075715Y-115374762D01*
X128980477Y-115422381D01*
X128790000Y-115422381D01*
X128694762Y-115374762D01*
X128599524Y-115279524D01*
X128551905Y-115089048D01*
X128551905Y-114755714D01*
X128599524Y-114565238D01*
X128694762Y-114470000D01*
X128790000Y-114422381D01*
X129599524Y-115374762D02*
X129742381Y-115422381D01*
X129980477Y-115422381D01*
X130075715Y-115374762D01*
X130123334Y-115327143D01*
X130170953Y-115231905D01*
X130170953Y-115136667D01*
X130123334Y-115041429D01*
X130075715Y-114993810D01*
X129980477Y-114946190D01*
X129790000Y-114898571D01*
X129694762Y-114850952D01*
X129647143Y-114803333D01*
X129599524Y-114708095D01*
X129599524Y-114612857D01*
X129647143Y-114517619D01*
X129694762Y-114470000D01*
X129790000Y-114422381D01*
X130028096Y-114422381D01*
X130170953Y-114470000D01*
X127718572Y-107977619D02*
X127623334Y-107930000D01*
X127528096Y-107834762D01*
X127385239Y-107691905D01*
X127290000Y-107644286D01*
X127194762Y-107644286D01*
X127242381Y-107882381D02*
X127147143Y-107834762D01*
X127051905Y-107739524D01*
X127004286Y-107549048D01*
X127004286Y-107215714D01*
X127051905Y-107025238D01*
X127147143Y-106930000D01*
X127242381Y-106882381D01*
X127432858Y-106882381D01*
X127528096Y-106930000D01*
X127623334Y-107025238D01*
X127670953Y-107215714D01*
X127670953Y-107549048D01*
X127623334Y-107739524D01*
X127528096Y-107834762D01*
X127432858Y-107882381D01*
X127242381Y-107882381D01*
X128623334Y-107882381D02*
X128051905Y-107882381D01*
X128337619Y-107882381D02*
X128337619Y-106882381D01*
X128242381Y-107025238D01*
X128147143Y-107120476D01*
X128051905Y-107168095D01*
X129480477Y-106882381D02*
X129290000Y-106882381D01*
X129194762Y-106930000D01*
X129147143Y-106977619D01*
X129051905Y-107120476D01*
X129004286Y-107310952D01*
X129004286Y-107691905D01*
X129051905Y-107787143D01*
X129099524Y-107834762D01*
X129194762Y-107882381D01*
X129385239Y-107882381D01*
X129480477Y-107834762D01*
X129528096Y-107787143D01*
X129575715Y-107691905D01*
X129575715Y-107453810D01*
X129528096Y-107358571D01*
X129480477Y-107310952D01*
X129385239Y-107263333D01*
X129194762Y-107263333D01*
X129099524Y-107310952D01*
X129051905Y-107358571D01*
X129004286Y-107453810D01*
X148774281Y-60719056D02*
X148298090Y-61052390D01*
X148774281Y-61290485D02*
X147774281Y-61290485D01*
X147774281Y-60909532D01*
X147821900Y-60814294D01*
X147869519Y-60766675D01*
X147964757Y-60719056D01*
X148107614Y-60719056D01*
X148202852Y-60766675D01*
X148250471Y-60814294D01*
X148298090Y-60909532D01*
X148298090Y-61290485D01*
X148753961Y-76172416D02*
X148277770Y-76505750D01*
X148753961Y-76743845D02*
X147753961Y-76743845D01*
X147753961Y-76362892D01*
X147801580Y-76267654D01*
X147849199Y-76220035D01*
X147944437Y-76172416D01*
X148087294Y-76172416D01*
X148182532Y-76220035D01*
X148230151Y-76267654D01*
X148277770Y-76362892D01*
X148277770Y-76743845D01*
X148812381Y-92255476D02*
X148336190Y-92588810D01*
X148812381Y-92826905D02*
X147812381Y-92826905D01*
X147812381Y-92445952D01*
X147860000Y-92350714D01*
X147907619Y-92303095D01*
X148002857Y-92255476D01*
X148145714Y-92255476D01*
X148240952Y-92303095D01*
X148288571Y-92350714D01*
X148336190Y-92445952D01*
X148336190Y-92826905D01*
X148762381Y-108030476D02*
X148286190Y-108363810D01*
X148762381Y-108601905D02*
X147762381Y-108601905D01*
X147762381Y-108220952D01*
X147810000Y-108125714D01*
X147857619Y-108078095D01*
X147952857Y-108030476D01*
X148095714Y-108030476D01*
X148190952Y-108078095D01*
X148238571Y-108125714D01*
X148286190Y-108220952D01*
X148286190Y-108601905D01*
X113087381Y-60705476D02*
X112611190Y-61038810D01*
X113087381Y-61276905D02*
X112087381Y-61276905D01*
X112087381Y-60895952D01*
X112135000Y-60800714D01*
X112182619Y-60753095D01*
X112277857Y-60705476D01*
X112420714Y-60705476D01*
X112515952Y-60753095D01*
X112563571Y-60800714D01*
X112611190Y-60895952D01*
X112611190Y-61276905D01*
X154731364Y-53819181D02*
X154398030Y-53342990D01*
X154159935Y-53819181D02*
X154159935Y-52819181D01*
X154540888Y-52819181D01*
X154636126Y-52866800D01*
X154683745Y-52914419D01*
X154731364Y-53009657D01*
X154731364Y-53152514D01*
X154683745Y-53247752D01*
X154636126Y-53295371D01*
X154540888Y-53342990D01*
X154159935Y-53342990D01*
X154824524Y-69392381D02*
X154491190Y-68916190D01*
X154253095Y-69392381D02*
X154253095Y-68392381D01*
X154634048Y-68392381D01*
X154729286Y-68440000D01*
X154776905Y-68487619D01*
X154824524Y-68582857D01*
X154824524Y-68725714D01*
X154776905Y-68820952D01*
X154729286Y-68868571D01*
X154634048Y-68916190D01*
X154253095Y-68916190D01*
X154624524Y-85317381D02*
X154291190Y-84841190D01*
X154053095Y-85317381D02*
X154053095Y-84317381D01*
X154434048Y-84317381D01*
X154529286Y-84365000D01*
X154576905Y-84412619D01*
X154624524Y-84507857D01*
X154624524Y-84650714D01*
X154576905Y-84745952D01*
X154529286Y-84793571D01*
X154434048Y-84841190D01*
X154053095Y-84841190D01*
X154574524Y-101092381D02*
X154241190Y-100616190D01*
X154003095Y-101092381D02*
X154003095Y-100092381D01*
X154384048Y-100092381D01*
X154479286Y-100140000D01*
X154526905Y-100187619D01*
X154574524Y-100282857D01*
X154574524Y-100425714D01*
X154526905Y-100520952D01*
X154479286Y-100568571D01*
X154384048Y-100616190D01*
X154003095Y-100616190D01*
X119149524Y-53817381D02*
X118816190Y-53341190D01*
X118578095Y-53817381D02*
X118578095Y-52817381D01*
X118959048Y-52817381D01*
X119054286Y-52865000D01*
X119101905Y-52912619D01*
X119149524Y-53007857D01*
X119149524Y-53150714D01*
X119101905Y-53245952D01*
X119054286Y-53293571D01*
X118959048Y-53341190D01*
X118578095Y-53341190D01*
X159669124Y-61751341D02*
X159335790Y-61275150D01*
X159097695Y-61751341D02*
X159097695Y-60751341D01*
X159478648Y-60751341D01*
X159573886Y-60798960D01*
X159621505Y-60846579D01*
X159669124Y-60941817D01*
X159669124Y-61084674D01*
X159621505Y-61179912D01*
X159573886Y-61227531D01*
X159478648Y-61275150D01*
X159097695Y-61275150D01*
X159669124Y-77462381D02*
X159335790Y-76986190D01*
X159097695Y-77462381D02*
X159097695Y-76462381D01*
X159478648Y-76462381D01*
X159573886Y-76510000D01*
X159621505Y-76557619D01*
X159669124Y-76652857D01*
X159669124Y-76795714D01*
X159621505Y-76890952D01*
X159573886Y-76938571D01*
X159478648Y-76986190D01*
X159097695Y-76986190D01*
X159719124Y-93412381D02*
X159385790Y-92936190D01*
X159147695Y-93412381D02*
X159147695Y-92412381D01*
X159528648Y-92412381D01*
X159623886Y-92460000D01*
X159671505Y-92507619D01*
X159719124Y-92602857D01*
X159719124Y-92745714D01*
X159671505Y-92840952D01*
X159623886Y-92888571D01*
X159528648Y-92936190D01*
X159147695Y-92936190D01*
X159619524Y-109162381D02*
X159286190Y-108686190D01*
X159048095Y-109162381D02*
X159048095Y-108162381D01*
X159429048Y-108162381D01*
X159524286Y-108210000D01*
X159571905Y-108257619D01*
X159619524Y-108352857D01*
X159619524Y-108495714D01*
X159571905Y-108590952D01*
X159524286Y-108638571D01*
X159429048Y-108686190D01*
X159048095Y-108686190D01*
X123744524Y-61887381D02*
X123411190Y-61411190D01*
X123173095Y-61887381D02*
X123173095Y-60887381D01*
X123554048Y-60887381D01*
X123649286Y-60935000D01*
X123696905Y-60982619D01*
X123744524Y-61077857D01*
X123744524Y-61220714D01*
X123696905Y-61315952D01*
X123649286Y-61363571D01*
X123554048Y-61411190D01*
X123173095Y-61411190D01*
X165155524Y-58439181D02*
X164822190Y-57962990D01*
X164584095Y-58439181D02*
X164584095Y-57439181D01*
X164965048Y-57439181D01*
X165060286Y-57486800D01*
X165107905Y-57534419D01*
X165155524Y-57629657D01*
X165155524Y-57772514D01*
X165107905Y-57867752D01*
X165060286Y-57915371D01*
X164965048Y-57962990D01*
X164584095Y-57962990D01*
X164944524Y-74012381D02*
X164611190Y-73536190D01*
X164373095Y-74012381D02*
X164373095Y-73012381D01*
X164754048Y-73012381D01*
X164849286Y-73060000D01*
X164896905Y-73107619D01*
X164944524Y-73202857D01*
X164944524Y-73345714D01*
X164896905Y-73440952D01*
X164849286Y-73488571D01*
X164754048Y-73536190D01*
X164373095Y-73536190D01*
X164694524Y-89937381D02*
X164361190Y-89461190D01*
X164123095Y-89937381D02*
X164123095Y-88937381D01*
X164504048Y-88937381D01*
X164599286Y-88985000D01*
X164646905Y-89032619D01*
X164694524Y-89127857D01*
X164694524Y-89270714D01*
X164646905Y-89365952D01*
X164599286Y-89413571D01*
X164504048Y-89461190D01*
X164123095Y-89461190D01*
X164694524Y-105712381D02*
X164361190Y-105236190D01*
X164123095Y-105712381D02*
X164123095Y-104712381D01*
X164504048Y-104712381D01*
X164599286Y-104760000D01*
X164646905Y-104807619D01*
X164694524Y-104902857D01*
X164694524Y-105045714D01*
X164646905Y-105140952D01*
X164599286Y-105188571D01*
X164504048Y-105236190D01*
X164123095Y-105236190D01*
X129469524Y-58437381D02*
X129136190Y-57961190D01*
X128898095Y-58437381D02*
X128898095Y-57437381D01*
X129279048Y-57437381D01*
X129374286Y-57485000D01*
X129421905Y-57532619D01*
X129469524Y-57627857D01*
X129469524Y-57770714D01*
X129421905Y-57865952D01*
X129374286Y-57913571D01*
X129279048Y-57961190D01*
X128898095Y-57961190D01*
X168094524Y-70462381D02*
X167761190Y-69986190D01*
X167523095Y-70462381D02*
X167523095Y-69462381D01*
X167904048Y-69462381D01*
X167999286Y-69510000D01*
X168046905Y-69557619D01*
X168094524Y-69652857D01*
X168094524Y-69795714D01*
X168046905Y-69890952D01*
X167999286Y-69938571D01*
X167904048Y-69986190D01*
X167523095Y-69986190D01*
X168094524Y-85912381D02*
X167761190Y-85436190D01*
X167523095Y-85912381D02*
X167523095Y-84912381D01*
X167904048Y-84912381D01*
X167999286Y-84960000D01*
X168046905Y-85007619D01*
X168094524Y-85102857D01*
X168094524Y-85245714D01*
X168046905Y-85340952D01*
X167999286Y-85388571D01*
X167904048Y-85436190D01*
X167523095Y-85436190D01*
X168094524Y-101837381D02*
X167761190Y-101361190D01*
X167523095Y-101837381D02*
X167523095Y-100837381D01*
X167904048Y-100837381D01*
X167999286Y-100885000D01*
X168046905Y-100932619D01*
X168094524Y-101027857D01*
X168094524Y-101170714D01*
X168046905Y-101265952D01*
X167999286Y-101313571D01*
X167904048Y-101361190D01*
X167523095Y-101361190D01*
X168094524Y-117687381D02*
X167761190Y-117211190D01*
X167523095Y-117687381D02*
X167523095Y-116687381D01*
X167904048Y-116687381D01*
X167999286Y-116735000D01*
X168046905Y-116782619D01*
X168094524Y-116877857D01*
X168094524Y-117020714D01*
X168046905Y-117115952D01*
X167999286Y-117163571D01*
X167904048Y-117211190D01*
X167523095Y-117211190D01*
X132419524Y-70362381D02*
X132086190Y-69886190D01*
X131848095Y-70362381D02*
X131848095Y-69362381D01*
X132229048Y-69362381D01*
X132324286Y-69410000D01*
X132371905Y-69457619D01*
X132419524Y-69552857D01*
X132419524Y-69695714D01*
X132371905Y-69790952D01*
X132324286Y-69838571D01*
X132229048Y-69886190D01*
X131848095Y-69886190D01*
X113087381Y-76180476D02*
X112611190Y-76513810D01*
X113087381Y-76751905D02*
X112087381Y-76751905D01*
X112087381Y-76370952D01*
X112135000Y-76275714D01*
X112182619Y-76228095D01*
X112277857Y-76180476D01*
X112420714Y-76180476D01*
X112515952Y-76228095D01*
X112563571Y-76275714D01*
X112611190Y-76370952D01*
X112611190Y-76751905D01*
X113062381Y-92255476D02*
X112586190Y-92588810D01*
X113062381Y-92826905D02*
X112062381Y-92826905D01*
X112062381Y-92445952D01*
X112110000Y-92350714D01*
X112157619Y-92303095D01*
X112252857Y-92255476D01*
X112395714Y-92255476D01*
X112490952Y-92303095D01*
X112538571Y-92350714D01*
X112586190Y-92445952D01*
X112586190Y-92826905D01*
X113087381Y-108030476D02*
X112611190Y-108363810D01*
X113087381Y-108601905D02*
X112087381Y-108601905D01*
X112087381Y-108220952D01*
X112135000Y-108125714D01*
X112182619Y-108078095D01*
X112277857Y-108030476D01*
X112420714Y-108030476D01*
X112515952Y-108078095D01*
X112563571Y-108125714D01*
X112611190Y-108220952D01*
X112611190Y-108601905D01*
X119149524Y-69217381D02*
X118816190Y-68741190D01*
X118578095Y-69217381D02*
X118578095Y-68217381D01*
X118959048Y-68217381D01*
X119054286Y-68265000D01*
X119101905Y-68312619D01*
X119149524Y-68407857D01*
X119149524Y-68550714D01*
X119101905Y-68645952D01*
X119054286Y-68693571D01*
X118959048Y-68741190D01*
X118578095Y-68741190D01*
X119149524Y-85317381D02*
X118816190Y-84841190D01*
X118578095Y-85317381D02*
X118578095Y-84317381D01*
X118959048Y-84317381D01*
X119054286Y-84365000D01*
X119101905Y-84412619D01*
X119149524Y-84507857D01*
X119149524Y-84650714D01*
X119101905Y-84745952D01*
X119054286Y-84793571D01*
X118959048Y-84841190D01*
X118578095Y-84841190D01*
X119149524Y-101092381D02*
X118816190Y-100616190D01*
X118578095Y-101092381D02*
X118578095Y-100092381D01*
X118959048Y-100092381D01*
X119054286Y-100140000D01*
X119101905Y-100187619D01*
X119149524Y-100282857D01*
X119149524Y-100425714D01*
X119101905Y-100520952D01*
X119054286Y-100568571D01*
X118959048Y-100616190D01*
X118578095Y-100616190D01*
X123744524Y-77287381D02*
X123411190Y-76811190D01*
X123173095Y-77287381D02*
X123173095Y-76287381D01*
X123554048Y-76287381D01*
X123649286Y-76335000D01*
X123696905Y-76382619D01*
X123744524Y-76477857D01*
X123744524Y-76620714D01*
X123696905Y-76715952D01*
X123649286Y-76763571D01*
X123554048Y-76811190D01*
X123173095Y-76811190D01*
X123744524Y-93412381D02*
X123411190Y-92936190D01*
X123173095Y-93412381D02*
X123173095Y-92412381D01*
X123554048Y-92412381D01*
X123649286Y-92460000D01*
X123696905Y-92507619D01*
X123744524Y-92602857D01*
X123744524Y-92745714D01*
X123696905Y-92840952D01*
X123649286Y-92888571D01*
X123554048Y-92936190D01*
X123173095Y-92936190D01*
X123744524Y-109162381D02*
X123411190Y-108686190D01*
X123173095Y-109162381D02*
X123173095Y-108162381D01*
X123554048Y-108162381D01*
X123649286Y-108210000D01*
X123696905Y-108257619D01*
X123744524Y-108352857D01*
X123744524Y-108495714D01*
X123696905Y-108590952D01*
X123649286Y-108638571D01*
X123554048Y-108686190D01*
X123173095Y-108686190D01*
X129469524Y-73837381D02*
X129136190Y-73361190D01*
X128898095Y-73837381D02*
X128898095Y-72837381D01*
X129279048Y-72837381D01*
X129374286Y-72885000D01*
X129421905Y-72932619D01*
X129469524Y-73027857D01*
X129469524Y-73170714D01*
X129421905Y-73265952D01*
X129374286Y-73313571D01*
X129279048Y-73361190D01*
X128898095Y-73361190D01*
X129469524Y-89937381D02*
X129136190Y-89461190D01*
X128898095Y-89937381D02*
X128898095Y-88937381D01*
X129279048Y-88937381D01*
X129374286Y-88985000D01*
X129421905Y-89032619D01*
X129469524Y-89127857D01*
X129469524Y-89270714D01*
X129421905Y-89365952D01*
X129374286Y-89413571D01*
X129279048Y-89461190D01*
X128898095Y-89461190D01*
X129469524Y-105712381D02*
X129136190Y-105236190D01*
X128898095Y-105712381D02*
X128898095Y-104712381D01*
X129279048Y-104712381D01*
X129374286Y-104760000D01*
X129421905Y-104807619D01*
X129469524Y-104902857D01*
X129469524Y-105045714D01*
X129421905Y-105140952D01*
X129374286Y-105188571D01*
X129279048Y-105236190D01*
X128898095Y-105236190D01*
X132419524Y-85837381D02*
X132086190Y-85361190D01*
X131848095Y-85837381D02*
X131848095Y-84837381D01*
X132229048Y-84837381D01*
X132324286Y-84885000D01*
X132371905Y-84932619D01*
X132419524Y-85027857D01*
X132419524Y-85170714D01*
X132371905Y-85265952D01*
X132324286Y-85313571D01*
X132229048Y-85361190D01*
X131848095Y-85361190D01*
X132419524Y-101937381D02*
X132086190Y-101461190D01*
X131848095Y-101937381D02*
X131848095Y-100937381D01*
X132229048Y-100937381D01*
X132324286Y-100985000D01*
X132371905Y-101032619D01*
X132419524Y-101127857D01*
X132419524Y-101270714D01*
X132371905Y-101365952D01*
X132324286Y-101413571D01*
X132229048Y-101461190D01*
X131848095Y-101461190D01*
X132419524Y-117687381D02*
X132086190Y-117211190D01*
X131848095Y-117687381D02*
X131848095Y-116687381D01*
X132229048Y-116687381D01*
X132324286Y-116735000D01*
X132371905Y-116782619D01*
X132419524Y-116877857D01*
X132419524Y-117020714D01*
X132371905Y-117115952D01*
X132324286Y-117163571D01*
X132229048Y-117211190D01*
X131848095Y-117211190D01*
X100085715Y-127727381D02*
X99514286Y-127727381D01*
X99800000Y-127727381D02*
X99800000Y-126727381D01*
X99704762Y-126870238D01*
X99609524Y-126965476D01*
X99514286Y-127013095D01*
X100514286Y-127727381D02*
X100514286Y-126727381D01*
X101085715Y-127727381D02*
X100657143Y-127155952D01*
X101085715Y-126727381D02*
X100514286Y-127298810D01*
D12*
X99978572Y-125751190D02*
X99811905Y-125513095D01*
X99692858Y-125751190D02*
X99692858Y-125251190D01*
X99883334Y-125251190D01*
X99930953Y-125275000D01*
X99954762Y-125298810D01*
X99978572Y-125346429D01*
X99978572Y-125417857D01*
X99954762Y-125465476D01*
X99930953Y-125489286D01*
X99883334Y-125513095D01*
X99692858Y-125513095D01*
X100407143Y-125417857D02*
X100407143Y-125751190D01*
X100288096Y-125227381D02*
X100169048Y-125584524D01*
X100478572Y-125584524D01*
X100621429Y-125251190D02*
X100930952Y-125251190D01*
X100764286Y-125441667D01*
X100835714Y-125441667D01*
X100883333Y-125465476D01*
X100907143Y-125489286D01*
X100930952Y-125536905D01*
X100930952Y-125655952D01*
X100907143Y-125703571D01*
X100883333Y-125727381D01*
X100835714Y-125751190D01*
X100692857Y-125751190D01*
X100645238Y-125727381D01*
X100621429Y-125703571D01*
D11*
X103452381Y-67264285D02*
X103452381Y-67835714D01*
X103452381Y-67550000D02*
X102452381Y-67550000D01*
X102595238Y-67645238D01*
X102690476Y-67740476D01*
X102738095Y-67835714D01*
X103452381Y-66835714D02*
X102452381Y-66835714D01*
X103452381Y-66264285D02*
X102880952Y-66692857D01*
X102452381Y-66264285D02*
X103023810Y-66835714D01*
D12*
X101476190Y-67371428D02*
X101238095Y-67538095D01*
X101476190Y-67657142D02*
X100976190Y-67657142D01*
X100976190Y-67466666D01*
X101000000Y-67419047D01*
X101023810Y-67395238D01*
X101071429Y-67371428D01*
X101142857Y-67371428D01*
X101190476Y-67395238D01*
X101214286Y-67419047D01*
X101238095Y-67466666D01*
X101238095Y-67657142D01*
X101142857Y-66942857D02*
X101476190Y-66942857D01*
X100952381Y-67061904D02*
X101309524Y-67180952D01*
X101309524Y-66871428D01*
X100976190Y-66442857D02*
X100976190Y-66680952D01*
X101214286Y-66704762D01*
X101190476Y-66680952D01*
X101166667Y-66633333D01*
X101166667Y-66514286D01*
X101190476Y-66466667D01*
X101214286Y-66442857D01*
X101261905Y-66419048D01*
X101380952Y-66419048D01*
X101428571Y-66442857D01*
X101452381Y-66466667D01*
X101476190Y-66514286D01*
X101476190Y-66633333D01*
X101452381Y-66680952D01*
X101428571Y-66704762D01*
D11*
X97010715Y-83277381D02*
X96439286Y-83277381D01*
X96725000Y-83277381D02*
X96725000Y-82277381D01*
X96629762Y-82420238D01*
X96534524Y-82515476D01*
X96439286Y-82563095D01*
X97439286Y-83277381D02*
X97439286Y-82277381D01*
X98010715Y-83277381D02*
X97582143Y-82705952D01*
X98010715Y-82277381D02*
X97439286Y-82848810D01*
D12*
X96903572Y-81301190D02*
X96736905Y-81063095D01*
X96617858Y-81301190D02*
X96617858Y-80801190D01*
X96808334Y-80801190D01*
X96855953Y-80825000D01*
X96879762Y-80848810D01*
X96903572Y-80896429D01*
X96903572Y-80967857D01*
X96879762Y-81015476D01*
X96855953Y-81039286D01*
X96808334Y-81063095D01*
X96617858Y-81063095D01*
X97332143Y-80967857D02*
X97332143Y-81301190D01*
X97213096Y-80777381D02*
X97094048Y-81134524D01*
X97403572Y-81134524D01*
X97808333Y-80801190D02*
X97713095Y-80801190D01*
X97665476Y-80825000D01*
X97641667Y-80848810D01*
X97594048Y-80920238D01*
X97570238Y-81015476D01*
X97570238Y-81205952D01*
X97594048Y-81253571D01*
X97617857Y-81277381D01*
X97665476Y-81301190D01*
X97760714Y-81301190D01*
X97808333Y-81277381D01*
X97832143Y-81253571D01*
X97855952Y-81205952D01*
X97855952Y-81086905D01*
X97832143Y-81039286D01*
X97808333Y-81015476D01*
X97760714Y-80991667D01*
X97665476Y-80991667D01*
X97617857Y-81015476D01*
X97594048Y-81039286D01*
X97570238Y-81086905D01*
D11*
X171159524Y-131452381D02*
X170588095Y-131452381D01*
X170873809Y-131452381D02*
X170873809Y-130452381D01*
X170778571Y-130595238D01*
X170683333Y-130690476D01*
X170588095Y-130738095D01*
X171778571Y-130452381D02*
X171873810Y-130452381D01*
X171969048Y-130500000D01*
X172016667Y-130547619D01*
X172064286Y-130642857D01*
X172111905Y-130833333D01*
X172111905Y-131071429D01*
X172064286Y-131261905D01*
X172016667Y-131357143D01*
X171969048Y-131404762D01*
X171873810Y-131452381D01*
X171778571Y-131452381D01*
X171683333Y-131404762D01*
X171635714Y-131357143D01*
X171588095Y-131261905D01*
X171540476Y-131071429D01*
X171540476Y-130833333D01*
X171588095Y-130642857D01*
X171635714Y-130547619D01*
X171683333Y-130500000D01*
X171778571Y-130452381D01*
X172540476Y-131452381D02*
X172540476Y-130452381D01*
X173111905Y-131452381D02*
X172683333Y-130880952D01*
X173111905Y-130452381D02*
X172540476Y-131023810D01*
D12*
X175353572Y-129901190D02*
X175186905Y-129663095D01*
X175067858Y-129901190D02*
X175067858Y-129401190D01*
X175258334Y-129401190D01*
X175305953Y-129425000D01*
X175329762Y-129448810D01*
X175353572Y-129496429D01*
X175353572Y-129567857D01*
X175329762Y-129615476D01*
X175305953Y-129639286D01*
X175258334Y-129663095D01*
X175067858Y-129663095D01*
X175782143Y-129567857D02*
X175782143Y-129901190D01*
X175663096Y-129377381D02*
X175544048Y-129734524D01*
X175853572Y-129734524D01*
X175996429Y-129401190D02*
X176329762Y-129401190D01*
X176115476Y-129901190D01*
D11*
X109541667Y-134623810D02*
X109541667Y-134147619D01*
X109827381Y-134719048D02*
X108827381Y-134385715D01*
X109827381Y-134052381D01*
X109732143Y-133147619D02*
X109779762Y-133195238D01*
X109827381Y-133338095D01*
X109827381Y-133433333D01*
X109779762Y-133576191D01*
X109684524Y-133671429D01*
X109589286Y-133719048D01*
X109398810Y-133766667D01*
X109255952Y-133766667D01*
X109065476Y-133719048D01*
X108970238Y-133671429D01*
X108875000Y-133576191D01*
X108827381Y-133433333D01*
X108827381Y-133338095D01*
X108875000Y-133195238D01*
X108922619Y-133147619D01*
X109779762Y-132766667D02*
X109827381Y-132623810D01*
X109827381Y-132385714D01*
X109779762Y-132290476D01*
X109732143Y-132242857D01*
X109636905Y-132195238D01*
X109541667Y-132195238D01*
X109446429Y-132242857D01*
X109398810Y-132290476D01*
X109351190Y-132385714D01*
X109303571Y-132576191D01*
X109255952Y-132671429D01*
X109208333Y-132719048D01*
X109113095Y-132766667D01*
X109017857Y-132766667D01*
X108922619Y-132719048D01*
X108875000Y-132671429D01*
X108827381Y-132576191D01*
X108827381Y-132338095D01*
X108875000Y-132195238D01*
X109922619Y-132004762D02*
X109922619Y-131242857D01*
X108827381Y-131100000D02*
X108827381Y-130433333D01*
X109827381Y-130861905D01*
X109827381Y-129528571D02*
X109827381Y-130100000D01*
X109827381Y-129814286D02*
X108827381Y-129814286D01*
X108970238Y-129909524D01*
X109065476Y-130004762D01*
X109113095Y-130100000D01*
X108922619Y-129147619D02*
X108875000Y-129100000D01*
X108827381Y-129004762D01*
X108827381Y-128766666D01*
X108875000Y-128671428D01*
X108922619Y-128623809D01*
X109017857Y-128576190D01*
X109113095Y-128576190D01*
X109255952Y-128623809D01*
X109827381Y-129195238D01*
X109827381Y-128576190D01*
X105327381Y-132361905D02*
X106136905Y-132361905D01*
X106232143Y-132314286D01*
X106279762Y-132266667D01*
X106327381Y-132171429D01*
X106327381Y-131980952D01*
X106279762Y-131885714D01*
X106232143Y-131838095D01*
X106136905Y-131790476D01*
X105327381Y-131790476D01*
X105422619Y-131361905D02*
X105375000Y-131314286D01*
X105327381Y-131219048D01*
X105327381Y-130980952D01*
X105375000Y-130885714D01*
X105422619Y-130838095D01*
X105517857Y-130790476D01*
X105613095Y-130790476D01*
X105755952Y-130838095D01*
X106327381Y-131409524D01*
X106327381Y-130790476D01*
X97377381Y-78134524D02*
X97377381Y-78610715D01*
X96377381Y-78610715D01*
X97377381Y-77801191D02*
X96377381Y-77801191D01*
X96377381Y-77563096D01*
X96425000Y-77420238D01*
X96520238Y-77325000D01*
X96615476Y-77277381D01*
X96805952Y-77229762D01*
X96948810Y-77229762D01*
X97139286Y-77277381D01*
X97234524Y-77325000D01*
X97329762Y-77420238D01*
X97377381Y-77563096D01*
X97377381Y-77801191D01*
X97377381Y-76277381D02*
X97377381Y-76848810D01*
X97377381Y-76563096D02*
X96377381Y-76563096D01*
X96520238Y-76658334D01*
X96615476Y-76753572D01*
X96663095Y-76848810D01*
X97377381Y-75325000D02*
X97377381Y-75896429D01*
X97377381Y-75610715D02*
X96377381Y-75610715D01*
X96520238Y-75705953D01*
X96615476Y-75801191D01*
X96663095Y-75896429D01*
X97377381Y-74372619D02*
X97377381Y-74944048D01*
X97377381Y-74658334D02*
X96377381Y-74658334D01*
X96520238Y-74753572D01*
X96615476Y-74848810D01*
X96663095Y-74944048D01*
X96377381Y-74039286D02*
X96377381Y-73372619D01*
X97377381Y-73801191D01*
X97329762Y-73039286D02*
X97377381Y-72896429D01*
X97377381Y-72658333D01*
X97329762Y-72563095D01*
X97282143Y-72515476D01*
X97186905Y-72467857D01*
X97091667Y-72467857D01*
X96996429Y-72515476D01*
X96948810Y-72563095D01*
X96901190Y-72658333D01*
X96853571Y-72848810D01*
X96805952Y-72944048D01*
X96758333Y-72991667D01*
X96663095Y-73039286D01*
X96567857Y-73039286D01*
X96472619Y-72991667D01*
X96425000Y-72944048D01*
X96377381Y-72848810D01*
X96377381Y-72610714D01*
X96425000Y-72467857D01*
X96377381Y-71563095D02*
X96377381Y-72039286D01*
X96853571Y-72086905D01*
X96805952Y-72039286D01*
X96758333Y-71944048D01*
X96758333Y-71705952D01*
X96805952Y-71610714D01*
X96853571Y-71563095D01*
X96948810Y-71515476D01*
X97186905Y-71515476D01*
X97282143Y-71563095D01*
X97329762Y-71610714D01*
X97377381Y-71705952D01*
X97377381Y-71944048D01*
X97329762Y-72039286D01*
X97282143Y-72086905D01*
X96377381Y-70896429D02*
X96377381Y-70801190D01*
X96425000Y-70705952D01*
X96472619Y-70658333D01*
X96567857Y-70610714D01*
X96758333Y-70563095D01*
X96996429Y-70563095D01*
X97186905Y-70610714D01*
X97282143Y-70658333D01*
X97329762Y-70705952D01*
X97377381Y-70801190D01*
X97377381Y-70896429D01*
X97329762Y-70991667D01*
X97282143Y-71039286D01*
X97186905Y-71086905D01*
X96996429Y-71134524D01*
X96758333Y-71134524D01*
X96567857Y-71086905D01*
X96472619Y-71039286D01*
X96425000Y-70991667D01*
X96377381Y-70896429D01*
X96377381Y-70277381D02*
X96377381Y-69705952D01*
X97377381Y-69991667D02*
X96377381Y-69991667D01*
X97377381Y-68801190D02*
X96901190Y-69134524D01*
X97377381Y-69372619D02*
X96377381Y-69372619D01*
X96377381Y-68991666D01*
X96425000Y-68896428D01*
X96472619Y-68848809D01*
X96567857Y-68801190D01*
X96710714Y-68801190D01*
X96805952Y-68848809D01*
X96853571Y-68896428D01*
X96901190Y-68991666D01*
X96901190Y-69372619D01*
X97472619Y-68610714D02*
X97472619Y-67848809D01*
X96853571Y-67277380D02*
X96853571Y-67610714D01*
X97377381Y-67610714D02*
X96377381Y-67610714D01*
X96377381Y-67134523D01*
X97377381Y-66753571D02*
X96377381Y-66753571D01*
X97377381Y-66277381D02*
X96377381Y-66277381D01*
X97377381Y-65705952D01*
X96377381Y-65705952D01*
X97091667Y-65277381D02*
X97091667Y-64801190D01*
X97377381Y-65372619D02*
X96377381Y-65039286D01*
X97377381Y-64705952D01*
X97377381Y-63896428D02*
X97377381Y-64372619D01*
X96377381Y-64372619D01*
D13*
X91986905Y-71934524D02*
X92634524Y-71934524D01*
X92710714Y-71896429D01*
X92748810Y-71858333D01*
X92786905Y-71782143D01*
X92786905Y-71629762D01*
X92748810Y-71553571D01*
X92710714Y-71515476D01*
X92634524Y-71477381D01*
X91986905Y-71477381D01*
X91986905Y-71172619D02*
X91986905Y-70677381D01*
X92291667Y-70944048D01*
X92291667Y-70829762D01*
X92329762Y-70753572D01*
X92367857Y-70715476D01*
X92444048Y-70677381D01*
X92634524Y-70677381D01*
X92710714Y-70715476D01*
X92748810Y-70753572D01*
X92786905Y-70829762D01*
X92786905Y-71058334D01*
X92748810Y-71134524D01*
X92710714Y-71172619D01*
D11*
X95452381Y-129258334D02*
X95452381Y-129734525D01*
X94452381Y-129734525D01*
X95404762Y-128544048D02*
X95452381Y-128639286D01*
X95452381Y-128829763D01*
X95404762Y-128925001D01*
X95309524Y-128972620D01*
X94928571Y-128972620D01*
X94833333Y-128925001D01*
X94785714Y-128829763D01*
X94785714Y-128639286D01*
X94833333Y-128544048D01*
X94928571Y-128496429D01*
X95023810Y-128496429D01*
X95119048Y-128972620D01*
X95452381Y-127639286D02*
X94452381Y-127639286D01*
X95404762Y-127639286D02*
X95452381Y-127734524D01*
X95452381Y-127925001D01*
X95404762Y-128020239D01*
X95357143Y-128067858D01*
X95261905Y-128115477D01*
X94976190Y-128115477D01*
X94880952Y-128067858D01*
X94833333Y-128020239D01*
X94785714Y-127925001D01*
X94785714Y-127734524D01*
X94833333Y-127639286D01*
X95547619Y-127401191D02*
X95547619Y-126639286D01*
X95404762Y-126448810D02*
X95452381Y-126305953D01*
X95452381Y-126067857D01*
X95404762Y-125972619D01*
X95357143Y-125925000D01*
X95261905Y-125877381D01*
X95166667Y-125877381D01*
X95071429Y-125925000D01*
X95023810Y-125972619D01*
X94976190Y-126067857D01*
X94928571Y-126258334D01*
X94880952Y-126353572D01*
X94833333Y-126401191D01*
X94738095Y-126448810D01*
X94642857Y-126448810D01*
X94547619Y-126401191D01*
X94500000Y-126353572D01*
X94452381Y-126258334D01*
X94452381Y-126020238D01*
X94500000Y-125877381D01*
X95452381Y-125448810D02*
X94785714Y-125448810D01*
X94880952Y-125448810D02*
X94833333Y-125401191D01*
X94785714Y-125305953D01*
X94785714Y-125163095D01*
X94833333Y-125067857D01*
X94928571Y-125020238D01*
X95452381Y-125020238D01*
X94928571Y-125020238D02*
X94833333Y-124972619D01*
X94785714Y-124877381D01*
X94785714Y-124734524D01*
X94833333Y-124639286D01*
X94928571Y-124591667D01*
X95452381Y-124591667D01*
X95452381Y-123686905D02*
X94928571Y-123686905D01*
X94833333Y-123734524D01*
X94785714Y-123829762D01*
X94785714Y-124020239D01*
X94833333Y-124115477D01*
X95404762Y-123686905D02*
X95452381Y-123782143D01*
X95452381Y-124020239D01*
X95404762Y-124115477D01*
X95309524Y-124163096D01*
X95214286Y-124163096D01*
X95119048Y-124115477D01*
X95071429Y-124020239D01*
X95071429Y-123782143D01*
X95023810Y-123686905D01*
X95452381Y-123067858D02*
X95404762Y-123163096D01*
X95309524Y-123210715D01*
X94452381Y-123210715D01*
X95452381Y-122544048D02*
X95404762Y-122639286D01*
X95309524Y-122686905D01*
X94452381Y-122686905D01*
X95547619Y-122401190D02*
X95547619Y-121639285D01*
X95452381Y-120829761D02*
X94976190Y-121163095D01*
X95452381Y-121401190D02*
X94452381Y-121401190D01*
X94452381Y-121020237D01*
X94500000Y-120924999D01*
X94547619Y-120877380D01*
X94642857Y-120829761D01*
X94785714Y-120829761D01*
X94880952Y-120877380D01*
X94928571Y-120924999D01*
X94976190Y-121020237D01*
X94976190Y-121401190D01*
X95404762Y-120020237D02*
X95452381Y-120115475D01*
X95452381Y-120305952D01*
X95404762Y-120401190D01*
X95309524Y-120448809D01*
X94928571Y-120448809D01*
X94833333Y-120401190D01*
X94785714Y-120305952D01*
X94785714Y-120115475D01*
X94833333Y-120020237D01*
X94928571Y-119972618D01*
X95023810Y-119972618D01*
X95119048Y-120448809D01*
X94785714Y-119115475D02*
X95595238Y-119115475D01*
X95690476Y-119163094D01*
X95738095Y-119210713D01*
X95785714Y-119305952D01*
X95785714Y-119448809D01*
X95738095Y-119544047D01*
X95404762Y-119115475D02*
X95452381Y-119210713D01*
X95452381Y-119401190D01*
X95404762Y-119496428D01*
X95357143Y-119544047D01*
X95261905Y-119591666D01*
X94976190Y-119591666D01*
X94880952Y-119544047D01*
X94833333Y-119496428D01*
X94785714Y-119401190D01*
X94785714Y-119210713D01*
X94833333Y-119115475D01*
D10*
X97980952Y-124720238D02*
X97580952Y-124720238D01*
X97580952Y-124625000D01*
X97600000Y-124567857D01*
X97638095Y-124529762D01*
X97676190Y-124510714D01*
X97752381Y-124491666D01*
X97809524Y-124491666D01*
X97885714Y-124510714D01*
X97923810Y-124529762D01*
X97961905Y-124567857D01*
X97980952Y-124625000D01*
X97980952Y-124720238D01*
X97980952Y-124110714D02*
X97980952Y-124339286D01*
X97980952Y-124225000D02*
X97580952Y-124225000D01*
X97638095Y-124263095D01*
X97676190Y-124301190D01*
X97695238Y-124339286D01*
D11*
X100177381Y-67358334D02*
X100177381Y-67834525D01*
X99177381Y-67834525D01*
X100129762Y-66644048D02*
X100177381Y-66739286D01*
X100177381Y-66929763D01*
X100129762Y-67025001D01*
X100034524Y-67072620D01*
X99653571Y-67072620D01*
X99558333Y-67025001D01*
X99510714Y-66929763D01*
X99510714Y-66739286D01*
X99558333Y-66644048D01*
X99653571Y-66596429D01*
X99748810Y-66596429D01*
X99844048Y-67072620D01*
X100177381Y-65739286D02*
X99177381Y-65739286D01*
X100129762Y-65739286D02*
X100177381Y-65834524D01*
X100177381Y-66025001D01*
X100129762Y-66120239D01*
X100082143Y-66167858D01*
X99986905Y-66215477D01*
X99701190Y-66215477D01*
X99605952Y-66167858D01*
X99558333Y-66120239D01*
X99510714Y-66025001D01*
X99510714Y-65834524D01*
X99558333Y-65739286D01*
X100272619Y-65501191D02*
X100272619Y-64739286D01*
X100129762Y-64548810D02*
X100177381Y-64405953D01*
X100177381Y-64167857D01*
X100129762Y-64072619D01*
X100082143Y-64025000D01*
X99986905Y-63977381D01*
X99891667Y-63977381D01*
X99796429Y-64025000D01*
X99748810Y-64072619D01*
X99701190Y-64167857D01*
X99653571Y-64358334D01*
X99605952Y-64453572D01*
X99558333Y-64501191D01*
X99463095Y-64548810D01*
X99367857Y-64548810D01*
X99272619Y-64501191D01*
X99225000Y-64453572D01*
X99177381Y-64358334D01*
X99177381Y-64120238D01*
X99225000Y-63977381D01*
X100177381Y-63548810D02*
X99510714Y-63548810D01*
X99605952Y-63548810D02*
X99558333Y-63501191D01*
X99510714Y-63405953D01*
X99510714Y-63263095D01*
X99558333Y-63167857D01*
X99653571Y-63120238D01*
X100177381Y-63120238D01*
X99653571Y-63120238D02*
X99558333Y-63072619D01*
X99510714Y-62977381D01*
X99510714Y-62834524D01*
X99558333Y-62739286D01*
X99653571Y-62691667D01*
X100177381Y-62691667D01*
X100177381Y-61786905D02*
X99653571Y-61786905D01*
X99558333Y-61834524D01*
X99510714Y-61929762D01*
X99510714Y-62120239D01*
X99558333Y-62215477D01*
X100129762Y-61786905D02*
X100177381Y-61882143D01*
X100177381Y-62120239D01*
X100129762Y-62215477D01*
X100034524Y-62263096D01*
X99939286Y-62263096D01*
X99844048Y-62215477D01*
X99796429Y-62120239D01*
X99796429Y-61882143D01*
X99748810Y-61786905D01*
X100177381Y-61167858D02*
X100129762Y-61263096D01*
X100034524Y-61310715D01*
X99177381Y-61310715D01*
X100177381Y-60644048D02*
X100129762Y-60739286D01*
X100034524Y-60786905D01*
X99177381Y-60786905D01*
X100272619Y-60501190D02*
X100272619Y-59739285D01*
X100177381Y-58929761D02*
X99701190Y-59263095D01*
X100177381Y-59501190D02*
X99177381Y-59501190D01*
X99177381Y-59120237D01*
X99225000Y-59024999D01*
X99272619Y-58977380D01*
X99367857Y-58929761D01*
X99510714Y-58929761D01*
X99605952Y-58977380D01*
X99653571Y-59024999D01*
X99701190Y-59120237D01*
X99701190Y-59501190D01*
X100129762Y-58120237D02*
X100177381Y-58215475D01*
X100177381Y-58405952D01*
X100129762Y-58501190D01*
X100034524Y-58548809D01*
X99653571Y-58548809D01*
X99558333Y-58501190D01*
X99510714Y-58405952D01*
X99510714Y-58215475D01*
X99558333Y-58120237D01*
X99653571Y-58072618D01*
X99748810Y-58072618D01*
X99844048Y-58548809D01*
X99510714Y-57215475D02*
X100320238Y-57215475D01*
X100415476Y-57263094D01*
X100463095Y-57310713D01*
X100510714Y-57405952D01*
X100510714Y-57548809D01*
X100463095Y-57644047D01*
X100129762Y-57215475D02*
X100177381Y-57310713D01*
X100177381Y-57501190D01*
X100129762Y-57596428D01*
X100082143Y-57644047D01*
X99986905Y-57691666D01*
X99701190Y-57691666D01*
X99605952Y-57644047D01*
X99558333Y-57596428D01*
X99510714Y-57501190D01*
X99510714Y-57310713D01*
X99558333Y-57215475D01*
D10*
X102705952Y-62820238D02*
X102305952Y-62820238D01*
X102305952Y-62725000D01*
X102325000Y-62667857D01*
X102363095Y-62629762D01*
X102401190Y-62610714D01*
X102477381Y-62591666D01*
X102534524Y-62591666D01*
X102610714Y-62610714D01*
X102648810Y-62629762D01*
X102686905Y-62667857D01*
X102705952Y-62725000D01*
X102705952Y-62820238D01*
X102344048Y-62439286D02*
X102325000Y-62420238D01*
X102305952Y-62382143D01*
X102305952Y-62286905D01*
X102325000Y-62248809D01*
X102344048Y-62229762D01*
X102382143Y-62210714D01*
X102420238Y-62210714D01*
X102477381Y-62229762D01*
X102705952Y-62458333D01*
X102705952Y-62210714D01*
D11*
X100577381Y-89733334D02*
X100577381Y-90209525D01*
X99577381Y-90209525D01*
X100529762Y-89019048D02*
X100577381Y-89114286D01*
X100577381Y-89304763D01*
X100529762Y-89400001D01*
X100434524Y-89447620D01*
X100053571Y-89447620D01*
X99958333Y-89400001D01*
X99910714Y-89304763D01*
X99910714Y-89114286D01*
X99958333Y-89019048D01*
X100053571Y-88971429D01*
X100148810Y-88971429D01*
X100244048Y-89447620D01*
X100577381Y-88114286D02*
X99577381Y-88114286D01*
X100529762Y-88114286D02*
X100577381Y-88209524D01*
X100577381Y-88400001D01*
X100529762Y-88495239D01*
X100482143Y-88542858D01*
X100386905Y-88590477D01*
X100101190Y-88590477D01*
X100005952Y-88542858D01*
X99958333Y-88495239D01*
X99910714Y-88400001D01*
X99910714Y-88209524D01*
X99958333Y-88114286D01*
X100672619Y-87876191D02*
X100672619Y-87114286D01*
X100529762Y-86923810D02*
X100577381Y-86780953D01*
X100577381Y-86542857D01*
X100529762Y-86447619D01*
X100482143Y-86400000D01*
X100386905Y-86352381D01*
X100291667Y-86352381D01*
X100196429Y-86400000D01*
X100148810Y-86447619D01*
X100101190Y-86542857D01*
X100053571Y-86733334D01*
X100005952Y-86828572D01*
X99958333Y-86876191D01*
X99863095Y-86923810D01*
X99767857Y-86923810D01*
X99672619Y-86876191D01*
X99625000Y-86828572D01*
X99577381Y-86733334D01*
X99577381Y-86495238D01*
X99625000Y-86352381D01*
X100577381Y-85923810D02*
X99910714Y-85923810D01*
X100005952Y-85923810D02*
X99958333Y-85876191D01*
X99910714Y-85780953D01*
X99910714Y-85638095D01*
X99958333Y-85542857D01*
X100053571Y-85495238D01*
X100577381Y-85495238D01*
X100053571Y-85495238D02*
X99958333Y-85447619D01*
X99910714Y-85352381D01*
X99910714Y-85209524D01*
X99958333Y-85114286D01*
X100053571Y-85066667D01*
X100577381Y-85066667D01*
X100577381Y-84161905D02*
X100053571Y-84161905D01*
X99958333Y-84209524D01*
X99910714Y-84304762D01*
X99910714Y-84495239D01*
X99958333Y-84590477D01*
X100529762Y-84161905D02*
X100577381Y-84257143D01*
X100577381Y-84495239D01*
X100529762Y-84590477D01*
X100434524Y-84638096D01*
X100339286Y-84638096D01*
X100244048Y-84590477D01*
X100196429Y-84495239D01*
X100196429Y-84257143D01*
X100148810Y-84161905D01*
X100577381Y-83542858D02*
X100529762Y-83638096D01*
X100434524Y-83685715D01*
X99577381Y-83685715D01*
X100577381Y-83019048D02*
X100529762Y-83114286D01*
X100434524Y-83161905D01*
X99577381Y-83161905D01*
X100672619Y-82876190D02*
X100672619Y-82114285D01*
X100577381Y-81304761D02*
X100101190Y-81638095D01*
X100577381Y-81876190D02*
X99577381Y-81876190D01*
X99577381Y-81495237D01*
X99625000Y-81399999D01*
X99672619Y-81352380D01*
X99767857Y-81304761D01*
X99910714Y-81304761D01*
X100005952Y-81352380D01*
X100053571Y-81399999D01*
X100101190Y-81495237D01*
X100101190Y-81876190D01*
X100529762Y-80495237D02*
X100577381Y-80590475D01*
X100577381Y-80780952D01*
X100529762Y-80876190D01*
X100434524Y-80923809D01*
X100053571Y-80923809D01*
X99958333Y-80876190D01*
X99910714Y-80780952D01*
X99910714Y-80590475D01*
X99958333Y-80495237D01*
X100053571Y-80447618D01*
X100148810Y-80447618D01*
X100244048Y-80923809D01*
X99910714Y-79590475D02*
X100720238Y-79590475D01*
X100815476Y-79638094D01*
X100863095Y-79685713D01*
X100910714Y-79780952D01*
X100910714Y-79923809D01*
X100863095Y-80019047D01*
X100529762Y-79590475D02*
X100577381Y-79685713D01*
X100577381Y-79876190D01*
X100529762Y-79971428D01*
X100482143Y-80019047D01*
X100386905Y-80066666D01*
X100101190Y-80066666D01*
X100005952Y-80019047D01*
X99958333Y-79971428D01*
X99910714Y-79876190D01*
X99910714Y-79685713D01*
X99958333Y-79590475D01*
D10*
X97505952Y-85195238D02*
X97105952Y-85195238D01*
X97105952Y-85100000D01*
X97125000Y-85042857D01*
X97163095Y-85004762D01*
X97201190Y-84985714D01*
X97277381Y-84966666D01*
X97334524Y-84966666D01*
X97410714Y-84985714D01*
X97448810Y-85004762D01*
X97486905Y-85042857D01*
X97505952Y-85100000D01*
X97505952Y-85195238D01*
X97105952Y-84833333D02*
X97105952Y-84585714D01*
X97258333Y-84719047D01*
X97258333Y-84661905D01*
X97277381Y-84623809D01*
X97296429Y-84604762D01*
X97334524Y-84585714D01*
X97429762Y-84585714D01*
X97467857Y-84604762D01*
X97486905Y-84623809D01*
X97505952Y-84661905D01*
X97505952Y-84776190D01*
X97486905Y-84814286D01*
X97467857Y-84833333D01*
D11*
X90258334Y-81857381D02*
X90258334Y-82571667D01*
X90210714Y-82714524D01*
X90115476Y-82809762D01*
X89972619Y-82857381D01*
X89877381Y-82857381D01*
X91163096Y-82190714D02*
X91163096Y-82857381D01*
X90734524Y-82190714D02*
X90734524Y-82714524D01*
X90782143Y-82809762D01*
X90877381Y-82857381D01*
X91020239Y-82857381D01*
X91115477Y-82809762D01*
X91163096Y-82762143D01*
X91639286Y-82857381D02*
X91639286Y-82190714D01*
X91639286Y-82285952D02*
X91686905Y-82238333D01*
X91782143Y-82190714D01*
X91925001Y-82190714D01*
X92020239Y-82238333D01*
X92067858Y-82333571D01*
X92067858Y-82857381D01*
X92067858Y-82333571D02*
X92115477Y-82238333D01*
X92210715Y-82190714D01*
X92353572Y-82190714D01*
X92448810Y-82238333D01*
X92496429Y-82333571D01*
X92496429Y-82857381D01*
X92972619Y-82190714D02*
X92972619Y-83190714D01*
X92972619Y-82238333D02*
X93067857Y-82190714D01*
X93258334Y-82190714D01*
X93353572Y-82238333D01*
X93401191Y-82285952D01*
X93448810Y-82381190D01*
X93448810Y-82666905D01*
X93401191Y-82762143D01*
X93353572Y-82809762D01*
X93258334Y-82857381D01*
X93067857Y-82857381D01*
X92972619Y-82809762D01*
X94258334Y-82809762D02*
X94163096Y-82857381D01*
X93972619Y-82857381D01*
X93877381Y-82809762D01*
X93829762Y-82714524D01*
X93829762Y-82333571D01*
X93877381Y-82238333D01*
X93972619Y-82190714D01*
X94163096Y-82190714D01*
X94258334Y-82238333D01*
X94305953Y-82333571D01*
X94305953Y-82428810D01*
X93829762Y-82524048D01*
X94734524Y-82857381D02*
X94734524Y-82190714D01*
X94734524Y-82381190D02*
X94782143Y-82285952D01*
X94829762Y-82238333D01*
X94925000Y-82190714D01*
X95020239Y-82190714D01*
X91877381Y-86338333D02*
X92591667Y-86338333D01*
X92734524Y-86385953D01*
X92829762Y-86481191D01*
X92877381Y-86624048D01*
X92877381Y-86719286D01*
X91877381Y-85957381D02*
X91877381Y-85338333D01*
X92258333Y-85671667D01*
X92258333Y-85528809D01*
X92305952Y-85433571D01*
X92353571Y-85385952D01*
X92448810Y-85338333D01*
X92686905Y-85338333D01*
X92782143Y-85385952D01*
X92829762Y-85433571D01*
X92877381Y-85528809D01*
X92877381Y-85814524D01*
X92829762Y-85909762D01*
X92782143Y-85957381D01*
X165859524Y-128227381D02*
X165288095Y-128227381D01*
X165573809Y-128227381D02*
X165573809Y-127227381D01*
X165478571Y-127370238D01*
X165383333Y-127465476D01*
X165288095Y-127513095D01*
X166478571Y-127227381D02*
X166573810Y-127227381D01*
X166669048Y-127275000D01*
X166716667Y-127322619D01*
X166764286Y-127417857D01*
X166811905Y-127608333D01*
X166811905Y-127846429D01*
X166764286Y-128036905D01*
X166716667Y-128132143D01*
X166669048Y-128179762D01*
X166573810Y-128227381D01*
X166478571Y-128227381D01*
X166383333Y-128179762D01*
X166335714Y-128132143D01*
X166288095Y-128036905D01*
X166240476Y-127846429D01*
X166240476Y-127608333D01*
X166288095Y-127417857D01*
X166335714Y-127322619D01*
X166383333Y-127275000D01*
X166478571Y-127227381D01*
X167240476Y-128227381D02*
X167240476Y-127227381D01*
X167811905Y-128227381D02*
X167383333Y-127655952D01*
X167811905Y-127227381D02*
X167240476Y-127798810D01*
D12*
X166228572Y-129751190D02*
X166061905Y-129513095D01*
X165942858Y-129751190D02*
X165942858Y-129251190D01*
X166133334Y-129251190D01*
X166180953Y-129275000D01*
X166204762Y-129298810D01*
X166228572Y-129346429D01*
X166228572Y-129417857D01*
X166204762Y-129465476D01*
X166180953Y-129489286D01*
X166133334Y-129513095D01*
X165942858Y-129513095D01*
X166657143Y-129417857D02*
X166657143Y-129751190D01*
X166538096Y-129227381D02*
X166419048Y-129584524D01*
X166728572Y-129584524D01*
X166895238Y-129298810D02*
X166919048Y-129275000D01*
X166966667Y-129251190D01*
X167085714Y-129251190D01*
X167133333Y-129275000D01*
X167157143Y-129298810D01*
X167180952Y-129346429D01*
X167180952Y-129394048D01*
X167157143Y-129465476D01*
X166871429Y-129751190D01*
X167180952Y-129751190D01*
D11*
X157852381Y-122065476D02*
X157852381Y-122636905D01*
X157852381Y-122351191D02*
X156852381Y-122351191D01*
X156995238Y-122446429D01*
X157090476Y-122541667D01*
X157138095Y-122636905D01*
X156852381Y-121446429D02*
X156852381Y-121351190D01*
X156900000Y-121255952D01*
X156947619Y-121208333D01*
X157042857Y-121160714D01*
X157233333Y-121113095D01*
X157471429Y-121113095D01*
X157661905Y-121160714D01*
X157757143Y-121208333D01*
X157804762Y-121255952D01*
X157852381Y-121351190D01*
X157852381Y-121446429D01*
X157804762Y-121541667D01*
X157757143Y-121589286D01*
X157661905Y-121636905D01*
X157471429Y-121684524D01*
X157233333Y-121684524D01*
X157042857Y-121636905D01*
X156947619Y-121589286D01*
X156900000Y-121541667D01*
X156852381Y-121446429D01*
X157852381Y-120684524D02*
X156852381Y-120684524D01*
X157852381Y-120113095D02*
X157280952Y-120541667D01*
X156852381Y-120113095D02*
X157423810Y-120684524D01*
D12*
X159376190Y-121696428D02*
X159138095Y-121863095D01*
X159376190Y-121982142D02*
X158876190Y-121982142D01*
X158876190Y-121791666D01*
X158900000Y-121744047D01*
X158923810Y-121720238D01*
X158971429Y-121696428D01*
X159042857Y-121696428D01*
X159090476Y-121720238D01*
X159114286Y-121744047D01*
X159138095Y-121791666D01*
X159138095Y-121982142D01*
X159042857Y-121267857D02*
X159376190Y-121267857D01*
X158852381Y-121386904D02*
X159209524Y-121505952D01*
X159209524Y-121196428D01*
X159042857Y-120791667D02*
X159376190Y-120791667D01*
X158852381Y-120910714D02*
X159209524Y-121029762D01*
X159209524Y-120720238D01*
D11*
X107663095Y-127312381D02*
X107091666Y-127312381D01*
X107377380Y-127312381D02*
X107377380Y-126312381D01*
X107282142Y-126455238D01*
X107186904Y-126550476D01*
X107091666Y-126598095D01*
X108091666Y-126645714D02*
X108091666Y-127312381D01*
X108091666Y-126740952D02*
X108139285Y-126693333D01*
X108234523Y-126645714D01*
X108377381Y-126645714D01*
X108472619Y-126693333D01*
X108520238Y-126788571D01*
X108520238Y-127312381D01*
X109329762Y-126788571D02*
X108996428Y-126788571D01*
X108996428Y-127312381D02*
X108996428Y-126312381D01*
X109472619Y-126312381D01*
X109615476Y-127407619D02*
X110377381Y-127407619D01*
X110472619Y-126312381D02*
X111044048Y-126312381D01*
X110758333Y-127312381D02*
X110758333Y-126312381D01*
X111377381Y-127312381D02*
X111377381Y-126312381D01*
X111377381Y-126788571D02*
X111948810Y-126788571D01*
X111948810Y-127312381D02*
X111948810Y-126312381D01*
X112282143Y-126312381D02*
X112853572Y-126312381D01*
X112567857Y-127312381D02*
X112567857Y-126312381D01*
X139399524Y-62442381D02*
X139066190Y-61966190D01*
X138828095Y-62442381D02*
X138828095Y-61442381D01*
X139209048Y-61442381D01*
X139304286Y-61490000D01*
X139351905Y-61537619D01*
X139399524Y-61632857D01*
X139399524Y-61775714D01*
X139351905Y-61870952D01*
X139304286Y-61918571D01*
X139209048Y-61966190D01*
X138828095Y-61966190D01*
X139235981Y-143907676D02*
X140235981Y-143241009D01*
X139235981Y-143241009D02*
X140235981Y-143907676D01*
X140235981Y-142288628D02*
X139759790Y-142621962D01*
X140235981Y-142860057D02*
X139235981Y-142860057D01*
X139235981Y-142479104D01*
X139283600Y-142383866D01*
X139331219Y-142336247D01*
X139426457Y-142288628D01*
X139569314Y-142288628D01*
X139664552Y-142336247D01*
X139712171Y-142383866D01*
X139759790Y-142479104D01*
X139759790Y-142860057D01*
X140140743Y-141288628D02*
X140188362Y-141336247D01*
X140235981Y-141479104D01*
X140235981Y-141574342D01*
X140188362Y-141717200D01*
X140093124Y-141812438D01*
X139997886Y-141860057D01*
X139807410Y-141907676D01*
X139664552Y-141907676D01*
X139474076Y-141860057D01*
X139378838Y-141812438D01*
X139283600Y-141717200D01*
X139235981Y-141574342D01*
X139235981Y-141479104D01*
X139283600Y-141336247D01*
X139331219Y-141288628D01*
X140235981Y-140860057D02*
X139235981Y-140860057D01*
X139712171Y-140860057D02*
X139712171Y-140288628D01*
X140235981Y-140288628D02*
X139235981Y-140288628D01*
X139950267Y-139860057D02*
X139950267Y-139383866D01*
X140235981Y-139955295D02*
X139235981Y-139621962D01*
X140235981Y-139288628D01*
X140331219Y-139193390D02*
X140331219Y-138431485D01*
X140235981Y-137669580D02*
X140235981Y-138241009D01*
X140235981Y-137955295D02*
X139235981Y-137955295D01*
X139378838Y-138050533D01*
X139474076Y-138145771D01*
X139521695Y-138241009D01*
X139235981Y-136812437D02*
X139235981Y-137002914D01*
X139283600Y-137098152D01*
X139331219Y-137145771D01*
X139474076Y-137241009D01*
X139664552Y-137288628D01*
X140045505Y-137288628D01*
X140140743Y-137241009D01*
X140188362Y-137193390D01*
X140235981Y-137098152D01*
X140235981Y-136907675D01*
X140188362Y-136812437D01*
X140140743Y-136764818D01*
X140045505Y-136717199D01*
X139807410Y-136717199D01*
X139712171Y-136764818D01*
X139664552Y-136812437D01*
X139616933Y-136907675D01*
X139616933Y-137098152D01*
X139664552Y-137193390D01*
X139712171Y-137241009D01*
X139807410Y-137288628D01*
X140235981Y-136288628D02*
X139235981Y-136288628D01*
X139950267Y-135955294D01*
X139235981Y-135621961D01*
X140235981Y-135621961D01*
D10*
X142765476Y-138815475D02*
X142955952Y-138815475D01*
X142555952Y-138948809D02*
X142765476Y-138815475D01*
X142555952Y-138682142D01*
X142955952Y-138339285D02*
X142955952Y-138567857D01*
X142955952Y-138453571D02*
X142555952Y-138453571D01*
X142613095Y-138491666D01*
X142651190Y-138529761D01*
X142670238Y-138567857D01*
D11*
X151794047Y-140891667D02*
X152270238Y-140891667D01*
X151698809Y-141177381D02*
X152032142Y-140177381D01*
X152365476Y-141177381D01*
X152555952Y-140510714D02*
X152936904Y-140510714D01*
X152698809Y-140177381D02*
X152698809Y-141034524D01*
X152746428Y-141129762D01*
X152841666Y-141177381D01*
X152936904Y-141177381D01*
X153270238Y-141177381D02*
X153270238Y-140510714D01*
X153270238Y-140605952D02*
X153317857Y-140558333D01*
X153413095Y-140510714D01*
X153555953Y-140510714D01*
X153651191Y-140558333D01*
X153698810Y-140653571D01*
X153698810Y-141177381D01*
X153698810Y-140653571D02*
X153746429Y-140558333D01*
X153841667Y-140510714D01*
X153984524Y-140510714D01*
X154079762Y-140558333D01*
X154127381Y-140653571D01*
X154127381Y-141177381D01*
X154984524Y-141129762D02*
X154889286Y-141177381D01*
X154698809Y-141177381D01*
X154603571Y-141129762D01*
X154555952Y-141034524D01*
X154555952Y-140653571D01*
X154603571Y-140558333D01*
X154698809Y-140510714D01*
X154889286Y-140510714D01*
X154984524Y-140558333D01*
X155032143Y-140653571D01*
X155032143Y-140748810D01*
X154555952Y-140844048D01*
X155889286Y-140510714D02*
X155889286Y-141320238D01*
X155841667Y-141415476D01*
X155794048Y-141463095D01*
X155698809Y-141510714D01*
X155555952Y-141510714D01*
X155460714Y-141463095D01*
X155889286Y-141129762D02*
X155794048Y-141177381D01*
X155603571Y-141177381D01*
X155508333Y-141129762D01*
X155460714Y-141082143D01*
X155413095Y-140986905D01*
X155413095Y-140701190D01*
X155460714Y-140605952D01*
X155508333Y-140558333D01*
X155603571Y-140510714D01*
X155794048Y-140510714D01*
X155889286Y-140558333D01*
X156794048Y-141177381D02*
X156794048Y-140653571D01*
X156746429Y-140558333D01*
X156651191Y-140510714D01*
X156460714Y-140510714D01*
X156365476Y-140558333D01*
X156794048Y-141129762D02*
X156698810Y-141177381D01*
X156460714Y-141177381D01*
X156365476Y-141129762D01*
X156317857Y-141034524D01*
X156317857Y-140939286D01*
X156365476Y-140844048D01*
X156460714Y-140796429D01*
X156698810Y-140796429D01*
X156794048Y-140748810D01*
X157175000Y-140177381D02*
X157794048Y-140177381D01*
X157460714Y-140558333D01*
X157603572Y-140558333D01*
X157698810Y-140605952D01*
X157746429Y-140653571D01*
X157794048Y-140748810D01*
X157794048Y-140986905D01*
X157746429Y-141082143D01*
X157698810Y-141129762D01*
X157603572Y-141177381D01*
X157317857Y-141177381D01*
X157222619Y-141129762D01*
X157175000Y-141082143D01*
X158175000Y-140272619D02*
X158222619Y-140225000D01*
X158317857Y-140177381D01*
X158555953Y-140177381D01*
X158651191Y-140225000D01*
X158698810Y-140272619D01*
X158746429Y-140367857D01*
X158746429Y-140463095D01*
X158698810Y-140605952D01*
X158127381Y-141177381D01*
X158746429Y-141177381D01*
X159317857Y-140605952D02*
X159222619Y-140558333D01*
X159175000Y-140510714D01*
X159127381Y-140415476D01*
X159127381Y-140367857D01*
X159175000Y-140272619D01*
X159222619Y-140225000D01*
X159317857Y-140177381D01*
X159508334Y-140177381D01*
X159603572Y-140225000D01*
X159651191Y-140272619D01*
X159698810Y-140367857D01*
X159698810Y-140415476D01*
X159651191Y-140510714D01*
X159603572Y-140558333D01*
X159508334Y-140605952D01*
X159317857Y-140605952D01*
X159222619Y-140653571D01*
X159175000Y-140701190D01*
X159127381Y-140796429D01*
X159127381Y-140986905D01*
X159175000Y-141082143D01*
X159222619Y-141129762D01*
X159317857Y-141177381D01*
X159508334Y-141177381D01*
X159603572Y-141129762D01*
X159651191Y-141082143D01*
X159698810Y-140986905D01*
X159698810Y-140796429D01*
X159651191Y-140701190D01*
X159603572Y-140653571D01*
X159508334Y-140605952D01*
X160127381Y-141177381D02*
X160127381Y-140177381D01*
X160508334Y-140177381D01*
X160603572Y-140225000D01*
X160651191Y-140272619D01*
X160698810Y-140367857D01*
X160698810Y-140510714D01*
X160651191Y-140605952D01*
X160603572Y-140653571D01*
X160508334Y-140701190D01*
X160127381Y-140701190D01*
X161079762Y-140891667D02*
X161555953Y-140891667D01*
X160984524Y-141177381D02*
X161317857Y-140177381D01*
X161651191Y-141177381D01*
X155913095Y-134127381D02*
X155913095Y-134936905D01*
X155960714Y-135032143D01*
X156008333Y-135079762D01*
X156103571Y-135127381D01*
X156294048Y-135127381D01*
X156389286Y-135079762D01*
X156436905Y-135032143D01*
X156484524Y-134936905D01*
X156484524Y-134127381D01*
X157484524Y-135127381D02*
X156913095Y-135127381D01*
X157198809Y-135127381D02*
X157198809Y-134127381D01*
X157103571Y-134270238D01*
X157008333Y-134365476D01*
X156913095Y-134413095D01*
X141977381Y-59265476D02*
X141977381Y-59836905D01*
X141977381Y-59551191D02*
X140977381Y-59551191D01*
X141120238Y-59646429D01*
X141215476Y-59741667D01*
X141263095Y-59836905D01*
X140977381Y-58646429D02*
X140977381Y-58551190D01*
X141025000Y-58455952D01*
X141072619Y-58408333D01*
X141167857Y-58360714D01*
X141358333Y-58313095D01*
X141596429Y-58313095D01*
X141786905Y-58360714D01*
X141882143Y-58408333D01*
X141929762Y-58455952D01*
X141977381Y-58551190D01*
X141977381Y-58646429D01*
X141929762Y-58741667D01*
X141882143Y-58789286D01*
X141786905Y-58836905D01*
X141596429Y-58884524D01*
X141358333Y-58884524D01*
X141167857Y-58836905D01*
X141072619Y-58789286D01*
X141025000Y-58741667D01*
X140977381Y-58646429D01*
X141977381Y-57884524D02*
X140977381Y-57884524D01*
X141977381Y-57313095D02*
X141405952Y-57741667D01*
X140977381Y-57313095D02*
X141548810Y-57884524D01*
D12*
X143501190Y-58896428D02*
X143263095Y-59063095D01*
X143501190Y-59182142D02*
X143001190Y-59182142D01*
X143001190Y-58991666D01*
X143025000Y-58944047D01*
X143048810Y-58920238D01*
X143096429Y-58896428D01*
X143167857Y-58896428D01*
X143215476Y-58920238D01*
X143239286Y-58944047D01*
X143263095Y-58991666D01*
X143263095Y-59182142D01*
X143167857Y-58467857D02*
X143501190Y-58467857D01*
X142977381Y-58586904D02*
X143334524Y-58705952D01*
X143334524Y-58396428D01*
X143215476Y-58134524D02*
X143191667Y-58182143D01*
X143167857Y-58205952D01*
X143120238Y-58229762D01*
X143096429Y-58229762D01*
X143048810Y-58205952D01*
X143025000Y-58182143D01*
X143001190Y-58134524D01*
X143001190Y-58039286D01*
X143025000Y-57991667D01*
X143048810Y-57967857D01*
X143096429Y-57944048D01*
X143120238Y-57944048D01*
X143167857Y-57967857D01*
X143191667Y-57991667D01*
X143215476Y-58039286D01*
X143215476Y-58134524D01*
X143239286Y-58182143D01*
X143263095Y-58205952D01*
X143310714Y-58229762D01*
X143405952Y-58229762D01*
X143453571Y-58205952D01*
X143477381Y-58182143D01*
X143501190Y-58134524D01*
X143501190Y-58039286D01*
X143477381Y-57991667D01*
X143453571Y-57967857D01*
X143405952Y-57944048D01*
X143310714Y-57944048D01*
X143263095Y-57967857D01*
X143239286Y-57991667D01*
X143215476Y-58039286D01*
D11*
X141852381Y-74715476D02*
X141852381Y-75286905D01*
X141852381Y-75001191D02*
X140852381Y-75001191D01*
X140995238Y-75096429D01*
X141090476Y-75191667D01*
X141138095Y-75286905D01*
X140852381Y-74096429D02*
X140852381Y-74001190D01*
X140900000Y-73905952D01*
X140947619Y-73858333D01*
X141042857Y-73810714D01*
X141233333Y-73763095D01*
X141471429Y-73763095D01*
X141661905Y-73810714D01*
X141757143Y-73858333D01*
X141804762Y-73905952D01*
X141852381Y-74001190D01*
X141852381Y-74096429D01*
X141804762Y-74191667D01*
X141757143Y-74239286D01*
X141661905Y-74286905D01*
X141471429Y-74334524D01*
X141233333Y-74334524D01*
X141042857Y-74286905D01*
X140947619Y-74239286D01*
X140900000Y-74191667D01*
X140852381Y-74096429D01*
X141852381Y-73334524D02*
X140852381Y-73334524D01*
X141852381Y-72763095D02*
X141280952Y-73191667D01*
X140852381Y-72763095D02*
X141423810Y-73334524D01*
D12*
X143376190Y-74346428D02*
X143138095Y-74513095D01*
X143376190Y-74632142D02*
X142876190Y-74632142D01*
X142876190Y-74441666D01*
X142900000Y-74394047D01*
X142923810Y-74370238D01*
X142971429Y-74346428D01*
X143042857Y-74346428D01*
X143090476Y-74370238D01*
X143114286Y-74394047D01*
X143138095Y-74441666D01*
X143138095Y-74632142D01*
X143042857Y-73917857D02*
X143376190Y-73917857D01*
X142852381Y-74036904D02*
X143209524Y-74155952D01*
X143209524Y-73846428D01*
X143376190Y-73632143D02*
X143376190Y-73536905D01*
X143352381Y-73489286D01*
X143328571Y-73465476D01*
X143257143Y-73417857D01*
X143161905Y-73394048D01*
X142971429Y-73394048D01*
X142923810Y-73417857D01*
X142900000Y-73441667D01*
X142876190Y-73489286D01*
X142876190Y-73584524D01*
X142900000Y-73632143D01*
X142923810Y-73655952D01*
X142971429Y-73679762D01*
X143090476Y-73679762D01*
X143138095Y-73655952D01*
X143161905Y-73632143D01*
X143185714Y-73584524D01*
X143185714Y-73489286D01*
X143161905Y-73441667D01*
X143138095Y-73417857D01*
X143090476Y-73394048D01*
D11*
X141902381Y-90790476D02*
X141902381Y-91361905D01*
X141902381Y-91076191D02*
X140902381Y-91076191D01*
X141045238Y-91171429D01*
X141140476Y-91266667D01*
X141188095Y-91361905D01*
X140902381Y-90171429D02*
X140902381Y-90076190D01*
X140950000Y-89980952D01*
X140997619Y-89933333D01*
X141092857Y-89885714D01*
X141283333Y-89838095D01*
X141521429Y-89838095D01*
X141711905Y-89885714D01*
X141807143Y-89933333D01*
X141854762Y-89980952D01*
X141902381Y-90076190D01*
X141902381Y-90171429D01*
X141854762Y-90266667D01*
X141807143Y-90314286D01*
X141711905Y-90361905D01*
X141521429Y-90409524D01*
X141283333Y-90409524D01*
X141092857Y-90361905D01*
X140997619Y-90314286D01*
X140950000Y-90266667D01*
X140902381Y-90171429D01*
X141902381Y-89409524D02*
X140902381Y-89409524D01*
X141902381Y-88838095D02*
X141330952Y-89266667D01*
X140902381Y-88838095D02*
X141473810Y-89409524D01*
D12*
X143426190Y-90421428D02*
X143188095Y-90588095D01*
X143426190Y-90707142D02*
X142926190Y-90707142D01*
X142926190Y-90516666D01*
X142950000Y-90469047D01*
X142973810Y-90445238D01*
X143021429Y-90421428D01*
X143092857Y-90421428D01*
X143140476Y-90445238D01*
X143164286Y-90469047D01*
X143188095Y-90516666D01*
X143188095Y-90707142D01*
X142926190Y-89969047D02*
X142926190Y-90207142D01*
X143164286Y-90230952D01*
X143140476Y-90207142D01*
X143116667Y-90159523D01*
X143116667Y-90040476D01*
X143140476Y-89992857D01*
X143164286Y-89969047D01*
X143211905Y-89945238D01*
X143330952Y-89945238D01*
X143378571Y-89969047D01*
X143402381Y-89992857D01*
X143426190Y-90040476D01*
X143426190Y-90159523D01*
X143402381Y-90207142D01*
X143378571Y-90230952D01*
X142926190Y-89635714D02*
X142926190Y-89588095D01*
X142950000Y-89540476D01*
X142973810Y-89516667D01*
X143021429Y-89492857D01*
X143116667Y-89469048D01*
X143235714Y-89469048D01*
X143330952Y-89492857D01*
X143378571Y-89516667D01*
X143402381Y-89540476D01*
X143426190Y-89588095D01*
X143426190Y-89635714D01*
X143402381Y-89683333D01*
X143378571Y-89707143D01*
X143330952Y-89730952D01*
X143235714Y-89754762D01*
X143116667Y-89754762D01*
X143021429Y-89730952D01*
X142973810Y-89707143D01*
X142950000Y-89683333D01*
X142926190Y-89635714D01*
D11*
X141952381Y-106565476D02*
X141952381Y-107136905D01*
X141952381Y-106851191D02*
X140952381Y-106851191D01*
X141095238Y-106946429D01*
X141190476Y-107041667D01*
X141238095Y-107136905D01*
X140952381Y-105946429D02*
X140952381Y-105851190D01*
X141000000Y-105755952D01*
X141047619Y-105708333D01*
X141142857Y-105660714D01*
X141333333Y-105613095D01*
X141571429Y-105613095D01*
X141761905Y-105660714D01*
X141857143Y-105708333D01*
X141904762Y-105755952D01*
X141952381Y-105851190D01*
X141952381Y-105946429D01*
X141904762Y-106041667D01*
X141857143Y-106089286D01*
X141761905Y-106136905D01*
X141571429Y-106184524D01*
X141333333Y-106184524D01*
X141142857Y-106136905D01*
X141047619Y-106089286D01*
X141000000Y-106041667D01*
X140952381Y-105946429D01*
X141952381Y-105184524D02*
X140952381Y-105184524D01*
X141952381Y-104613095D02*
X141380952Y-105041667D01*
X140952381Y-104613095D02*
X141523810Y-105184524D01*
D12*
X143476190Y-106196428D02*
X143238095Y-106363095D01*
X143476190Y-106482142D02*
X142976190Y-106482142D01*
X142976190Y-106291666D01*
X143000000Y-106244047D01*
X143023810Y-106220238D01*
X143071429Y-106196428D01*
X143142857Y-106196428D01*
X143190476Y-106220238D01*
X143214286Y-106244047D01*
X143238095Y-106291666D01*
X143238095Y-106482142D01*
X142976190Y-105744047D02*
X142976190Y-105982142D01*
X143214286Y-106005952D01*
X143190476Y-105982142D01*
X143166667Y-105934523D01*
X143166667Y-105815476D01*
X143190476Y-105767857D01*
X143214286Y-105744047D01*
X143261905Y-105720238D01*
X143380952Y-105720238D01*
X143428571Y-105744047D01*
X143452381Y-105767857D01*
X143476190Y-105815476D01*
X143476190Y-105934523D01*
X143452381Y-105982142D01*
X143428571Y-106005952D01*
X143476190Y-105244048D02*
X143476190Y-105529762D01*
X143476190Y-105386905D02*
X142976190Y-105386905D01*
X143047619Y-105434524D01*
X143095238Y-105482143D01*
X143119048Y-105529762D01*
D11*
X105727381Y-59240476D02*
X105727381Y-59811905D01*
X105727381Y-59526191D02*
X104727381Y-59526191D01*
X104870238Y-59621429D01*
X104965476Y-59716667D01*
X105013095Y-59811905D01*
X104727381Y-58621429D02*
X104727381Y-58526190D01*
X104775000Y-58430952D01*
X104822619Y-58383333D01*
X104917857Y-58335714D01*
X105108333Y-58288095D01*
X105346429Y-58288095D01*
X105536905Y-58335714D01*
X105632143Y-58383333D01*
X105679762Y-58430952D01*
X105727381Y-58526190D01*
X105727381Y-58621429D01*
X105679762Y-58716667D01*
X105632143Y-58764286D01*
X105536905Y-58811905D01*
X105346429Y-58859524D01*
X105108333Y-58859524D01*
X104917857Y-58811905D01*
X104822619Y-58764286D01*
X104775000Y-58716667D01*
X104727381Y-58621429D01*
X105727381Y-57859524D02*
X104727381Y-57859524D01*
X105727381Y-57288095D02*
X105155952Y-57716667D01*
X104727381Y-57288095D02*
X105298810Y-57859524D01*
D12*
X107251190Y-58871428D02*
X107013095Y-59038095D01*
X107251190Y-59157142D02*
X106751190Y-59157142D01*
X106751190Y-58966666D01*
X106775000Y-58919047D01*
X106798810Y-58895238D01*
X106846429Y-58871428D01*
X106917857Y-58871428D01*
X106965476Y-58895238D01*
X106989286Y-58919047D01*
X107013095Y-58966666D01*
X107013095Y-59157142D01*
X106751190Y-58419047D02*
X106751190Y-58657142D01*
X106989286Y-58680952D01*
X106965476Y-58657142D01*
X106941667Y-58609523D01*
X106941667Y-58490476D01*
X106965476Y-58442857D01*
X106989286Y-58419047D01*
X107036905Y-58395238D01*
X107155952Y-58395238D01*
X107203571Y-58419047D01*
X107227381Y-58442857D01*
X107251190Y-58490476D01*
X107251190Y-58609523D01*
X107227381Y-58657142D01*
X107203571Y-58680952D01*
X106798810Y-58204762D02*
X106775000Y-58180952D01*
X106751190Y-58133333D01*
X106751190Y-58014286D01*
X106775000Y-57966667D01*
X106798810Y-57942857D01*
X106846429Y-57919048D01*
X106894048Y-57919048D01*
X106965476Y-57942857D01*
X107251190Y-58228571D01*
X107251190Y-57919048D01*
D11*
X105827381Y-74740476D02*
X105827381Y-75311905D01*
X105827381Y-75026191D02*
X104827381Y-75026191D01*
X104970238Y-75121429D01*
X105065476Y-75216667D01*
X105113095Y-75311905D01*
X104827381Y-74121429D02*
X104827381Y-74026190D01*
X104875000Y-73930952D01*
X104922619Y-73883333D01*
X105017857Y-73835714D01*
X105208333Y-73788095D01*
X105446429Y-73788095D01*
X105636905Y-73835714D01*
X105732143Y-73883333D01*
X105779762Y-73930952D01*
X105827381Y-74026190D01*
X105827381Y-74121429D01*
X105779762Y-74216667D01*
X105732143Y-74264286D01*
X105636905Y-74311905D01*
X105446429Y-74359524D01*
X105208333Y-74359524D01*
X105017857Y-74311905D01*
X104922619Y-74264286D01*
X104875000Y-74216667D01*
X104827381Y-74121429D01*
X105827381Y-73359524D02*
X104827381Y-73359524D01*
X105827381Y-72788095D02*
X105255952Y-73216667D01*
X104827381Y-72788095D02*
X105398810Y-73359524D01*
D12*
X107351190Y-74371428D02*
X107113095Y-74538095D01*
X107351190Y-74657142D02*
X106851190Y-74657142D01*
X106851190Y-74466666D01*
X106875000Y-74419047D01*
X106898810Y-74395238D01*
X106946429Y-74371428D01*
X107017857Y-74371428D01*
X107065476Y-74395238D01*
X107089286Y-74419047D01*
X107113095Y-74466666D01*
X107113095Y-74657142D01*
X106851190Y-73919047D02*
X106851190Y-74157142D01*
X107089286Y-74180952D01*
X107065476Y-74157142D01*
X107041667Y-74109523D01*
X107041667Y-73990476D01*
X107065476Y-73942857D01*
X107089286Y-73919047D01*
X107136905Y-73895238D01*
X107255952Y-73895238D01*
X107303571Y-73919047D01*
X107327381Y-73942857D01*
X107351190Y-73990476D01*
X107351190Y-74109523D01*
X107327381Y-74157142D01*
X107303571Y-74180952D01*
X106851190Y-73728571D02*
X106851190Y-73419048D01*
X107041667Y-73585714D01*
X107041667Y-73514286D01*
X107065476Y-73466667D01*
X107089286Y-73442857D01*
X107136905Y-73419048D01*
X107255952Y-73419048D01*
X107303571Y-73442857D01*
X107327381Y-73466667D01*
X107351190Y-73514286D01*
X107351190Y-73657143D01*
X107327381Y-73704762D01*
X107303571Y-73728571D01*
D11*
X105652381Y-90790476D02*
X105652381Y-91361905D01*
X105652381Y-91076191D02*
X104652381Y-91076191D01*
X104795238Y-91171429D01*
X104890476Y-91266667D01*
X104938095Y-91361905D01*
X104652381Y-90171429D02*
X104652381Y-90076190D01*
X104700000Y-89980952D01*
X104747619Y-89933333D01*
X104842857Y-89885714D01*
X105033333Y-89838095D01*
X105271429Y-89838095D01*
X105461905Y-89885714D01*
X105557143Y-89933333D01*
X105604762Y-89980952D01*
X105652381Y-90076190D01*
X105652381Y-90171429D01*
X105604762Y-90266667D01*
X105557143Y-90314286D01*
X105461905Y-90361905D01*
X105271429Y-90409524D01*
X105033333Y-90409524D01*
X104842857Y-90361905D01*
X104747619Y-90314286D01*
X104700000Y-90266667D01*
X104652381Y-90171429D01*
X105652381Y-89409524D02*
X104652381Y-89409524D01*
X105652381Y-88838095D02*
X105080952Y-89266667D01*
X104652381Y-88838095D02*
X105223810Y-89409524D01*
D12*
X107176190Y-90421428D02*
X106938095Y-90588095D01*
X107176190Y-90707142D02*
X106676190Y-90707142D01*
X106676190Y-90516666D01*
X106700000Y-90469047D01*
X106723810Y-90445238D01*
X106771429Y-90421428D01*
X106842857Y-90421428D01*
X106890476Y-90445238D01*
X106914286Y-90469047D01*
X106938095Y-90516666D01*
X106938095Y-90707142D01*
X106676190Y-89969047D02*
X106676190Y-90207142D01*
X106914286Y-90230952D01*
X106890476Y-90207142D01*
X106866667Y-90159523D01*
X106866667Y-90040476D01*
X106890476Y-89992857D01*
X106914286Y-89969047D01*
X106961905Y-89945238D01*
X107080952Y-89945238D01*
X107128571Y-89969047D01*
X107152381Y-89992857D01*
X107176190Y-90040476D01*
X107176190Y-90159523D01*
X107152381Y-90207142D01*
X107128571Y-90230952D01*
X106842857Y-89516667D02*
X107176190Y-89516667D01*
X106652381Y-89635714D02*
X107009524Y-89754762D01*
X107009524Y-89445238D01*
D11*
X106027381Y-106565476D02*
X106027381Y-107136905D01*
X106027381Y-106851191D02*
X105027381Y-106851191D01*
X105170238Y-106946429D01*
X105265476Y-107041667D01*
X105313095Y-107136905D01*
X105027381Y-105946429D02*
X105027381Y-105851190D01*
X105075000Y-105755952D01*
X105122619Y-105708333D01*
X105217857Y-105660714D01*
X105408333Y-105613095D01*
X105646429Y-105613095D01*
X105836905Y-105660714D01*
X105932143Y-105708333D01*
X105979762Y-105755952D01*
X106027381Y-105851190D01*
X106027381Y-105946429D01*
X105979762Y-106041667D01*
X105932143Y-106089286D01*
X105836905Y-106136905D01*
X105646429Y-106184524D01*
X105408333Y-106184524D01*
X105217857Y-106136905D01*
X105122619Y-106089286D01*
X105075000Y-106041667D01*
X105027381Y-105946429D01*
X106027381Y-105184524D02*
X105027381Y-105184524D01*
X106027381Y-104613095D02*
X105455952Y-105041667D01*
X105027381Y-104613095D02*
X105598810Y-105184524D01*
D12*
X107551190Y-106196428D02*
X107313095Y-106363095D01*
X107551190Y-106482142D02*
X107051190Y-106482142D01*
X107051190Y-106291666D01*
X107075000Y-106244047D01*
X107098810Y-106220238D01*
X107146429Y-106196428D01*
X107217857Y-106196428D01*
X107265476Y-106220238D01*
X107289286Y-106244047D01*
X107313095Y-106291666D01*
X107313095Y-106482142D01*
X107051190Y-105744047D02*
X107051190Y-105982142D01*
X107289286Y-106005952D01*
X107265476Y-105982142D01*
X107241667Y-105934523D01*
X107241667Y-105815476D01*
X107265476Y-105767857D01*
X107289286Y-105744047D01*
X107336905Y-105720238D01*
X107455952Y-105720238D01*
X107503571Y-105744047D01*
X107527381Y-105767857D01*
X107551190Y-105815476D01*
X107551190Y-105934523D01*
X107527381Y-105982142D01*
X107503571Y-106005952D01*
X107051190Y-105267857D02*
X107051190Y-105505952D01*
X107289286Y-105529762D01*
X107265476Y-105505952D01*
X107241667Y-105458333D01*
X107241667Y-105339286D01*
X107265476Y-105291667D01*
X107289286Y-105267857D01*
X107336905Y-105244048D01*
X107455952Y-105244048D01*
X107503571Y-105267857D01*
X107527381Y-105291667D01*
X107551190Y-105339286D01*
X107551190Y-105458333D01*
X107527381Y-105505952D01*
X107503571Y-105529762D01*
D11*
X149685000Y-147199999D02*
X149637381Y-147295237D01*
X149637381Y-147438094D01*
X149685000Y-147580952D01*
X149780238Y-147676190D01*
X149875476Y-147723809D01*
X150065952Y-147771428D01*
X150208810Y-147771428D01*
X150399286Y-147723809D01*
X150494524Y-147676190D01*
X150589762Y-147580952D01*
X150637381Y-147438094D01*
X150637381Y-147342856D01*
X150589762Y-147199999D01*
X150542143Y-147152380D01*
X150208810Y-147152380D01*
X150208810Y-147342856D01*
X150637381Y-146723809D02*
X149637381Y-146723809D01*
X149637381Y-146342856D01*
X149685000Y-146247618D01*
X149732619Y-146199999D01*
X149827857Y-146152380D01*
X149970714Y-146152380D01*
X150065952Y-146199999D01*
X150113571Y-146247618D01*
X150161190Y-146342856D01*
X150161190Y-146723809D01*
X150637381Y-145723809D02*
X149637381Y-145723809D01*
X149637381Y-145057143D02*
X149637381Y-144866666D01*
X149685000Y-144771428D01*
X149780238Y-144676190D01*
X149970714Y-144628571D01*
X150304048Y-144628571D01*
X150494524Y-144676190D01*
X150589762Y-144771428D01*
X150637381Y-144866666D01*
X150637381Y-145057143D01*
X150589762Y-145152381D01*
X150494524Y-145247619D01*
X150304048Y-145295238D01*
X149970714Y-145295238D01*
X149780238Y-145247619D01*
X149685000Y-145152381D01*
X149637381Y-145057143D01*
X138260714Y-146602381D02*
X138260714Y-145602381D01*
X138641667Y-145602381D01*
X138736905Y-145650000D01*
X138784524Y-145697619D01*
X138832143Y-145792857D01*
X138832143Y-145935714D01*
X138784524Y-146030952D01*
X138736905Y-146078571D01*
X138641667Y-146126190D01*
X138260714Y-146126190D01*
X139784524Y-146602381D02*
X139213095Y-146602381D01*
X139498809Y-146602381D02*
X139498809Y-145602381D01*
X139403571Y-145745238D01*
X139308333Y-145840476D01*
X139213095Y-145888095D01*
X140403571Y-145602381D02*
X140498810Y-145602381D01*
X140594048Y-145650000D01*
X140641667Y-145697619D01*
X140689286Y-145792857D01*
X140736905Y-145983333D01*
X140736905Y-146221429D01*
X140689286Y-146411905D01*
X140641667Y-146507143D01*
X140594048Y-146554762D01*
X140498810Y-146602381D01*
X140403571Y-146602381D01*
X140308333Y-146554762D01*
X140260714Y-146507143D01*
X140213095Y-146411905D01*
X140165476Y-146221429D01*
X140165476Y-145983333D01*
X140213095Y-145792857D01*
X140260714Y-145697619D01*
X140308333Y-145650000D01*
X140403571Y-145602381D01*
X174353810Y-142212381D02*
X174353810Y-141212381D01*
X174782381Y-141307619D02*
X174830000Y-141260000D01*
X174925238Y-141212381D01*
X175163334Y-141212381D01*
X175258572Y-141260000D01*
X175306191Y-141307619D01*
X175353810Y-141402857D01*
X175353810Y-141498095D01*
X175306191Y-141640952D01*
X174734762Y-142212381D01*
X175353810Y-142212381D01*
X176353810Y-142117143D02*
X176306191Y-142164762D01*
X176163334Y-142212381D01*
X176068096Y-142212381D01*
X175925238Y-142164762D01*
X175830000Y-142069524D01*
X175782381Y-141974286D01*
X175734762Y-141783810D01*
X175734762Y-141640952D01*
X175782381Y-141450476D01*
X175830000Y-141355238D01*
X175925238Y-141260000D01*
X176068096Y-141212381D01*
X176163334Y-141212381D01*
X176306191Y-141260000D01*
X176353810Y-141307619D01*
X174591905Y-132472381D02*
X174591905Y-131472381D01*
X174972858Y-131472381D01*
X175068096Y-131520000D01*
X175115715Y-131567619D01*
X175163334Y-131662857D01*
X175163334Y-131805714D01*
X175115715Y-131900952D01*
X175068096Y-131948571D01*
X174972858Y-131996190D01*
X174591905Y-131996190D01*
X176020477Y-131472381D02*
X175830000Y-131472381D01*
X175734762Y-131520000D01*
X175687143Y-131567619D01*
X175591905Y-131710476D01*
X175544286Y-131900952D01*
X175544286Y-132281905D01*
X175591905Y-132377143D01*
X175639524Y-132424762D01*
X175734762Y-132472381D01*
X175925239Y-132472381D01*
X176020477Y-132424762D01*
X176068096Y-132377143D01*
X176115715Y-132281905D01*
X176115715Y-132043810D01*
X176068096Y-131948571D01*
X176020477Y-131900952D01*
X175925239Y-131853333D01*
X175734762Y-131853333D01*
X175639524Y-131900952D01*
X175591905Y-131948571D01*
X175544286Y-132043810D01*
X168885714Y-145462381D02*
X168885714Y-144462381D01*
X169266667Y-144462381D01*
X169361905Y-144510000D01*
X169409524Y-144557619D01*
X169457143Y-144652857D01*
X169457143Y-144795714D01*
X169409524Y-144890952D01*
X169361905Y-144938571D01*
X169266667Y-144986190D01*
X168885714Y-144986190D01*
X170409524Y-145462381D02*
X169838095Y-145462381D01*
X170123809Y-145462381D02*
X170123809Y-144462381D01*
X170028571Y-144605238D01*
X169933333Y-144700476D01*
X169838095Y-144748095D01*
X171361905Y-145462381D02*
X170790476Y-145462381D01*
X171076190Y-145462381D02*
X171076190Y-144462381D01*
X170980952Y-144605238D01*
X170885714Y-144700476D01*
X170790476Y-144748095D01*
X172833333Y-148652381D02*
X173404762Y-148652381D01*
X173119047Y-149652381D02*
X173119047Y-148652381D01*
X173928571Y-148652381D02*
X174119048Y-148652381D01*
X174214286Y-148700000D01*
X174309524Y-148795238D01*
X174357143Y-148985714D01*
X174357143Y-149319048D01*
X174309524Y-149509524D01*
X174214286Y-149604762D01*
X174119048Y-149652381D01*
X173928571Y-149652381D01*
X173833333Y-149604762D01*
X173738095Y-149509524D01*
X173690476Y-149319048D01*
X173690476Y-148985714D01*
X173738095Y-148795238D01*
X173833333Y-148700000D01*
X173928571Y-148652381D01*
X175357143Y-149652381D02*
X175023809Y-149176190D01*
X174785714Y-149652381D02*
X174785714Y-148652381D01*
X175166667Y-148652381D01*
X175261905Y-148700000D01*
X175309524Y-148747619D01*
X175357143Y-148842857D01*
X175357143Y-148985714D01*
X175309524Y-149080952D01*
X175261905Y-149128571D01*
X175166667Y-149176190D01*
X174785714Y-149176190D01*
X175547619Y-149747619D02*
X176309524Y-149747619D01*
X176976191Y-148985714D02*
X176976191Y-149652381D01*
X176738095Y-148604762D02*
X176500000Y-149319048D01*
X177119048Y-149319048D01*
X174085714Y-145452381D02*
X174085714Y-144452381D01*
X174466667Y-144452381D01*
X174561905Y-144500000D01*
X174609524Y-144547619D01*
X174657143Y-144642857D01*
X174657143Y-144785714D01*
X174609524Y-144880952D01*
X174561905Y-144928571D01*
X174466667Y-144976190D01*
X174085714Y-144976190D01*
X175609524Y-145452381D02*
X175038095Y-145452381D01*
X175323809Y-145452381D02*
X175323809Y-144452381D01*
X175228571Y-144595238D01*
X175133333Y-144690476D01*
X175038095Y-144738095D01*
X176561905Y-145452381D02*
X175990476Y-145452381D01*
X176276190Y-145452381D02*
X176276190Y-144452381D01*
X176180952Y-144595238D01*
X176085714Y-144690476D01*
X175990476Y-144738095D01*
X175285714Y-59972381D02*
X175285714Y-58972381D01*
X175666667Y-58972381D01*
X175761905Y-59020000D01*
X175809524Y-59067619D01*
X175857143Y-59162857D01*
X175857143Y-59305714D01*
X175809524Y-59400952D01*
X175761905Y-59448571D01*
X175666667Y-59496190D01*
X175285714Y-59496190D01*
X176809524Y-59972381D02*
X176238095Y-59972381D01*
X176523809Y-59972381D02*
X176523809Y-58972381D01*
X176428571Y-59115238D01*
X176333333Y-59210476D01*
X176238095Y-59258095D01*
X177190476Y-59067619D02*
X177238095Y-59020000D01*
X177333333Y-58972381D01*
X177571429Y-58972381D01*
X177666667Y-59020000D01*
X177714286Y-59067619D01*
X177761905Y-59162857D01*
X177761905Y-59258095D01*
X177714286Y-59400952D01*
X177142857Y-59972381D01*
X177761905Y-59972381D01*
X172833333Y-58652381D02*
X173404762Y-58652381D01*
X173119047Y-59652381D02*
X173119047Y-58652381D01*
X173928571Y-58652381D02*
X174119048Y-58652381D01*
X174214286Y-58700000D01*
X174309524Y-58795238D01*
X174357143Y-58985714D01*
X174357143Y-59319048D01*
X174309524Y-59509524D01*
X174214286Y-59604762D01*
X174119048Y-59652381D01*
X173928571Y-59652381D01*
X173833333Y-59604762D01*
X173738095Y-59509524D01*
X173690476Y-59319048D01*
X173690476Y-58985714D01*
X173738095Y-58795238D01*
X173833333Y-58700000D01*
X173928571Y-58652381D01*
X175357143Y-59652381D02*
X175023809Y-59176190D01*
X174785714Y-59652381D02*
X174785714Y-58652381D01*
X175166667Y-58652381D01*
X175261905Y-58700000D01*
X175309524Y-58747619D01*
X175357143Y-58842857D01*
X175357143Y-58985714D01*
X175309524Y-59080952D01*
X175261905Y-59128571D01*
X175166667Y-59176190D01*
X174785714Y-59176190D01*
X175547619Y-59747619D02*
X176309524Y-59747619D01*
X176500000Y-58747619D02*
X176547619Y-58700000D01*
X176642857Y-58652381D01*
X176880953Y-58652381D01*
X176976191Y-58700000D01*
X177023810Y-58747619D01*
X177071429Y-58842857D01*
X177071429Y-58938095D01*
X177023810Y-59080952D01*
X176452381Y-59652381D01*
X177071429Y-59652381D01*
X174085714Y-55452381D02*
X174085714Y-54452381D01*
X174466667Y-54452381D01*
X174561905Y-54500000D01*
X174609524Y-54547619D01*
X174657143Y-54642857D01*
X174657143Y-54785714D01*
X174609524Y-54880952D01*
X174561905Y-54928571D01*
X174466667Y-54976190D01*
X174085714Y-54976190D01*
X175609524Y-55452381D02*
X175038095Y-55452381D01*
X175323809Y-55452381D02*
X175323809Y-54452381D01*
X175228571Y-54595238D01*
X175133333Y-54690476D01*
X175038095Y-54738095D01*
X175990476Y-54547619D02*
X176038095Y-54500000D01*
X176133333Y-54452381D01*
X176371429Y-54452381D01*
X176466667Y-54500000D01*
X176514286Y-54547619D01*
X176561905Y-54642857D01*
X176561905Y-54738095D01*
X176514286Y-54880952D01*
X175942857Y-55452381D01*
X176561905Y-55452381D01*
X83775714Y-59812381D02*
X83775714Y-58812381D01*
X84156667Y-58812381D01*
X84251905Y-58860000D01*
X84299524Y-58907619D01*
X84347143Y-59002857D01*
X84347143Y-59145714D01*
X84299524Y-59240952D01*
X84251905Y-59288571D01*
X84156667Y-59336190D01*
X83775714Y-59336190D01*
X85299524Y-59812381D02*
X84728095Y-59812381D01*
X85013809Y-59812381D02*
X85013809Y-58812381D01*
X84918571Y-58955238D01*
X84823333Y-59050476D01*
X84728095Y-59098095D01*
X85632857Y-58812381D02*
X86251905Y-58812381D01*
X85918571Y-59193333D01*
X86061429Y-59193333D01*
X86156667Y-59240952D01*
X86204286Y-59288571D01*
X86251905Y-59383810D01*
X86251905Y-59621905D01*
X86204286Y-59717143D01*
X86156667Y-59764762D01*
X86061429Y-59812381D01*
X85775714Y-59812381D01*
X85680476Y-59764762D01*
X85632857Y-59717143D01*
X82833333Y-58652381D02*
X83404762Y-58652381D01*
X83119047Y-59652381D02*
X83119047Y-58652381D01*
X83928571Y-58652381D02*
X84119048Y-58652381D01*
X84214286Y-58700000D01*
X84309524Y-58795238D01*
X84357143Y-58985714D01*
X84357143Y-59319048D01*
X84309524Y-59509524D01*
X84214286Y-59604762D01*
X84119048Y-59652381D01*
X83928571Y-59652381D01*
X83833333Y-59604762D01*
X83738095Y-59509524D01*
X83690476Y-59319048D01*
X83690476Y-58985714D01*
X83738095Y-58795238D01*
X83833333Y-58700000D01*
X83928571Y-58652381D01*
X85357143Y-59652381D02*
X85023809Y-59176190D01*
X84785714Y-59652381D02*
X84785714Y-58652381D01*
X85166667Y-58652381D01*
X85261905Y-58700000D01*
X85309524Y-58747619D01*
X85357143Y-58842857D01*
X85357143Y-58985714D01*
X85309524Y-59080952D01*
X85261905Y-59128571D01*
X85166667Y-59176190D01*
X84785714Y-59176190D01*
X85547619Y-59747619D02*
X86309524Y-59747619D01*
X87071429Y-59652381D02*
X86500000Y-59652381D01*
X86785714Y-59652381D02*
X86785714Y-58652381D01*
X86690476Y-58795238D01*
X86595238Y-58890476D01*
X86500000Y-58938095D01*
X84085714Y-55452381D02*
X84085714Y-54452381D01*
X84466667Y-54452381D01*
X84561905Y-54500000D01*
X84609524Y-54547619D01*
X84657143Y-54642857D01*
X84657143Y-54785714D01*
X84609524Y-54880952D01*
X84561905Y-54928571D01*
X84466667Y-54976190D01*
X84085714Y-54976190D01*
X85609524Y-55452381D02*
X85038095Y-55452381D01*
X85323809Y-55452381D02*
X85323809Y-54452381D01*
X85228571Y-54595238D01*
X85133333Y-54690476D01*
X85038095Y-54738095D01*
X85942857Y-54452381D02*
X86561905Y-54452381D01*
X86228571Y-54833333D01*
X86371429Y-54833333D01*
X86466667Y-54880952D01*
X86514286Y-54928571D01*
X86561905Y-55023810D01*
X86561905Y-55261905D01*
X86514286Y-55357143D01*
X86466667Y-55404762D01*
X86371429Y-55452381D01*
X86085714Y-55452381D01*
X85990476Y-55404762D01*
X85942857Y-55357143D01*
X83785714Y-141252381D02*
X83785714Y-140252381D01*
X84166667Y-140252381D01*
X84261905Y-140300000D01*
X84309524Y-140347619D01*
X84357143Y-140442857D01*
X84357143Y-140585714D01*
X84309524Y-140680952D01*
X84261905Y-140728571D01*
X84166667Y-140776190D01*
X83785714Y-140776190D01*
X85309524Y-141252381D02*
X84738095Y-141252381D01*
X85023809Y-141252381D02*
X85023809Y-140252381D01*
X84928571Y-140395238D01*
X84833333Y-140490476D01*
X84738095Y-140538095D01*
X86166667Y-140585714D02*
X86166667Y-141252381D01*
X85928571Y-140204762D02*
X85690476Y-140919048D01*
X86309524Y-140919048D01*
X82833333Y-148652381D02*
X83404762Y-148652381D01*
X83119047Y-149652381D02*
X83119047Y-148652381D01*
X83928571Y-148652381D02*
X84119048Y-148652381D01*
X84214286Y-148700000D01*
X84309524Y-148795238D01*
X84357143Y-148985714D01*
X84357143Y-149319048D01*
X84309524Y-149509524D01*
X84214286Y-149604762D01*
X84119048Y-149652381D01*
X83928571Y-149652381D01*
X83833333Y-149604762D01*
X83738095Y-149509524D01*
X83690476Y-149319048D01*
X83690476Y-148985714D01*
X83738095Y-148795238D01*
X83833333Y-148700000D01*
X83928571Y-148652381D01*
X85357143Y-149652381D02*
X85023809Y-149176190D01*
X84785714Y-149652381D02*
X84785714Y-148652381D01*
X85166667Y-148652381D01*
X85261905Y-148700000D01*
X85309524Y-148747619D01*
X85357143Y-148842857D01*
X85357143Y-148985714D01*
X85309524Y-149080952D01*
X85261905Y-149128571D01*
X85166667Y-149176190D01*
X84785714Y-149176190D01*
X85547619Y-149747619D02*
X86309524Y-149747619D01*
X86452381Y-148652381D02*
X87071429Y-148652381D01*
X86738095Y-149033333D01*
X86880953Y-149033333D01*
X86976191Y-149080952D01*
X87023810Y-149128571D01*
X87071429Y-149223810D01*
X87071429Y-149461905D01*
X87023810Y-149557143D01*
X86976191Y-149604762D01*
X86880953Y-149652381D01*
X86595238Y-149652381D01*
X86500000Y-149604762D01*
X86452381Y-149557143D01*
X84085714Y-145452381D02*
X84085714Y-144452381D01*
X84466667Y-144452381D01*
X84561905Y-144500000D01*
X84609524Y-144547619D01*
X84657143Y-144642857D01*
X84657143Y-144785714D01*
X84609524Y-144880952D01*
X84561905Y-144928571D01*
X84466667Y-144976190D01*
X84085714Y-144976190D01*
X85609524Y-145452381D02*
X85038095Y-145452381D01*
X85323809Y-145452381D02*
X85323809Y-144452381D01*
X85228571Y-144595238D01*
X85133333Y-144690476D01*
X85038095Y-144738095D01*
X86466667Y-144785714D02*
X86466667Y-145452381D01*
X86228571Y-144404762D02*
X85990476Y-145119048D01*
X86609524Y-145119048D01*
X94947619Y-69852381D02*
X95519048Y-69852381D01*
X95233333Y-70852381D02*
X95233333Y-69852381D01*
X95852381Y-70328571D02*
X96185715Y-70328571D01*
X96328572Y-70852381D02*
X95852381Y-70852381D01*
X95852381Y-69852381D01*
X96328572Y-69852381D01*
X96709524Y-70804762D02*
X96852381Y-70852381D01*
X97090477Y-70852381D01*
X97185715Y-70804762D01*
X97233334Y-70757143D01*
X97280953Y-70661905D01*
X97280953Y-70566667D01*
X97233334Y-70471429D01*
X97185715Y-70423810D01*
X97090477Y-70376190D01*
X96900000Y-70328571D01*
X96804762Y-70280952D01*
X96757143Y-70233333D01*
X96709524Y-70138095D01*
X96709524Y-70042857D01*
X96757143Y-69947619D01*
X96804762Y-69900000D01*
X96900000Y-69852381D01*
X97138096Y-69852381D01*
X97280953Y-69900000D01*
X97566667Y-69852381D02*
X98138096Y-69852381D01*
X97852381Y-70852381D02*
X97852381Y-69852381D01*
X98233334Y-70947619D02*
X98995239Y-70947619D01*
X99757144Y-70852381D02*
X99185715Y-70852381D01*
X99471429Y-70852381D02*
X99471429Y-69852381D01*
X99376191Y-69995238D01*
X99280953Y-70090476D01*
X99185715Y-70138095D01*
X100185715Y-70852381D02*
X100185715Y-69852381D01*
X100566668Y-69852381D01*
X100661906Y-69900000D01*
X100709525Y-69947619D01*
X100757144Y-70042857D01*
X100757144Y-70185714D01*
X100709525Y-70280952D01*
X100661906Y-70328571D01*
X100566668Y-70376190D01*
X100185715Y-70376190D01*
X92547619Y-91812381D02*
X93119048Y-91812381D01*
X92833333Y-92812381D02*
X92833333Y-91812381D01*
X93452381Y-92288571D02*
X93785715Y-92288571D01*
X93928572Y-92812381D02*
X93452381Y-92812381D01*
X93452381Y-91812381D01*
X93928572Y-91812381D01*
X94309524Y-92764762D02*
X94452381Y-92812381D01*
X94690477Y-92812381D01*
X94785715Y-92764762D01*
X94833334Y-92717143D01*
X94880953Y-92621905D01*
X94880953Y-92526667D01*
X94833334Y-92431429D01*
X94785715Y-92383810D01*
X94690477Y-92336190D01*
X94500000Y-92288571D01*
X94404762Y-92240952D01*
X94357143Y-92193333D01*
X94309524Y-92098095D01*
X94309524Y-92002857D01*
X94357143Y-91907619D01*
X94404762Y-91860000D01*
X94500000Y-91812381D01*
X94738096Y-91812381D01*
X94880953Y-91860000D01*
X95166667Y-91812381D02*
X95738096Y-91812381D01*
X95452381Y-92812381D02*
X95452381Y-91812381D01*
X95833334Y-92907619D02*
X96595239Y-92907619D01*
X97357144Y-92812381D02*
X96785715Y-92812381D01*
X97071429Y-92812381D02*
X97071429Y-91812381D01*
X96976191Y-91955238D01*
X96880953Y-92050476D01*
X96785715Y-92098095D01*
X97785715Y-92812381D02*
X97785715Y-91812381D01*
X98166668Y-91812381D01*
X98261906Y-91860000D01*
X98309525Y-91907619D01*
X98357144Y-92002857D01*
X98357144Y-92145714D01*
X98309525Y-92240952D01*
X98261906Y-92288571D01*
X98166668Y-92336190D01*
X97785715Y-92336190D01*
X135457619Y-72032381D02*
X136029048Y-72032381D01*
X135743333Y-73032381D02*
X135743333Y-72032381D01*
X136362381Y-72508571D02*
X136695715Y-72508571D01*
X136838572Y-73032381D02*
X136362381Y-73032381D01*
X136362381Y-72032381D01*
X136838572Y-72032381D01*
X137219524Y-72984762D02*
X137362381Y-73032381D01*
X137600477Y-73032381D01*
X137695715Y-72984762D01*
X137743334Y-72937143D01*
X137790953Y-72841905D01*
X137790953Y-72746667D01*
X137743334Y-72651429D01*
X137695715Y-72603810D01*
X137600477Y-72556190D01*
X137410000Y-72508571D01*
X137314762Y-72460952D01*
X137267143Y-72413333D01*
X137219524Y-72318095D01*
X137219524Y-72222857D01*
X137267143Y-72127619D01*
X137314762Y-72080000D01*
X137410000Y-72032381D01*
X137648096Y-72032381D01*
X137790953Y-72080000D01*
X138076667Y-72032381D02*
X138648096Y-72032381D01*
X138362381Y-73032381D02*
X138362381Y-72032381D01*
X138743334Y-73127619D02*
X139505239Y-73127619D01*
X140267144Y-73032381D02*
X139695715Y-73032381D01*
X139981429Y-73032381D02*
X139981429Y-72032381D01*
X139886191Y-72175238D01*
X139790953Y-72270476D01*
X139695715Y-72318095D01*
X140695715Y-73032381D02*
X140695715Y-72032381D01*
X141076668Y-72032381D01*
X141171906Y-72080000D01*
X141219525Y-72127619D01*
X141267144Y-72222857D01*
X141267144Y-72365714D01*
X141219525Y-72460952D01*
X141171906Y-72508571D01*
X141076668Y-72556190D01*
X140695715Y-72556190D01*
X135577619Y-84522381D02*
X136149048Y-84522381D01*
X135863333Y-85522381D02*
X135863333Y-84522381D01*
X136482381Y-84998571D02*
X136815715Y-84998571D01*
X136958572Y-85522381D02*
X136482381Y-85522381D01*
X136482381Y-84522381D01*
X136958572Y-84522381D01*
X137339524Y-85474762D02*
X137482381Y-85522381D01*
X137720477Y-85522381D01*
X137815715Y-85474762D01*
X137863334Y-85427143D01*
X137910953Y-85331905D01*
X137910953Y-85236667D01*
X137863334Y-85141429D01*
X137815715Y-85093810D01*
X137720477Y-85046190D01*
X137530000Y-84998571D01*
X137434762Y-84950952D01*
X137387143Y-84903333D01*
X137339524Y-84808095D01*
X137339524Y-84712857D01*
X137387143Y-84617619D01*
X137434762Y-84570000D01*
X137530000Y-84522381D01*
X137768096Y-84522381D01*
X137910953Y-84570000D01*
X138196667Y-84522381D02*
X138768096Y-84522381D01*
X138482381Y-85522381D02*
X138482381Y-84522381D01*
X138863334Y-85617619D02*
X139625239Y-85617619D01*
X140387144Y-85522381D02*
X139815715Y-85522381D01*
X140101429Y-85522381D02*
X140101429Y-84522381D01*
X140006191Y-84665238D01*
X139910953Y-84760476D01*
X139815715Y-84808095D01*
X140815715Y-85522381D02*
X140815715Y-84522381D01*
X141196668Y-84522381D01*
X141291906Y-84570000D01*
X141339525Y-84617619D01*
X141387144Y-84712857D01*
X141387144Y-84855714D01*
X141339525Y-84950952D01*
X141291906Y-84998571D01*
X141196668Y-85046190D01*
X140815715Y-85046190D01*
X170917143Y-120112381D02*
X171012382Y-120112381D01*
X171107620Y-120160000D01*
X171155239Y-120207619D01*
X171202858Y-120302857D01*
X171250477Y-120493333D01*
X171250477Y-120731429D01*
X171202858Y-120921905D01*
X171155239Y-121017143D01*
X171107620Y-121064762D01*
X171012382Y-121112381D01*
X170917143Y-121112381D01*
X170821905Y-121064762D01*
X170774286Y-121017143D01*
X170726667Y-120921905D01*
X170679048Y-120731429D01*
X170679048Y-120493333D01*
X170726667Y-120302857D01*
X170774286Y-120207619D01*
X170821905Y-120160000D01*
X170917143Y-120112381D01*
X171726667Y-121064762D02*
X171726667Y-121112381D01*
X171679048Y-121207619D01*
X171631429Y-121255238D01*
X172679048Y-121112381D02*
X172107619Y-121112381D01*
X172393333Y-121112381D02*
X172393333Y-120112381D01*
X172298095Y-120255238D01*
X172202857Y-120350476D01*
X172107619Y-120398095D01*
X173536191Y-120445714D02*
X173536191Y-121112381D01*
X173107619Y-120445714D02*
X173107619Y-120969524D01*
X173155238Y-121064762D01*
X173250476Y-121112381D01*
X173393334Y-121112381D01*
X173488572Y-121064762D01*
X173536191Y-121017143D01*
X174345715Y-120588571D02*
X174012381Y-120588571D01*
X174012381Y-121112381D02*
X174012381Y-120112381D01*
X174488572Y-120112381D01*
X171917143Y-124517143D02*
X171869524Y-124564762D01*
X171726667Y-124612381D01*
X171631429Y-124612381D01*
X171488571Y-124564762D01*
X171393333Y-124469524D01*
X171345714Y-124374286D01*
X171298095Y-124183810D01*
X171298095Y-124040952D01*
X171345714Y-123850476D01*
X171393333Y-123755238D01*
X171488571Y-123660000D01*
X171631429Y-123612381D01*
X171726667Y-123612381D01*
X171869524Y-123660000D01*
X171917143Y-123707619D01*
X172869524Y-124612381D02*
X172298095Y-124612381D01*
X172583809Y-124612381D02*
X172583809Y-123612381D01*
X172488571Y-123755238D01*
X172393333Y-123850476D01*
X172298095Y-123898095D01*
X173488571Y-123612381D02*
X173583810Y-123612381D01*
X173679048Y-123660000D01*
X173726667Y-123707619D01*
X173774286Y-123802857D01*
X173821905Y-123993333D01*
X173821905Y-124231429D01*
X173774286Y-124421905D01*
X173726667Y-124517143D01*
X173679048Y-124564762D01*
X173583810Y-124612381D01*
X173488571Y-124612381D01*
X173393333Y-124564762D01*
X173345714Y-124517143D01*
X173298095Y-124421905D01*
X173250476Y-124231429D01*
X173250476Y-123993333D01*
X173298095Y-123802857D01*
X173345714Y-123707619D01*
X173393333Y-123660000D01*
X173488571Y-123612381D01*
X174100000Y-128002381D02*
X174100000Y-128716667D01*
X174052380Y-128859524D01*
X173957142Y-128954762D01*
X173814285Y-129002381D01*
X173719047Y-129002381D01*
X174338095Y-129097619D02*
X175100000Y-129097619D01*
X175909524Y-129002381D02*
X175576190Y-128526190D01*
X175338095Y-129002381D02*
X175338095Y-128002381D01*
X175719048Y-128002381D01*
X175814286Y-128050000D01*
X175861905Y-128097619D01*
X175909524Y-128192857D01*
X175909524Y-128335714D01*
X175861905Y-128430952D01*
X175814286Y-128478571D01*
X175719048Y-128526190D01*
X175338095Y-128526190D01*
X176338095Y-128478571D02*
X176671429Y-128478571D01*
X176814286Y-129002381D02*
X176338095Y-129002381D01*
X176338095Y-128002381D01*
X176814286Y-128002381D01*
X177195238Y-128954762D02*
X177338095Y-129002381D01*
X177576191Y-129002381D01*
X177671429Y-128954762D01*
X177719048Y-128907143D01*
X177766667Y-128811905D01*
X177766667Y-128716667D01*
X177719048Y-128621429D01*
X177671429Y-128573810D01*
X177576191Y-128526190D01*
X177385714Y-128478571D01*
X177290476Y-128430952D01*
X177242857Y-128383333D01*
X177195238Y-128288095D01*
X177195238Y-128192857D01*
X177242857Y-128097619D01*
X177290476Y-128050000D01*
X177385714Y-128002381D01*
X177623810Y-128002381D01*
X177766667Y-128050000D01*
X178195238Y-128478571D02*
X178528572Y-128478571D01*
X178671429Y-129002381D02*
X178195238Y-129002381D01*
X178195238Y-128002381D01*
X178671429Y-128002381D01*
X178957143Y-128002381D02*
X179528572Y-128002381D01*
X179242857Y-129002381D02*
X179242857Y-128002381D01*
X175385714Y-124342381D02*
X175385714Y-123342381D01*
X175766667Y-123342381D01*
X175861905Y-123390000D01*
X175909524Y-123437619D01*
X175957143Y-123532857D01*
X175957143Y-123675714D01*
X175909524Y-123770952D01*
X175861905Y-123818571D01*
X175766667Y-123866190D01*
X175385714Y-123866190D01*
X176909524Y-124342381D02*
X176338095Y-124342381D01*
X176623809Y-124342381D02*
X176623809Y-123342381D01*
X176528571Y-123485238D01*
X176433333Y-123580476D01*
X176338095Y-123628095D01*
X177814286Y-123342381D02*
X177338095Y-123342381D01*
X177290476Y-123818571D01*
X177338095Y-123770952D01*
X177433333Y-123723333D01*
X177671429Y-123723333D01*
X177766667Y-123770952D01*
X177814286Y-123818571D01*
X177861905Y-123913810D01*
X177861905Y-124151905D01*
X177814286Y-124247143D01*
X177766667Y-124294762D01*
X177671429Y-124342381D01*
X177433333Y-124342381D01*
X177338095Y-124294762D01*
X177290476Y-124247143D01*
X174385715Y-112912381D02*
X174052381Y-112436190D01*
X173814286Y-112912381D02*
X173814286Y-111912381D01*
X174195239Y-111912381D01*
X174290477Y-111960000D01*
X174338096Y-112007619D01*
X174385715Y-112102857D01*
X174385715Y-112245714D01*
X174338096Y-112340952D01*
X174290477Y-112388571D01*
X174195239Y-112436190D01*
X173814286Y-112436190D01*
X174766667Y-112864762D02*
X174909524Y-112912381D01*
X175147620Y-112912381D01*
X175242858Y-112864762D01*
X175290477Y-112817143D01*
X175338096Y-112721905D01*
X175338096Y-112626667D01*
X175290477Y-112531429D01*
X175242858Y-112483810D01*
X175147620Y-112436190D01*
X174957143Y-112388571D01*
X174861905Y-112340952D01*
X174814286Y-112293333D01*
X174766667Y-112198095D01*
X174766667Y-112102857D01*
X174814286Y-112007619D01*
X174861905Y-111960000D01*
X174957143Y-111912381D01*
X175195239Y-111912381D01*
X175338096Y-111960000D01*
X175766667Y-112531429D02*
X176528572Y-112531429D01*
X176957143Y-112007619D02*
X177004762Y-111960000D01*
X177100000Y-111912381D01*
X177338096Y-111912381D01*
X177433334Y-111960000D01*
X177480953Y-112007619D01*
X177528572Y-112102857D01*
X177528572Y-112198095D01*
X177480953Y-112340952D01*
X176909524Y-112912381D01*
X177528572Y-112912381D01*
X177861905Y-111912381D02*
X178480953Y-111912381D01*
X178147619Y-112293333D01*
X178290477Y-112293333D01*
X178385715Y-112340952D01*
X178433334Y-112388571D01*
X178480953Y-112483810D01*
X178480953Y-112721905D01*
X178433334Y-112817143D01*
X178385715Y-112864762D01*
X178290477Y-112912381D01*
X178004762Y-112912381D01*
X177909524Y-112864762D01*
X177861905Y-112817143D01*
X178861905Y-112007619D02*
X178909524Y-111960000D01*
X179004762Y-111912381D01*
X179242858Y-111912381D01*
X179338096Y-111960000D01*
X179385715Y-112007619D01*
X179433334Y-112102857D01*
X179433334Y-112198095D01*
X179385715Y-112340952D01*
X178814286Y-112912381D01*
X179433334Y-112912381D01*
X175861905Y-125192381D02*
X175861905Y-124192381D01*
X176242858Y-124192381D01*
X176338096Y-124240000D01*
X176385715Y-124287619D01*
X176433334Y-124382857D01*
X176433334Y-124525714D01*
X176385715Y-124620952D01*
X176338096Y-124668571D01*
X176242858Y-124716190D01*
X175861905Y-124716190D01*
X177338096Y-124192381D02*
X176861905Y-124192381D01*
X176814286Y-124668571D01*
X176861905Y-124620952D01*
X176957143Y-124573333D01*
X177195239Y-124573333D01*
X177290477Y-124620952D01*
X177338096Y-124668571D01*
X177385715Y-124763810D01*
X177385715Y-125001905D01*
X177338096Y-125097143D01*
X177290477Y-125144762D01*
X177195239Y-125192381D01*
X176957143Y-125192381D01*
X176861905Y-125144762D01*
X176814286Y-125097143D01*
M02*
